ply
format ascii 1.0
comment Bo generated PLY file
obj_info bo::Mesh class dump
element vertex 36
property float x
property float y
property float z
element face 34
property list uchar uint vertex_indices
end_header
0.457553 -60.8431 -178.206 
0.66876 -61.0064 -177.2 
5.2342 -59.0816 -178.383 
5.51851 -59.4834 -177.364 
9.84297 -56.9478 -177.579 
9.67509 -56.5754 -178.597 
13.9048 -53.9059 -177.818 
13.7369 -53.5336 -178.837 
17.9601 -50.6731 -178.5 
18.213 -51.143 -177.468 
22.7762 -49.2522 -178.66 
22.9264 -49.4513 -177.647 
27.8667 -49.0792 -178.342 
28.0062 -49.3629 -177.629 
32.9151 -49.5982 -178.189 
33.0372 -49.0654 -177.215 
37.6722 -47.2973 -178.197 
37.8309 -47.339 -177.19 
42.2132 -45.101 -178.204 
42.3719 -45.1427 -177.197 
46.1979 -41.871 -178.28 
46.5082 -42.1946 -177.255 
49.2949 -38.0045 -177.413 
49.5687 -37.7536 -178.42 
-16.7504 -43.9562 -178.9 
-16.4877 -44.4625 -177.875 
-13.9506 -48.183 -178.702 
-13.6879 -48.6893 -177.678 
-11.0343 -52.4393 -178.505 
-10.75 -52.841 -177.486 
-7.93663 -56.4115 -178.326 
-7.65231 -56.8133 -177.308 
-4.58442 -60.3381 -178.154 
-4.39487 -60.606 -177.142 
0.457553 -60.8431 -178.206 
0.66876 -61.0064 -177.2 
3 0 2 1 
3 2 3 1 
3 2 4 3 
3 2 5 4 
3 5 6 4 
3 5 7 6 
3 7 8 6 
3 8 9 6 
3 8 10 9 
3 10 11 9 
3 10 12 11 
3 12 13 11 
3 12 14 13 
3 14 15 13 
3 14 16 15 
3 16 17 15 
3 16 18 17 
3 18 19 17 
3 18 20 19 
3 20 21 19 
3 20 22 21 
3 20 23 22 
3 23 24 22 
3 24 25 22 
3 24 26 25 
3 26 27 25 
3 26 28 27 
3 28 29 27 
3 28 30 29 
3 30 31 29 
3 30 32 31 
3 32 33 31 
3 32 34 33 
3 34 35 33 
