ply
format ascii 1.0
comment Bo generated PLY file
obj_info bo::Mesh class dump
element vertex 36
property float x
property float y
property float z
element face 34
property list uchar uint vertex_indices
end_header
27.7656 -48.8913 -179.355 
27.8667 -49.0792 -178.342 
22.7762 -49.2522 -178.66 
22.5952 -48.842 -179.685 
17.9601 -50.6731 -178.5 
17.7073 -50.2033 -179.532 
13.4011 -52.7889 -179.874 
13.7369 -53.5336 -178.837 
9.29596 -55.7681 -179.335 
9.67509 -56.5754 -178.597 
4.92836 -58.2487 -179.208 
5.2342 -59.0816 -178.383 
0.333001 -60.2617 -179.237 
0.457553 -60.8431 -178.206 
-4.58442 -60.3381 -178.154 
-4.67919 -60.2042 -179.161 
-7.93663 -56.4115 -178.326 
-7.91496 -56.307 -179.333 
-11.0343 -52.4393 -178.505 
-11.0126 -52.3348 -179.511 
-13.9506 -48.183 -178.702 
-13.8125 -48.108 -179.709 
-16.7504 -43.9562 -178.9 
-16.6123 -43.8811 -179.907 
48.9706 -38.1614 -179.413 
49.5687 -37.7536 -178.42 
46.1979 -41.871 -178.28 
45.7148 -41.9862 -179.286 
42.2132 -45.101 -178.204 
41.7301 -45.2162 -179.209 
37.6722 -47.2973 -178.197 
37.3915 -47.7884 -179.177 
32.9151 -49.5982 -178.189 
32.7424 -50.037 -179.17 
27.8667 -49.0792 -178.342 
27.7656 -48.8913 -179.355 
3 0 2 1 
3 0 3 2 
3 3 4 2 
3 3 5 4 
3 5 6 4 
3 6 7 4 
3 6 8 7 
3 8 9 7 
3 8 10 9 
3 10 11 9 
3 10 12 11 
3 12 13 11 
3 12 14 13 
3 12 15 14 
3 15 16 14 
3 15 17 16 
3 17 18 16 
3 17 19 18 
3 19 20 18 
3 19 21 20 
3 21 22 20 
3 21 23 22 
3 23 24 22 
3 24 25 22 
3 24 26 25 
3 24 27 26 
3 27 28 26 
3 27 29 28 
3 29 30 28 
3 29 31 30 
3 31 32 30 
3 31 33 32 
3 33 34 32 
3 33 35 34 
