ply
format ascii 1.0
comment VCGLIB generated
element vertex 851
property float x
property float y
property float z
element face 0
property list uchar int vertex_indices
end_header
2.17234 -2.9292 -0.0227585 
2.28045 -2.8769 -0.0227585 
2.38855 -2.8246 -0.0227585 
2.49665 -2.7723 -0.0227585 
2.60474 -2.72 -0.0227585 
2.66235 -2.5738 -0.0297546 
2.77045 -2.5215 -0.0297546 
2.87855 -2.4692 -0.0297546 
2.98664 -2.4169 -0.0297546 
3.09475 -2.3646 -0.0307541 
3.20295 -2.3123 -0.0307541 
3.31105 -2.26 -0.0307541 
3.41915 -2.2077 -0.0307541 
3.52724 -2.1554 -0.0307541 
3.63535 -2.1031 -0.0307541 
3.74355 -2.0509 -0.0317535 
3.85165 -1.9986 -0.0317535 
3.95975 -1.9463 -0.0317535 
4.06784 -1.894 -0.0317535 
4.17595 -1.84171 -0.0317535 
4.28405 -1.78941 -0.0317535 
4.39225 -1.73711 -0.0327606 
4.50035 -1.6848 -0.0327606 
4.60844 -1.6325 -0.0327606 
4.71655 -1.5802 -0.0327606 
4.82465 -1.5279 -0.0327606 
4.93275 -1.4756 -0.0327606 
5.04095 -1.4233 -0.0337601 
5.14904 -1.371 -0.0337601 
5.25714 -1.3187 -0.0337601 
5.36525 -1.2665 -0.0337601 
5.47335 -1.2142 -0.0337601 
5.58145 -1.1619 -0.0337601 
5.68965 -1.1096 -0.0347595 
5.79774 -1.0573 -0.0347595 
5.95645 -1.099 -0.0287552 
6.06454 -1.0467 -0.0287552 
6.17265 -0.9944 -0.0287552 
6.33134 -1.0361 -0.0227585 
6.43945 -0.983803 -0.0227585 
6.54755 -0.931503 -0.0227585 
6.70625 -0.973099 -0.0167542 
6.86494 -1.0148 -0.0107574 
6.97305 -0.962502 -0.0107574 
7.13174 -1.0042 -0.00475311 
7.23985 -0.951904 -0.00475311 
7.39854 -0.993599 0.00124359 
7.50665 -0.941299 0.00124359 
7.61475 -0.889 0.00124359 
7.77345 -0.930702 0.0072403 
7.88155 -0.878403 0.0072403 
7.98975 -0.826103 0.0072403 
8.09785 -0.773804 0.0072403 
8.20594 -0.721504 0.00624084 
8.31404 -0.669205 0.00624084 
8.42215 -0.616905 0.00624084 
8.53025 -0.564606 0.00624084 
8.63845 -0.512306 0.00624084 
8.74654 -0.459999 0.00624084 
8.85464 -0.407799 0.00524139 
9.01335 -0.449402 0.0122452 
9.12144 -0.397102 0.0112457 
9.22955 -0.344803 0.0112457 
9.33765 -0.292503 0.0112457 
9.44585 -0.240303 0.0112457 
9.55395 -0.188004 0.0112457 
9.66204 -0.135704 0.0112457 
9.82075 -0.177299 0.0172424 
9.92884 -0.125099 0.0172424 
10.0369 -0.0727997 0.016243 
10.145 -0.0205002 0.016243 
10.2531 0.0317993 0.016243 
10.3613 0.0840988 0.016243 
10.4694 0.136398 0.016243 
10.5775 0.188698 0.016243 
10.6856 0.240997 0.0152435 
10.7937 0.293297 0.0152435 
10.9018 0.345596 0.0152435 
11.01 0.397896 0.0152435 
11.1181 0.450195 0.0152435 
11.2262 0.502495 0.0152435 
11.3343 0.554794 0.0142441 
11.4424 0.606995 0.0142441 
11.5506 0.659294 0.0142441 
11.6587 0.711594 0.0142441 
11.7668 0.763901 0.0142441 
11.8749 0.8162 0.0142441 
11.983 0.8685 0.0132446 
12.0911 0.920799 0.0132446 
12.1993 0.973099 0.0132446 
12.3579 0.931396 0.0192413 
12.4661 0.983696 0.0192413 
12.5742 1.036 0.0192413 
12.6823 1.08829 0.0192413 
12.841 1.0466 0.0252457 
12.9491 1.0989 0.0252457 
13.0572 1.1512 0.0252457 
13.1653 1.2035 0.0242462 
13.324 1.1618 0.0312424 
13.4321 1.2141 0.0302429 
13.5403 1.2664 0.0302429 
13.6484 1.3187 0.0302429 
13.8071 1.277 0.0362396 
13.9152 1.3293 0.0362396 
14.0233 1.3816 0.0362396 
14.182 1.3399 0.042244 
14.2901 1.3922 0.042244 
14.4488 1.3506 0.0482407 
14.5569 1.40279 0.0482407 
14.7156 1.3612 0.054245 
14.8743 1.3195 0.0602417 
14.9824 1.3718 0.0602417 
15.0905 1.4241 0.0602417 
15.2492 1.3824 0.066246 
15.3573 1.4347 0.066246 
15.516 1.393 0.0722427 
15.6241 1.4453 0.0722427 
15.7322 1.4976 0.0722427 
15.8909 1.45589 0.0782394 
15.999 1.50819 0.0782394 
16.1072 1.5605 0.0782394 
16.2658 1.5188 0.0842438 
16.374 1.5711 0.0842438 
16.4821 1.6234 0.0832443 
16.6408 1.5817 0.0902405 
16.7489 1.634 0.089241 
16.9076 1.5924 0.0962448 
17.0157 1.6447 0.0952454 
17.1238 1.6969 0.0952454 
17.2825 1.6553 0.101242 
17.3906 1.7076 0.101242 
17.5493 1.6659 0.107246 
17.6574 1.7182 0.107246 
17.7655 1.7705 0.107246 
17.9242 1.7288 0.113243 
18.0323 1.7811 0.113243 
18.1404 1.8334 0.113243 
18.2991 1.79169 0.11924 
18.4073 1.84399 0.11924 
18.5154 1.89629 0.11924 
18.6235 1.9486 0.11924 
18.7316 2.0009 0.11824 
18.8903 1.9592 0.125244 
18.9984 2.0115 0.125244 
19.1065 2.0638 0.124245 
19.2652 2.02209 0.131241 
19.3733 2.07439 0.130241 
19.532 2.0327 0.137245 
19.6401 2.085 0.136246 
19.7483 2.1373 0.136246 
19.9069 2.0956 0.142242 
20.0151 2.1479 0.142242 
20.1232 2.2002 0.142242 
20.2313 2.25249 0.142242 
20.39 2.2108 0.148247 
20.4981 2.2631 0.148247 
20.6062 2.3154 0.148247 
20.7143 2.3677 0.148247 
20.8224 2.42 0.14724 
20.9306 2.4723 0.14724 
21.0387 2.5246 0.14724 
21.1468 2.5769 0.14724 
21.2549 2.6292 0.14724 
21.363 2.6815 0.14724 
21.5217 2.6398 0.153244 
21.6298 2.6921 0.153244 
21.738 2.7444 0.152245 
21.8461 2.7967 0.152245 
21.9542 2.849 0.152245 
22.0623 2.9013 0.152245 
22.221 2.8596 0.158241 
22.3291 2.9119 0.158241 
22.4372 2.9642 0.158241 
22.5453 3.01649 0.158241 
22.704 2.9748 0.164246 
22.8121 3.0271 0.164246 
22.9203 3.0794 0.163246 
23.079 3.0377 0.170242 
23.1871 3.09 0.169243 
23.3458 3.04829 0.176247 
23.4539 3.1006 0.17524 
23.562 3.1529 0.17524 
23.7207 3.1112 0.181244 
23.8288 3.1635 0.181244 
23.9369 3.2158 0.181244 
24.045 3.2681 0.181244 
24.1531 3.3204 0.181244 
24.2613 3.3727 0.181244 
24.3694 3.425 0.180244 
24.4775 3.47729 0.180244 
24.5856 3.52959 0.180244 
24.6937 3.58189 0.180244 
24.8019 3.6342 0.180244 
24.91 3.68639 0.180244 
25.0181 3.7387 0.179245 
25.1262 3.791 0.179245 
25.1838 3.93729 0.173241 
25.2919 3.9896 0.173241 
25.4 4.0419 0.172241 
25.5081 4.0942 0.172241 
25.6162 4.1465 0.172241 
25.7243 4.1988 0.172241 
25.7819 4.345 0.165245 
25.89 4.3973 0.165245 
25.9981 4.4496 0.165245 
26.0557 4.59589 0.159241 
26.1638 4.6482 0.158241 
26.2719 4.7005 0.158241 
26.38 4.7527 0.158241 
26.4881 4.805 0.158241 
26.5963 4.8573 0.158241 
26.6538 5.0036 0.151245 
26.7619 5.0559 0.151245 
26.87 5.1082 0.151245 
26.9782 5.1605 0.151245 
27.0863 5.2128 0.151245 
27.1944 5.2651 0.150246 
27.3025 5.3174 0.150246 
27.4106 5.3696 0.150246 
27.5187 5.4219 0.150246 
27.5763 5.5682 0.143242 
27.6844 5.6205 0.143242 
27.7925 5.6728 0.143242 
27.9006 5.7251 0.143242 
28.0088 5.7774 0.143242 
28.1169 5.8297 0.143242 
28.1744 5.9759 0.136246 
28.2826 6.0282 0.136246 
28.3907 6.0805 0.136246 
28.4988 6.1328 0.136246 
28.5563 6.2791 0.129242 
28.6644 6.3314 0.129242 
28.7726 6.3837 0.129242 
28.8301 6.5299 0.122246 
28.9382 6.5822 0.122246 
28.9958 6.7285 0.115242 
29.1039 6.7808 0.115242 
29.1614 6.92699 0.109245 
29.2696 6.97929 0.109245 
29.3271 7.1256 0.102242 
29.3847 7.2718 0.0962448 
29.4928 7.3241 0.0952454 
29.5503 7.4704 0.089241 
29.6079 7.6167 0.0822449 
29.6654 7.76289 0.0762405 
29.723 7.90919 0.0692444 
29.8311 7.96149 0.0692444 
29.8886 8.1077 0.0632401 
29.9462 8.254 0.0562439 
30.0543 8.3063 0.0562439 
30.1119 8.4526 0.0502396 
30.22 8.5049 0.0492401 
30.2775 8.6511 0.0432434 
30.3856 8.7034 0.0432434 
30.4432 8.8497 0.0362396 
30.5513 8.902 0.0362396 
30.6594 8.9543 0.0362396 
30.717 9.10049 0.0292435 
30.8251 9.15279 0.0292435 
30.8826 9.2991 0.0232468 
30.9908 9.35139 0.0232468 
31.0989 9.40369 0.0222397 
31.1564 9.5499 0.016243 
31.2645 9.6022 0.016243 
31.3727 9.6545 0.016243 
31.4302 9.8008 0.00924683 
31.5383 9.8531 0.00924683 
31.5959 9.9993 0.00224304 
31.704 10.0516 0.00224304 
31.7615 10.1979 -0.00375366 
31.8191 10.3442 -0.0107574 
31.8766 10.4904 -0.0167542 
31.9342 10.6367 -0.0237579 
31.9412 10.8769 -0.0367584 
31.9987 11.0232 -0.0427551 
32.0057 11.2634 -0.0557556 
32.0127 11.5036 -0.0687561 
32.0702 11.6499 -0.0747604 
32.0772 11.8901 -0.0877533 
32.1348 12.0364 -0.0947571 
32.1923 12.1827 -0.100754 
32.2498 12.3289 -0.107758 
32.358 12.3812 -0.107758 
32.4155 12.5275 -0.113754 
32.5236 12.5798 -0.114754 
32.6317 12.6321 -0.114754 
32.6893 12.7783 -0.120758 
32.7974 12.8306 -0.120758 
32.855 12.9769 -0.127754 
32.9631 13.0292 -0.127754 
33.0206 13.1754 -0.134758 
-16.0276 -12.807 0.370247 
-15.9081 -12.795 0.370247 
-15.7886 -12.783 0.370247 
-15.6691 -12.771 0.370247 
-15.5496 -12.759 0.370247 
-15.4301 -12.747 0.36924 
-15.3107 -12.734 0.36924 
-15.1912 -12.722 0.36924 
-15.0717 -12.71 0.36924 
-14.9522 -12.698 0.36924 
-14.8327 -12.686 0.36924 
-14.7132 -12.674 0.36824 
-14.5938 -12.661 0.36824 
-14.4743 -12.649 0.36824 
-14.3548 -12.637 0.36824 
-14.2353 -12.625 0.36824 
-14.1158 -12.613 0.36824 
-14.0117 -12.495 0.361244 
-13.8922 -12.483 0.361244 
-13.7881 -12.365 0.35424 
-13.684 -12.247 0.348244 
-13.5799 -12.13 0.34124 
-13.4605 -12.117 0.34124 
-13.3563 -12 0.335243 
-13.2522 -11.882 0.328239 
-13.1328 -11.87 0.328239 
-13.0287 -11.752 0.321243 
-12.9092 -11.74 0.321243 
-12.8051 -11.622 0.315247 
-12.6856 -11.61 0.315247 
-12.5815 -11.492 0.308243 
-12.462 -11.48 0.308243 
-12.3425 -11.468 0.308243 
-12.2384 -11.35 0.301247 
-12.1189 -11.338 0.301247 
-11.9995 -11.326 0.301247 
-11.88 -11.314 0.301247 
-11.7605 -11.301 0.301247 
-11.6564 -11.184 0.294243 
-11.5369 -11.171 0.294243 
-11.4174 -11.159 0.294243 
-11.3133 -11.042 0.287247 
-11.1939 -11.029 0.287247 
-11.0897 -10.912 0.281242 
-10.9703 -10.899 0.280243 
-10.8662 -10.782 0.274246 
-10.7621 -10.664 0.267242 
-10.6426 -10.652 0.267242 
-10.5231 -10.64 0.267242 
-10.419 -10.522 0.261246 
-10.2995 -10.51 0.260246 
-10.1954 -10.392 0.254242 
-10.0759 -10.38 0.254242 
-9.95636 -10.368 0.254242 
-9.85225 -10.25 0.247246 
-9.73275 -10.238 0.247246 
-9.61335 -10.226 0.247246 
-9.50925 -10.108 0.240242 
-9.38975 -10.096 0.240242 
-9.28566 -9.978 0.234245 
-9.18155 -9.86 0.227242 
-9.06205 -9.848 0.227242 
-8.95795 -9.73 0.220245 
-8.83845 -9.718 0.220245 
-8.71895 -9.706 0.220245 
-8.61486 -9.58801 0.214241 
-8.49536 -9.576 0.213242 
-8.37596 -9.564 0.213242 
-8.27185 -9.446 0.207245 
-8.15236 -9.43401 0.207245 
-8.04825 -9.316 0.200241 
-7.92875 -9.304 0.200241 
-7.80925 -9.292 0.200241 
-7.70515 -9.174 0.193245 
-7.60106 -9.056 0.187241 
-7.48156 -9.04401 0.187241 
-7.37745 -8.926 0.180244 
-7.27336 -8.80901 0.17424 
-7.15385 -8.79601 0.173241 
-7.04976 -8.679 0.167244 
-6.94565 -8.561 0.16024 
-6.84166 -8.443 0.154243 
-6.72216 -8.431 0.154243 
-6.61805 -8.313 0.14724 
-6.51396 -8.195 0.141243 
-6.40985 -8.078 0.134247 
-6.29036 -8.066 0.134247 
-6.18625 -7.94801 0.127243 
-6.08216 -7.83 0.121246 
-5.96266 -7.818 0.121246 
-5.85855 -7.7 0.114243 
-5.73906 -7.688 0.114243 
-5.63495 -7.57 0.108246 
-5.51545 -7.55801 0.107246 
-5.41136 -7.44 0.101242 
-5.29185 -7.428 0.101242 
-5.17245 -7.416 0.101242 
-5.05295 -7.404 0.100243 
-4.94886 -7.286 0.0942459 
-4.82936 -7.274 0.0942459 
-4.70986 -7.262 0.0942459 
-4.59035 -7.25 0.0932465 
-4.48626 -7.132 0.0872421 
-4.36676 -7.12 0.0872421 
-4.26265 -7.002 0.080246 
-4.14325 -6.99001 0.080246 
-4.03916 -6.872 0.0742416 
-3.91965 -6.86 0.0732422 
-3.81556 -6.742 0.0672455 
-3.71145 -6.624 0.0602417 
-3.59195 -6.612 0.0602417 
-3.48786 -6.494 0.054245 
-3.38375 -6.377 0.0472412 
-3.26426 -6.36401 0.0472412 
-3.14476 -6.35201 0.0472412 
-3.04065 -6.234 0.0402451 
-2.92115 -6.222 0.0402451 
-2.80165 -6.21 0.0402451 
-2.69755 -6.092 0.0342407 
-2.57815 -6.08 0.0332413 
-2.45865 -6.068 0.0332413 
-2.35456 -5.95 0.0272446 
-2.23506 -5.938 0.0272446 
-2.13095 -5.82 0.0202408 
-2.01146 -5.80801 0.0202408 
-1.90735 -5.69 0.0132446 
-1.78785 -5.678 0.0132446 
-1.68376 -5.561 0.0072403 
-1.57965 -5.443 0.000244141 
-1.46016 -5.431 0.000244141 
-1.35605 -5.313 -0.00576019 
-1.23655 -5.301 -0.00675964 
-1.13246 -5.18301 -0.0127563 
-1.02835 -5.065 -0.0197601 
-0.908955 -5.053 -0.0197601 
-0.804855 -4.93501 -0.0257568 
-0.700756 -4.8175 -0.0327606 
-0.581253 -4.80531 -0.0327606 
-0.477154 -4.6876 -0.0387573 
-0.373055 -4.5698 -0.0457535 
-0.268955 -4.452 -0.0517578 
-0.149456 -4.4399 -0.0527573 
-0.0453529 -4.32211 -0.058754 
0.0587463 -4.2044 -0.0657578 
0.162846 -4.0866 -0.0717545 
0.266945 -3.9688 -0.0787582 
0.386444 -3.9567 -0.0787582 
0.490547 -3.83891 -0.0847549 
0.594646 -3.7212 -0.0917587 
0.698746 -3.6034 -0.0977554 
0.818245 -3.5912 -0.0987549 
0.922344 -3.4735 -0.104759 
1.02645 -3.35571 -0.111755 
1.14595 -3.34361 -0.111755 
1.26545 -3.33141 -0.111755 
1.36954 -3.2136 -0.11776 
1.48904 -3.2015 -0.118759 
1.59315 -3.0837 -0.124756 
1.71255 -3.0716 -0.124756 
1.81675 -2.9538 -0.13176 
1.92085 -2.83611 -0.137756 
2.04025 -2.82391 -0.137756 
2.14434 -2.7061 -0.14476 
2.24845 -2.5884 -0.150757 
2.35255 -2.4706 -0.157761 
2.45665 -2.35291 -0.163757 
2.57615 -2.34071 -0.164757 
2.68024 -2.2229 -0.170753 
2.78435 -2.1052 -0.177757 
2.90385 -2.093 -0.177757 
3.02335 -2.0808 -0.177757 
3.12745 -1.9631 -0.183754 
3.24694 -1.9509 -0.184753 
3.36645 -1.9388 -0.184753 
3.47055 -1.821 -0.190758 
3.59005 -1.8088 -0.190758 
3.70945 -1.7967 -0.191757 
3.81355 -1.6789 -0.197754 
3.93304 -1.6668 -0.197754 
4.05255 -1.6546 -0.197754 
4.15665 -1.5369 -0.204758 
4.27615 -1.5247 -0.204758 
4.38025 -1.40691 -0.211754 
4.49974 -1.39481 -0.211754 
4.61925 -1.3826 -0.211754 
4.72335 -1.2648 -0.217758 
4.84275 -1.2527 -0.218758 
4.96225 -1.2405 -0.218758 
5.08175 -1.2284 -0.218758 
5.18584 -1.1106 -0.224754 
5.30535 -1.0984 -0.225754 
5.42485 -1.0863 -0.225754 
5.54435 -1.0741 -0.225754 
5.66375 -1.062 -0.225754 
5.78325 -1.0498 -0.225754 
5.90274 -1.03761 -0.225754 
6.02225 -1.02551 -0.226753 
6.14175 -1.01331 -0.226753 
6.26125 -1.00121 -0.226753 
6.38065 -0.989006 -0.226753 
6.50014 -0.976799 -0.226753 
6.61964 -0.964699 -0.226753 
6.73915 -0.952499 -0.22776 
6.85865 -0.9403 -0.22776 
6.97805 -0.9282 -0.22776 
7.09755 -0.916 -0.22776 
7.21704 -0.9039 -0.22776 
7.33654 -0.891701 -0.22776 
7.45605 -0.879501 -0.22876 
7.57555 -0.867401 -0.22876 
7.69495 -0.855202 -0.22876 
7.81445 -0.843102 -0.22876 
7.91854 -0.725304 -0.235756 
8.03804 -0.713104 -0.235756 
8.15755 -0.701004 -0.235756 
8.27705 -0.688805 -0.235756 
8.39655 -0.676704 -0.235756 
8.51595 -0.664505 -0.235756 
8.63544 -0.652306 -0.236755 
8.75495 -0.640205 -0.236755 
8.85905 -0.5224 -0.24276 
8.97855 -0.5103 -0.24276 
9.09805 -0.4981 -0.243759 
9.21754 -0.485901 -0.243759 
9.33694 -0.473801 -0.243759 
9.45645 -0.461601 -0.243759 
9.57595 -0.449501 -0.243759 
9.68005 -0.331703 -0.250755 
9.79955 -0.319504 -0.250755 
9.91904 -0.307404 -0.250755 
10.0384 -0.295204 -0.250755 
10.1579 -0.283104 -0.250755 
10.2774 -0.270905 -0.251755 
10.3969 -0.258705 -0.251755 
10.5164 -0.246605 -0.251755 
10.6359 -0.234406 -0.251755 
10.7553 -0.222206 -0.251755 
10.8748 -0.210106 -0.251755 
10.9943 -0.197899 -0.252754 
11.1138 -0.185806 -0.252754 
11.2333 -0.173599 -0.252754 
11.3528 -0.1614 -0.252754 
11.4569 -0.0437012 -0.259758 
11.5763 -0.0315018 -0.259758 
11.6804 0.0861969 -0.265755 
11.7999 0.0983963 -0.265755 
11.904 0.216194 -0.272758 
12.0235 0.228294 -0.272758 
12.143 0.240494 -0.272758 
12.2471 0.3582 -0.279755 
12.3666 0.370399 -0.279755 
12.4707 0.488197 -0.286758 
12.5902 0.500298 -0.286758 
12.7096 0.512497 -0.286758 
12.8138 0.630196 -0.292755 
12.9332 0.642395 -0.293755 
13.0527 0.654594 -0.293755 
13.1568 0.772301 -0.299759 
13.2763 0.7845 -0.299759 
13.3958 0.7966 -0.300758 
13.4999 0.914398 -0.306755 
13.6194 0.926598 -0.306755 
13.7389 0.938698 -0.306755 
13.8583 0.950897 -0.307755 
13.9778 0.962997 -0.307755 
14.0973 0.975197 -0.307755 
14.2168 0.987396 -0.307755 
14.3363 0.999496 -0.307755 
14.4711 0.906097 -0.301758 
14.5906 0.918198 -0.301758 
14.7101 0.930397 -0.301758 
14.8296 0.942596 -0.302757 
14.9491 0.954697 -0.302757 
15.0685 0.966896 -0.302757 
15.188 0.979095 -0.302757 
15.3075 0.991196 -0.302757 
15.427 1.0034 -0.302757 
15.5465 1.0155 -0.303757 
15.6659 1.02769 -0.303757 
15.7854 1.03989 -0.303757 
15.9049 1.05199 -0.303757 
16.0244 1.06419 -0.303757 
16.1439 1.07629 -0.303757 
16.2634 1.0885 -0.304756 
16.3828 1.1007 -0.304756 
16.5023 1.1128 -0.304756 
16.6218 1.125 -0.304756 
16.7413 1.1371 -0.304756 
16.8608 1.1493 -0.304756 
16.9803 1.1615 -0.305756 
17.0997 1.1736 -0.305756 
-33.8547 5.7155 -0.549759 
-33.7383 5.6861 -0.549759 
-33.6435 5.5521 -0.543755 
-33.5271 5.5227 -0.543755 
-33.4323 5.38879 -0.537758 
-33.3375 5.2548 -0.530754 
-33.2644 5.0164 -0.518753 
-33.1696 4.8825 -0.512756 
-33.0749 4.7486 -0.50676 
-33.0018 4.5102 -0.493759 
-32.907 4.3762 -0.487755 
-32.8122 4.24229 -0.481758 
-32.7174 4.1084 -0.475754 
-32.6443 3.8699 -0.462753 
-32.5496 3.736 -0.456757 
-32.4548 3.6021 -0.45076 
-32.36 3.4682 -0.443756 
-32.2653 3.3342 -0.437759 
-32.1705 3.20029 -0.431755 
-32.0757 3.0664 -0.425758 
-31.9809 2.9324 -0.419754 
-31.8862 2.7985 -0.413757 
-31.7914 2.6646 -0.406754 
-31.6966 2.5307 -0.400757 
-31.6018 2.3967 -0.39476 
-31.5071 2.26279 -0.388756 
-31.4123 2.1289 -0.382759 
-31.3175 1.995 -0.376755 
-31.2228 1.861 -0.369759 
-31.128 1.7271 -0.363754 
-31.0332 1.5932 -0.357758 
-30.9385 1.4592 -0.351753 
-30.8437 1.32529 -0.345757 
-30.7489 1.1914 -0.33976 
-30.6758 0.952995 -0.326759 
-30.581 0.819 -0.320755 
-30.4863 0.685097 -0.314758 
-30.3915 0.551201 -0.308754 
-30.2967 0.417297 -0.301758 
-30.2019 0.283295 -0.295753 
-30.1072 0.149399 -0.289757 
-29.9907 0.119995 -0.289757 
-29.896 -0.0139999 -0.28376 
-29.7795 -0.0434036 -0.28376 
-29.6848 -0.177299 -0.277756 
-29.5683 -0.206802 -0.277756 
-29.4736 -0.340706 -0.271759 
-29.3788 -0.474602 -0.265755 
-29.284 -0.608604 -0.259758 
-29.2109 -0.847 -0.246758 
-29.1161 -0.980904 -0.240753 
-29.043 -1.2193 -0.22776 
-28.9483 -1.3532 -0.221756 
-28.8751 -1.59171 -0.209755 
-28.802 -1.8301 -0.196754 
-28.7073 -1.964 -0.190758 
-28.6125 -2.0979 -0.184753 
-28.5177 -2.2319 -0.178757 
-28.423 -2.3658 -0.17276 
-28.3282 -2.4997 -0.165756 
-28.2334 -2.63371 -0.15976 
-28.1386 -2.7676 -0.153755 
-28.0222 -2.797 -0.153755 
-27.9274 -2.9309 -0.147758 
-27.811 -2.9604 -0.147758 
-27.7162 -3.0943 -0.141754 
-27.5998 -3.1237 -0.141754 
-27.505 -3.25771 -0.135757 
-27.4102 -3.3916 -0.129753 
-27.2938 -3.42101 -0.129753 
-27.199 -3.555 -0.123756 
-27.1043 -3.6889 -0.11776 
-27.0095 -3.8228 -0.111755 
-26.9147 -3.9568 -0.104759 
-26.8416 -4.19521 -0.0927582 
-26.7468 -4.3291 -0.0867538 
-26.652 -4.46301 -0.0807571 
-26.5573 -4.597 -0.0737534 
-26.4625 -4.7309 -0.0677567 
-26.3677 -4.8648 -0.0617599 
-26.2513 -4.8942 -0.0617599 
-26.1565 -5.028 -0.0557556 
-26.0401 -5.05801 -0.0557556 
-25.9236 -5.08701 -0.0557556 
-25.8072 -5.117 -0.0557556 
-25.6908 -5.146 -0.0567551 
-25.5743 -5.175 -0.0567551 
-25.4796 -5.30901 -0.0507584 
-25.3848 -5.443 -0.0437546 
-25.3117 -5.682 -0.0317535 
-25.2169 -5.816 -0.0257568 
-25.1438 -6.054 -0.0127563 
-25.0707 -6.292 -0.00075531 
-24.9976 -6.53101 0.0122452 
-24.9245 -6.769 0.0242462 
-24.8297 -6.903 0.0302429 
-24.735 -7.037 0.0372467 
-24.6402 -7.17101 0.0432434 
-24.5237 -7.201 0.0432434 
-24.4073 -7.23 0.042244 
-24.2909 -7.259 0.042244 
-24.1744 -7.289 0.042244 
-24.0797 -7.423 0.0482407 
-23.9632 -7.452 0.0482407 
-23.8685 -7.58601 0.054245 
-23.752 -7.616 0.054245 
-23.6572 -7.749 0.0602417 
-23.5625 -7.883 0.066246 
-23.4894 -8.122 0.0792465 
-23.3946 -8.256 0.0852432 
-23.2998 -8.39 0.0912399 
-23.2051 -8.524 0.0972443 
-23.1103 -8.658 0.10424 
-23.0155 -8.791 0.110245 
-22.9207 -8.925 0.116241 
-22.826 -9.05901 0.122246 
-22.7312 -9.193 0.128242 
-22.6148 -9.223 0.128242 
-22.52 -9.357 0.134247 
-22.4252 -9.491 0.141243 
-22.3304 -9.624 0.14724 
-22.214 -9.654 0.14724 
-22.1192 -9.788 0.153244 
-22.0245 -9.922 0.159241 
-21.908 -9.951 0.159241 
-21.8133 -10.085 0.165245 
-21.7185 -10.219 0.171242 
-21.6021 -10.249 0.171242 
-21.4856 -10.278 0.171242 
-21.3909 -10.412 0.177246 
-21.2744 -10.441 0.177246 
-21.158 -10.471 0.177246 
-21.0632 -10.605 0.183243 
-20.9468 -10.634 0.183243 
-20.8303 -10.664 0.182243 
-20.7356 -10.797 0.18924 
-20.6408 -10.931 0.195244 
-20.546 -11.065 0.201241 
-20.4296 -11.095 0.201241 
-20.3348 -11.229 0.207245 
-20.24 -11.363 0.213242 
-20.1453 -11.497 0.219246 
-20.0505 -11.63 0.225243 
-19.9341 -11.66 0.225243 
-19.8176 -11.689 0.225243 
-19.7012 -11.719 0.225243 
-19.5848 -11.748 0.225243 
-19.4683 -11.778 0.225243 
-19.3519 -11.807 0.224243 
-19.2354 -11.837 0.224243 
-19.119 -11.866 0.224243 
-19.0026 -11.895 0.224243 
-18.8861 -11.925 0.224243 
-18.7914 -12.059 0.23024 
-18.6749 -12.088 0.23024 
-18.5802 -12.222 0.236244 
-18.4637 -12.252 0.236244 
-18.3689 -12.386 0.242241 
-18.2742 -12.519 0.248245 
-18.1577 -12.549 0.248245 
-18.0413 -12.578 0.248245 
-17.9249 -12.608 0.248245 
-17.8301 -12.742 0.254242 
-17.7137 -12.771 0.254242 
-17.5756 -12.696 0.247246 
-17.4591 -12.726 0.247246 
-17.3427 -12.755 0.247246 
-17.2263 -12.784 0.247246 
-17.1098 -12.814 0.246246 
-16.9934 -12.843 0.246246 
-16.8769 -12.873 0.246246 
-16.7605 -12.902 0.246246 
-16.6224 -12.827 0.239243 
-16.506 -12.857 0.239243 
-16.3895 -12.886 0.239243 
-16.2731 -12.915 0.239243 
-16.1567 -12.945 0.239243 
-16.0402 -12.974 0.239243 
-15.9021 -12.899 0.232246 
-15.7857 -12.929 0.232246 
-15.6692 -12.958 0.232246 
-15.5528 -12.988 0.232246 
-15.4147 -12.912 0.225243 
-15.2983 -12.942 0.225243 
-15.1818 -12.971 0.225243 
-15.0438 -12.896 0.218246 
-14.9273 -12.926 0.218246 
-14.7892 -12.851 0.212242 
-14.6511 -12.776 0.205246 
-14.5347 -12.805 0.205246 
-14.3966 -12.73 0.198242 
-14.2585 -12.655 0.192245 
-14.1204 -12.58 0.185242 
-13.9823 -12.505 0.179245 
-13.8442 -12.43 0.172241 
-13.7061 -12.355 0.166245 
-13.5463 -12.175 0.153244 
-13.4082 -12.1 0.14724 
-13.2701 -12.025 0.140244 
-13.132 -11.95 0.134247 
-12.9939 -11.875 0.127243 
-12.8558 -11.8 0.121246 
-12.7177 -11.725 0.114243 
-12.5796 -11.65 0.107246 
-12.4632 -11.679 0.107246 
-12.3251 -11.604 0.101242 
-12.187 -11.529 0.0942459 
-12.0489 -11.454 0.0882416 
-11.9108 -11.379 0.0812454 
-11.7727 -11.304 0.0752411 
-11.6345 -11.229 0.0682449 
-11.4964 -11.154 0.0622406 
-11.3583 -11.079 0.0552444 
-11.2202 -11.004 0.0492401 
-11.0821 -10.929 0.042244 
-10.944 -10.854 0.0362396 
-10.806 -10.779 0.0292435 
-10.6679 -10.704 0.0232468 
-10.5298 -10.629 0.016243 
-10.3916 -10.554 0.0102463 
-10.2535 -10.478 0.00324249 
-10.1154 -10.403 -0.00275421 
-9.97735 -10.328 -0.009758 
-9.83915 -10.253 -0.0157547 
-9.70105 -10.178 -0.0227585 
-9.56295 -10.103 -0.0287552 
-9.42485 -10.028 -0.035759 
-9.28675 -9.953 -0.0417557 
-9.14865 -9.87801 -0.0487595 
-9.01056 -9.803 -0.0547562 
-8.89415 -9.832 -0.0547562 
-8.75605 -9.757 -0.0617599 
-8.61795 -9.682 -0.0677567 
-8.50155 -9.71201 -0.0687561 
-8.36345 -9.637 -0.0747604 
-8.24695 -9.666 -0.0747604 
-8.10885 -9.591 -0.0817566 
-7.97075 -9.516 -0.0877533 
-7.83265 -9.441 -0.0947571 
-7.69455 -9.366 -0.100754 
-7.55645 -9.291 -0.107758 
-7.39676 -9.111 -0.120758 
-7.23696 -8.932 -0.133759 
-7.07715 -8.752 -0.14576 
-6.93905 -8.677 -0.152756 
-6.77935 -8.498 -0.165756 
-6.61956 -8.318 -0.178757 
-6.48146 -8.243 -0.184753 
-6.34336 -8.168 -0.191757 
-6.20526 -8.093 -0.197754 
-6.06716 -8.01801 -0.204758 
-5.95076 -8.047 -0.204758 
-5.81266 -7.972 -0.210754 
-5.67456 -7.897 -0.217758 
-5.55816 -7.927 -0.217758 
-5.42006 -7.85201 -0.223755 
-5.28196 -7.777 -0.230759 
-5.14386 -7.702 -0.236755 
-5.00576 -7.626 -0.243759 
-4.86766 -7.551 -0.249756 
-4.70785 -7.372 -0.262756 
-4.56975 -7.297 -0.26976 
-4.43165 -7.222 -0.275757 
-4.27185 -7.042 -0.288757 
-4.13375 -6.967 -0.295753 
-3.99566 -6.89201 -0.301758 
-3.83586 -6.71301 -0.314758 
-3.69786 -6.638 -0.321754 
-3.55976 -6.562 -0.327759 
