ply
format ascii 1.0
comment VCGLIB generated
element vertex 1190
property float x
property float y
property float z
element face 0
property list uchar int vertex_indices
end_header
5.47827 -14.127 -178.758 
5.62872 -14.1102 -178.757 
5.77917 -14.0933 -178.756 
6.09063 -14.2014 -178.75 
6.24108 -14.1846 -178.749 
6.39152 -14.1677 -178.748 
6.54197 -14.1509 -178.746 
6.77293 -14.1965 -178.743 
6.84287 -14.1172 -178.744 
6.91281 -14.0379 -178.746 
7.06326 -14.021 -178.745 
7.1332 -13.9417 -178.746 
7.20314 -13.8624 -178.747 
7.27309 -13.7831 -178.749 
7.34303 -13.7038 -178.75 
7.49348 -13.6869 -178.749 
7.56342 -13.6076 -178.75 
7.71387 -13.5908 -178.749 
7.78381 -13.5114 -178.751 
7.93426 -13.4946 -178.75 
8.0042 -13.4153 -178.751 
8.07414 -13.336 -178.752 
8.14409 -13.2566 -178.754 
8.21403 -13.1773 -178.755 
8.28397 -13.098 -178.757 
8.35392 -13.0187 -178.758 
8.42386 -12.9394 -178.759 
8.4938 -12.8601 -178.761 
8.56375 -12.7808 -178.762 
8.7142 -12.7639 -178.761 
8.78414 -12.6846 -178.762 
8.85408 -12.6053 -178.764 
8.92402 -12.526 -178.765 
8.99397 -12.4466 -178.766 
9.06391 -12.3673 -178.768 
9.21436 -12.3505 -178.767 
9.2843 -12.2712 -178.768 
9.35425 -12.1919 -178.769 
9.42419 -12.1125 -178.771 
9.49413 -12.0332 -178.772 
9.56408 -11.9539 -178.774 
9.63402 -11.8746 -178.775 
9.70396 -11.7953 -178.776 
9.7739 -11.716 -178.778 
9.92435 -11.6991 -178.777 
10.0748 -11.6823 -178.776 
10.1447 -11.603 -178.777 
10.2147 -11.5236 -178.778 
10.3651 -11.5068 -178.777 
10.4351 -11.4275 -178.779 
10.505 -11.3482 -178.78 
10.575 -11.2688 -178.781 
10.7254 -11.252 -178.78 
10.7954 -11.1727 -178.782 
10.9458 -11.1558 -178.781 
11.0157 -11.0765 -178.782 
11.0857 -10.9972 -178.783 
11.1556 -10.9179 -178.785 
11.3061 -10.901 -178.784 
11.376 -10.8217 -178.785 
11.5265 -10.8049 -178.784 
11.5964 -10.7256 -178.785 
11.7469 -10.7087 -178.784 
11.8168 -10.6294 -178.786 
11.8867 -10.5501 -178.787 
12.0372 -10.5332 -178.786 
12.1071 -10.4539 -178.787 
12.1771 -10.3746 -178.789 
12.3275 -10.3578 -178.788 
12.3975 -10.2784 -178.789 
12.4674 -10.1991 -178.79 
12.6179 -10.1823 -178.789 
12.6878 -10.103 -178.791 
12.9188 -10.1486 -178.787 
12.9887 -10.0693 -178.788 
13.1392 -10.0524 -178.787 
13.2091 -9.9731 -178.789 
13.279 -9.89378 -178.79 
13.349 -9.81447 -178.792 
13.4994 -9.79762 -178.79 
13.5694 -9.7183 -178.792 
13.6393 -9.63899 -178.793 
13.7898 -9.62214 -178.792 
13.8597 -9.54282 -178.793 
13.9296 -9.46351 -178.795 
13.9996 -9.3842 -178.796 
14.15 -9.36735 -178.795 
14.22 -9.28803 -178.797 
14.2899 -9.20872 -178.798 
14.3599 -9.1294 -178.799 
14.4298 -9.05009 -178.801 
14.4998 -8.97077 -178.802 
14.5697 -8.89146 -178.803 
14.6396 -8.81214 -178.805 
14.7096 -8.73283 -178.806 
14.7795 -8.65351 -178.807 
14.8495 -8.5742 -178.809 
14.9194 -8.49489 -178.81 
14.9894 -8.41557 -178.812 
15.0593 -8.33626 -178.813 
15.1292 -8.25694 -178.814 
15.1992 -8.17763 -178.816 
15.3496 -8.16078 -178.815 
15.4196 -8.08146 -178.816 
15.4895 -8.00215 -178.817 
15.5595 -7.92283 -178.819 
15.6294 -7.84352 -178.82 
15.7799 -7.82667 -178.819 
15.8498 -7.74735 -178.82 
15.9197 -7.66804 -178.822 
15.9897 -7.58873 -178.823 
15.9791 -7.44694 -178.827 
16.0491 -7.36763 -178.828 
16.119 -7.28831 -178.83 
16.1084 -7.14654 -178.833 
16.1784 -7.06722 -178.835 
16.1678 -6.92544 -178.839 
16.2378 -6.84613 -178.84 
16.2272 -6.70435 -178.844 
16.2167 -6.56257 -178.848 
16.2866 -6.48325 -178.849 
16.3565 -6.40393 -178.85 
16.346 -6.26216 -178.854 
16.4159 -6.18284 -178.855 
16.4054 -6.04106 -178.859 
16.3948 -5.89928 -178.863 
16.3842 -5.7575 -178.867 
16.2127 -5.49079 -178.875 
16.0411 -5.22408 -178.884 
16.0305 -5.0823 -178.888 
16.1005 -5.00298 -178.889 
7.21149 -13.7652 -178.782 
7.33336 -13.6754 -178.781 
7.45523 -13.5856 -178.78 
8.18281 -13.5788 -178.764 
8.30467 -13.489 -178.763 
8.42654 -13.3992 -178.762 
8.44746 -13.2955 -178.764 
8.56932 -13.2057 -178.763 
8.69119 -13.1159 -178.761 
8.81306 -13.0261 -178.76 
8.93493 -12.9363 -178.759 
9.05679 -12.8465 -178.758 
9.07771 -12.7428 -178.76 
9.19957 -12.653 -178.759 
9.22049 -12.5493 -178.76 
9.34236 -12.4595 -178.759 
9.56517 -12.3835 -178.755 
9.58609 -12.2799 -178.757 
9.70796 -12.1901 -178.756 
9.82982 -12.1002 -178.755 
10.0526 -12.0243 -178.751 
10.0736 -11.9206 -178.753 
10.1954 -11.8308 -178.752 
10.2163 -11.7271 -178.753 
10.2373 -11.6235 -178.754 
10.3591 -11.5337 -178.753 
10.38 -11.43 -178.755 
10.5019 -11.3402 -178.754 
10.7247 -11.2642 -178.75 
10.8466 -11.1744 -178.749 
10.9685 -11.0846 -178.748 
10.9894 -10.9809 -178.749 
11.1112 -10.8911 -178.748 
11.1322 -10.7874 -178.75 
11.5569 -10.7392 -178.741 
11.6787 -10.6493 -178.74 
11.8006 -10.5595 -178.739 
12.0234 -10.4836 -178.736 
12.1453 -10.3937 -178.735 
12.2672 -10.3039 -178.734 
12.49 -10.228 -178.73 
12.6119 -10.1381 -178.729 
12.7337 -10.0483 -178.728 
12.9565 -9.97235 -178.724 
13.0784 -9.88253 -178.723 
13.2003 -9.79272 -178.722 
13.3221 -9.7029 -178.721 
13.444 -9.61309 -178.72 
13.5659 -9.52327 -178.719 
13.6877 -9.43346 -178.718 
13.8096 -9.34364 -178.717 
14.0324 -9.26767 -178.714 
14.1543 -9.17785 -178.713 
14.2762 -9.08804 -178.711 
14.398 -8.99822 -178.71 
14.5199 -8.90841 -178.709 
14.5408 -8.80474 -178.711 
14.6627 -8.71493 -178.71 
14.6836 -8.61127 -178.711 
14.8055 -8.52145 -178.71 
14.9273 -8.43164 -178.709 
15.352 -8.38335 -178.701 
15.5749 -8.30738 -178.697 
15.5958 -8.20372 -178.698 
15.7176 -8.1139 -178.697 
15.7386 -8.01025 -178.699 
15.8604 -7.92043 -178.698 
15.8813 -7.81677 -178.699 
16.0032 -7.72695 -178.698 
16.0241 -7.62329 -178.699 
16.045 -7.51963 -178.701 
16.1669 -7.42982 -178.7 
16.1878 -7.32616 -178.701 
16.2087 -7.2225 -178.702 
16.2297 -7.11884 -178.704 
16.3515 -7.02902 -178.703 
16.3724 -6.92536 -178.704 
16.3934 -6.8217 -178.705 
16.4143 -6.71804 -178.707 
16.4352 -6.61438 -178.708 
16.4561 -6.51072 -178.71 
16.477 -6.40706 -178.711 
16.4979 -6.3034 -178.712 
16.5188 -6.19974 -178.714 
16.5398 -6.09608 -178.715 
16.5607 -5.99242 -178.716 
16.5816 -5.88876 -178.718 
16.6025 -5.7851 -178.719 
16.5225 -5.66759 -178.723 
16.5434 -5.56393 -178.724 
16.5643 -5.46028 -178.726 
16.4843 -5.34277 -178.729 
16.5052 -5.23911 -178.731 
16.5261 -5.13545 -178.732 
16.547 -5.03179 -178.734 
16.5679 -4.92813 -178.735 
16.5888 -4.82447 -178.736 
16.6097 -4.72081 -178.738 
16.6307 -4.61715 -178.739 
16.6516 -4.51349 -178.74 
16.5715 -4.39599 -178.744 
16.1887 -4.23695 -178.755 
16.2096 -4.13329 -178.757 
16.2305 -4.02963 -178.758 
16.2514 -3.92597 -178.759 
16.1714 -3.80846 -178.763 
14.0723 -3.41407 -178.815 
14.0932 -3.31041 -178.817 
14.1141 -3.20675 -178.818 
14.0341 -3.08924 -178.822 
14.055 -2.98558 -178.823 
13.975 -2.86808 -178.827 
13.9959 -2.76442 -178.828 
13.9158 -2.64692 -178.832 
13.9368 -2.54326 -178.834 
13.8567 -2.42575 -178.837 
13.8776 -2.32209 -178.839 
13.7976 -2.20459 -178.843 
13.7176 -2.08708 -178.846 
13.7385 -1.98342 -178.848 
13.6584 -1.86592 -178.851 
13.5784 -1.74841 -178.855 
13.4984 -1.63091 -178.859 
13.4183 -1.5134 -178.863 
13.4392 -1.40974 -178.864 
13.3592 -1.29224 -178.868 
13.2792 -1.17474 -178.872 
13.3001 -1.07108 -178.873 
13.22 -0.953571 -178.877 
13.241 -0.849909 -178.878 
13.1609 -0.732408 -178.882 
12.9799 -0.601057 -178.888 
12.8999 -0.483553 -178.892 
12.9208 -0.379894 -178.893 
12.9417 -0.276232 -178.895 
12.9626 -0.172573 -178.896 
12.9836 -0.0689135 -178.898 
13.0045 0.0347468 -178.899 
13.0254 0.138406 -178.9 
12.9454 0.255911 -178.904 
12.9663 0.359572 -178.905 
12.9872 0.463233 -178.907 
12.9071 0.580736 -178.911 
12.8271 0.69824 -178.914 
12.848 0.801902 -178.916 
12.768 0.919405 -178.92 
12.7889 1.02307 -178.921 
12.8098 1.12673 -178.922 
12.7298 1.24423 -178.926 
12.7507 1.34789 -178.927 
12.6707 1.4654 -178.931 
12.6916 1.56906 -178.933 
12.7125 1.67272 -178.934 
12.7334 1.77638 -178.935 
12.7543 1.88004 -178.937 
12.6743 1.99754 -178.94 
12.5942 2.11505 -178.944 
12.5142 2.23255 -178.948 
12.5351 2.33621 -178.949 
12.556 2.43987 -178.951 
12.577 2.54353 -178.952 
12.5979 2.64719 -178.954 
12.6188 2.75085 -178.955 
12.6397 2.85451 -178.956 
12.6606 2.95817 -178.958 
12.5806 3.07567 -178.961 
12.6015 3.17934 -178.963 
12.6224 3.283 -178.964 
12.6433 3.38665 -178.965 
12.5633 3.50416 -178.969 
12.5842 3.60782 -178.971 
12.5042 3.72533 -178.974 
12.5251 3.82899 -178.976 
12.546 3.93265 -178.977 
12.466 4.05015 -178.981 
12.4869 4.15381 -178.982 
12.5078 4.25747 -178.984 
12.5287 4.36113 -178.985 
12.5496 4.46479 -178.986 
12.4696 4.5823 -178.99 
12.4905 4.68596 -178.992 
12.5114 4.78962 -178.993 
12.4314 4.90712 -178.997 
12.4523 5.01078 -178.998 
12.4732 5.11444 -178.999 
12.4941 5.2181 -179.001 
12.515 5.32176 -179.002 
12.5359 5.42542 -179.004 
12.5569 5.52908 -179.005 
12.4768 5.64658 -179.009 
12.4977 5.75024 -179.01 
12.4177 5.86775 -179.014 
12.4386 5.97141 -179.015 
12.4595 6.07507 -179.017 
12.4805 6.17873 -179.018 
12.5014 6.28239 -179.019 
12.5223 6.38605 -179.021 
12.4422 6.50355 -179.025 
12.4632 6.60722 -179.026 
12.3831 6.72472 -179.03 
11.7983 6.91145 -179.046 
11.7183 7.02895 -179.049 
11.7392 7.13261 -179.051 
10.9525 7.34703 -179.071 
15.2501 -3.46021 -178.745 
15.122 -3.39847 -178.749 
15.1826 -3.25975 -178.748 
14.9602 -3.23649 -178.754 
14.7378 -3.21324 -178.76 
14.6097 -3.15149 -178.764 
14.576 -3.05126 -178.765 
14.4479 -2.98952 -178.769 
14.4142 -2.88929 -178.771 
14.3805 -2.78906 -178.772 
14.3468 -2.68883 -178.773 
14.3131 -2.5886 -178.775 
14.2794 -2.48837 -178.776 
14.2456 -2.38814 -178.777 
14.2119 -2.28791 -178.779 
14.1782 -2.18768 -178.78 
14.1445 -2.08745 -178.781 
14.1108 -1.98722 -178.783 
14.0771 -1.88699 -178.784 
14.0433 -1.78676 -178.786 
14.0096 -1.68653 -178.787 
13.9759 -1.5863 -178.788 
13.9422 -1.48607 -178.79 
13.9085 -1.38584 -178.791 
13.8748 -1.28561 -178.792 
13.841 -1.18538 -178.794 
13.8073 -1.08515 -178.795 
13.7736 -0.984921 -178.796 
13.7399 -0.88469 -178.798 
13.7062 -0.784459 -178.799 
13.6725 -0.684232 -178.801 
13.6387 -0.584001 -178.802 
13.605 -0.483771 -178.803 
13.5713 -0.38354 -178.805 
13.5376 -0.28331 -178.806 
13.5039 -0.183082 -178.807 
13.4702 -0.0828517 -178.809 
13.4364 0.0173788 -178.81 
13.4027 0.117609 -178.811 
13.369 0.217839 -178.813 
13.3353 0.318068 -178.814 
13.3959 0.456784 -178.813 
13.3622 0.557013 -178.815 
13.3285 0.657243 -178.816 
13.2948 0.757474 -178.817 
13.2611 0.857704 -178.819 
13.3217 0.99642 -178.818 
13.288 1.09665 -178.819 
13.2543 1.19688 -178.82 
13.2205 1.29711 -178.822 
13.1868 1.39734 -178.823 
13.1531 1.49757 -178.824 
13.1194 1.5978 -178.826 
12.9913 1.65954 -178.83 
12.9576 1.75977 -178.831 
12.9239 1.86 -178.832 
12.8902 1.96023 -178.834 
12.9508 2.09895 -178.833 
12.9171 2.19918 -178.834 
12.8834 2.29941 -178.835 
12.944 2.43813 -178.834 
12.9103 2.53836 -178.836 
12.8766 2.63859 -178.837 
12.8428 2.73882 -178.838 
12.9035 2.87753 -178.837 
12.8698 2.97776 -178.839 
12.836 3.07799 -178.84 
12.8023 3.17822 -178.841 
12.7686 3.27845 -178.843 
12.7349 3.37868 -178.844 
12.7955 3.5174 -178.843 
12.7618 3.61763 -178.844 
12.7281 3.71786 -178.846 
12.6944 3.81809 -178.847 
12.6607 3.91832 -178.849 
12.6269 4.01855 -178.85 
12.5932 4.11878 -178.851 
12.6539 4.25749 -178.85 
12.6201 4.35772 -178.852 
12.5864 4.45795 -178.853 
12.5527 4.55818 -178.854 
12.519 4.65841 -178.856 
12.5796 4.79713 -178.855 
12.5459 4.89736 -178.856 
12.5122 4.99759 -178.857 
12.5728 5.13631 -178.856 
12.5391 5.23653 -178.858 
12.5054 5.33677 -178.859 
12.4717 5.43699 -178.86 
12.4379 5.53722 -178.862 
12.4042 5.63745 -178.863 
12.3705 5.73768 -178.865 
12.3368 5.83792 -178.866 
12.3974 5.97663 -178.865 
12.3637 6.07686 -178.866 
12.33 6.17709 -178.868 
12.2963 6.27732 -178.869 
12.2626 6.37755 -178.87 
12.2288 6.47778 -178.872 
12.1951 6.57801 -178.873 
12.2558 6.71673 -178.872 
12.222 6.81696 -178.873 
12.1883 6.91719 -178.875 
12.1546 7.01742 -178.876 
12.1209 7.11765 -178.877 
12.0872 7.21788 -178.879 
12.0535 7.31811 -178.88 
12.0197 7.41834 -178.882 
11.986 7.51857 -178.883 
11.9523 7.6188 -178.884 
11.9186 7.71903 -178.886 
11.8849 7.81926 -178.887 
11.8512 7.91949 -178.888 
11.7231 7.98123 -178.892 
11.6894 8.08146 -178.894 
11.5613 8.1432 -178.897 
11.5276 8.24343 -178.899 
11.3995 8.30518 -178.902 
11.2715 8.36692 -178.906 
11.1434 8.42866 -178.91 
11.0153 8.49041 -178.914 
10.8873 8.55215 -178.918 
10.8535 8.65238 -178.919 
10.7255 8.71412 -178.923 
10.5974 8.77587 -178.927 
10.4693 8.83761 -178.93 
10.3413 8.89935 -178.934 
10.1189 8.92261 -178.94 
9.9908 8.98435 -178.944 
9.86273 9.0461 -178.948 
9.73466 9.10784 -178.952 
9.51225 9.1311 -178.958 
9.38418 9.19284 -178.962 
9.16177 9.2161 -178.968 
9.0337 9.27784 -178.972 
8.90563 9.33959 -178.975 
8.77757 9.40133 -178.979 
8.17776 9.27064 -178.995 
8.14404 9.37088 -178.997 
8.01597 9.43262 -179 
7.88791 9.49436 -179.004 
7.19375 9.32518 -179.022 
7.16003 9.42541 -179.024 
7.03196 9.48716 -179.028 
6.99824 9.58739 -179.029 
16.9742 -4.62543 -178.784 
16.8949 -4.55549 -178.785 
16.878 -4.40504 -178.784 
16.7987 -4.3351 -178.786 
16.7194 -4.26515 -178.787 
16.6401 -4.19521 -178.788 
16.5607 -4.12527 -178.79 
16.5439 -3.97482 -178.789 
16.4646 -3.90488 -178.79 
16.8225 -3.2714 -178.775 
16.8057 -3.12095 -178.773 
16.7264 -3.05101 -178.775 
16.647 -2.98107 -178.776 
16.5677 -2.91112 -178.778 
16.4884 -2.84118 -178.779 
16.3466 -2.85174 -178.783 
16.1424 -2.94281 -178.789 
16.0631 -2.87287 -178.79 
15.9838 -2.80292 -178.792 
15.9044 -2.73298 -178.793 
15.8251 -2.66304 -178.794 
15.7458 -2.59309 -178.796 
15.604 -2.60366 -178.8 
15.5247 -2.53371 -178.801 
15.3829 -2.54427 -178.805 
15.2412 -2.55483 -178.809 
15.0994 -2.5654 -178.812 
14.9576 -2.57596 -178.816 
14.8783 -2.50602 -178.817 
14.799 -2.43607 -178.819 
14.7197 -2.36613 -178.82 
14.6403 -2.29618 -178.822 
14.561 -2.22624 -178.823 
14.5442 -2.07579 -178.822 
14.4649 -2.00585 -178.823 
14.3855 -1.93591 -178.825 
14.3062 -1.86597 -178.826 
14.2269 -1.79602 -178.827 
14.2725 -1.56507 -178.824 
14.3181 -1.33412 -178.82 
14.2388 -1.26417 -178.822 
14.222 -1.11373 -178.821 
14.1427 -1.04378 -178.822 
14.0634 -0.97384 -178.823 
13.984 -0.903897 -178.825 
13.9047 -0.833952 -178.826 
13.8254 -0.764009 -178.828 
13.7461 -0.694065 -178.829 
13.6043 -0.704628 -178.833 
13.4625 -0.715192 -178.836 
13.3208 -0.72575 -178.84 
13.179 -0.736313 -178.844 
13.4864 0.348506 -178.825 
13.532 0.57946 -178.822 
13.5151 0.729908 -178.821 
13.4358 0.799851 -178.822 
13.419 0.9503 -178.821 
13.3397 1.02024 -178.822 
13.3228 1.17069 -178.821 
13.2435 1.24063 -178.823 
13.1642 1.31058 -178.824 
13.1473 1.46102 -178.823 
13.068 1.53097 -178.824 
13.0512 1.68142 -178.823 
13.0343 1.83186 -178.822 
12.955 1.90181 -178.824 
12.9382 2.05225 -178.823 
12.8588 2.1222 -178.824 
12.842 2.27265 -178.823 
12.8251 2.42309 -178.822 
12.8708 2.65404 -178.818 
12.8539 2.8045 -178.817 
12.8371 2.95494 -178.816 
12.8202 3.10539 -178.815 
12.8034 3.25584 -178.814 
12.7865 3.40629 -178.813 
12.7072 3.47623 -178.814 
12.6903 3.62667 -178.813 
12.611 3.69662 -178.815 
12.5317 3.76656 -178.816 
12.5149 3.91701 -178.815 
12.4356 3.98695 -178.816 
12.6061 4.37892 -178.808 
12.5893 4.52937 -178.807 
12.5099 4.59931 -178.808 
12.4931 4.74975 -178.807 
12.4762 4.9002 -178.806 
12.4594 5.05065 -178.805 
12.505 5.2816 -178.802 
12.4882 5.43205 -178.801 
12.4713 5.5825 -178.8 
12.392 5.65244 -178.801 
12.3751 5.80289 -178.8 
12.2958 5.87283 -178.801 
12.279 6.02328 -178.8 
12.1997 6.09323 -178.802 
12.1828 6.24367 -178.801 
12.2284 6.47463 -178.797 
12.2116 6.62507 -178.796 
12.1947 6.77552 -178.795 
12.1779 6.92597 -178.794 
12.2235 7.15692 -178.79 
12.1442 7.22686 -178.792 
12.1273 7.37731 -178.791 
12.048 7.44726 -178.792 
12.0312 7.5977 -178.791 
11.9519 7.66765 -178.792 
11.935 7.8181 -178.791 
11.9182 7.96854 -178.79 
11.9013 8.11899 -178.789 
11.822 8.18893 -178.791 
11.8051 8.33938 -178.79 
11.7258 8.40933 -178.791 
11.6465 8.47927 -178.792 
11.5672 8.54921 -178.794 
11.4254 8.53865 -178.797 
11.3461 8.60859 -178.799 
11.2668 8.67854 -178.8 
11.1875 8.74848 -178.802 
11.0457 8.73792 -178.805 
10.9664 8.80786 -178.807 
10.8871 8.8778 -178.808 
10.8077 8.94775 -178.809 
10.7284 9.01769 -178.811 
10.6491 9.08763 -178.812 
10.5698 9.15758 -178.814 
10.428 9.14702 -178.817 
10.3487 9.21696 -178.819 
10.2694 9.2869 -178.82 
10.1901 9.35684 -178.821 
10.1108 9.42679 -178.823 
9.96899 9.41623 -178.827 
9.88967 9.48617 -178.828 
9.81036 9.55611 -178.829 
9.66858 9.54555 -178.833 
9.58926 9.61549 -178.834 
9.44748 9.60493 -178.838 
9.36817 9.67488 -178.84 
9.22639 9.66432 -178.843 
9.14707 9.73426 -178.845 
9.00529 9.7237 -178.849 
8.92597 9.79364 -178.85 
8.78419 9.78307 -178.854 
8.70488 9.85302 -178.855 
8.5631 9.84246 -178.859 
8.42132 9.8319 -178.863 
8.27954 9.82133 -178.866 
8.13776 9.81078 -178.87 
8.05845 9.88072 -178.872 
7.91667 9.87016 -178.875 
7.83735 9.9401 -178.877 
7.69557 9.92954 -178.881 
7.61625 9.99948 -178.882 
7.47447 9.98892 -178.886 
7.39516 10.0589 -178.887 
7.31584 10.1288 -178.888 
7.17406 10.1182 -178.892 
7.09475 10.1882 -178.894 
6.95297 10.1776 -178.897 
6.81119 10.1671 -178.901 
6.66941 10.1565 -178.905 
6.52763 10.1459 -178.909 
6.44831 10.2159 -178.91 
6.30653 10.2053 -178.914 
6.22722 10.2753 -178.915 
6.08544 10.2647 -178.919 
5.88119 10.1736 -178.925 
5.67695 10.0826 -178.931 
5.53517 10.072 -178.935 
5.39339 10.0614 -178.939 
5.2516 10.0509 -178.943 
5.04736 9.95982 -178.949 
4.90558 9.94926 -178.953 
4.7638 9.9387 -178.957 
4.62202 9.92813 -178.96 
4.48024 9.91757 -178.964 
4.15106 9.6655 -178.975 
3.94681 9.57443 -178.981 
3.80503 9.56387 -178.985 
3.66326 9.55331 -178.989 
3.52148 9.54275 -178.993 
3.44216 9.61269 -178.994 
11.7889 8.33646 -178.792 
11.6991 8.45833 -178.791 
11.6093 8.5802 -178.79 
11.5195 8.70206 -178.789 
11.4297 8.82393 -178.788 
11.3398 8.9458 -178.787 
11.25 9.06766 -178.786 
11.1602 9.18953 -178.785 
11.0565 9.21044 -178.786 
10.9529 9.23136 -178.788 
10.8492 9.25227 -178.789 
10.7456 9.27319 -178.79 
10.6419 9.29411 -178.792 
10.5382 9.31502 -178.793 
10.4484 9.43689 -178.792 
10.3448 9.4578 -178.794 
10.255 9.57967 -178.792 
10.1513 9.60058 -178.794 
10.0476 9.6215 -178.795 
9.94397 9.64241 -178.797 
9.85416 9.76428 -178.796 
9.73665 9.68425 -178.799 
9.63299 9.70516 -178.801 
9.52933 9.72607 -178.802 
9.42567 9.74699 -178.803 
9.32201 9.76791 -178.805 
9.21835 9.78882 -178.806 
9.12854 9.91069 -178.805 
9.02487 9.9316 -178.806 
8.93506 10.0535 -178.805 
8.8314 10.0744 -178.807 
8.74158 10.1963 -178.806 
8.63792 10.2172 -178.807 
8.53426 10.2381 -178.808 
8.4306 10.259 -178.81 
8.32694 10.2799 -178.811 
8.20944 10.1999 -178.815 
8.10578 10.2208 -178.816 
8.00212 10.2417 -178.818 
7.89846 10.2626 -178.819 
7.7948 10.2835 -178.82 
7.69114 10.3045 -178.822 
7.60132 10.4263 -178.821 
7.49766 10.4472 -178.822 
7.394 10.4682 -178.823 
7.29034 10.4891 -178.825 
7.18668 10.51 -178.826 
7.08302 10.5309 -178.828 
6.97936 10.5518 -178.829 
6.86186 10.4718 -178.833 
6.7582 10.4927 -178.834 
6.65454 10.5136 -178.835 
6.55088 10.5345 -178.837 
6.44722 10.5554 -178.838 
6.34356 10.5763 -178.84 
6.22605 10.4963 -178.843 
6.12239 10.5172 -178.845 
6.01873 10.5381 -178.846 
5.91507 10.5591 -178.847 
5.81141 10.58 -178.849 
5.70775 10.6009 -178.85 
5.60409 10.6218 -178.852 
5.50043 10.6427 -178.853 
5.39677 10.6636 -178.854 
5.27927 10.5836 -178.858 
5.16176 10.5036 -178.862 
5.0581 10.5245 -178.863 
4.95444 10.5454 -178.865 
4.83694 10.4654 -178.868 
4.73327 10.4863 -178.87 
4.62961 10.5072 -178.871 
4.52596 10.5281 -178.872 
4.40845 10.4481 -178.876 
4.30479 10.469 -178.878 
4.18729 10.3889 -178.881 
4.08363 10.4099 -178.883 
3.96612 10.3298 -178.887 
3.86246 10.3507 -178.888 
3.7588 10.3716 -178.889 
3.6413 10.2916 -178.893 
3.53764 10.3125 -178.894 
3.43398 10.3334 -178.896 
3.31647 10.2534 -178.9 
3.21281 10.2743 -178.901 
3.09531 10.1943 -178.905 
2.9778 10.1142 -178.909 
2.8603 10.0342 -178.912 
2.75664 10.0551 -178.914 
2.62529 9.87414 -178.92 
2.50778 9.7941 -178.924 
2.39028 9.71406 -178.927 
2.27278 9.63403 -178.931 
2.15527 9.55399 -178.935 
2.03777 9.47395 -178.939 
1.90642 9.29296 -178.945 
9.4851 9.9807 -178.863 
9.3079 10.1357 -178.86 
9.20767 10.102 -178.861 
9.10744 10.0682 -178.863 
9.00721 10.0345 -178.864 
8.86849 10.0952 -178.863 
8.76826 10.0614 -178.864 
8.62955 10.1221 -178.863 
8.49083 10.1827 -178.862 
8.35211 10.2433 -178.861 
8.25188 10.2096 -178.863 
8.11317 10.2703 -178.861 
7.93597 10.4252 -178.858 
7.79725 10.4859 -178.857 
7.65853 10.5465 -178.856 
7.51982 10.6071 -178.855 
7.41959 10.5734 -178.856 
7.31936 10.5397 -178.858 
7.18064 10.6003 -178.856 
7.04192 10.661 -178.855 
6.94169 10.6272 -178.857 
6.84146 10.5935 -178.858 
6.70275 10.6542 -178.857 
6.60252 10.6204 -178.858 
6.4638 10.6811 -178.857 
6.32508 10.7417 -178.856 
6.18637 10.8023 -178.855 
6.04765 10.863 -178.854 
5.94742 10.8293 -178.856 
5.84719 10.7955 -178.857 
5.74696 10.7618 -178.858 
5.60825 10.8225 -178.857 
5.50802 10.7887 -178.859 
5.40779 10.755 -178.86 
5.30756 10.7213 -178.861 
5.16884 10.7819 -178.86 
5.06861 10.7482 -178.862 
4.96838 10.7145 -178.863 
4.86815 10.6808 -178.864 
4.72943 10.7414 -178.863 
4.6292 10.7077 -178.865 
4.52897 10.674 -178.866 
4.42874 10.6403 -178.867 
4.29003 10.7009 -178.866 
4.1898 10.6672 -178.868 
4.08957 10.6335 -178.869 
3.98934 10.5997 -178.87 
3.88911 10.566 -178.872 
3.78888 10.5323 -178.873 
3.68865 10.4986 -178.875 
3.58842 10.4649 -178.876 
3.48819 10.4312 -178.877 
3.38796 10.3974 -178.879 
3.24924 10.4581 -178.878 
3.14901 10.4244 -178.879 
3.04878 10.3906 -178.88 
2.91007 10.4513 -178.879 
2.84832 10.3232 -178.883 
2.74809 10.2895 -178.884 
2.64786 10.2558 -178.886 
2.54763 10.2221 -178.887 
2.4474 10.1883 -178.889 
2.34717 10.1546 -178.89 
2.24694 10.1209 -178.891 
2.14671 10.0872 -178.893 
2.04648 10.0535 -178.894 
1.94625 10.0198 -178.895 
1.84602 9.98604 -178.897 
1.74579 9.95232 -178.898 
1.64556 9.91861 -178.899 
1.54533 9.88489 -178.901 
1.4451 9.85117 -178.902 
1.38336 9.72311 -178.906 
1.32162 9.59504 -178.91 
1.22139 9.56132 -178.911 
1.12116 9.52761 -178.913 
1.02093 9.49389 -178.914 
0.920698 9.46017 -178.915 
0.78198 9.52081 -178.914 
0.681752 9.48709 -178.916 
0.620008 9.35902 -178.919 
0.519777 9.3253 -178.921 
0.419548 9.29158 -178.922 
0.319318 9.25787 -178.923 
0.257574 9.1298 -178.927 
0.157344 9.09609 -178.929 
0.0571141 9.06237 -178.93 
-0.00462844 8.9343 -178.934 
-0.104859 8.90059 -178.935 
-0.205089 8.86687 -178.936 
-0.266831 8.7388 -178.94 
-0.367062 8.70508 -178.942 
-0.428807 8.57702 -178.945 
-0.490549 8.44896 -178.949 
4.88689 11.4279 -178.931 
4.73645 11.411 -178.93 
4.58599 11.3942 -178.929 
4.43555 11.3773 -178.928 
4.2851 11.3605 -178.927 
4.13465 11.3436 -178.926 
4.06471 11.2643 -178.927 
3.91426 11.2475 -178.926 
3.84432 11.1681 -178.927 
3.69387 11.1513 -178.926 
3.62393 11.072 -178.927 
3.47348 11.0551 -178.926 
3.40354 10.9758 -178.928 
3.25309 10.959 -178.927 
3.10264 10.9421 -178.926 
2.95219 10.9253 -178.925 
2.88225 10.846 -178.926 
2.81231 10.7666 -178.927 
2.74236 10.6873 -178.929 
2.67242 10.608 -178.93 
2.52197 10.5912 -178.929 
2.29102 10.6368 -178.926 
2.06007 10.6824 -178.922 
1.90962 10.6655 -178.921 
1.83968 10.5862 -178.922 
1.68923 10.5694 -178.921 
1.61928 10.4901 -178.923 
1.46884 10.4732 -178.922 
1.39889 10.3939 -178.923 
1.32895 10.3146 -178.924 
1.1785 10.2977 -178.923 
1.10856 10.2184 -178.925 
0.877608 10.264 -178.921 
0.72716 10.2472 -178.92 
0.657216 10.1679 -178.921 
0.506771 10.151 -178.92 
0.436827 10.0717 -178.922 
0.366883 9.9924 -178.923 
0.29694 9.91309 -178.925 
0.146491 9.89624 -178.923 
0.0765475 9.81693 -178.925 
0.00660651 9.73761 -178.926 
-0.143842 9.72076 -178.925 
-0.213785 9.64145 -178.927 
-0.283729 9.56213 -178.928 
-0.353673 9.48282 -178.929 
-0.423617 9.4035 -178.931 
-0.493558 9.32419 -178.932 
-0.563501 9.24487 -178.933 
-0.633445 9.16556 -178.935 
-0.78389 9.14871 -178.934 
-0.853834 9.06939 -178.935 
-0.923777 8.99008 -178.936 
-1.07423 8.97323 -178.935 
-1.14417 8.89392 -178.937 
-1.21411 8.8146 -178.938 
-1.28405 8.73528 -178.939 
-1.354 8.65597 -178.941 
-1.42394 8.57666 -178.942 
-1.49388 8.49734 -178.944 
-1.56383 8.41803 -178.945 
-1.63377 8.33871 -178.946 
-1.70371 8.2594 -178.948 
-1.77366 8.18008 -178.949 
-1.8436 8.10077 -178.95 
-1.91354 8.02145 -178.952 
-1.98349 7.94214 -178.953 
-2.05343 7.86282 -178.954 
-2.12337 7.78351 -178.956 
-2.19332 7.7042 -178.957 
-2.26326 7.62488 -178.959 
-2.3332 7.54557 -178.96 
-2.40315 7.46625 -178.961 
-2.47309 7.38694 -178.963 
-2.54303 7.30762 -178.964 
-2.61297 7.22831 -178.965 
-2.68292 7.14899 -178.967 
-2.75286 7.06968 -178.968 
-2.82281 6.99036 -178.969 
-2.89275 6.91105 -178.971 
-2.96269 6.83173 -178.972 
-3.03263 6.75242 -178.974 
-3.10258 6.6731 -178.975 
-3.17252 6.59379 -178.976 
-3.24246 6.51447 -178.978 
-3.31241 6.43516 -178.979 
-3.30185 6.29338 -178.983 
-3.37179 6.21406 -178.984 
-3.44173 6.13475 -178.986 
-3.51167 6.05543 -178.987 
-3.50111 5.91365 -178.991 
-3.57106 5.83434 -178.992 
-3.641 5.75503 -178.993 
-3.71094 5.67571 -178.995 
-3.78089 5.5964 -178.996 
-3.85083 5.51708 -178.998 
-3.92077 5.43777 -178.999 
-4.07122 5.42092 -178.998 
-4.14116 5.3416 -178.999 
-4.21111 5.26229 -179.001 
-4.20054 5.12051 -179.004 
-4.27049 5.04119 -179.006 
-4.34043 4.96188 -179.007 
-4.41038 4.88257 -179.008 
-4.39981 4.74078 -179.012 
-4.46976 4.66147 -179.014 
-4.5397 4.58216 -179.015 
-4.60964 4.50284 -179.016 
-4.67959 4.42352 -179.018 
-4.74953 4.34421 -179.019 
-4.81947 4.2649 -179.02 
-4.80891 4.12312 -179.024 
-4.87885 4.0438 -179.026 
-4.9488 3.96449 -179.027 
-4.93824 3.82271 -179.031 
-5.00818 3.74339 -179.032 
-4.99762 3.60161 -179.036 
-5.06756 3.5223 -179.037 
-5.1375 3.44298 -179.039 
-5.20745 3.36367 -179.04 
-5.27739 3.28436 -179.041 
-5.26683 3.14257 -179.045 
-5.33677 3.06326 -179.047 
-5.48722 3.04641 -179.046 
-5.55716 2.9671 -179.047 
-5.6271 2.88778 -179.048 
-5.61654 2.746 -179.052 
-5.68649 2.66669 -179.053 
-5.67592 2.5249 -179.057 
-5.34335 2.13326 -179.071 
-5.33278 1.99148 -179.074 
-2.56574 7.48209 -178.993 
-2.6876 7.39228 -178.992 
-2.70852 7.28862 -178.993 
-2.72943 7.18496 -178.994 
-3.25511 7.15052 -178.983 
-3.37697 7.0607 -178.982 
-3.49885 6.97089 -178.981 
-3.51976 6.86723 -178.983 
-3.64163 6.77741 -178.982 
-3.66254 6.67375 -178.983 
-3.68345 6.57009 -178.984 
-3.80532 6.48028 -178.983 
-3.82624 6.37662 -178.985 
-3.84715 6.27296 -178.986 
-3.96902 6.18314 -178.985 
-3.98994 6.07948 -178.986 
-4.01085 5.97582 -178.988 
-4.03176 5.87216 -178.989 
-4.15364 5.78234 -178.988 
-4.17455 5.67868 -178.989 
-4.19546 5.57502 -178.991 
-4.21638 5.47136 -178.992 
-4.33824 5.38155 -178.991 
-4.35916 5.27789 -178.992 
-4.27912 5.16038 -178.996 
-4.30004 5.05672 -178.998 
-4.72476 5.00844 -178.989 
-4.84663 4.91862 -178.988 
-4.9685 4.82881 -178.987 
-5.09036 4.73899 -178.986 
-5.11128 4.63533 -178.988 
-5.13219 4.53167 -178.989 
-5.1531 4.42801 -178.99 
-5.27498 4.3382 -178.989 
-5.39684 4.24838 -178.988 
-5.41776 4.14472 -178.989 
-5.53963 4.0549 -178.988 
-5.66149 3.96509 -178.987 
-5.68241 3.86143 -178.989 
-5.70332 3.75777 -178.99 
-5.82519 3.66795 -178.989 
-5.8461 3.56429 -178.99 
-5.86702 3.46063 -178.992 
-5.98889 3.37082 -178.991 
-6.0098 3.26715 -178.992 
-6.03072 3.1635 -178.993 
-6.15258 3.07368 -178.992 
-6.1735 2.97002 -178.994 
-6.19441 2.86636 -178.995 
-6.21533 2.7627 -178.997 
-6.23624 2.65904 -178.998 
-6.25716 2.55538 -178.999 
-6.27807 2.45172 -179.001 
-6.29899 2.34806 -179.002 
-6.3199 2.2444 -179.003 
-6.34082 2.14074 -179.005 
-6.36173 2.03708 -179.006 
-6.2817 1.91957 -179.01 
-6.30261 1.81591 -179.011 
-6.22258 1.69841 -179.015 
-6.24349 1.59475 -179.016 
-6.26441 1.49109 -179.018 
-6.28532 1.38743 -179.019 
-6.30624 1.28377 -179.02 
-6.32715 1.18011 -179.022 
-6.34806 1.07645 -179.023 
-6.36898 0.972787 -179.025 
-6.3899 0.869128 -179.026 
-6.41081 0.765468 -179.027 
-6.33077 0.647961 -179.031 
-6.35169 0.544302 -179.032 
-6.3726 0.440643 -179.034 
-6.39352 0.336984 -179.035 
-6.31349 0.219479 -179.039 
-6.3344 0.115817 -179.04 
-6.25436 -0.00168666 -179.044 
-6.27528 -0.105348 -179.046 
-6.19524 -0.22285 -179.049 
-6.1152 -0.340357 -179.053 
-6.03517 -0.45786 -179.057 
-6.05608 -0.56152 -179.058 
-5.97604 -0.679026 -179.062 
-5.89601 -0.796531 -179.066 
-5.81597 -0.914034 -179.07 
-5.73594 -1.03154 -179.073 
-5.75685 -1.1352 -179.075 
-5.67681 -1.2527 -179.079 
-5.69773 -1.35636 -179.08 
-6.57587 2.55318 -178.987 
-6.6365 2.41446 -178.986 
-6.69713 2.27575 -178.985 
-6.75776 2.13703 -178.984 
-6.72405 2.0368 -178.986 
-6.78468 1.89809 -178.984 
-6.75096 1.79786 -178.986 
-6.81159 1.65914 -178.985 
-6.87223 1.52042 -178.984 
-6.83851 1.42019 -178.985 
-6.89914 1.28148 -178.984 
-6.86543 1.18125 -178.985 
-6.83171 1.08102 -178.987 
-6.79799 0.980787 -178.988 
-6.85863 0.84207 -178.987 
-6.82491 0.741839 -178.988 
-6.88554 0.603125 -178.987 
-6.85182 0.502895 -178.989 
-6.8181 0.402666 -178.99 
-6.87874 0.263949 -178.989 
-6.84502 0.16372 -178.99 
-6.8113 0.0634888 -178.992 
-6.77759 -0.0367408 -178.993 
-6.83822 -0.175458 -178.992 
-6.8045 -0.275688 -178.993 
-6.77079 -0.375918 -178.995 
-6.73707 -0.476149 -178.996 
-6.70335 -0.576377 -178.998 
-6.66963 -0.676609 -178.999 
-6.63592 -0.776837 -179 
-6.6022 -0.877069 -179.002 
-6.56848 -0.977297 -179.003 
-6.53477 -1.07753 -179.004 
-6.50105 -1.17776 -179.006 
-6.46733 -1.27799 -179.007 
-6.43362 -1.37822 -179.008 
-6.3999 -1.47845 -179.01 
-6.36618 -1.57868 -179.011 
-6.33246 -1.67891 -179.013 
-6.29875 -1.77914 -179.014 
-6.26503 -1.87937 -179.015 
-6.23131 -1.9796 -179.017 
-6.1976 -2.07983 -179.018 
-6.16388 -2.18006 -179.019 
-6.13016 -2.28029 -179.021 
-6.09645 -2.38052 -179.022 
-6.06273 -2.48075 -179.024 
-6.02901 -2.58098 -179.025 
-5.90095 -2.64272 -179.029 
-5.86723 -2.74295 -179.03 
-5.83351 -2.84318 -179.031 
-5.79979 -2.94341 -179.033 
-5.76608 -3.04364 -179.034 
-5.73236 -3.14387 -179.035 
-5.69864 -3.2441 -179.037 
-5.66492 -3.34433 -179.038 
-5.63121 -3.44456 -179.04 
-5.50314 -3.5063 -179.043 
-5.46942 -3.60653 -179.045 
-5.43571 -3.70676 -179.046 
-5.40199 -3.80699 -179.047 
-5.27393 -3.86874 -179.051 
-5.24021 -3.96897 -179.053 
-5.20649 -4.0692 -179.054 
-5.17277 -4.16942 -179.055 
-5.13906 -4.26966 -179.057 
-5.10534 -4.36989 -179.058 
-4.97727 -4.43163 -179.062 
-4.94356 -4.53186 -179.063 
-4.90984 -4.63209 -179.065 
-4.78177 -4.69383 -179.068 
-4.74806 -4.79406 -179.07 
-4.71434 -4.89429 -179.071 
-4.58627 -4.95604 -179.075 
-4.55255 -5.05626 -179.076 
-4.51884 -5.15649 -179.078 
-4.48512 -5.25672 -179.079 
-4.45141 -5.35696 -179.08 
-4.41769 -5.45718 -179.082 
-4.38397 -5.55741 -179.083 
-4.2559 -5.61916 -179.087 
-4.22219 -5.71939 -179.088 
-4.09412 -5.78113 -179.092 
-4.06041 -5.88136 -179.093 
-4.02669 -5.98159 -179.095 
-3.99297 -6.08182 -179.096 
-3.86491 -6.14357 -179.1 
-3.83119 -6.24379 -179.101 
-3.79747 -6.34402 -179.103 
-3.76375 -6.44425 -179.104 
-3.73004 -6.54449 -179.105 
-3.60197 -6.60623 -179.109 
-3.56826 -6.70646 -179.111 
-3.53454 -6.80669 -179.112 
-3.50082 -6.90692 -179.113 
-3.37276 -6.96866 -179.117 
-3.33904 -7.06889 -179.118 
-3.30532 -7.16912 -179.12 
-3.2716 -7.26935 -179.121 
-3.23789 -7.36958 -179.123 
-3.10982 -7.43132 -179.126 
-3.0761 -7.53155 -179.128 
-3.04238 -7.63178 -179.129 
-3.00867 -7.73201 -179.13 
-2.97495 -7.83225 -179.132 
-2.84689 -7.89399 -179.136 
-2.81317 -7.99422 -179.137 
-2.77945 -8.09445 -179.138 
-2.74574 -8.19468 -179.14 
-2.61767 -8.25642 -179.143 
-2.58395 -8.35665 -179.145 
-2.55023 -8.45688 -179.146 
-2.42217 -8.51863 -179.15 
-2.38845 -8.61885 -179.151 
-2.35473 -8.71908 -179.153 
-2.22667 -8.78083 -179.157 
-2.19295 -8.88106 -179.158 
-2.15923 -8.98129 -179.159 
-2.03117 -9.04303 -179.163 
-1.99745 -9.14326 -179.164 
