ply
format ascii 1.0
comment VCGLIB generated
element vertex 871
property float x
property float y
property float z
element face 0
property list uchar int vertex_indices
end_header
19.2243 -53.0224 -171.341 
19.3325 -52.9701 -171.342 
19.4406 -52.9178 -171.342 
19.5487 -52.8655 -171.342 
19.6062 -52.7193 -171.348 
19.7144 -52.667 -171.349 
19.8225 -52.6147 -171.349 
19.9306 -52.5624 -171.349 
20.0387 -52.5101 -171.349 
20.1468 -52.4578 -171.349 
20.2549 -52.4055 -171.349 
20.3631 -52.3532 -171.35 
20.4712 -52.3009 -171.35 
20.5793 -52.2486 -171.35 
20.6874 -52.1963 -171.35 
20.7955 -52.144 -171.35 
20.9036 -52.0917 -171.35 
21.0118 -52.0394 -171.351 
21.1199 -51.9872 -171.351 
21.1774 -51.8409 -171.357 
21.2855 -51.7886 -171.357 
21.3937 -51.7363 -171.358 
21.5018 -51.684 -171.358 
21.6099 -51.6317 -171.358 
21.718 -51.5794 -171.358 
21.8261 -51.5271 -171.358 
21.9342 -51.4748 -171.358 
22.0424 -51.4225 -171.359 
22.1505 -51.3703 -171.359 
22.3092 -51.4119 -171.353 
22.4173 -51.3596 -171.353 
22.5254 -51.3073 -171.353 
22.6335 -51.2551 -171.353 
22.7416 -51.2028 -171.353 
22.8498 -51.1505 -171.353 
23.0084 -51.1921 -171.347 
23.1166 -51.1399 -171.347 
23.2247 -51.0876 -171.348 
23.3328 -51.0353 -171.348 
23.4409 -50.983 -171.348 
23.549 -50.9307 -171.348 
23.6571 -50.8784 -171.348 
23.7653 -50.8261 -171.348 
23.8734 -50.7738 -171.349 
23.9815 -50.7215 -171.349 
24.0896 -50.6692 -171.349 
24.1977 -50.6169 -171.349 
24.3059 -50.5646 -171.349 
24.414 -50.5123 -171.349 
24.4715 -50.3661 -171.356 
24.5796 -50.3138 -171.356 
24.6372 -50.1675 -171.363 
24.6947 -50.0213 -171.369 
24.8029 -49.969 -171.369 
24.8604 -49.8227 -171.376 
24.9685 -49.7704 -171.376 
25.0766 -49.7181 -171.376 
25.1847 -49.6658 -171.376 
25.2929 -49.6135 -171.376 
25.401 -49.5612 -171.377 
25.5091 -49.5089 -171.377 
25.6172 -49.4566 -171.377 
25.7253 -49.4044 -171.377 
25.8335 -49.3521 -171.377 
25.9416 -49.2998 -171.377 
26.0497 -49.2475 -171.378 
26.1578 -49.1952 -171.378 
26.2659 -49.1429 -171.378 
26.374 -49.0906 -171.378 
26.4822 -49.0383 -171.378 
26.5903 -48.986 -171.378 
26.6984 -48.9337 -171.379 
26.8065 -48.8814 -171.379 
26.9146 -48.8291 -171.379 
27.0227 -48.7768 -171.379 
27.1309 -48.7245 -171.379 
27.239 -48.6722 -171.379 
27.3977 -48.7139 -171.373 
27.5058 -48.6616 -171.373 
27.6139 -48.6093 -171.374 
27.722 -48.557 -171.374 
27.8807 -48.5987 -171.368 
27.9888 -48.5464 -171.368 
28.0969 -48.4941 -171.368 
28.2051 -48.4418 -171.368 
28.3637 -48.4835 -171.362 
28.4719 -48.4312 -171.362 
28.58 -48.3789 -171.362 
28.6881 -48.3266 -171.362 
28.7962 -48.2744 -171.363 
28.9043 -48.2221 -171.363 
29.0125 -48.1698 -171.363 
29.1206 -48.1175 -171.363 
29.2287 -48.0652 -171.363 
29.3368 -48.0129 -171.363 
29.4449 -47.9606 -171.364 
29.553 -47.9083 -171.364 
29.6612 -47.856 -171.364 
29.7693 -47.8037 -171.364 
29.928 -47.8454 -171.358 
30.0361 -47.7931 -171.358 
30.1948 -47.8348 -171.352 
30.3029 -47.7825 -171.352 
30.4616 -47.8242 -171.346 
30.6203 -47.8658 -171.34 
30.7789 -47.9075 -171.334 
30.9376 -47.9492 -171.327 
31.0963 -47.9909 -171.321 
31.255 -48.0325 -171.315 
31.4137 -48.0742 -171.309 
31.5724 -48.1159 -171.303 
31.7311 -48.1576 -171.297 
31.8897 -48.1992 -171.29 
31.9979 -48.147 -171.291 
32.1565 -48.1886 -171.284 
32.2647 -48.1363 -171.285 
32.3728 -48.084 -171.285 
32.5315 -48.1257 -171.279 
32.6396 -48.0734 -171.279 
32.7477 -48.0211 -171.279 
32.8558 -47.9688 -171.279 
33.0145 -48.0105 -171.273 
33.1226 -47.9582 -171.273 
33.2307 -47.9059 -171.273 
33.3894 -47.9476 -171.267 
33.4975 -47.8953 -171.267 
33.6057 -47.843 -171.267 
33.7643 -47.8847 -171.261 
33.923 -47.9264 -171.255 
34.0312 -47.8741 -171.255 
34.1898 -47.9158 -171.249 
34.298 -47.8635 -171.249 
34.4566 -47.9052 -171.243 
34.5648 -47.8529 -171.243 
34.7234 -47.8945 -171.237 
34.8316 -47.8422 -171.237 
34.9397 -47.7899 -171.237 
35.0478 -47.7377 -171.238 
35.2065 -47.7793 -171.231 
35.3146 -47.727 -171.232 
35.4227 -47.6747 -171.232 
35.5308 -47.6225 -171.232 
35.639 -47.5702 -171.232 
35.7471 -47.5179 -171.232 
35.8552 -47.4656 -171.232 
35.9633 -47.4133 -171.233 
36.122 -47.455 -171.226 
36.2301 -47.4027 -171.227 
36.3382 -47.3504 -171.227 
36.4463 -47.2981 -171.227 
36.605 -47.3398 -171.221 
36.7131 -47.2875 -171.221 
36.8213 -47.2352 -171.221 
36.9799 -47.2769 -171.215 
37.0881 -47.2246 -171.215 
37.1962 -47.1723 -171.215 
37.3043 -47.12 -171.215 
37.463 -47.1616 -171.209 
37.5711 -47.1094 -171.209 
37.6792 -47.0571 -171.209 
37.7873 -47.0048 -171.21 
37.8955 -46.9525 -171.21 
38.0541 -46.9942 -171.204 
38.1623 -46.9419 -171.204 
38.2704 -46.8896 -171.204 
38.3785 -46.8373 -171.204 
38.5372 -46.879 -171.198 
38.6453 -46.8267 -171.198 
38.7534 -46.7744 -171.198 
38.9121 -46.816 -171.192 
39.0708 -46.8577 -171.186 
39.1789 -46.8054 -171.186 
39.3376 -46.8471 -171.18 
39.4457 -46.7948 -171.18 
39.6044 -46.8365 -171.174 
39.7125 -46.7842 -171.174 
39.8206 -46.7319 -171.174 
39.9793 -46.7736 -171.168 
40.0874 -46.7213 -171.168 
40.1956 -46.669 -171.168 
40.3037 -46.6167 -171.169 
40.4118 -46.5644 -171.169 
40.5199 -46.5121 -171.169 
40.628 -46.4598 -171.169 
40.7361 -46.4075 -171.169 
40.8443 -46.3552 -171.169 
40.9524 -46.3029 -171.17 
41.0605 -46.2506 -171.17 
41.1686 -46.1984 -171.17 
41.2767 -46.1461 -171.17 
41.3848 -46.0938 -171.17 
41.493 -46.0415 -171.17 
41.6011 -45.9892 -171.171 
41.7092 -45.9369 -171.171 
41.8173 -45.8846 -171.171 
41.9254 -45.8323 -171.171 
42.0336 -45.78 -171.171 
42.0911 -45.6337 -171.178 
42.1992 -45.5815 -171.178 
42.3073 -45.5292 -171.178 
42.4155 -45.4769 -171.178 
42.5236 -45.4246 -171.178 
42.5811 -45.2783 -171.185 
42.6892 -45.226 -171.185 
42.7974 -45.1737 -171.185 
42.9055 -45.1214 -171.185 
42.963 -44.9752 -171.192 
43.0711 -44.9229 -171.192 
43.1793 -44.8706 -171.192 
43.2368 -44.7243 -171.199 
43.3449 -44.672 -171.199 
43.453 -44.6197 -171.199 
43.5612 -44.5674 -171.199 
43.6187 -44.4212 -171.206 
43.7268 -44.3689 -171.206 
43.8349 -44.3166 -171.206 
43.9431 -44.2643 -171.206 
44.0512 -44.212 -171.206 
44.1593 -44.1597 -171.207 
44.2674 -44.1074 -171.207 
44.3755 -44.0551 -171.207 
44.4836 -44.0028 -171.207 
44.5918 -43.9505 -171.207 
44.6999 -43.8982 -171.207 
44.808 -43.846 -171.208 
44.9161 -43.7937 -171.208 
45.0242 -43.7414 -171.208 
45.0818 -43.5951 -171.214 
45.1899 -43.5428 -171.215 
45.2474 -43.3966 -171.221 
45.3556 -43.3443 -171.221 
45.4131 -43.198 -171.228 
45.4707 -43.0517 -171.234 
45.5282 -42.9055 -171.241 
45.5858 -42.7592 -171.247 
45.6433 -42.6129 -171.254 
45.7009 -42.4667 -171.26 
45.7584 -42.3204 -171.267 
45.8665 -42.2681 -171.267 
45.9241 -42.1219 -171.274 
46.0322 -42.0696 -171.274 
46.0897 -41.9233 -171.28 
46.1979 -41.871 -171.28 
46.306 -41.8187 -171.281 
46.4141 -41.7664 -171.281 
46.5222 -41.7141 -171.281 
46.5798 -41.5679 -171.287 
46.6879 -41.5156 -171.288 
46.796 -41.4633 -171.288 
46.8535 -41.317 -171.294 
46.9111 -41.1708 -171.301 
46.9686 -41.0245 -171.307 
47.0768 -40.9722 -171.307 
47.1343 -40.8259 -171.314 
47.1918 -40.6797 -171.32 
47.2494 -40.5334 -171.327 
47.3069 -40.3872 -171.333 
47.4151 -40.3349 -171.334 
47.4726 -40.1886 -171.34 
47.5302 -40.0423 -171.347 
47.6383 -39.99 -171.347 
47.6958 -39.8438 -171.353 
47.7534 -39.6975 -171.36 
47.8109 -39.5513 -171.366 
47.8685 -39.405 -171.373 
47.926 -39.2587 -171.379 
47.9836 -39.1125 -171.386 
47.9906 -38.8722 -171.399 
48.0481 -38.726 -171.405 
48.1056 -38.5797 -171.412 
48.1632 -38.4334 -171.418 
48.2207 -38.2872 -171.425 
48.2783 -38.1409 -171.431 
48.3864 -38.0886 -171.431 
48.444 -37.9424 -171.438 
48.5521 -37.8901 -171.438 
48.6096 -37.7438 -171.445 
48.7177 -37.6915 -171.445 
48.7753 -37.5453 -171.451 
48.8834 -37.493 -171.451 
48.9915 -37.4407 -171.452 
49.0491 -37.2944 -171.458 
49.1066 -37.1481 -171.465 
49.2147 -37.0958 -171.465 
49.2723 -36.9496 -171.471 
49.3298 -36.8033 -171.478 
49.438 -36.751 -171.478 
49.4955 -36.6048 -171.484 
49.5531 -36.4585 -171.491 
49.6106 -36.3122 -171.497 
49.6682 -36.166 -171.504 
0.957071 -62.618 -170.968 
1.07655 -62.6058 -170.968 
1.19604 -62.5937 -170.968 
1.31551 -62.5815 -170.968 
1.435 -62.5694 -170.968 
1.55448 -62.5572 -170.968 
1.67397 -62.545 -170.969 
1.79345 -62.5329 -170.969 
1.91293 -62.5207 -170.969 
2.03241 -62.5086 -170.969 
2.15189 -62.4964 -170.969 
2.27138 -62.4842 -170.969 
2.39086 -62.4721 -170.97 
2.51034 -62.4599 -170.97 
2.62982 -62.4478 -170.97 
2.7493 -62.4356 -170.97 
2.86879 -62.4234 -170.97 
2.98827 -62.4113 -170.97 
3.10775 -62.3991 -170.971 
3.22724 -62.3869 -170.971 
3.34672 -62.3748 -170.971 
3.4662 -62.3626 -170.971 
3.58568 -62.3505 -170.971 
3.70517 -62.3383 -170.971 
3.82465 -62.3261 -170.972 
3.92875 -62.2084 -170.978 
4.04823 -62.1962 -170.978 
4.15234 -62.0785 -170.985 
4.25644 -61.9607 -170.991 
4.36054 -61.8429 -170.998 
4.48002 -61.8308 -170.998 
4.58413 -61.713 -171.004 
4.68823 -61.5953 -171.011 
4.80771 -61.5831 -171.011 
4.91181 -61.4653 -171.018 
5.0313 -61.4532 -171.018 
5.1354 -61.3354 -171.024 
5.25488 -61.3233 -171.025 
5.35899 -61.2055 -171.031 
5.47847 -61.1933 -171.031 
5.59795 -61.1812 -171.031 
5.71743 -61.169 -171.032 
5.82153 -61.0513 -171.038 
5.94102 -61.0391 -171.038 
6.0605 -61.0269 -171.038 
6.17998 -61.0148 -171.039 
6.28409 -60.897 -171.045 
6.40357 -60.8849 -171.045 
6.50767 -60.7671 -171.052 
6.62715 -60.7549 -171.052 
6.73126 -60.6372 -171.058 
6.83536 -60.5194 -171.065 
6.95484 -60.5073 -171.065 
7.05894 -60.3895 -171.072 
7.16305 -60.2717 -171.078 
7.28253 -60.2596 -171.078 
7.40201 -60.2474 -171.078 
7.50611 -60.1297 -171.085 
7.6256 -60.1175 -171.085 
7.74508 -60.1053 -171.085 
7.86456 -60.0932 -171.085 
7.98405 -60.081 -171.086 
8.10353 -60.0689 -171.086 
8.20763 -59.9511 -171.092 
8.31173 -59.8333 -171.099 
8.41584 -59.7156 -171.105 
8.53532 -59.7034 -171.105 
8.63942 -59.5857 -171.112 
8.74352 -59.4679 -171.118 
8.84763 -59.3501 -171.125 
8.95173 -59.2324 -171.131 
9.05583 -59.1146 -171.138 
9.15994 -58.9969 -171.144 
9.27942 -58.9847 -171.145 
9.3989 -58.9725 -171.145 
9.51838 -58.9604 -171.145 
9.63787 -58.9482 -171.145 
9.74197 -58.8305 -171.152 
9.86145 -58.8183 -171.152 
9.98093 -58.8061 -171.152 
10.1004 -58.794 -171.152 
10.2045 -58.6762 -171.159 
10.3086 -58.5585 -171.165 
10.4281 -58.5463 -171.165 
10.5322 -58.4285 -171.172 
10.6363 -58.3108 -171.178 
10.7404 -58.193 -171.185 
10.8445 -58.0753 -171.191 
10.9486 -57.9575 -171.198 
11.0527 -57.8397 -171.204 
11.1568 -57.722 -171.211 
11.2609 -57.6042 -171.217 
11.365 -57.4865 -171.224 
11.4691 -57.3687 -171.23 
11.5886 -57.3565 -171.231 
11.6927 -57.2388 -171.237 
11.8122 -57.2266 -171.237 
11.9163 -57.1089 -171.244 
12.0358 -57.0967 -171.244 
12.1553 -57.0845 -171.244 
12.2748 -57.0724 -171.244 
12.3789 -56.9546 -171.251 
12.4983 -56.9425 -171.251 
12.6178 -56.9303 -171.251 
12.7373 -56.9181 -171.251 
12.8414 -56.8004 -171.258 
12.9609 -56.7882 -171.258 
13.065 -56.6705 -171.264 
13.1845 -56.6583 -171.265 
13.2886 -56.5405 -171.271 
13.3927 -56.4228 -171.278 
13.5122 -56.4106 -171.278 
13.6316 -56.3985 -171.278 
13.7357 -56.2807 -171.284 
13.8552 -56.2685 -171.285 
13.9593 -56.1508 -171.291 
14.0788 -56.1386 -171.291 
14.1983 -56.1265 -171.291 
14.3024 -56.0087 -171.298 
14.4219 -55.9965 -171.298 
14.5414 -55.9844 -171.298 
14.6455 -55.8666 -171.305 
14.7649 -55.8545 -171.305 
14.8691 -55.7367 -171.311 
14.9885 -55.7245 -171.312 
15.0926 -55.6068 -171.318 
15.1967 -55.489 -171.325 
15.3162 -55.4769 -171.325 
15.4357 -55.4647 -171.325 
15.5398 -55.3469 -171.331 
15.6593 -55.3348 -171.332 
15.7634 -55.217 -171.338 
15.8829 -55.2049 -171.338 
16.0024 -55.1927 -171.338 
16.1065 -55.0749 -171.345 
16.2259 -55.0628 -171.345 
16.3454 -55.0506 -171.345 
16.4495 -54.9329 -171.352 
16.569 -54.9207 -171.352 
16.6731 -54.8029 -171.358 
16.7926 -54.7908 -171.359 
16.8967 -54.673 -171.365 
17.0162 -54.6609 -171.365 
17.1203 -54.5431 -171.372 
17.2244 -54.4253 -171.378 
17.3285 -54.3076 -171.385 
17.4326 -54.1898 -171.391 
17.5367 -54.0721 -171.398 
17.6408 -53.9543 -171.404 
17.7603 -53.9421 -171.404 
17.8644 -53.8244 -171.411 
17.9685 -53.7066 -171.417 
18.0726 -53.5889 -171.424 
18.1921 -53.5767 -171.424 
18.2962 -53.4589 -171.431 
18.4157 -53.4468 -171.431 
18.5351 -53.4346 -171.431 
18.6392 -53.3169 -171.438 
18.7587 -53.3047 -171.438 
18.8628 -53.1869 -171.444 
18.9669 -53.0692 -171.451 
19.071 -52.9514 -171.457 
19.1751 -52.8337 -171.464 
19.2792 -52.7159 -171.47 
19.3987 -52.7037 -171.47 
19.5028 -52.586 -171.477 
19.6069 -52.4682 -171.483 
19.711 -52.3505 -171.49 
19.8151 -52.2327 -171.496 
19.9346 -52.2205 -171.497 
20.0541 -52.2084 -171.497 
20.1582 -52.0906 -171.503 
20.2777 -52.0785 -171.503 
20.3972 -52.0663 -171.504 
20.5013 -51.9485 -171.51 
20.6208 -51.9364 -171.51 
20.7402 -51.9242 -171.51 
20.8443 -51.8065 -171.517 
20.9638 -51.7943 -171.517 
21.0679 -51.6765 -171.524 
21.1874 -51.6644 -171.524 
21.2915 -51.5466 -171.53 
21.411 -51.5345 -171.53 
21.5151 -51.4167 -171.537 
21.6346 -51.4045 -171.537 
21.7387 -51.2868 -171.544 
21.8582 -51.2746 -171.544 
21.9623 -51.1569 -171.55 
22.0817 -51.1447 -171.55 
22.2012 -51.1325 -171.551 
22.3053 -51.0148 -171.557 
22.4248 -51.0026 -171.557 
22.5443 -50.9905 -171.557 
22.6638 -50.9783 -171.558 
22.7679 -50.8605 -171.564 
22.8874 -50.8484 -171.564 
23.0068 -50.8362 -171.564 
23.1263 -50.8241 -171.565 
23.2458 -50.8119 -171.565 
23.3653 -50.7997 -171.565 
23.4848 -50.7876 -171.565 
23.6043 -50.7754 -171.565 
23.7237 -50.7633 -171.565 
23.8432 -50.7511 -171.566 
23.9627 -50.7389 -171.566 
24.0668 -50.6212 -171.572 
24.1863 -50.609 -171.572 
24.3058 -50.5968 -171.573 
24.4253 -50.5847 -171.573 
24.5294 -50.4669 -171.579 
24.6488 -50.4548 -171.579 
24.7529 -50.337 -171.586 
24.8724 -50.3248 -171.586 
24.9765 -50.2071 -171.593 
25.096 -50.1949 -171.593 
25.2001 -50.0772 -171.599 
25.3042 -49.9594 -171.606 
25.4237 -49.9473 -171.606 
25.5278 -49.8295 -171.612 
25.6319 -49.7117 -171.619 
25.7514 -49.6996 -171.619 
25.8555 -49.5818 -171.626 
25.9596 -49.4641 -171.632 
26.0791 -49.4519 -171.632 
26.1986 -49.4397 -171.633 
26.3027 -49.322 -171.639 
26.4221 -49.3098 -171.639 
26.5416 -49.2976 -171.639 
26.6611 -49.2855 -171.64 
26.7652 -49.1677 -171.646 
26.8847 -49.1556 -171.646 
27.0042 -49.1434 -171.646 
27.1237 -49.1312 -171.647 
27.2431 -49.1191 -171.647 
27.3472 -49.0013 -171.653 
27.4667 -48.9892 -171.653 
27.5862 -48.977 -171.654 
27.7057 -48.9648 -171.654 
27.8098 -48.8471 -171.66 
27.9293 -48.8349 -171.66 
28.0488 -48.8228 -171.661 
28.1529 -48.705 -171.667 
28.2724 -48.6928 -171.667 
28.3918 -48.6807 -171.667 
28.5113 -48.6685 -171.668 
28.6154 -48.5508 -171.674 
28.7349 -48.5386 -171.674 
28.8544 -48.5264 -171.674 
28.9739 -48.5143 -171.675 
29.0933 -48.5021 -171.675 
29.2128 -48.49 -171.675 
29.3323 -48.4778 -171.675 
29.4518 -48.4656 -171.675 
29.5713 -48.4535 -171.675 
29.6908 -48.4413 -171.676 
29.8102 -48.4291 -171.676 
29.9297 -48.417 -171.676 
30.0492 -48.4048 -171.676 
30.1687 -48.3927 -171.676 
30.2882 -48.3805 -171.676 
30.4076 -48.3683 -171.677 
30.5271 -48.3562 -171.677 
30.6466 -48.344 -171.677 
30.7661 -48.3319 -171.677 
30.8856 -48.3197 -171.677 
31.0051 -48.3075 -171.677 
31.1399 -48.401 -171.671 
31.2594 -48.3888 -171.671 
31.3789 -48.3767 -171.672 
31.4984 -48.3645 -171.672 
31.6332 -48.4579 -171.666 
31.7527 -48.4458 -171.666 
31.8722 -48.4336 -171.666 
31.9917 -48.4214 -171.666 
32.1265 -48.5149 -171.66 
32.246 -48.5027 -171.66 
32.3655 -48.4906 -171.66 
32.485 -48.4784 -171.66 
32.6045 -48.4662 -171.661 
32.724 -48.4541 -171.661 
32.8434 -48.4419 -171.661 
32.9629 -48.4298 -171.661 
33.0824 -48.4176 -171.661 
33.2019 -48.4054 -171.661 
33.3367 -48.4989 -171.655 
33.4562 -48.4867 -171.655 
33.5757 -48.4746 -171.656 
33.6952 -48.4624 -171.656 
33.8147 -48.4502 -171.656 
33.9342 -48.4381 -171.656 
-17.3109 -43.7045 -171.906 
-17.1944 -43.7339 -171.906 
-17.0997 -43.8679 -171.9 
-16.9832 -43.8973 -171.9 
-16.8885 -44.0312 -171.894 
-16.7937 -44.1652 -171.888 
-16.6989 -44.2991 -171.881 
-16.6042 -44.433 -171.875 
-16.5094 -44.5669 -171.869 
-16.4146 -44.7009 -171.863 
-16.3198 -44.8348 -171.857 
-16.2251 -44.9687 -171.851 
-16.152 -45.2071 -171.838 
-16.0572 -45.3411 -171.832 
-15.9624 -45.475 -171.826 
-15.8676 -45.6089 -171.82 
-15.7729 -45.7429 -171.813 
-15.6781 -45.8768 -171.807 
-15.5833 -46.0107 -171.801 
-15.5102 -46.2491 -171.788 
-15.4155 -46.3831 -171.782 
-15.3207 -46.517 -171.776 
-15.2259 -46.6509 -171.77 
-15.1311 -46.7849 -171.764 
-15.0364 -46.9188 -171.758 
-14.9416 -47.0527 -171.751 
-14.8468 -47.1866 -171.745 
-14.752 -47.3206 -171.739 
-14.6573 -47.4545 -171.733 
-14.5625 -47.5884 -171.727 
-14.4677 -47.7223 -171.721 
-14.373 -47.8563 -171.714 
-14.2782 -47.9902 -171.708 
-14.1834 -48.1241 -171.702 
-14.0887 -48.2581 -171.696 
-13.9939 -48.392 -171.69 
-13.8991 -48.5259 -171.684 
-13.826 -48.7643 -171.671 
-13.7312 -48.8983 -171.665 
-13.6365 -49.0322 -171.659 
-13.5417 -49.1661 -171.653 
-13.4469 -49.3 -171.646 
-13.3738 -49.5385 -171.634 
-13.279 -49.6724 -171.628 
-13.1843 -49.8063 -171.622 
-13.0895 -49.9402 -171.615 
-12.9947 -50.0742 -171.609 
-12.9 -50.2081 -171.603 
-12.8052 -50.342 -171.597 
-12.7104 -50.476 -171.591 
-12.6156 -50.6099 -171.584 
-12.4992 -50.6393 -171.585 
-12.4044 -50.7733 -171.578 
-12.3097 -50.9072 -171.572 
-12.2149 -51.0411 -171.566 
-12.1201 -51.175 -171.56 
-12.0253 -51.309 -171.554 
-11.9306 -51.4429 -171.548 
-11.8358 -51.5768 -171.541 
-11.7627 -51.8152 -171.529 
-11.6679 -51.9492 -171.523 
-11.5732 -52.0831 -171.517 
-11.4784 -52.217 -171.51 
-11.3836 -52.351 -171.504 
-11.2888 -52.4849 -171.498 
-11.1941 -52.6188 -171.492 
-11.0776 -52.6482 -171.492 
-10.9829 -52.7822 -171.486 
-10.8881 -52.9161 -171.48 
-10.7717 -52.9455 -171.48 
-10.6769 -53.0795 -171.474 
-10.5604 -53.1089 -171.474 
-10.444 -53.1383 -171.474 
-10.3492 -53.2723 -171.468 
-10.2328 -53.3017 -171.468 
-10.138 -53.4356 -171.462 
-10.0216 -53.4651 -171.462 
-9.92683 -53.599 -171.456 
-9.81039 -53.6284 -171.456 
-9.71562 -53.7624 -171.45 
-9.62085 -53.8963 -171.444 
-9.52608 -54.0302 -171.438 
-9.4313 -54.1642 -171.431 
-9.33653 -54.2981 -171.425 
-9.24176 -54.432 -171.419 
-9.14699 -54.5659 -171.413 
-9.07389 -54.8044 -171.4 
-8.97911 -54.9383 -171.394 
-8.88434 -55.0722 -171.388 
-8.81124 -55.3106 -171.375 
-8.71646 -55.4446 -171.369 
-8.62169 -55.5785 -171.363 
-8.52692 -55.7124 -171.357 
-8.43215 -55.8463 -171.351 
-8.33738 -55.9803 -171.345 
-8.24261 -56.1142 -171.338 
-8.14784 -56.2481 -171.332 
-8.0314 -56.2776 -171.332 
-7.93663 -56.4115 -171.326 
-7.8202 -56.4409 -171.326 
-7.70376 -56.4704 -171.327 
-7.60898 -56.6043 -171.32 
-7.49255 -56.6337 -171.321 
-7.39778 -56.7677 -171.314 
-7.30301 -56.9016 -171.308 
-7.20823 -57.0355 -171.302 
-7.11347 -57.1694 -171.296 
-7.01869 -57.3034 -171.29 
-6.92392 -57.4373 -171.284 
-6.82915 -57.5712 -171.277 
-6.73438 -57.7052 -171.271 
-6.63961 -57.8391 -171.265 
-6.54484 -57.973 -171.259 
-6.4284 -58.0025 -171.259 
-6.33363 -58.1364 -171.253 
-6.21719 -58.1658 -171.253 
-6.10076 -58.1953 -171.253 
-5.98432 -58.2247 -171.253 
-5.88955 -58.3586 -171.247 
-5.77311 -58.3881 -171.247 
-5.65668 -58.4175 -171.248 
-5.56191 -58.5514 -171.241 
-5.44547 -58.5809 -171.242 
-5.3507 -58.7148 -171.235 
-5.23426 -58.7442 -171.236 
-5.13949 -58.8782 -171.229 
-5.02305 -58.9076 -171.23 
-4.92828 -59.0415 -171.223 
-4.83351 -59.1754 -171.217 
-4.71708 -59.2049 -171.217 
-4.62231 -59.3388 -171.211 
-4.52753 -59.4727 -171.205 
-4.43276 -59.6067 -171.199 
-4.33799 -59.7406 -171.193 
-4.22155 -59.77 -171.193 
-4.12678 -59.904 -171.187 
-4.03201 -60.0379 -171.18 
-3.91557 -60.0673 -171.181 
-3.82081 -60.2013 -171.174 
-3.70437 -60.2307 -171.175 
-3.6096 -60.3646 -171.168 
-3.49316 -60.3941 -171.169 
-3.39839 -60.528 -171.162 
-3.28195 -60.5574 -171.163 
-3.16552 -60.5869 -171.163 
-3.07075 -60.7208 -171.157 
-2.95431 -60.7502 -171.157 
-2.83788 -60.7797 -171.157 
-2.7431 -60.9136 -171.151 
-2.62667 -60.943 -171.151 
-2.51023 -60.9725 -171.151 
-2.41546 -61.1064 -171.145 
-2.32069 -61.2403 -171.139 
-2.20425 -61.2698 -171.139 
-2.10948 -61.4037 -171.133 
-2.01471 -61.5376 -171.127 
-1.89827 -61.5671 -171.127 
-1.8035 -61.701 -171.121 
-1.70873 -61.8349 -171.114 
-1.5923 -61.8644 -171.115 
-1.47586 -61.8938 -171.115 
-1.38109 -62.0277 -171.109 
-1.26465 -62.0572 -171.109 
-1.14822 -62.0866 -171.109 
-1.03178 -62.116 -171.109 
-0.915343 -62.1455 -171.109 
-0.798906 -62.1749 -171.109 
-0.682467 -62.2044 -171.11 
-0.566034 -62.2338 -171.11 
-0.449598 -62.2632 -171.11 
-0.333164 -62.2927 -171.11 
-0.216727 -62.3221 -171.11 
-0.100293 -62.3515 -171.11 
0.0161448 -62.381 -171.111 
0.132582 -62.4104 -171.111 
0.249019 -62.4398 -171.111 
0.365457 -62.4693 -171.111 
0.48189 -62.4987 -171.111 
0.61999 -62.4237 -171.118 
0.736424 -62.4531 -171.118 
0.852862 -62.4826 -171.118 
0.99096 -62.4075 -171.125 
1.1074 -62.4369 -171.125 
1.22383 -62.4664 -171.125 
1.34027 -62.4958 -171.125 
1.45671 -62.5253 -171.125 
1.57314 -62.5547 -171.125 
1.68958 -62.5841 -171.126 
1.80601 -62.6136 -171.126 
1.92245 -62.643 -171.126 
2.03888 -62.6724 -171.126 
2.15532 -62.7019 -171.126 
2.27176 -62.7313 -171.126 
2.38819 -62.7608 -171.127 
2.5263 -62.6857 -171.133 
2.64273 -62.7151 -171.133 
2.78084 -62.6401 -171.14 
2.89727 -62.6695 -171.14 
3.03537 -62.5945 -171.146 
3.15181 -62.6239 -171.147 
3.26824 -62.6533 -171.147 
3.40634 -62.5783 -171.153 
3.54444 -62.5032 -171.16 
3.66088 -62.5327 -171.16 
3.79898 -62.4576 -171.166 
3.91542 -62.4871 -171.167 
4.05352 -62.412 -171.173 
4.19162 -62.337 -171.18 
4.32972 -62.2619 -171.186 
4.46782 -62.1869 -171.193 
4.60592 -62.1118 -171.199 
4.74402 -62.0367 -171.206 
4.88212 -61.9617 -171.212 
5.04189 -61.7822 -171.225 
5.17999 -61.7071 -171.232 
5.31809 -61.6321 -171.238 
5.45619 -61.557 -171.245 
5.59429 -61.482 -171.251 
5.73239 -61.4069 -171.258 
5.8705 -61.3318 -171.264 
6.00859 -61.2568 -171.271 
6.16836 -61.0773 -171.283 
6.30646 -61.0022 -171.29 
6.44456 -60.9271 -171.296 
6.58267 -60.8521 -171.303 
6.74243 -60.6726 -171.316 
6.88053 -60.5975 -171.322 
7.04029 -60.418 -171.335 
7.17839 -60.3429 -171.342 
7.33816 -60.1634 -171.354 
7.47626 -60.0883 -171.361 
7.61436 -60.0133 -171.367 
7.75246 -59.9382 -171.374 
7.89057 -59.8632 -171.38 
8.02866 -59.7881 -171.387 
8.1451 -59.8175 -171.387 
8.2832 -59.7425 -171.394 
8.4213 -59.6674 -171.4 
8.53774 -59.6969 -171.4 
8.67584 -59.6218 -171.407 
8.81394 -59.5468 -171.413 
8.93038 -59.5762 -171.413 
9.06848 -59.5012 -171.42 
9.20658 -59.4261 -171.426 
9.34468 -59.3511 -171.433 
9.48278 -59.276 -171.44 
9.64254 -59.0965 -171.452 
9.78064 -59.0214 -171.459 
9.94041 -58.8419 -171.472 
10.0785 -58.7668 -171.478 
10.2383 -58.5873 -171.491 
10.398 -58.4077 -171.504 
10.5361 -58.3327 -171.51 
10.6959 -58.1531 -171.523 
10.8557 -57.9736 -171.536 
10.9938 -57.8985 -171.543 
11.1319 -57.8235 -171.549 
11.27 -57.7484 -171.556 
11.4081 -57.6734 -171.562 
11.5462 -57.5983 -171.569 
11.6843 -57.5233 -171.575 
11.8007 -57.5527 -171.575 
11.9388 -57.4777 -171.582 
12.0769 -57.4026 -171.588 
12.215 -57.3275 -171.595 
12.3531 -57.2525 -171.601 
12.4912 -57.1774 -171.608 
12.6293 -57.1024 -171.614 
12.7891 -56.9229 -171.627 
12.9272 -56.8478 -171.634 
13.0653 -56.7727 -171.64 
13.2034 -56.6977 -171.647 
13.3415 -56.6226 -171.653 
13.4796 -56.5476 -171.66 
13.6177 -56.4725 -171.666 
13.7558 -56.3975 -171.673 
13.8939 -56.3224 -171.679 
14.032 -56.2474 -171.686 
14.1918 -56.0678 -171.699 
14.3299 -55.9928 -171.705 
14.4896 -55.8132 -171.718 
14.6277 -55.7382 -171.724 
14.7875 -55.5586 -171.737 
14.9473 -55.3791 -171.75 
15.0854 -55.3041 -171.757 
15.2451 -55.1245 -171.769 
15.3832 -55.0495 -171.776 
15.5213 -54.9744 -171.782 
15.6594 -54.8994 -171.789 
15.7759 -54.9288 -171.789 
