ply
format ascii 1.0
comment VCGLIB generated
element vertex 873
property float x
property float y
property float z
element face 0
property list uchar int vertex_indices
end_header
19.2749 -53.1164 -169.335 
19.383 -53.0641 -169.335 
19.4911 -53.0118 -169.335 
19.5993 -52.9595 -169.336 
19.7074 -52.9072 -169.336 
19.8155 -52.8549 -169.336 
19.9236 -52.8026 -169.336 
20.0317 -52.7503 -169.336 
20.1398 -52.698 -169.336 
20.248 -52.6457 -169.337 
20.3561 -52.5934 -169.337 
20.4642 -52.5411 -169.337 
20.5217 -52.3949 -169.343 
20.6299 -52.3426 -169.344 
20.738 -52.2903 -169.344 
20.8461 -52.238 -169.344 
20.9542 -52.1857 -169.344 
21.0623 -52.1334 -169.344 
21.1704 -52.0811 -169.344 
21.2786 -52.0288 -169.345 
21.3867 -51.9765 -169.345 
21.4948 -51.9242 -169.345 
21.6029 -51.872 -169.345 
21.711 -51.8197 -169.345 
21.8192 -51.7674 -169.345 
21.9273 -51.7151 -169.346 
22.0354 -51.6628 -169.346 
22.1435 -51.6105 -169.346 
22.2516 -51.5582 -169.346 
22.3597 -51.5059 -169.346 
22.4173 -51.3596 -169.353 
22.5254 -51.3073 -169.353 
22.6335 -51.2551 -169.353 
22.6911 -51.1088 -169.36 
22.7992 -51.0565 -169.36 
22.8567 -50.9102 -169.366 
22.9649 -50.8579 -169.366 
23.0224 -50.7117 -169.373 
23.08 -50.5654 -169.379 
23.1881 -50.5131 -169.38 
23.2962 -50.4608 -169.38 
23.3537 -50.3146 -169.386 
23.4619 -50.2623 -169.386 
23.57 -50.21 -169.387 
23.6781 -50.1577 -169.387 
23.7356 -50.0114 -169.393 
23.8438 -49.9591 -169.393 
23.9519 -49.9068 -169.394 
24.06 -49.8545 -169.394 
24.1681 -49.8022 -169.394 
24.2762 -49.75 -169.394 
24.3338 -49.6037 -169.401 
24.4419 -49.5514 -169.401 
24.55 -49.4991 -169.401 
24.6581 -49.4468 -169.401 
24.7662 -49.3945 -169.401 
24.8744 -49.3422 -169.401 
24.9825 -49.2899 -169.402 
25.0906 -49.2376 -169.402 
25.1987 -49.1854 -169.402 
25.3068 -49.1331 -169.402 
25.4149 -49.0808 -169.402 
25.5231 -49.0285 -169.402 
25.6312 -48.9762 -169.403 
25.7393 -48.9239 -169.403 
25.8474 -48.8716 -169.403 
25.9555 -48.8193 -169.403 
26.0637 -48.767 -169.403 
26.1718 -48.7147 -169.403 
26.2799 -48.6624 -169.404 
26.388 -48.6101 -169.404 
26.4961 -48.5578 -169.404 
26.6042 -48.5055 -169.404 
26.7124 -48.4533 -169.404 
26.871 -48.4949 -169.398 
26.9792 -48.4426 -169.398 
27.0873 -48.3903 -169.398 
27.1954 -48.338 -169.399 
27.3541 -48.3797 -169.392 
27.4622 -48.3274 -169.393 
27.5703 -48.2751 -169.393 
27.6784 -48.2228 -169.393 
27.8371 -48.2645 -169.387 
27.9452 -48.2122 -169.387 
28.0534 -48.1599 -169.387 
28.1615 -48.1076 -169.387 
28.3202 -48.1493 -169.381 
28.4283 -48.097 -169.381 
28.5364 -48.0447 -169.381 
28.6951 -48.0864 -169.375 
28.8032 -48.0341 -169.375 
28.9619 -48.0758 -169.369 
29.1206 -48.1175 -169.363 
29.2287 -48.0652 -169.363 
29.3874 -48.1069 -169.357 
29.4955 -48.0546 -169.357 
29.6036 -48.0023 -169.357 
29.7623 -48.0439 -169.351 
29.8704 -47.9917 -169.351 
29.9785 -47.9394 -169.352 
30.0866 -47.8871 -169.352 
30.1948 -47.8348 -169.352 
30.3535 -47.8765 -169.346 
30.4616 -47.8242 -169.346 
30.5697 -47.7719 -169.346 
30.7284 -47.8135 -169.34 
30.8365 -47.7613 -169.34 
30.9952 -47.8029 -169.334 
31.1033 -47.7506 -169.334 
31.262 -47.7923 -169.328 
31.3701 -47.74 -169.328 
31.5288 -47.7817 -169.322 
31.6875 -47.8234 -169.316 
31.7956 -47.7711 -169.316 
31.9543 -47.8128 -169.31 
32.0624 -47.7605 -169.31 
32.2211 -47.8021 -169.304 
32.3798 -47.8438 -169.298 
32.4879 -47.7915 -169.298 
32.6466 -47.8332 -169.292 
32.8053 -47.8749 -169.285 
32.9134 -47.8226 -169.286 
33.0721 -47.8643 -169.279 
33.2307 -47.9059 -169.273 
33.3389 -47.8536 -169.273 
33.4975 -47.8953 -169.267 
33.6562 -47.937 -169.261 
33.7643 -47.8847 -169.261 
33.8725 -47.8324 -169.261 
34.0312 -47.8741 -169.255 
34.1393 -47.8218 -169.255 
34.2474 -47.7695 -169.256 
34.4061 -47.8112 -169.249 
34.5142 -47.7589 -169.25 
34.6223 -47.7066 -169.25 
34.7304 -47.6543 -169.25 
34.8385 -47.602 -169.25 
34.9467 -47.5497 -169.25 
35.0548 -47.4974 -169.25 
35.1629 -47.4451 -169.251 
35.3216 -47.4868 -169.244 
35.4297 -47.4345 -169.245 
35.5378 -47.3822 -169.245 
35.6459 -47.3299 -169.245 
35.7541 -47.2776 -169.245 
35.8622 -47.2253 -169.245 
36.0209 -47.267 -169.239 
36.129 -47.2147 -169.239 
36.2371 -47.1624 -169.239 
36.3452 -47.1101 -169.24 
36.5039 -47.1518 -169.233 
36.612 -47.0995 -169.234 
36.7201 -47.0472 -169.234 
36.8788 -47.0889 -169.228 
36.9869 -47.0366 -169.228 
37.095 -46.9843 -169.228 
37.2032 -46.932 -169.228 
37.3619 -46.9737 -169.222 
37.47 -46.9214 -169.222 
37.5781 -46.8691 -169.222 
37.6862 -46.8168 -169.222 
37.7943 -46.7645 -169.223 
37.953 -46.8062 -169.216 
38.0611 -46.7539 -169.216 
38.1692 -46.7016 -169.217 
38.2774 -46.6493 -169.217 
38.436 -46.691 -169.211 
38.5442 -46.6387 -169.211 
38.6523 -46.5864 -169.211 
38.811 -46.6281 -169.205 
38.9697 -46.6698 -169.199 
39.0778 -46.6175 -169.199 
39.2365 -46.6592 -169.193 
39.3446 -46.6069 -169.193 
39.5033 -46.6485 -169.187 
39.6114 -46.5963 -169.187 
39.7195 -46.544 -169.187 
39.8782 -46.5856 -169.181 
39.9863 -46.5333 -169.181 
40.0944 -46.481 -169.181 
40.2025 -46.4288 -169.181 
40.3107 -46.3765 -169.181 
40.4188 -46.3242 -169.182 
40.5269 -46.2719 -169.182 
40.635 -46.2196 -169.182 
40.7431 -46.1673 -169.182 
40.8512 -46.115 -169.182 
40.9594 -46.0627 -169.182 
41.0675 -46.0104 -169.183 
41.1756 -45.9581 -169.183 
41.2837 -45.9058 -169.183 
41.3918 -45.8535 -169.183 
41.4999 -45.8012 -169.183 
41.6081 -45.749 -169.183 
41.7162 -45.6967 -169.184 
41.8243 -45.6444 -169.184 
41.9324 -45.5921 -169.184 
41.99 -45.4458 -169.19 
42.0981 -45.3935 -169.191 
42.2062 -45.3412 -169.191 
42.3143 -45.2889 -169.191 
42.3719 -45.1427 -169.197 
42.48 -45.0904 -169.198 
42.5375 -44.9441 -169.204 
42.6456 -44.8918 -169.204 
42.7538 -44.8395 -169.204 
42.8113 -44.6933 -169.211 
42.9194 -44.641 -169.211 
43.0275 -44.5887 -169.211 
43.1357 -44.5364 -169.211 
43.1932 -44.3901 -169.218 
43.3013 -44.3378 -169.218 
43.4094 -44.2855 -169.218 
43.5176 -44.2332 -169.218 
43.6257 -44.1809 -169.219 
43.7338 -44.1287 -169.219 
43.8419 -44.0764 -169.219 
43.95 -44.0241 -169.219 
44.0076 -43.8778 -169.226 
44.1157 -43.8255 -169.226 
44.2238 -43.7732 -169.226 
44.3319 -43.7209 -169.226 
44.3895 -43.5747 -169.233 
44.4976 -43.5224 -169.233 
44.6057 -43.4701 -169.233 
44.6633 -43.3238 -169.24 
44.7714 -43.2715 -169.24 
44.8795 -43.2192 -169.24 
44.937 -43.073 -169.246 
45.0452 -43.0207 -169.247 
45.1533 -42.9684 -169.247 
45.2108 -42.8221 -169.253 
45.2684 -42.6759 -169.26 
45.3765 -42.6236 -169.26 
45.4341 -42.4773 -169.266 
45.5422 -42.425 -169.267 
45.5997 -42.2787 -169.273 
45.6573 -42.1325 -169.28 
45.7654 -42.0802 -169.28 
45.8229 -41.9339 -169.286 
45.8805 -41.7877 -169.293 
45.9886 -41.7354 -169.293 
46.0967 -41.6831 -169.293 
46.1543 -41.5368 -169.3 
46.2624 -41.4845 -169.3 
46.3705 -41.4322 -169.3 
46.428 -41.286 -169.306 
46.5362 -41.2337 -169.307 
46.6443 -41.1814 -169.307 
46.7524 -41.1291 -169.307 
46.8099 -40.9828 -169.313 
46.9181 -40.9305 -169.314 
47.0262 -40.8782 -169.314 
47.0837 -40.732 -169.32 
47.1918 -40.6797 -169.32 
47.2494 -40.5334 -169.327 
47.3069 -40.3872 -169.333 
47.3645 -40.2409 -169.34 
47.422 -40.0946 -169.346 
47.4796 -39.9484 -169.353 
47.5371 -39.8021 -169.359 
47.5947 -39.6558 -169.366 
47.6522 -39.5096 -169.372 
47.7098 -39.3633 -169.379 
47.7673 -39.2171 -169.385 
47.8249 -39.0708 -169.392 
47.8824 -38.9245 -169.398 
47.9906 -38.8722 -169.399 
48.0481 -38.726 -169.405 
48.1056 -38.5797 -169.412 
48.1632 -38.4334 -169.418 
48.2207 -38.2872 -169.425 
48.2783 -38.1409 -169.431 
48.2853 -37.9007 -169.444 
48.3428 -37.7544 -169.451 
48.4004 -37.6082 -169.457 
48.4073 -37.3679 -169.47 
48.4649 -37.2217 -169.476 
48.5224 -37.0754 -169.483 
48.58 -36.9291 -169.489 
48.6375 -36.7829 -169.496 
48.7457 -36.7306 -169.496 
48.8032 -36.5843 -169.503 
48.9113 -36.532 -169.503 
49.0194 -36.4797 -169.503 
49.077 -36.3335 -169.509 
49.1851 -36.2812 -169.51 
49.2932 -36.2289 -169.51 
49.3508 -36.0826 -169.516 
49.4589 -36.0303 -169.516 
49.5164 -35.8841 -169.523 
0.806829 -62.419 -168.98 
0.926312 -62.4068 -168.98 
1.04579 -62.3946 -168.98 
1.16528 -62.3825 -168.981 
1.28476 -62.3703 -168.981 
1.41962 -62.4638 -168.975 
1.5391 -62.4516 -168.975 
1.65858 -62.4394 -168.975 
1.77807 -62.4273 -168.975 
1.89755 -62.4151 -168.975 
2.01703 -62.403 -168.975 
2.13652 -62.3908 -168.976 
2.256 -62.3786 -168.976 
2.37548 -62.3665 -168.976 
2.49496 -62.3543 -168.976 
2.61444 -62.3422 -168.976 
2.73393 -62.33 -168.976 
2.85341 -62.3178 -168.977 
2.97289 -62.3057 -168.977 
3.09237 -62.2935 -168.977 
3.21185 -62.2814 -168.977 
3.33134 -62.2692 -168.977 
3.45082 -62.257 -168.977 
3.57031 -62.2449 -168.978 
3.68979 -62.2327 -168.978 
3.80927 -62.2206 -168.978 
3.92875 -62.2084 -168.978 
4.04823 -62.1962 -168.978 
4.16772 -62.1841 -168.978 
4.27182 -62.0663 -168.985 
4.3913 -62.0541 -168.985 
4.51078 -62.042 -168.985 
4.63026 -62.0298 -168.985 
4.73437 -61.9121 -168.992 
4.85385 -61.8999 -168.992 
4.97333 -61.8877 -168.992 
5.07744 -61.77 -168.999 
5.19692 -61.7578 -168.999 
5.3164 -61.7457 -168.999 
5.4205 -61.6279 -169.006 
5.52461 -61.5101 -169.012 
5.64409 -61.498 -169.012 
5.74819 -61.3802 -169.019 
5.86767 -61.3681 -169.019 
5.97178 -61.2503 -169.026 
6.07588 -61.1325 -169.032 
6.19536 -61.1204 -169.032 
6.29946 -61.0026 -169.039 
6.40357 -60.8849 -169.045 
6.52305 -60.8727 -169.045 
6.64253 -60.8605 -169.046 
6.74664 -60.7428 -169.052 
6.86612 -60.7306 -169.052 
6.9856 -60.7185 -169.052 
7.08971 -60.6007 -169.059 
7.20919 -60.5885 -169.059 
7.32867 -60.5764 -169.059 
7.44815 -60.5642 -169.059 
7.55225 -60.4465 -169.066 
7.67174 -60.4343 -169.066 
7.79122 -60.4221 -169.066 
7.89532 -60.3044 -169.073 
8.0148 -60.2922 -169.073 
8.11891 -60.1745 -169.079 
8.22301 -60.0567 -169.086 
8.32711 -59.9389 -169.092 
8.43122 -59.8212 -169.099 
8.53532 -59.7034 -169.105 
8.63942 -59.5857 -169.112 
8.74352 -59.4679 -169.118 
8.84763 -59.3501 -169.125 
8.95173 -59.2324 -169.131 
9.05583 -59.1146 -169.138 
9.17532 -59.1025 -169.138 
9.27942 -58.9847 -169.145 
9.3989 -58.9725 -169.145 
9.51838 -58.9604 -169.145 
9.62249 -58.8426 -169.151 
9.74197 -58.8305 -169.152 
9.86145 -58.8183 -169.152 
9.98093 -58.8061 -169.152 
10.085 -58.6884 -169.158 
10.2045 -58.6762 -169.159 
10.324 -58.6641 -169.159 
10.4281 -58.5463 -169.165 
10.5476 -58.5341 -169.165 
10.6517 -58.4164 -169.172 
10.7712 -58.4042 -169.172 
10.8907 -58.3921 -169.172 
10.9948 -58.2743 -169.179 
11.1142 -58.2621 -169.179 
11.2183 -58.1444 -169.185 
11.3378 -58.1322 -169.186 
11.4419 -58.0145 -169.192 
11.5614 -58.0023 -169.192 
11.6655 -57.8845 -169.199 
11.7696 -57.7668 -169.205 
11.8891 -57.7546 -169.205 
11.9932 -57.6369 -169.212 
12.0973 -57.5191 -169.219 
12.2168 -57.5069 -169.219 
12.3209 -57.3892 -169.225 
12.4404 -57.377 -169.225 
12.5445 -57.2593 -169.232 
12.664 -57.2471 -169.232 
12.7681 -57.1293 -169.239 
12.8875 -57.1172 -169.239 
12.9916 -56.9994 -169.245 
13.1111 -56.9873 -169.245 
13.2306 -56.9751 -169.246 
13.3347 -56.8573 -169.252 
13.4542 -56.8452 -169.252 
13.5737 -56.833 -169.252 
13.6778 -56.7153 -169.259 
13.7973 -56.7031 -169.259 
13.9014 -56.5853 -169.266 
14.0208 -56.5732 -169.266 
14.125 -56.4554 -169.272 
14.2444 -56.4433 -169.272 
14.3485 -56.3255 -169.279 
14.4526 -56.2077 -169.285 
14.5721 -56.1956 -169.286 
14.6762 -56.0778 -169.292 
14.7957 -56.0657 -169.292 
14.8998 -55.9479 -169.299 
15.0039 -55.8301 -169.305 
15.1234 -55.818 -169.305 
15.2275 -55.7002 -169.312 
15.3316 -55.5825 -169.318 
15.4357 -55.4647 -169.325 
15.5552 -55.4525 -169.325 
15.6593 -55.3348 -169.332 
15.7634 -55.217 -169.338 
15.8675 -55.0993 -169.345 
15.987 -55.0871 -169.345 
16.0911 -54.9693 -169.351 
16.2106 -54.9572 -169.351 
16.3147 -54.8394 -169.358 
16.4341 -54.8273 -169.358 
16.5536 -54.8151 -169.358 
16.6577 -54.6973 -169.365 
16.7772 -54.6852 -169.365 
16.8967 -54.673 -169.365 
17.0008 -54.5553 -169.372 
17.1049 -54.4375 -169.378 
17.209 -54.3197 -169.385 
17.3285 -54.3076 -169.385 
17.4326 -54.1898 -169.391 
17.5367 -54.0721 -169.398 
17.6408 -53.9543 -169.404 
17.7449 -53.8365 -169.411 
17.849 -53.7188 -169.417 
17.9531 -53.601 -169.424 
18.0726 -53.5889 -169.424 
18.1767 -53.4711 -169.431 
18.2962 -53.4589 -169.431 
18.4003 -53.3412 -169.437 
18.5198 -53.329 -169.437 
18.6392 -53.3169 -169.438 
18.7433 -53.1991 -169.444 
18.8474 -53.0813 -169.451 
18.9669 -53.0692 -169.451 
19.071 -52.9514 -169.457 
19.1751 -52.8337 -169.464 
19.2946 -52.8215 -169.464 
19.3987 -52.7037 -169.47 
19.5028 -52.586 -169.477 
19.6223 -52.5738 -169.477 
19.7418 -52.5617 -169.477 
19.8459 -52.4439 -169.484 
19.9654 -52.4317 -169.484 
20.0849 -52.4196 -169.484 
20.2043 -52.4074 -169.484 
20.3238 -52.3953 -169.484 
20.4279 -52.2775 -169.491 
20.5474 -52.2653 -169.491 
20.6669 -52.2532 -169.491 
20.771 -52.1354 -169.498 
20.8905 -52.1233 -169.498 
20.9946 -52.0055 -169.504 
21.1141 -51.9933 -169.505 
21.2182 -51.8756 -169.511 
21.3223 -51.7578 -169.518 
21.4418 -51.7457 -169.518 
21.5612 -51.7335 -169.518 
21.6653 -51.6157 -169.524 
21.7848 -51.6036 -169.525 
21.8889 -51.4858 -169.531 
22.0084 -51.4737 -169.531 
22.1279 -51.4615 -169.531 
22.232 -51.3437 -169.538 
22.3515 -51.3316 -169.538 
22.471 -51.3194 -169.538 
22.5751 -51.2017 -169.545 
22.6792 -51.0839 -169.551 
22.7986 -51.0717 -169.551 
22.9027 -50.954 -169.558 
23.0068 -50.8362 -169.564 
23.1263 -50.8241 -169.565 
23.2304 -50.7063 -169.571 
23.3345 -50.5885 -169.578 
23.4386 -50.4708 -169.584 
23.5581 -50.4586 -169.584 
23.6622 -50.3409 -169.591 
23.7663 -50.2231 -169.597 
23.8704 -50.1053 -169.604 
23.9899 -50.0932 -169.604 
24.094 -49.9754 -169.61 
24.1981 -49.8577 -169.617 
24.3176 -49.8455 -169.617 
24.4217 -49.7277 -169.624 
24.5412 -49.7156 -169.624 
24.6453 -49.5978 -169.63 
24.7648 -49.5857 -169.631 
24.8689 -49.4679 -169.637 
24.9884 -49.4557 -169.637 
25.1078 -49.4436 -169.637 
25.2119 -49.3258 -169.644 
25.3314 -49.3137 -169.644 
25.4355 -49.1959 -169.651 
25.555 -49.1837 -169.651 
25.6745 -49.1716 -169.651 
25.7786 -49.0538 -169.657 
25.8981 -49.0417 -169.658 
26.0176 -49.0295 -169.658 
26.1217 -48.9117 -169.664 
26.2411 -48.8996 -169.664 
26.3606 -48.8874 -169.665 
26.4801 -48.8753 -169.665 
26.5842 -48.7575 -169.671 
26.7037 -48.7453 -169.671 
26.8232 -48.7332 -169.672 
26.9427 -48.721 -169.672 
27.0621 -48.7089 -169.672 
27.1663 -48.5911 -169.678 
27.2857 -48.5789 -169.679 
27.4052 -48.5668 -169.679 
27.5247 -48.5546 -169.679 
27.6442 -48.5424 -169.679 
27.7637 -48.5303 -169.679 
27.8831 -48.5181 -169.679 
28.0026 -48.506 -169.68 
28.1221 -48.4938 -169.68 
28.2416 -48.4816 -169.68 
28.3611 -48.4695 -169.68 
28.4806 -48.4573 -169.68 
28.6 -48.4452 -169.68 
28.7195 -48.433 -169.681 
28.839 -48.4208 -169.681 
28.9585 -48.4087 -169.681 
29.078 -48.3965 -169.681 
29.1974 -48.3843 -169.681 
29.3016 -48.2666 -169.688 
29.421 -48.2544 -169.688 
29.5405 -48.2423 -169.688 
29.66 -48.2301 -169.688 
29.7795 -48.218 -169.688 
29.899 -48.2058 -169.689 
30.0184 -48.1936 -169.689 
30.1379 -48.1815 -169.689 
30.2574 -48.1693 -169.689 
30.3769 -48.1571 -169.689 
30.4964 -48.145 -169.689 
30.6159 -48.1328 -169.69 
30.7353 -48.1207 -169.69 
30.8548 -48.1085 -169.69 
30.9743 -48.0963 -169.69 
31.0938 -48.0842 -169.69 
31.2133 -48.072 -169.69 
31.3328 -48.0599 -169.691 
31.4522 -48.0477 -169.691 
31.5717 -48.0355 -169.691 
31.6912 -48.0234 -169.691 
31.8107 -48.0112 -169.691 
31.9455 -48.1047 -169.685 
32.065 -48.0925 -169.685 
32.1845 -48.0803 -169.685 
32.304 -48.0682 -169.686 
32.4389 -48.1616 -169.679 
32.5583 -48.1494 -169.68 
32.6778 -48.1373 -169.68 
32.8127 -48.2307 -169.674 
32.9322 -48.2186 -169.674 
33.0516 -48.2064 -169.674 
33.1711 -48.1942 -169.674 
33.2906 -48.1821 -169.674 
33.4255 -48.2755 -169.668 
33.545 -48.2634 -169.668 
33.6644 -48.2512 -169.668 
33.7839 -48.239 -169.669 
33.9034 -48.2269 -169.669 
-17.4273 -43.6751 -169.906 
-17.3109 -43.7045 -169.906 
-17.2161 -43.8384 -169.9 
-17.1213 -43.9724 -169.893 
-17.0266 -44.1063 -169.887 
-16.9318 -44.2402 -169.881 
-16.837 -44.3741 -169.875 
-16.7422 -44.5081 -169.869 
-16.6475 -44.642 -169.863 
-16.5527 -44.7759 -169.856 
-16.4579 -44.9099 -169.85 
-16.3632 -45.0438 -169.844 
-16.2684 -45.1777 -169.838 
-16.1736 -45.3116 -169.832 
-16.0788 -45.4456 -169.826 
-15.9841 -45.5795 -169.819 
-15.8893 -45.7134 -169.813 
-15.7945 -45.8474 -169.807 
-15.6998 -45.9813 -169.801 
-15.605 -46.1152 -169.795 
-15.5102 -46.2491 -169.788 
-15.4155 -46.3831 -169.782 
-15.3207 -46.517 -169.776 
-15.2259 -46.6509 -169.77 
-15.1311 -46.7849 -169.764 
-15.0364 -46.9188 -169.758 
-14.9199 -46.9482 -169.758 
-14.8252 -47.0821 -169.752 
-14.7304 -47.2161 -169.745 
-14.614 -47.2455 -169.746 
-14.5192 -47.3794 -169.739 
-14.4244 -47.5134 -169.733 
-14.3296 -47.6473 -169.727 
-14.2349 -47.7812 -169.721 
-14.1401 -47.9151 -169.715 
-14.0453 -48.0491 -169.709 
-13.9506 -48.183 -169.702 
-13.8774 -48.4214 -169.69 
-13.7827 -48.5554 -169.684 
-13.6879 -48.6893 -169.678 
-13.5931 -48.8232 -169.671 
-13.4984 -48.9571 -169.665 
-13.4253 -49.1956 -169.653 
-13.3305 -49.3295 -169.647 
-13.2357 -49.4634 -169.64 
-13.1409 -49.5973 -169.634 
-13.0678 -49.8358 -169.622 
-12.9731 -49.9697 -169.616 
-12.8783 -50.1036 -169.609 
-12.8052 -50.342 -169.597 
-12.7104 -50.476 -169.591 
-12.6156 -50.6099 -169.584 
-12.5209 -50.7438 -169.578 
-12.4261 -50.8777 -169.572 
-12.3313 -51.0117 -169.566 
-12.2366 -51.1456 -169.56 
-12.1418 -51.2795 -169.554 
-12.0253 -51.309 -169.554 
-11.9306 -51.4429 -169.548 
-11.8141 -51.4723 -169.548 
-11.7194 -51.6063 -169.542 
-11.6246 -51.7402 -169.535 
-11.5082 -51.7696 -169.536 
-11.4134 -51.9036 -169.529 
-11.3186 -52.0375 -169.523 
-11.2238 -52.1714 -169.517 
-11.1291 -52.3053 -169.511 
-11.0343 -52.4393 -169.505 
-10.9395 -52.5732 -169.499 
-10.8664 -52.8116 -169.486 
-10.7717 -52.9455 -169.48 
-10.6769 -53.0795 -169.474 
-10.5821 -53.2134 -169.468 
-10.4873 -53.3473 -169.461 
-10.3926 -53.4813 -169.455 
-10.2978 -53.6152 -169.449 
-10.203 -53.7491 -169.443 
-10.0866 -53.7785 -169.443 
-9.99182 -53.9125 -169.437 
-9.89705 -54.0464 -169.431 
-9.80228 -54.1803 -169.425 
-9.70751 -54.3143 -169.418 
-9.61274 -54.4482 -169.412 
-9.51796 -54.5821 -169.406 
-9.42319 -54.716 -169.4 
-9.30676 -54.7455 -169.4 
-9.21199 -54.8794 -169.394 
-9.11721 -55.0133 -169.388 
-9.02244 -55.1473 -169.381 
-8.90601 -55.1767 -169.382 
-8.81124 -55.3106 -169.375 
-8.6948 -55.3401 -169.376 
-8.60003 -55.474 -169.369 
-8.50526 -55.6079 -169.363 
-8.38882 -55.6374 -169.363 
-8.29405 -55.7713 -169.357 
-8.19928 -55.9052 -169.351 
-8.10451 -56.0391 -169.345 
-8.00973 -56.1731 -169.339 
-7.91496 -56.307 -169.333 
-7.79853 -56.3364 -169.333 
-7.70376 -56.4704 -169.327 
-7.60898 -56.6043 -169.32 
-7.51421 -56.7382 -169.314 
-7.41944 -56.8721 -169.308 
-7.30301 -56.9016 -169.308 
-7.20823 -57.0355 -169.302 
-7.0918 -57.0649 -169.302 
-6.99703 -57.1989 -169.296 
-6.88059 -57.2283 -169.296 
-6.78582 -57.3622 -169.29 
-6.66938 -57.3917 -169.29 
-6.55295 -57.4211 -169.29 
-6.45818 -57.555 -169.284 
-6.34174 -57.5845 -169.284 
-6.24697 -57.7184 -169.278 
-6.13053 -57.7479 -169.278 
-6.03576 -57.8818 -169.272 
-5.91932 -57.9112 -169.272 
-5.82456 -58.0452 -169.266 
-5.72978 -58.1791 -169.26 
-5.61335 -58.2085 -169.26 
-5.51858 -58.3424 -169.254 
-5.40214 -58.3719 -169.254 
-5.30737 -58.5058 -169.248 
-5.2126 -58.6397 -169.242 
-5.09616 -58.6692 -169.242 
-5.00139 -58.8031 -169.236 
-4.90662 -58.937 -169.23 
-4.81185 -59.071 -169.223 
-4.69541 -59.1004 -169.224 
-4.60064 -59.2343 -169.217 
-4.50587 -59.3683 -169.211 
-4.4111 -59.5022 -169.205 
-4.29466 -59.5316 -169.205 
-4.19989 -59.6655 -169.199 
-4.08345 -59.695 -169.199 
-3.98868 -59.8289 -169.193 
-3.87225 -59.8584 -169.193 
-3.75581 -59.8878 -169.193 
-3.63937 -59.9172 -169.194 
-3.5446 -60.0512 -169.187 
-3.42817 -60.0806 -169.188 
-3.31173 -60.11 -169.188 
-3.19529 -60.1395 -169.188 
-3.10052 -60.2734 -169.182 
-2.98409 -60.3028 -169.182 
-2.86765 -60.3323 -169.182 
-2.77288 -60.4662 -169.176 
-2.65644 -60.4956 -169.176 
-2.56167 -60.6296 -169.17 
-2.44524 -60.659 -169.17 
-2.3288 -60.6884 -169.17 
-2.23403 -60.8224 -169.164 
-2.1176 -60.8518 -169.164 
-2.00116 -60.8812 -169.164 
-1.88472 -60.9107 -169.165 
-1.76828 -60.9401 -169.165 
-1.67351 -61.0741 -169.159 
-1.55708 -61.1035 -169.159 
-1.44064 -61.1329 -169.159 
-1.34587 -61.2669 -169.153 
-1.22944 -61.2963 -169.153 
-1.13466 -61.4302 -169.147 
-1.03989 -61.5641 -169.141 
-0.923456 -61.5936 -169.141 
-0.828687 -61.7275 -169.135 
-0.71225 -61.757 -169.135 
-0.595811 -61.7864 -169.135 
-0.501043 -61.9203 -169.129 
-0.384605 -61.9498 -169.129 
-0.268169 -61.9792 -169.129 
-0.151731 -62.0086 -169.129 
-0.035297 -62.0381 -169.129 
0.0811397 -62.0675 -169.13 
0.197574 -62.0969 -169.13 
0.31401 -62.1264 -169.13 
0.430448 -62.1558 -169.13 
0.546882 -62.1853 -169.13 
0.641655 -62.3192 -169.124 
0.758088 -62.3486 -169.124 
0.874526 -62.3781 -169.124 
0.99096 -62.4075 -169.125 
1.1074 -62.4369 -169.125 
1.22383 -62.4664 -169.125 
1.34027 -62.4958 -169.125 
1.45671 -62.5253 -169.125 
1.57314 -62.5547 -169.125 
1.68958 -62.5841 -169.126 
1.82768 -62.5091 -169.132 
1.94412 -62.5385 -169.132 
2.06055 -62.5679 -169.132 
2.17699 -62.5974 -169.133 
2.29343 -62.6268 -169.133 
2.43152 -62.5518 -169.139 
2.54796 -62.5812 -169.139 
2.6644 -62.6106 -169.14 
2.78084 -62.6401 -169.14 
2.91893 -62.565 -169.146 
3.03537 -62.5945 -169.146 
3.15181 -62.6239 -169.147 
3.28991 -62.5489 -169.153 
3.40634 -62.5783 -169.153 
3.54444 -62.5032 -169.16 
3.66088 -62.5327 -169.16 
3.79898 -62.4576 -169.166 
3.91542 -62.4871 -169.167 
4.05352 -62.412 -169.173 
4.19162 -62.337 -169.18 
4.32972 -62.2619 -169.186 
4.46782 -62.1869 -169.193 
4.60592 -62.1118 -169.199 
4.74402 -62.0367 -169.206 
4.88212 -61.9617 -169.212 
5.02022 -61.8866 -169.219 
5.15832 -61.8116 -169.225 
5.29642 -61.7365 -169.232 
5.43453 -61.6615 -169.238 
5.59429 -61.482 -169.251 
5.73239 -61.4069 -169.258 
5.8705 -61.3318 -169.264 
6.00859 -61.2568 -169.271 
6.16836 -61.0773 -169.283 
6.30646 -61.0022 -169.29 
6.44456 -60.9271 -169.296 
6.60433 -60.7476 -169.309 
6.74243 -60.6726 -169.316 
6.88053 -60.5975 -169.322 
7.01863 -60.5224 -169.329 
7.15673 -60.4474 -169.335 
7.29483 -60.3723 -169.342 
7.43293 -60.2973 -169.348 
7.57103 -60.2222 -169.355 
7.70914 -60.1472 -169.361 
7.82557 -60.1766 -169.361 
7.96367 -60.1016 -169.368 
8.10177 -60.0265 -169.374 
8.21821 -60.056 -169.375 
8.35631 -59.9809 -169.381 
8.4944 -59.9058 -169.388 
8.63251 -59.8308 -169.394 
8.77061 -59.7557 -169.401 
8.90871 -59.6807 -169.407 
9.04681 -59.6056 -169.414 
9.18491 -59.5306 -169.42 
9.34468 -59.3511 -169.433 
9.48278 -59.276 -169.44 
9.62088 -59.2009 -169.446 
9.75898 -59.1259 -169.453 
9.89708 -59.0508 -169.459 
10.0568 -58.8713 -169.472 
10.1949 -58.7962 -169.478 
10.3331 -58.7212 -169.485 
10.4712 -58.6461 -169.491 
10.6309 -58.4666 -169.504 
10.769 -58.3915 -169.511 
10.9071 -58.3165 -169.517 
11.0669 -58.137 -169.53 
11.2266 -57.9574 -169.543 
11.3647 -57.8824 -169.549 
11.5245 -57.7028 -169.562 
11.6626 -57.6278 -169.569 
11.8224 -57.4482 -169.582 
11.9605 -57.3732 -169.588 
12.0986 -57.2981 -169.595 
12.2367 -57.2231 -169.601 
12.3748 -57.148 -169.608 
12.5129 -57.073 -169.614 
12.651 -56.9979 -169.621 
12.7891 -56.9229 -169.627 
12.9272 -56.8478 -169.634 
13.0653 -56.7727 -169.64 
13.2034 -56.6977 -169.647 
13.3415 -56.6226 -169.653 
13.4796 -56.5476 -169.66 
13.596 -56.577 -169.66 
13.7341 -56.502 -169.666 
13.8722 -56.4269 -169.673 
14.032 -56.2474 -169.686 
14.1701 -56.1723 -169.692 
14.3082 -56.0973 -169.699 
14.468 -55.9177 -169.712 
14.6277 -55.7382 -169.724 
14.7658 -55.6631 -169.731 
14.9256 -55.4836 -169.744 
15.0854 -55.3041 -169.757 
15.2235 -55.229 -169.763 
15.3616 -55.1539 -169.77 
15.4997 -55.0789 -169.776 
15.6378 -55.0038 -169.783 
15.7542 -55.0333 -169.783 
