ply
format ascii 1.0
comment VCGLIB generated
element vertex 871
property float x
property float y
property float z
element face 0
property list uchar int vertex_indices
end_header
19.2243 -53.0224 -170.341 
19.3325 -52.9701 -170.342 
19.4406 -52.9178 -170.342 
19.5487 -52.8655 -170.342 
19.6568 -52.8132 -170.342 
19.7649 -52.7609 -170.342 
19.873 -52.7086 -170.342 
19.9812 -52.6563 -170.343 
20.0893 -52.6041 -170.343 
20.1974 -52.5518 -170.343 
20.3055 -52.4995 -170.343 
20.4136 -52.4472 -170.343 
20.5217 -52.3949 -170.343 
20.6299 -52.3426 -170.344 
20.738 -52.2903 -170.344 
20.8461 -52.238 -170.344 
20.9542 -52.1857 -170.344 
21.0623 -52.1334 -170.344 
21.1704 -52.0811 -170.344 
21.2786 -52.0288 -170.345 
21.3867 -51.9765 -170.345 
21.4948 -51.9242 -170.345 
21.6029 -51.872 -170.345 
21.711 -51.8197 -170.345 
21.8192 -51.7674 -170.345 
21.9273 -51.7151 -170.346 
22.0354 -51.6628 -170.346 
22.1435 -51.6105 -170.346 
22.2516 -51.5582 -170.346 
22.3597 -51.5059 -170.346 
22.4679 -51.4536 -170.346 
22.576 -51.4013 -170.347 
22.6841 -51.349 -170.347 
22.7922 -51.2967 -170.347 
22.9003 -51.2444 -170.347 
23.0084 -51.1921 -170.347 
23.1166 -51.1399 -170.347 
23.2247 -51.0876 -170.348 
23.3328 -51.0353 -170.348 
23.4409 -50.983 -170.348 
23.549 -50.9307 -170.348 
23.6066 -50.7844 -170.355 
23.7147 -50.7321 -170.355 
23.7722 -50.5859 -170.361 
23.8804 -50.5336 -170.361 
23.9379 -50.3873 -170.368 
23.9955 -50.241 -170.374 
24.1036 -50.1887 -170.375 
24.2117 -50.1365 -170.375 
24.2692 -49.9902 -170.381 
24.3774 -49.9379 -170.381 
24.4855 -49.8856 -170.382 
24.5936 -49.8333 -170.382 
24.6511 -49.687 -170.388 
24.7593 -49.6348 -170.388 
24.8674 -49.5825 -170.389 
24.9755 -49.5302 -170.389 
25.0836 -49.4779 -170.389 
25.1412 -49.3316 -170.395 
25.2493 -49.2793 -170.396 
25.3574 -49.227 -170.396 
25.4655 -49.1747 -170.396 
25.5736 -49.1224 -170.396 
25.6818 -49.0701 -170.396 
25.7899 -49.0179 -170.396 
25.898 -48.9656 -170.397 
26.0061 -48.9133 -170.397 
26.1142 -48.861 -170.397 
26.2223 -48.8087 -170.397 
26.381 -48.8504 -170.391 
26.4891 -48.7981 -170.391 
26.5973 -48.7458 -170.391 
26.7054 -48.6935 -170.391 
26.8135 -48.6412 -170.392 
26.9722 -48.6829 -170.385 
27.0803 -48.6306 -170.386 
27.1884 -48.5783 -170.386 
27.2965 -48.526 -170.386 
27.4552 -48.5677 -170.38 
27.5633 -48.5154 -170.38 
27.6715 -48.4631 -170.38 
27.8301 -48.5048 -170.374 
27.9383 -48.4525 -170.374 
28.0464 -48.4002 -170.374 
28.1545 -48.3479 -170.374 
28.3132 -48.3896 -170.368 
28.4213 -48.3373 -170.368 
28.5294 -48.285 -170.369 
28.6375 -48.2327 -170.369 
28.7456 -48.1804 -170.369 
28.9043 -48.2221 -170.363 
29.0125 -48.1698 -170.363 
29.1206 -48.1175 -170.363 
29.2287 -48.0652 -170.363 
29.3874 -48.1069 -170.357 
29.4955 -48.0546 -170.357 
29.6036 -48.0023 -170.357 
29.7623 -48.0439 -170.351 
29.8704 -47.9917 -170.351 
30.0291 -48.0333 -170.345 
30.1372 -47.981 -170.345 
30.2959 -48.0227 -170.339 
30.404 -47.9704 -170.339 
30.5627 -48.0121 -170.333 
30.6708 -47.9598 -170.333 
30.8295 -48.0015 -170.327 
30.9376 -47.9492 -170.327 
31.0963 -47.9909 -170.321 
31.2044 -47.9386 -170.321 
31.3631 -47.9803 -170.315 
31.4712 -47.928 -170.315 
31.6299 -47.9696 -170.309 
31.7886 -48.0113 -170.303 
31.8967 -47.959 -170.303 
32.0554 -48.0007 -170.297 
32.2141 -48.0424 -170.291 
32.3222 -47.9901 -170.291 
32.4809 -48.0318 -170.285 
32.6396 -48.0734 -170.279 
32.7477 -48.0211 -170.279 
32.8558 -47.9688 -170.279 
33.0145 -48.0105 -170.273 
33.1226 -47.9582 -170.273 
33.2307 -47.9059 -170.273 
33.3389 -47.8536 -170.273 
33.447 -47.8013 -170.274 
33.6057 -47.843 -170.267 
33.7138 -47.7907 -170.268 
33.8219 -47.7384 -170.268 
33.9806 -47.7801 -170.262 
34.0887 -47.7278 -170.262 
34.2474 -47.7695 -170.256 
34.4061 -47.8112 -170.249 
34.5142 -47.7589 -170.25 
34.6729 -47.8006 -170.243 
34.781 -47.7483 -170.244 
34.8891 -47.696 -170.244 
35.0478 -47.7377 -170.238 
35.1559 -47.6854 -170.238 
35.264 -47.6331 -170.238 
35.3722 -47.5808 -170.238 
35.4803 -47.5285 -170.238 
35.5884 -47.4762 -170.238 
35.6965 -47.4239 -170.239 
35.8046 -47.3716 -170.239 
35.9127 -47.3193 -170.239 
36.0209 -47.267 -170.239 
36.129 -47.2147 -170.239 
36.2371 -47.1624 -170.239 
36.3958 -47.2041 -170.233 
36.5039 -47.1518 -170.233 
36.612 -47.0995 -170.234 
36.7201 -47.0472 -170.234 
36.8788 -47.0889 -170.228 
36.9869 -47.0366 -170.228 
37.095 -46.9843 -170.228 
37.2537 -47.026 -170.222 
37.3619 -46.9737 -170.222 
37.5205 -47.0154 -170.216 
37.6287 -46.9631 -170.216 
37.7873 -47.0048 -170.21 
37.8955 -46.9525 -170.21 
38.0541 -46.9942 -170.204 
38.1623 -46.9419 -170.204 
38.3209 -46.9835 -170.198 
38.4291 -46.9312 -170.198 
38.5878 -46.9729 -170.192 
38.6959 -46.9206 -170.192 
38.804 -46.8683 -170.192 
38.9627 -46.91 -170.186 
39.0708 -46.8577 -170.186 
39.1789 -46.8054 -170.186 
39.287 -46.7531 -170.186 
39.4457 -46.7948 -170.18 
39.5538 -46.7425 -170.18 
39.6619 -46.6902 -170.18 
39.7701 -46.6379 -170.181 
39.9288 -46.6796 -170.174 
40.0369 -46.6273 -170.175 
40.145 -46.575 -170.175 
40.2531 -46.5227 -170.175 
40.4118 -46.5644 -170.169 
40.5199 -46.5121 -170.169 
40.628 -46.4598 -170.169 
40.7361 -46.4075 -170.169 
40.8443 -46.3552 -170.169 
40.9524 -46.3029 -170.17 
41.0605 -46.2506 -170.17 
41.1686 -46.1984 -170.17 
41.2767 -46.1461 -170.17 
41.3848 -46.0938 -170.17 
41.493 -46.0415 -170.17 
41.6011 -45.9892 -170.171 
41.7092 -45.9369 -170.171 
41.8173 -45.8846 -170.171 
41.8749 -45.7383 -170.177 
41.983 -45.686 -170.178 
42.0911 -45.6337 -170.178 
42.1487 -45.4875 -170.184 
42.2568 -45.4352 -170.184 
42.3143 -45.2889 -170.191 
42.4224 -45.2366 -170.191 
42.48 -45.0904 -170.198 
42.5881 -45.0381 -170.198 
42.6456 -44.8918 -170.204 
42.7538 -44.8395 -170.204 
42.8113 -44.6933 -170.211 
42.9194 -44.641 -170.211 
43.0275 -44.5887 -170.211 
43.1357 -44.5364 -170.211 
43.2438 -44.4841 -170.212 
43.3519 -44.4318 -170.212 
43.46 -44.3795 -170.212 
43.5681 -44.3272 -170.212 
43.6763 -44.2749 -170.212 
43.7844 -44.2226 -170.212 
43.8925 -44.1703 -170.213 
44.0006 -44.118 -170.213 
44.1087 -44.0657 -170.213 
44.1663 -43.9195 -170.219 
44.2744 -43.8672 -170.22 
44.3825 -43.8149 -170.22 
44.4401 -43.6686 -170.226 
44.5482 -43.6163 -170.227 
44.6563 -43.564 -170.227 
44.7138 -43.4178 -170.233 
44.822 -43.3655 -170.233 
44.9301 -43.3132 -170.234 
44.9876 -43.1669 -170.24 
45.0957 -43.1146 -170.24 
45.1533 -42.9684 -170.247 
45.2614 -42.9161 -170.247 
45.3695 -42.8638 -170.247 
45.4271 -42.7175 -170.254 
45.4846 -42.5713 -170.26 
45.5927 -42.519 -170.26 
45.6503 -42.3727 -170.267 
45.7584 -42.3204 -170.267 
45.816 -42.1742 -170.273 
45.9241 -42.1219 -170.274 
46.0322 -42.0696 -170.274 
46.0897 -41.9233 -170.28 
46.1979 -41.871 -170.28 
46.306 -41.8187 -170.281 
46.3635 -41.6725 -170.287 
46.4716 -41.6202 -170.287 
46.5798 -41.5679 -170.287 
46.6373 -41.4216 -170.294 
46.6948 -41.2753 -170.3 
46.803 -41.2231 -170.301 
46.8605 -41.0768 -170.307 
46.9181 -40.9305 -170.314 
47.0262 -40.8782 -170.314 
47.0837 -40.732 -170.32 
47.1413 -40.5857 -170.327 
47.2494 -40.5334 -170.327 
47.3575 -40.4811 -170.327 
47.4656 -40.4288 -170.327 
47.5232 -40.2826 -170.334 
47.6313 -40.2303 -170.334 
47.7394 -40.178 -170.334 
47.8475 -40.1257 -170.334 
47.9051 -39.9794 -170.341 
47.9626 -39.8332 -170.347 
48.0202 -39.6869 -170.354 
48.0272 -39.4467 -170.367 
48.0847 -39.3004 -170.373 
48.0917 -39.0602 -170.386 
48.0987 -38.8199 -170.399 
48.1562 -38.6737 -170.405 
48.1632 -38.4334 -170.418 
48.2207 -38.2872 -170.425 
48.2783 -38.1409 -170.431 
48.3358 -37.9947 -170.438 
48.444 -37.9424 -170.438 
48.5015 -37.7961 -170.444 
48.6096 -37.7438 -170.445 
48.7177 -37.6915 -170.445 
48.7753 -37.5453 -170.451 
48.8834 -37.493 -170.451 
48.9915 -37.4407 -170.452 
49.0491 -37.2944 -170.458 
49.1066 -37.1481 -170.465 
49.2147 -37.0958 -170.465 
49.2723 -36.9496 -170.471 
49.3298 -36.8033 -170.478 
49.3874 -36.6571 -170.484 
49.4449 -36.5108 -170.491 
49.5025 -36.3645 -170.497 
49.56 -36.2183 -170.504 
49.6176 -36.072 -170.51 
1.07655 -62.6058 -169.968 
1.19604 -62.5937 -169.968 
1.31551 -62.5815 -169.968 
1.435 -62.5694 -169.968 
1.55448 -62.5572 -169.968 
1.67397 -62.545 -169.969 
1.79345 -62.5329 -169.969 
1.91293 -62.5207 -169.969 
2.03241 -62.5086 -169.969 
2.15189 -62.4964 -169.969 
2.27138 -62.4842 -169.969 
2.39086 -62.4721 -169.97 
2.51034 -62.4599 -169.97 
2.62982 -62.4478 -169.97 
2.7493 -62.4356 -169.97 
2.86879 -62.4234 -169.97 
2.98827 -62.4113 -169.97 
3.10775 -62.3991 -169.971 
3.22724 -62.3869 -169.971 
3.34672 -62.3748 -169.971 
3.4662 -62.3626 -169.971 
3.58568 -62.3505 -169.971 
3.70517 -62.3383 -169.971 
3.82465 -62.3261 -169.972 
3.94413 -62.314 -169.972 
4.06361 -62.3018 -169.972 
4.16772 -62.1841 -169.978 
4.2872 -62.1719 -169.979 
4.3913 -62.0541 -169.985 
4.51078 -62.042 -169.985 
4.61489 -61.9242 -169.992 
4.73437 -61.9121 -169.992 
4.85385 -61.8999 -169.992 
4.95795 -61.7821 -169.999 
5.07744 -61.77 -169.999 
5.18154 -61.6522 -170.005 
5.30102 -61.6401 -170.005 
5.40513 -61.5223 -170.012 
5.52461 -61.5101 -170.012 
5.62871 -61.3924 -170.019 
5.73281 -61.2746 -170.025 
5.85229 -61.2625 -170.025 
5.9564 -61.1447 -170.032 
6.07588 -61.1325 -170.032 
6.17998 -61.0148 -170.039 
6.29946 -61.0026 -170.039 
6.40357 -60.8849 -170.045 
6.52305 -60.8727 -170.045 
6.64253 -60.8605 -170.046 
6.76202 -60.8484 -170.046 
6.86612 -60.7306 -170.052 
6.9856 -60.7185 -170.052 
7.10508 -60.7063 -170.053 
7.22457 -60.6941 -170.053 
7.32867 -60.5764 -170.059 
7.44815 -60.5642 -170.059 
7.55225 -60.4465 -170.066 
7.67174 -60.4343 -170.066 
7.77584 -60.3165 -170.073 
7.87994 -60.1988 -170.079 
7.98405 -60.081 -170.086 
8.08815 -59.9633 -170.092 
8.20763 -59.9511 -170.092 
8.31173 -59.8333 -170.099 
8.41584 -59.7156 -170.105 
8.53532 -59.7034 -170.105 
8.6548 -59.6913 -170.106 
8.7589 -59.5735 -170.112 
8.87839 -59.5613 -170.112 
8.99787 -59.5492 -170.112 
9.10197 -59.4314 -170.119 
9.22145 -59.4193 -170.119 
9.32556 -59.3015 -170.126 
9.44504 -59.2893 -170.126 
9.54914 -59.1716 -170.132 
9.65325 -59.0538 -170.139 
9.75735 -58.9361 -170.145 
9.87683 -58.9239 -170.145 
9.98093 -58.8061 -170.152 
10.085 -58.6884 -170.158 
10.1891 -58.5706 -170.165 
10.3086 -58.5585 -170.165 
10.4127 -58.4407 -170.172 
10.5168 -58.3229 -170.178 
10.6363 -58.3108 -170.178 
10.7404 -58.193 -170.185 
10.8599 -58.1809 -170.185 
10.964 -58.0631 -170.191 
11.0681 -57.9453 -170.198 
11.1876 -57.9332 -170.198 
11.2917 -57.8154 -170.205 
11.4112 -57.8033 -170.205 
11.5153 -57.6855 -170.211 
11.6194 -57.5677 -170.218 
11.7389 -57.5556 -170.218 
11.843 -57.4378 -170.225 
11.9471 -57.3201 -170.231 
12.0665 -57.3079 -170.231 
12.1706 -57.1901 -170.238 
12.2901 -57.178 -170.238 
12.3942 -57.0602 -170.244 
12.5137 -57.0481 -170.245 
12.6178 -56.9303 -170.251 
12.7373 -56.9181 -170.251 
12.8568 -56.906 -170.251 
12.9609 -56.7882 -170.258 
13.0804 -56.7761 -170.258 
13.1999 -56.7639 -170.258 
13.3193 -56.7517 -170.258 
13.4388 -56.7396 -170.259 
13.5429 -56.6218 -170.265 
13.6624 -56.6097 -170.265 
13.7819 -56.5975 -170.265 
13.886 -56.4797 -170.272 
14.0055 -56.4676 -170.272 
14.1096 -56.3498 -170.279 
14.2291 -56.3377 -170.279 
14.3332 -56.2199 -170.285 
14.4526 -56.2077 -170.285 
14.5567 -56.09 -170.292 
14.6608 -55.9722 -170.298 
14.7803 -55.9601 -170.299 
14.8844 -55.8423 -170.305 
14.9885 -55.7245 -170.312 
15.108 -55.7124 -170.312 
15.2121 -55.5946 -170.318 
15.3316 -55.5825 -170.318 
15.4357 -55.4647 -170.325 
15.5398 -55.3469 -170.331 
15.6593 -55.3348 -170.332 
15.7634 -55.217 -170.338 
15.8829 -55.2049 -170.338 
15.987 -55.0871 -170.345 
16.1065 -55.0749 -170.345 
16.2106 -54.9572 -170.351 
16.33 -54.945 -170.352 
16.4341 -54.8273 -170.358 
16.5536 -54.8151 -170.358 
16.6577 -54.6973 -170.365 
16.7772 -54.6852 -170.365 
16.8813 -54.5674 -170.371 
17.0008 -54.5553 -170.372 
17.1049 -54.4375 -170.378 
17.209 -54.3197 -170.385 
17.3131 -54.202 -170.391 
17.4172 -54.0842 -170.398 
17.5213 -53.9665 -170.404 
17.6254 -53.8487 -170.411 
17.7295 -53.7309 -170.417 
17.849 -53.7188 -170.417 
17.9531 -53.601 -170.424 
18.0572 -53.4833 -170.43 
18.1613 -53.3655 -170.437 
18.2808 -53.3533 -170.437 
18.3849 -53.2356 -170.444 
18.5044 -53.2234 -170.444 
18.6085 -53.1057 -170.45 
18.728 -53.0935 -170.45 
18.8321 -52.9757 -170.457 
18.9516 -52.9636 -170.457 
19.071 -52.9514 -170.457 
19.1751 -52.8337 -170.464 
19.2946 -52.8215 -170.464 
19.3987 -52.7037 -170.47 
19.5182 -52.6916 -170.471 
19.6223 -52.5738 -170.477 
19.7418 -52.5617 -170.477 
19.8459 -52.4439 -170.484 
19.95 -52.3261 -170.49 
20.0695 -52.314 -170.49 
20.1736 -52.1962 -170.497 
20.2777 -52.0785 -170.503 
20.3818 -51.9607 -170.51 
20.5013 -51.9485 -170.51 
20.6054 -51.8308 -170.517 
20.7249 -51.8186 -170.517 
20.8443 -51.8065 -170.517 
20.9638 -51.7943 -170.517 
21.0833 -51.7821 -170.517 
21.2028 -51.77 -170.517 
21.3069 -51.6522 -170.524 
21.4264 -51.6401 -170.524 
21.5459 -51.6279 -170.524 
21.6653 -51.6157 -170.524 
21.7848 -51.6036 -170.525 
21.8889 -51.4858 -170.531 
22.0084 -51.4737 -170.531 
22.1125 -51.3559 -170.538 
22.2166 -51.2381 -170.544 
22.3361 -51.226 -170.544 
22.4402 -51.1082 -170.551 
22.5597 -51.0961 -170.551 
22.6792 -51.0839 -170.551 
22.7986 -51.0717 -170.551 
22.9181 -51.0596 -170.552 
23.0376 -51.0474 -170.552 
23.1571 -51.0353 -170.552 
23.2766 -51.0231 -170.552 
23.3807 -50.9053 -170.559 
23.5002 -50.8932 -170.559 
23.6043 -50.7754 -170.565 
23.7237 -50.7633 -170.565 
23.8278 -50.6455 -170.572 
23.9319 -50.5277 -170.578 
24.0361 -50.41 -170.585 
24.1402 -50.2922 -170.591 
24.2443 -50.1745 -170.598 
24.3484 -50.0567 -170.604 
24.4525 -49.9389 -170.611 
24.5719 -49.9268 -170.611 
24.676 -49.809 -170.618 
24.7955 -49.7969 -170.618 
24.915 -49.7847 -170.618 
25.0345 -49.7725 -170.618 
25.1386 -49.6548 -170.625 
25.2581 -49.6426 -170.625 
25.3776 -49.6305 -170.625 
25.4817 -49.5127 -170.632 
25.6011 -49.5005 -170.632 
25.7052 -49.3828 -170.638 
25.8247 -49.3706 -170.638 
25.9288 -49.2528 -170.645 
26.0483 -49.2407 -170.645 
26.1524 -49.1229 -170.652 
26.2565 -49.0052 -170.658 
26.376 -48.993 -170.658 
26.4955 -48.9809 -170.658 
26.5996 -48.8631 -170.665 
26.7191 -48.8509 -170.665 
26.8232 -48.7332 -170.672 
26.9427 -48.721 -170.672 
27.0621 -48.7089 -170.672 
27.1816 -48.6967 -170.672 
27.3011 -48.6845 -170.672 
27.4206 -48.6724 -170.672 
27.5401 -48.6602 -170.673 
27.6596 -48.648 -170.673 
27.779 -48.6359 -170.673 
27.8985 -48.6237 -170.673 
28.018 -48.6116 -170.673 
28.1375 -48.5994 -170.673 
28.257 -48.5872 -170.674 
28.3764 -48.5751 -170.674 
28.4959 -48.5629 -170.674 
28.6154 -48.5508 -170.674 
28.7195 -48.433 -170.681 
28.839 -48.4208 -170.681 
28.9585 -48.4087 -170.681 
29.078 -48.3965 -170.681 
29.1974 -48.3843 -170.681 
29.3016 -48.2666 -170.688 
29.421 -48.2544 -170.688 
29.5405 -48.2423 -170.688 
29.66 -48.2301 -170.688 
29.7795 -48.218 -170.688 
29.899 -48.2058 -170.689 
30.0184 -48.1936 -170.689 
30.1379 -48.1815 -170.689 
30.2574 -48.1693 -170.689 
30.3769 -48.1571 -170.689 
30.5118 -48.2506 -170.683 
30.6312 -48.2384 -170.683 
30.7507 -48.2263 -170.683 
30.8702 -48.2141 -170.684 
30.9897 -48.2019 -170.684 
31.1092 -48.1898 -170.684 
31.2286 -48.1776 -170.684 
31.3481 -48.1655 -170.684 
31.4676 -48.1533 -170.684 
31.6025 -48.2467 -170.678 
31.722 -48.2346 -170.678 
31.8414 -48.2224 -170.679 
31.9609 -48.2103 -170.679 
32.0958 -48.3037 -170.673 
32.2153 -48.2915 -170.673 
32.3347 -48.2794 -170.673 
32.4696 -48.3728 -170.667 
32.5891 -48.3606 -170.667 
32.7086 -48.3485 -170.667 
32.8281 -48.3363 -170.667 
32.9475 -48.3242 -170.667 
33.067 -48.312 -170.668 
33.1711 -48.1942 -170.674 
33.2906 -48.1821 -170.674 
33.4101 -48.1699 -170.674 
33.5296 -48.1578 -170.675 
33.6491 -48.1456 -170.675 
33.7685 -48.1334 -170.675 
33.9034 -48.2269 -170.669 
-17.4273 -43.6751 -170.906 
-17.3109 -43.7045 -170.906 
-17.2161 -43.8384 -170.9 
-17.1213 -43.9724 -170.893 
-17.0266 -44.1063 -170.887 
-16.9318 -44.2402 -170.881 
-16.837 -44.3741 -170.875 
-16.7422 -44.5081 -170.869 
-16.6475 -44.642 -170.863 
-16.5527 -44.7759 -170.856 
-16.4579 -44.9099 -170.85 
-16.3632 -45.0438 -170.844 
-16.2684 -45.1777 -170.838 
-16.1736 -45.3116 -170.832 
-16.0788 -45.4456 -170.826 
-15.9841 -45.5795 -170.819 
-15.8893 -45.7134 -170.813 
-15.7945 -45.8474 -170.807 
-15.6998 -45.9813 -170.801 
-15.605 -46.1152 -170.795 
-15.5319 -46.3536 -170.782 
-15.4371 -46.4876 -170.776 
-15.3423 -46.6215 -170.77 
-15.2476 -46.7554 -170.764 
-15.1528 -46.8893 -170.757 
-15.058 -47.0233 -170.751 
-14.9633 -47.1572 -170.745 
-14.8685 -47.2911 -170.739 
-14.7737 -47.4251 -170.733 
-14.6789 -47.559 -170.727 
-14.5842 -47.6929 -170.72 
-14.4894 -47.8268 -170.714 
-14.3946 -47.9608 -170.708 
-14.2999 -48.0947 -170.702 
-14.1834 -48.1241 -170.702 
-14.0887 -48.2581 -170.696 
-13.9939 -48.392 -170.69 
-13.8991 -48.5259 -170.684 
-13.8043 -48.6598 -170.677 
-13.7096 -48.7938 -170.671 
-13.6148 -48.9277 -170.665 
-13.52 -49.0616 -170.659 
-13.4469 -49.3 -170.646 
-13.3521 -49.434 -170.64 
-13.2574 -49.5679 -170.634 
-13.1843 -49.8063 -170.622 
-13.0895 -49.9402 -170.615 
-12.9947 -50.0742 -170.609 
-12.9 -50.2081 -170.603 
-12.8052 -50.342 -170.597 
-12.7104 -50.476 -170.591 
-12.6156 -50.6099 -170.584 
-12.5209 -50.7438 -170.578 
-12.4261 -50.8777 -170.572 
-12.3313 -51.0117 -170.566 
-12.2366 -51.1456 -170.56 
-12.1418 -51.2795 -170.554 
-12.047 -51.4135 -170.547 
-11.9522 -51.5474 -170.541 
-11.8575 -51.6813 -170.535 
-11.7627 -51.8152 -170.529 
-11.6679 -51.9492 -170.523 
-11.5732 -52.0831 -170.517 
-11.4784 -52.217 -170.51 
-11.3836 -52.351 -170.504 
-11.2888 -52.4849 -170.498 
-11.1941 -52.6188 -170.492 
-11.0993 -52.7527 -170.486 
-11.0045 -52.8867 -170.48 
-10.9098 -53.0206 -170.473 
-10.7933 -53.05 -170.474 
-10.6985 -53.184 -170.467 
-10.6038 -53.3179 -170.461 
-10.4873 -53.3473 -170.461 
-10.3926 -53.4813 -170.455 
-10.2761 -53.5107 -170.455 
-10.1814 -53.6446 -170.449 
-10.0866 -53.7785 -170.443 
-9.97016 -53.808 -170.443 
-9.87538 -53.9419 -170.437 
-9.78061 -54.0758 -170.431 
-9.68584 -54.2098 -170.425 
-9.59107 -54.3437 -170.419 
-9.4963 -54.4776 -170.412 
-9.40153 -54.6115 -170.406 
-9.30676 -54.7455 -170.4 
-9.21199 -54.8794 -170.394 
-9.11721 -55.0133 -170.388 
-9.02244 -55.1473 -170.381 
-8.92767 -55.2812 -170.375 
-8.81124 -55.3106 -170.375 
-8.71646 -55.4446 -170.369 
-8.60003 -55.474 -170.369 
-8.50526 -55.6079 -170.363 
-8.38882 -55.6374 -170.363 
-8.29405 -55.7713 -170.357 
-8.19928 -55.9052 -170.351 
-8.08284 -55.9347 -170.351 
-7.98807 -56.0686 -170.345 
-7.8933 -56.2025 -170.339 
-7.79853 -56.3364 -170.333 
-7.68209 -56.3659 -170.333 
-7.58732 -56.4998 -170.327 
-7.49255 -56.6337 -170.321 
-7.39778 -56.7677 -170.314 
-7.30301 -56.9016 -170.308 
-7.18657 -56.931 -170.308 
-7.0918 -57.0649 -170.302 
-6.99703 -57.1989 -170.296 
-6.90226 -57.3328 -170.29 
-6.78582 -57.3622 -170.29 
-6.69105 -57.4962 -170.284 
-6.59628 -57.6301 -170.278 
-6.47984 -57.6595 -170.278 
-6.38507 -57.7935 -170.272 
-6.2903 -57.9274 -170.266 
-6.17386 -57.9568 -170.266 
-6.07909 -58.0908 -170.26 
-5.96266 -58.1202 -170.26 
-5.86788 -58.2541 -170.254 
-5.77311 -58.3881 -170.247 
-5.65668 -58.4175 -170.248 
-5.56191 -58.5514 -170.241 
-5.46713 -58.6854 -170.235 
-5.3507 -58.7148 -170.235 
-5.25593 -58.8487 -170.229 
-5.13949 -58.8782 -170.229 
-5.04472 -59.0121 -170.223 
-4.94995 -59.146 -170.217 
-4.83351 -59.1754 -170.217 
-4.73874 -59.3094 -170.211 
-4.62231 -59.3388 -170.211 
-4.52753 -59.4727 -170.205 
-4.4111 -59.5022 -170.205 
-4.31632 -59.6361 -170.199 
-4.19989 -59.6655 -170.199 
-4.08345 -59.695 -170.199 
-3.98868 -59.8289 -170.193 
-3.87225 -59.8584 -170.193 
-3.77748 -59.9923 -170.187 
-3.66104 -60.0217 -170.187 
-3.56627 -60.1556 -170.181 
-3.44983 -60.1851 -170.181 
-3.3334 -60.2145 -170.181 
-3.21696 -60.244 -170.182 
-3.10052 -60.2734 -170.182 
-2.98409 -60.3028 -170.182 
-2.86765 -60.3323 -170.182 
-2.77288 -60.4662 -170.176 
-2.65644 -60.4956 -170.176 
-2.54001 -60.5251 -170.176 
-2.44524 -60.659 -170.17 
-2.35047 -60.7929 -170.164 
-2.25569 -60.9269 -170.158 
-2.16092 -61.0608 -170.152 
-2.06615 -61.1947 -170.145 
-1.97138 -61.3286 -170.139 
-1.87661 -61.4626 -170.133 
-1.78184 -61.5965 -170.127 
-1.68707 -61.7304 -170.121 
-1.57063 -61.7599 -170.121 
-1.47586 -61.8938 -170.115 
-1.35942 -61.9232 -170.115 
-1.24299 -61.9527 -170.115 
-1.12655 -61.9821 -170.115 
-0.988452 -61.9071 -170.122 
-0.872014 -61.9365 -170.122 
-0.755578 -61.9659 -170.122 
-0.63914 -61.9954 -170.122 
-0.522706 -62.0248 -170.122 
-0.406269 -62.0542 -170.123 
-0.289835 -62.0837 -170.123 
-0.173398 -62.1131 -170.123 
-0.0569654 -62.1426 -170.123 
0.0594732 -62.172 -170.123 
0.175909 -62.2014 -170.123 
0.292347 -62.2309 -170.124 
0.408785 -62.2603 -170.124 
0.525217 -62.2897 -170.124 
0.641655 -62.3192 -170.124 
0.758088 -62.3486 -170.124 
0.874526 -62.3781 -170.124 
0.99096 -62.4075 -170.125 
1.1074 -62.4369 -170.125 
1.22383 -62.4664 -170.125 
1.34027 -62.4958 -170.125 
1.45671 -62.5253 -170.125 
1.57314 -62.5547 -170.125 
1.68958 -62.5841 -170.126 
1.80601 -62.6136 -170.126 
1.92245 -62.643 -170.126 
2.03888 -62.6724 -170.126 
2.15532 -62.7019 -170.126 
2.27176 -62.7313 -170.126 
2.40986 -62.6563 -170.133 
2.5263 -62.6857 -170.133 
2.64273 -62.7151 -170.133 
2.78084 -62.6401 -170.14 
2.89727 -62.6695 -170.14 
3.03537 -62.5945 -170.146 
3.17347 -62.5194 -170.153 
3.28991 -62.5489 -170.153 
3.42801 -62.4738 -170.16 
3.56611 -62.3988 -170.166 
3.70421 -62.3237 -170.173 
3.82065 -62.3531 -170.173 
3.95875 -62.2781 -170.179 
4.09685 -62.203 -170.186 
4.23495 -62.128 -170.192 
4.35139 -62.1574 -170.192 
4.48949 -62.0824 -170.199 
4.62759 -62.0073 -170.205 
4.76568 -61.9323 -170.212 
4.90379 -61.8572 -170.218 
5.04189 -61.7822 -170.225 
5.17999 -61.7071 -170.232 
5.31809 -61.6321 -170.238 
5.47785 -61.4525 -170.251 
5.63762 -61.273 -170.264 
5.77572 -61.1979 -170.27 
5.93549 -61.0184 -170.283 
6.07359 -60.9433 -170.29 
6.23335 -60.7638 -170.302 
6.37146 -60.6887 -170.309 
6.50956 -60.6137 -170.315 
6.64766 -60.5386 -170.322 
6.76409 -60.5681 -170.322 
6.9022 -60.493 -170.329 
7.01863 -60.5224 -170.329 
7.15673 -60.4474 -170.335 
7.27316 -60.4768 -170.335 
7.41127 -60.4018 -170.342 
7.54937 -60.3267 -170.348 
7.68747 -60.2517 -170.355 
7.82557 -60.1766 -170.361 
7.96367 -60.1016 -170.368 
8.10177 -60.0265 -170.374 
8.23987 -59.9515 -170.381 
8.37797 -59.8764 -170.387 
8.51607 -59.8014 -170.394 
8.65417 -59.7263 -170.4 
8.79228 -59.6513 -170.407 
8.93038 -59.5762 -170.413 
9.06848 -59.5012 -170.42 
9.20658 -59.4261 -170.426 
9.34468 -59.3511 -170.433 
9.48278 -59.276 -170.44 
9.62088 -59.2009 -170.446 
9.75898 -59.1259 -170.453 
9.91875 -58.9463 -170.465 
10.0568 -58.8713 -170.472 
10.2166 -58.6918 -170.485 
10.3547 -58.6167 -170.491 
10.5145 -58.4372 -170.504 
10.6742 -58.2576 -170.517 
10.8123 -58.1826 -170.523 
10.9504 -58.1075 -170.53 
11.1102 -57.928 -170.543 
11.2483 -57.8529 -170.549 
11.3864 -57.7779 -170.556 
11.5245 -57.7028 -170.562 
11.6626 -57.6278 -170.569 
11.8007 -57.5527 -170.575 
11.9388 -57.4777 -170.582 
12.0769 -57.4026 -170.588 
12.215 -57.3275 -170.595 
12.3531 -57.2525 -170.601 
12.5129 -57.073 -170.614 
12.651 -56.9979 -170.621 
12.7891 -56.9229 -170.627 
12.9272 -56.8478 -170.634 
13.0653 -56.7727 -170.64 
13.2034 -56.6977 -170.647 
13.3415 -56.6226 -170.653 
13.4796 -56.5476 -170.66 
13.596 -56.577 -170.66 
13.7341 -56.502 -170.666 
13.8722 -56.4269 -170.673 
14.0103 -56.3519 -170.679 
14.1484 -56.2768 -170.686 
14.2865 -56.2018 -170.692 
14.4246 -56.1267 -170.699 
14.5844 -55.9472 -170.712 
14.7225 -55.8721 -170.718 
14.8606 -55.7971 -170.725 
15.0204 -55.6175 -170.738 
15.1585 -55.5425 -170.744 
15.2966 -55.4674 -170.751 
15.4563 -55.2879 -170.763 
15.5944 -55.2128 -170.77 
15.7325 -55.1378 -170.776 
