ply
format ascii 1.0
comment VCGLIB generated
element vertex 873
property float x
property float y
property float z
element face 0
property list uchar int vertex_indices
end_header
19.3255 -53.2103 -168.329 
19.4336 -53.158 -168.329 
19.5417 -53.1057 -168.329 
19.6498 -53.0535 -168.329 
19.7579 -53.0012 -168.329 
19.8155 -52.8549 -168.336 
19.9236 -52.8026 -168.336 
20.0317 -52.7503 -168.336 
20.1398 -52.698 -168.336 
20.248 -52.6457 -168.337 
20.3055 -52.4995 -168.343 
20.4136 -52.4472 -168.343 
20.5217 -52.3949 -168.343 
20.5793 -52.2486 -168.35 
20.6874 -52.1963 -168.35 
20.7955 -52.144 -168.35 
20.9036 -52.0917 -168.35 
21.0118 -52.0394 -168.351 
21.0693 -51.8932 -168.357 
21.1774 -51.8409 -168.357 
21.2855 -51.7886 -168.357 
21.3937 -51.7363 -168.358 
21.4512 -51.59 -168.364 
21.5593 -51.5377 -168.364 
21.6674 -51.4855 -168.364 
21.725 -51.3392 -168.371 
21.8331 -51.2869 -168.371 
21.9412 -51.2346 -168.371 
21.9988 -51.0883 -168.378 
22.1069 -51.036 -168.378 
22.1644 -50.8898 -168.384 
22.2726 -50.8375 -168.385 
22.3807 -50.7852 -168.385 
22.4382 -50.6389 -168.391 
22.5463 -50.5866 -168.391 
22.6039 -50.4404 -168.398 
22.712 -50.3881 -168.398 
22.7696 -50.2418 -168.405 
22.8777 -50.1895 -168.405 
22.9858 -50.1372 -168.405 
23.0939 -50.0849 -168.405 
23.202 -50.0327 -168.405 
23.3101 -49.9804 -168.406 
23.4183 -49.9281 -168.406 
23.5264 -49.8758 -168.406 
23.6345 -49.8235 -168.406 
23.7426 -49.7712 -168.406 
23.8507 -49.7189 -168.406 
23.9589 -49.6666 -168.406 
24.067 -49.6143 -168.407 
24.1245 -49.4681 -168.413 
24.2326 -49.4158 -168.413 
24.3407 -49.3635 -168.413 
24.3983 -49.2172 -168.42 
24.5064 -49.1649 -168.42 
24.6145 -49.1126 -168.42 
24.7227 -49.0603 -168.421 
24.8308 -49.008 -168.421 
24.9389 -48.9557 -168.421 
25.047 -48.9034 -168.421 
25.1551 -48.8512 -168.421 
25.2632 -48.7989 -168.421 
25.3714 -48.7466 -168.422 
25.4795 -48.6943 -168.422 
25.5876 -48.642 -168.422 
25.6957 -48.5897 -168.422 
25.8038 -48.5374 -168.422 
25.9119 -48.4851 -168.422 
26.0201 -48.4328 -168.423 
26.1787 -48.4745 -168.416 
26.2869 -48.4222 -168.417 
26.395 -48.3699 -168.417 
26.5031 -48.3176 -168.417 
26.6618 -48.3593 -168.411 
26.7699 -48.307 -168.411 
26.878 -48.2547 -168.411 
27.0367 -48.2964 -168.405 
27.1448 -48.2441 -168.405 
27.3035 -48.2858 -168.399 
27.4116 -48.2335 -168.399 
27.5197 -48.1812 -168.399 
27.6784 -48.2228 -168.393 
27.7866 -48.1706 -168.393 
27.9452 -48.2122 -168.387 
28.0534 -48.1599 -168.387 
28.1615 -48.1076 -168.387 
28.3202 -48.1493 -168.381 
28.4283 -48.097 -168.381 
28.5364 -48.0447 -168.381 
28.6951 -48.0864 -168.375 
28.8032 -48.0341 -168.375 
28.9619 -48.0758 -168.369 
29.07 -48.0235 -168.369 
29.1781 -47.9712 -168.37 
29.3368 -48.0129 -168.363 
29.4449 -47.9606 -168.364 
29.553 -47.9083 -168.364 
29.7117 -47.95 -168.358 
29.8198 -47.8977 -168.358 
29.928 -47.8454 -168.358 
30.0361 -47.7931 -168.358 
30.1442 -47.7408 -168.358 
30.3029 -47.7825 -168.352 
30.411 -47.7302 -168.352 
30.5191 -47.6779 -168.352 
30.6778 -47.7196 -168.346 
30.7859 -47.6673 -168.346 
30.894 -47.615 -168.347 
31.0527 -47.6567 -168.34 
31.1608 -47.6044 -168.341 
31.3195 -47.646 -168.334 
31.4276 -47.5938 -168.335 
31.5358 -47.5415 -168.335 
31.6944 -47.5831 -168.329 
31.8026 -47.5308 -168.329 
31.9613 -47.5725 -168.323 
32.0694 -47.5202 -168.323 
32.2281 -47.5619 -168.317 
32.3362 -47.5096 -168.317 
32.4949 -47.5513 -168.311 
32.6535 -47.593 -168.304 
32.7617 -47.5407 -168.305 
32.9203 -47.5824 -168.298 
33.079 -47.624 -168.292 
33.1872 -47.5717 -168.292 
33.3458 -47.6134 -168.286 
33.5045 -47.6551 -168.28 
33.6126 -47.6028 -168.28 
33.7208 -47.5505 -168.28 
33.8794 -47.5922 -168.274 
33.9876 -47.5399 -168.274 
34.0957 -47.4876 -168.275 
34.2038 -47.4353 -168.275 
34.3119 -47.383 -168.275 
34.4706 -47.4247 -168.269 
34.5787 -47.3724 -168.269 
34.6868 -47.3201 -168.269 
34.8455 -47.3618 -168.263 
34.9536 -47.3095 -168.263 
35.1123 -47.3512 -168.257 
35.271 -47.3928 -168.251 
35.3791 -47.3405 -168.251 
35.5378 -47.3822 -168.245 
35.6459 -47.3299 -168.245 
35.7541 -47.2776 -168.245 
35.8622 -47.2253 -168.245 
36.0209 -47.267 -168.239 
36.129 -47.2147 -168.239 
36.2371 -47.1624 -168.239 
36.3452 -47.1101 -168.24 
36.4533 -47.0578 -168.24 
36.5614 -47.0056 -168.24 
36.6696 -46.9533 -168.24 
36.7777 -46.901 -168.24 
36.9364 -46.9426 -168.234 
37.0445 -46.8904 -168.234 
37.1526 -46.8381 -168.234 
37.3113 -46.8797 -168.228 
37.4194 -46.8274 -168.228 
37.5275 -46.7752 -168.229 
37.6356 -46.7229 -168.229 
37.7438 -46.6706 -168.229 
37.8519 -46.6183 -168.229 
37.96 -46.566 -168.229 
38.0681 -46.5137 -168.229 
38.2268 -46.5554 -168.223 
38.3349 -46.5031 -168.223 
38.443 -46.4508 -168.223 
38.5511 -46.3985 -168.224 
38.7098 -46.4402 -168.217 
38.8179 -46.3879 -168.218 
38.9261 -46.3356 -168.218 
39.0848 -46.3773 -168.212 
39.1929 -46.325 -168.212 
39.3516 -46.3666 -168.206 
39.4597 -46.3143 -168.206 
39.5678 -46.262 -168.206 
39.6759 -46.2098 -168.206 
39.8346 -46.2514 -168.2 
39.9427 -46.1991 -168.2 
40.0508 -46.1468 -168.2 
40.1589 -46.0946 -168.2 
40.2671 -46.0423 -168.201 
40.3752 -45.99 -168.201 
40.4833 -45.9377 -168.201 
40.5914 -45.8854 -168.201 
40.7501 -45.9271 -168.195 
40.8582 -45.8748 -168.195 
40.9663 -45.8225 -168.195 
41.0745 -45.7702 -168.195 
41.1826 -45.7179 -168.196 
41.2907 -45.6656 -168.196 
41.3988 -45.6133 -168.196 
41.4564 -45.467 -168.202 
41.5645 -45.4147 -168.203 
41.6726 -45.3625 -168.203 
41.7301 -45.2162 -168.209 
41.8383 -45.1639 -168.209 
41.8958 -45.0176 -168.216 
42.0039 -44.9653 -168.216 
42.112 -44.913 -168.216 
42.2202 -44.8608 -168.216 
42.2777 -44.7145 -168.223 
42.3858 -44.6622 -168.223 
42.4939 -44.6099 -168.223 
42.6021 -44.5576 -168.223 
42.7102 -44.5053 -168.224 
42.8183 -44.453 -168.224 
42.9264 -44.4007 -168.224 
43.0345 -44.3484 -168.224 
43.1426 -44.2962 -168.224 
43.2508 -44.2439 -168.225 
43.3083 -44.0976 -168.231 
43.4164 -44.0453 -168.231 
43.5245 -43.993 -168.231 
43.6327 -43.9407 -168.232 
43.7408 -43.8884 -168.232 
43.8489 -43.8361 -168.232 
43.9064 -43.6899 -168.238 
44.0146 -43.6376 -168.239 
44.1227 -43.5853 -168.239 
44.2308 -43.533 -168.239 
44.2883 -43.3867 -168.245 
44.3965 -43.3344 -168.246 
44.5046 -43.2821 -168.246 
44.5621 -43.1359 -168.252 
44.6702 -43.0836 -168.252 
44.7278 -42.9373 -168.259 
44.7853 -42.7911 -168.265 
44.8935 -42.7388 -168.266 
44.951 -42.5925 -168.272 
45.0591 -42.5402 -168.272 
45.1672 -42.4879 -168.272 
45.2248 -42.3417 -168.279 
45.3329 -42.2894 -168.279 
45.441 -42.2371 -168.279 
45.4986 -42.0908 -168.286 
45.6067 -42.0385 -168.286 
45.7148 -41.9862 -168.286 
45.7724 -41.84 -168.293 
45.8299 -41.6937 -168.299 
45.938 -41.6414 -168.299 
45.9956 -41.4951 -168.306 
46.0531 -41.3489 -168.312 
46.1107 -41.2026 -168.319 
46.2188 -41.1503 -168.319 
46.2763 -41.0041 -168.325 
46.3845 -40.9518 -168.326 
46.4926 -40.8995 -168.326 
46.6007 -40.8472 -168.326 
46.7088 -40.7949 -168.326 
46.8169 -40.7426 -168.326 
46.925 -40.6903 -168.326 
47.0332 -40.638 -168.327 
47.1413 -40.5857 -168.327 
47.1988 -40.4394 -168.333 
47.2564 -40.2932 -168.34 
47.3139 -40.1469 -168.346 
47.3209 -39.9067 -168.359 
47.3279 -39.6665 -168.372 
47.3854 -39.5202 -168.378 
47.3924 -39.28 -168.391 
47.3994 -39.0397 -168.404 
47.4569 -38.8935 -168.411 
47.5145 -38.7472 -168.417 
47.572 -38.6009 -168.424 
47.6296 -38.4547 -168.43 
47.7377 -38.4024 -168.43 
47.7953 -38.2561 -168.437 
47.9034 -38.2038 -168.437 
47.9609 -38.0576 -168.444 
48.069 -38.0053 -168.444 
48.1266 -37.859 -168.45 
48.2347 -37.8067 -168.45 
48.2923 -37.6605 -168.457 
48.3498 -37.5142 -168.463 
48.4073 -37.3679 -168.47 
48.5155 -37.3156 -168.47 
48.573 -37.1694 -168.477 
48.6306 -37.0231 -168.483 
48.6881 -36.8768 -168.49 
48.7962 -36.8246 -168.49 
48.8538 -36.6783 -168.496 
48.9619 -36.626 -168.496 
49.0194 -36.4797 -168.503 
49.1276 -36.4274 -168.503 
49.1851 -36.2812 -168.51 
49.2427 -36.1349 -168.516 
49.3508 -36.0826 -168.516 
49.4083 -35.9364 -168.523 
49.4659 -35.7901 -168.529 
0.760689 -62.1022 -167.999 
0.880174 -62.09 -167.999 
0.999654 -62.0779 -167.999 
1.13452 -62.1713 -167.993 
1.26938 -62.2647 -167.987 
1.38886 -62.2526 -167.987 
1.52372 -62.346 -167.981 
1.6432 -62.3338 -167.981 
1.76269 -62.3217 -167.981 
1.88217 -62.3095 -167.982 
2.00165 -62.2974 -167.982 
2.12113 -62.2852 -167.982 
2.24062 -62.273 -167.982 
2.34472 -62.1553 -167.989 
2.4642 -62.1431 -167.989 
2.58368 -62.131 -167.989 
2.70317 -62.1188 -167.989 
2.82265 -62.1066 -167.989 
2.94213 -62.0945 -167.989 
3.06162 -62.0823 -167.99 
3.1811 -62.0702 -167.99 
3.30058 -62.058 -167.99 
3.42006 -62.0458 -167.99 
3.53955 -62.0337 -167.99 
3.65903 -62.0215 -167.99 
3.77851 -62.0093 -167.991 
3.89799 -61.9972 -167.991 
4.00209 -61.8794 -167.997 
4.12158 -61.8673 -167.997 
4.24106 -61.8551 -167.998 
4.34516 -61.7373 -168.004 
4.46464 -61.7252 -168.004 
4.58413 -61.713 -168.004 
4.68823 -61.5953 -168.011 
4.80771 -61.5831 -168.011 
4.92719 -61.5709 -168.011 
5.04668 -61.5588 -168.011 
5.15078 -61.441 -168.018 
5.27026 -61.4289 -168.018 
5.38975 -61.4167 -168.018 
5.50923 -61.4045 -168.019 
5.62871 -61.3924 -168.019 
5.74819 -61.3802 -168.019 
5.85229 -61.2625 -168.025 
5.97178 -61.2503 -168.026 
6.09126 -61.2381 -168.026 
6.19536 -61.1204 -168.032 
6.31485 -61.1082 -168.032 
6.41895 -60.9905 -168.039 
6.53843 -60.9783 -168.039 
6.64253 -60.8605 -168.046 
6.74664 -60.7428 -168.052 
6.86612 -60.7306 -168.052 
6.97022 -60.6129 -168.059 
7.07432 -60.4951 -168.065 
7.19381 -60.4829 -168.065 
7.31329 -60.4708 -168.066 
7.41739 -60.353 -168.072 
7.53687 -60.3409 -168.072 
7.65635 -60.3287 -168.072 
7.77584 -60.3165 -168.073 
7.89532 -60.3044 -168.073 
7.99942 -60.1866 -168.079 
8.11891 -60.1745 -168.079 
8.23839 -60.1623 -168.08 
8.34249 -60.0445 -168.086 
8.4466 -59.9268 -168.093 
8.5507 -59.809 -168.099 
8.67018 -59.7969 -168.099 
8.77428 -59.6791 -168.106 
8.87839 -59.5613 -168.112 
8.98249 -59.4436 -168.119 
9.08659 -59.3258 -168.125 
9.1907 -59.2081 -168.132 
9.2948 -59.0903 -168.138 
9.41428 -59.0781 -168.138 
9.51838 -58.9604 -168.145 
9.62249 -58.8426 -168.151 
9.74197 -58.8305 -168.152 
9.84607 -58.7127 -168.158 
9.95018 -58.5949 -168.165 
10.0697 -58.5828 -168.165 
10.1891 -58.5706 -168.165 
10.2932 -58.4529 -168.171 
10.4127 -58.4407 -168.172 
10.5322 -58.4285 -168.172 
10.6363 -58.3108 -168.178 
10.7558 -58.2986 -168.178 
10.8753 -58.2865 -168.179 
10.9794 -58.1687 -168.185 
11.0989 -58.1565 -168.185 
11.2183 -58.1444 -168.185 
11.3224 -58.0266 -168.192 
11.4419 -58.0145 -168.192 
11.546 -57.8967 -168.199 
11.6655 -57.8845 -168.199 
11.7696 -57.7668 -168.205 
11.8891 -57.7546 -168.205 
11.9932 -57.6369 -168.212 
12.1127 -57.6247 -168.212 
12.2168 -57.5069 -168.219 
12.3209 -57.3892 -168.225 
12.4404 -57.377 -168.225 
12.5445 -57.2593 -168.232 
12.6486 -57.1415 -168.238 
12.7681 -57.1293 -168.239 
12.8722 -57.0116 -168.245 
12.9916 -56.9994 -168.245 
13.0957 -56.8817 -168.252 
13.2152 -56.8695 -168.252 
13.3193 -56.7517 -168.258 
13.4388 -56.7396 -168.259 
13.5583 -56.7274 -168.259 
13.6624 -56.6097 -168.265 
13.7819 -56.5975 -168.265 
13.9014 -56.5853 -168.266 
14.0055 -56.4676 -168.272 
14.125 -56.4554 -168.272 
14.2444 -56.4433 -168.272 
14.3485 -56.3255 -168.279 
14.4526 -56.2077 -168.285 
14.5721 -56.1956 -168.286 
14.6762 -56.0778 -168.292 
14.7803 -55.9601 -168.299 
14.8844 -55.8423 -168.305 
15.0039 -55.8301 -168.305 
15.108 -55.7124 -168.312 
15.2121 -55.5946 -168.318 
15.3162 -55.4769 -168.325 
15.4203 -55.3591 -168.331 
15.5398 -55.3469 -168.331 
15.6439 -55.2292 -168.338 
15.748 -55.1114 -168.344 
15.8521 -54.9937 -168.351 
15.9716 -54.9815 -168.351 
16.0757 -54.8637 -168.358 
16.1798 -54.746 -168.364 
16.2993 -54.7338 -168.364 
16.4034 -54.6161 -168.371 
16.5229 -54.6039 -168.371 
16.627 -54.4861 -168.377 
16.7465 -54.474 -168.378 
16.8506 -54.3562 -168.384 
16.97 -54.3441 -168.384 
17.0741 -54.2263 -168.391 
17.1936 -54.2141 -168.391 
17.2977 -54.0964 -168.397 
17.4172 -54.0842 -168.398 
17.5213 -53.9665 -168.404 
17.6408 -53.9543 -168.404 
17.7449 -53.8365 -168.411 
17.8644 -53.8244 -168.411 
17.9839 -53.8122 -168.411 
18.088 -53.6945 -168.418 
18.2074 -53.6823 -168.418 
18.3116 -53.5645 -168.424 
18.431 -53.5524 -168.424 
18.5505 -53.5402 -168.425 
18.6546 -53.4225 -168.431 
18.7741 -53.4103 -168.431 
18.8936 -53.3981 -168.432 
18.9977 -53.2804 -168.438 
19.1172 -53.2682 -168.438 
19.2213 -53.1505 -168.445 
19.3408 -53.1383 -168.445 
19.4449 -53.0205 -168.451 
19.5643 -53.0084 -168.452 
19.6684 -52.8906 -168.458 
19.7726 -52.7729 -168.465 
19.892 -52.7607 -168.465 
19.9961 -52.6429 -168.471 
20.1156 -52.6308 -168.471 
20.2197 -52.513 -168.478 
20.3238 -52.3953 -168.484 
20.4433 -52.3831 -168.485 
20.5474 -52.2653 -168.491 
20.6515 -52.1476 -168.498 
20.771 -52.1354 -168.498 
20.8751 -52.0177 -168.504 
20.9792 -51.8999 -168.511 
21.0987 -51.8877 -168.511 
21.2028 -51.77 -168.517 
21.3069 -51.6522 -168.524 
21.4264 -51.6401 -168.524 
21.5459 -51.6279 -168.524 
21.65 -51.5101 -168.531 
21.7694 -51.498 -168.531 
21.8735 -51.3802 -168.537 
21.993 -51.3681 -168.538 
22.0971 -51.2503 -168.544 
22.2166 -51.2381 -168.544 
22.3207 -51.1204 -168.551 
22.4248 -51.0026 -168.557 
22.5289 -50.8849 -168.564 
22.633 -50.7671 -168.57 
22.7371 -50.6493 -168.577 
22.8412 -50.5316 -168.583 
22.9453 -50.4138 -168.59 
23.0494 -50.2961 -168.596 
23.1535 -50.1783 -168.603 
23.2576 -50.0605 -168.609 
23.3771 -50.0484 -168.609 
23.4966 -50.0362 -168.61 
23.6007 -49.9185 -168.616 
23.7202 -49.9063 -168.616 
23.8397 -49.8941 -168.617 
23.9438 -49.7764 -168.623 
24.0633 -49.7642 -168.623 
24.1674 -49.6465 -168.63 
24.2868 -49.6343 -168.63 
24.3909 -49.5165 -168.636 
24.495 -49.3988 -168.643 
24.5991 -49.281 -168.649 
24.7033 -49.1633 -168.656 
24.8227 -49.1511 -168.656 
24.9268 -49.0333 -168.663 
25.0463 -49.0212 -168.663 
25.1504 -48.9034 -168.669 
25.2699 -48.8913 -168.669 
25.3894 -48.8791 -168.67 
25.5089 -48.8669 -168.67 
25.6283 -48.8548 -168.67 
25.7478 -48.8426 -168.67 
25.8673 -48.8305 -168.67 
25.9868 -48.8183 -168.67 
26.1063 -48.8061 -168.671 
26.2258 -48.794 -168.671 
26.3452 -48.7818 -168.671 
26.4494 -48.6641 -168.677 
26.5688 -48.6519 -168.678 
26.6883 -48.6397 -168.678 
26.8078 -48.6276 -168.678 
26.9273 -48.6154 -168.678 
27.0468 -48.6032 -168.678 
27.1663 -48.5911 -168.678 
27.2857 -48.5789 -168.679 
27.4052 -48.5668 -168.679 
27.5247 -48.5546 -168.679 
27.6442 -48.5424 -168.679 
27.7637 -48.5303 -168.679 
27.8831 -48.5181 -168.679 
28.0026 -48.506 -168.68 
28.1221 -48.4938 -168.68 
28.2262 -48.376 -168.686 
28.3457 -48.3639 -168.686 
28.4652 -48.3517 -168.687 
28.5847 -48.3396 -168.687 
28.7041 -48.3274 -168.687 
28.8236 -48.3152 -168.687 
28.9431 -48.3031 -168.687 
29.0626 -48.2909 -168.687 
29.1821 -48.2788 -168.688 
29.3016 -48.2666 -168.688 
29.421 -48.2544 -168.688 
29.5405 -48.2423 -168.688 
29.66 -48.2301 -168.688 
29.7795 -48.218 -168.688 
29.899 -48.2058 -168.689 
30.0184 -48.1936 -168.689 
30.1225 -48.0759 -168.695 
30.242 -48.0637 -168.695 
30.3615 -48.0515 -168.696 
30.481 -48.0394 -168.696 
30.6005 -48.0272 -168.696 
30.72 -48.0151 -168.696 
30.8394 -48.0029 -168.696 
30.9589 -47.9907 -168.696 
31.0784 -47.9786 -168.697 
31.1979 -47.9664 -168.697 
31.3328 -48.0599 -168.691 
31.4522 -48.0477 -168.691 
31.5717 -48.0355 -168.691 
31.6912 -48.0234 -168.691 
31.8107 -48.0112 -168.691 
31.9302 -47.9991 -168.691 
32.065 -48.0925 -168.685 
32.1845 -48.0803 -168.685 
32.304 -48.0682 -168.686 
32.4235 -48.056 -168.686 
32.543 -48.0438 -168.686 
32.6624 -48.0317 -168.686 
32.7819 -48.0195 -168.686 
32.9014 -48.0074 -168.686 
33.0209 -47.9952 -168.687 
33.1557 -48.0886 -168.68 
33.2752 -48.0765 -168.681 
33.3947 -48.0643 -168.681 
33.5142 -48.0522 -168.681 
33.6337 -48.04 -168.681 
33.7532 -48.0278 -168.681 
33.8726 -48.0157 -168.681 
-17.3407 -43.2571 -168.931 
-17.2242 -43.2865 -168.931 
-17.1294 -43.4205 -168.925 
-17.0563 -43.6589 -168.912 
-16.9616 -43.7928 -168.906 
-16.8885 -44.0312 -168.894 
-16.7937 -44.1652 -168.888 
-16.7206 -44.4036 -168.875 
-16.6258 -44.5375 -168.869 
-16.531 -44.6714 -168.863 
-16.4363 -44.8054 -168.857 
-16.3415 -44.9393 -168.85 
-16.2467 -45.0732 -168.844 
-16.1303 -45.1027 -168.844 
-16.0355 -45.2366 -168.838 
-15.9407 -45.3705 -168.832 
-15.846 -45.5044 -168.826 
-15.7512 -45.6384 -168.82 
-15.6781 -45.8768 -168.807 
-15.5833 -46.0107 -168.801 
-15.4886 -46.1446 -168.795 
-15.4155 -46.3831 -168.782 
-15.3207 -46.517 -168.776 
-15.2259 -46.6509 -168.77 
-15.1311 -46.7849 -168.764 
-15.0364 -46.9188 -168.758 
-14.9416 -47.0527 -168.751 
-14.8252 -47.0821 -168.752 
-14.7304 -47.2161 -168.745 
-14.6356 -47.35 -168.739 
-14.5192 -47.3794 -168.739 
-14.4244 -47.5134 -168.733 
-14.3296 -47.6473 -168.727 
-14.2349 -47.7812 -168.721 
-14.1401 -47.9151 -168.715 
-14.0453 -48.0491 -168.709 
-13.9506 -48.183 -168.702 
-13.8558 -48.3169 -168.696 
-13.7827 -48.5554 -168.684 
-13.6879 -48.6893 -168.678 
-13.5931 -48.8232 -168.671 
-13.52 -49.0616 -168.659 
-13.4253 -49.1956 -168.653 
-13.3305 -49.3295 -168.647 
-13.2574 -49.5679 -168.634 
-13.1626 -49.7018 -168.628 
-13.0678 -49.8358 -168.622 
-12.9731 -49.9697 -168.616 
-12.8783 -50.1036 -168.609 
-12.7835 -50.2375 -168.603 
-12.6671 -50.267 -168.603 
-12.5723 -50.4009 -168.597 
-12.4775 -50.5348 -168.591 
-12.3828 -50.6688 -168.585 
-12.2663 -50.6982 -168.585 
-12.1716 -50.8321 -168.579 
-12.0768 -50.9661 -168.573 
-11.982 -51.1 -168.566 
-11.8872 -51.2339 -168.56 
-11.7925 -51.3678 -168.554 
-11.6977 -51.5018 -168.548 
-11.6029 -51.6357 -168.542 
-11.5082 -51.7696 -168.536 
-11.4134 -51.9036 -168.529 
-11.3186 -52.0375 -168.523 
-11.2238 -52.1714 -168.517 
-11.1291 -52.3053 -168.511 
-11.0343 -52.4393 -168.505 
-10.9612 -52.6777 -168.492 
-10.8664 -52.8116 -168.486 
-10.7717 -52.9455 -168.48 
-10.6769 -53.0795 -168.474 
-10.5821 -53.2134 -168.468 
-10.4873 -53.3473 -168.461 
-10.3926 -53.4813 -168.455 
-10.2978 -53.6152 -168.449 
-10.203 -53.7491 -168.443 
-10.1083 -53.883 -168.437 
-10.0135 -54.017 -168.431 
-9.91871 -54.1509 -168.424 
-9.82394 -54.2848 -168.418 
-9.70751 -54.3143 -168.418 
-9.61274 -54.4482 -168.412 
-9.51796 -54.5821 -168.406 
-9.40153 -54.6115 -168.406 
-9.30676 -54.7455 -168.4 
-9.19032 -54.7749 -168.4 
-9.09555 -54.9088 -168.394 
-9.00078 -55.0428 -168.388 
-8.88434 -55.0722 -168.388 
-8.78957 -55.2061 -168.382 
-8.6948 -55.3401 -168.376 
-8.60003 -55.474 -168.369 
-8.48359 -55.5034 -168.37 
-8.38882 -55.6374 -168.363 
-8.29405 -55.7713 -168.357 
-8.19928 -55.9052 -168.351 
-8.10451 -56.0391 -168.345 
-7.98807 -56.0686 -168.345 
-7.8933 -56.2025 -168.339 
-7.79853 -56.3364 -168.333 
-7.70376 -56.4704 -168.327 
-7.58732 -56.4998 -168.327 
-7.49255 -56.6337 -168.321 
-7.39778 -56.7677 -168.314 
-7.28134 -56.7971 -168.315 
-7.18657 -56.931 -168.308 
-7.0918 -57.0649 -168.302 
-6.97536 -57.0944 -168.302 
-6.88059 -57.2283 -168.296 
-6.78582 -57.3622 -168.29 
-6.66938 -57.3917 -168.29 
-6.55295 -57.4211 -168.29 
-6.45818 -57.555 -168.284 
-6.34174 -57.5845 -168.284 
-6.22531 -57.6139 -168.285 
-6.13053 -57.7479 -168.278 
-6.0141 -57.7773 -168.279 
-5.91932 -57.9112 -168.272 
-5.80289 -57.9407 -168.273 
-5.70812 -58.0746 -168.266 
-5.59168 -58.104 -168.267 
-5.49691 -58.238 -168.26 
-5.38048 -58.2674 -168.261 
-5.28571 -58.4013 -168.254 
-5.19093 -58.5352 -168.248 
-5.0745 -58.5647 -168.248 
-4.97972 -58.6986 -168.242 
-4.88496 -58.8325 -168.236 
-4.76852 -58.862 -168.236 
-4.67375 -58.9959 -168.23 
-4.55731 -59.0253 -168.23 
-4.46254 -59.1593 -168.224 
-4.3461 -59.1887 -168.224 
-4.25133 -59.3226 -168.218 
-4.13489 -59.3521 -168.218 
-4.01846 -59.3815 -168.218 
-3.92369 -59.5154 -168.212 
-3.80725 -59.5449 -168.212 
-3.69082 -59.5743 -168.212 
-3.59604 -59.7082 -168.206 
-3.47961 -59.7377 -168.206 
-3.38484 -59.8716 -168.2 
-3.2684 -59.9011 -168.2 
-3.15197 -59.9305 -168.201 
-3.0572 -60.0644 -168.194 
-2.94076 -60.0939 -168.195 
-2.84599 -60.2278 -168.188 
-2.72955 -60.2572 -168.189 
-2.63478 -60.3911 -168.182 
-2.54001 -60.5251 -168.176 
-2.42357 -60.5545 -168.176 
-2.30713 -60.584 -168.177 
-2.21236 -60.7179 -168.17 
-2.09593 -60.7473 -168.171 
-2.00116 -60.8812 -168.164 
-1.88472 -60.9107 -168.165 
-1.76828 -60.9401 -168.165 
-1.67351 -61.0741 -168.159 
-1.55708 -61.1035 -168.159 
-1.44064 -61.1329 -168.159 
-1.34587 -61.2669 -168.153 
-1.22944 -61.2963 -168.153 
-1.113 -61.3257 -168.153 
-0.996565 -61.3552 -168.153 
-0.901792 -61.4891 -168.147 
-0.785355 -61.5185 -168.147 
-0.668918 -61.548 -168.147 
-0.55248 -61.5774 -168.148 
-0.436046 -61.6068 -168.148 
-0.31961 -61.6363 -168.148 
-0.203176 -61.6657 -168.148 
-0.108403 -61.7996 -168.142 
0.00803046 -61.8291 -168.142 
0.124468 -61.8585 -168.142 
0.240905 -61.888 -168.142 
0.357342 -61.9174 -168.143 
0.47378 -61.9468 -168.143 
0.568545 -62.0808 -168.137 
0.684983 -62.1102 -168.137 
0.801421 -62.1396 -168.137 
0.917858 -62.1691 -168.137 
1.03429 -62.1985 -168.137 
1.15073 -62.228 -168.137 
1.26716 -62.2574 -168.138 
1.3836 -62.2868 -168.138 
1.5217 -62.2118 -168.144 
1.63814 -62.2412 -168.144 
1.75458 -62.2707 -168.145 
1.89267 -62.1956 -168.151 
2.00911 -62.225 -168.151 
2.12554 -62.2545 -168.151 
2.24198 -62.2839 -168.152 
2.35842 -62.3134 -168.152 
2.47485 -62.3428 -168.152 
2.59129 -62.3722 -168.152 
2.70773 -62.4017 -168.152 
2.82416 -62.4311 -168.152 
2.9406 -62.4605 -168.153 
3.05703 -62.49 -168.153 
3.17347 -62.5194 -168.153 
3.28991 -62.5489 -168.153 
3.40634 -62.5783 -168.153 
3.52278 -62.6077 -168.153 
3.63921 -62.6372 -168.154 
3.77732 -62.5621 -168.16 
3.89375 -62.5916 -168.16 
4.03185 -62.5165 -168.167 
4.16996 -62.4415 -168.173 
4.30806 -62.3664 -168.18 
4.44615 -62.2913 -168.186 
4.58426 -62.2163 -168.193 
4.72236 -62.1412 -168.199 
4.88212 -61.9617 -168.212 
5.02022 -61.8866 -168.219 
5.15832 -61.8116 -168.225 
5.29642 -61.7365 -168.232 
5.43453 -61.6615 -168.238 
5.57263 -61.5864 -168.245 
5.73239 -61.4069 -168.258 
5.8705 -61.3318 -168.264 
6.00859 -61.2568 -168.271 
6.14669 -61.1817 -168.277 
6.2848 -61.1067 -168.284 
6.4229 -61.0316 -168.29 
6.561 -60.9566 -168.297 
6.72076 -60.777 -168.309 
6.85886 -60.702 -168.316 
6.99696 -60.6269 -168.322 
7.13507 -60.5519 -168.329 
7.29483 -60.3723 -168.342 
7.43293 -60.2973 -168.348 
7.57103 -60.2222 -168.355 
7.70914 -60.1472 -168.361 
7.8689 -59.9676 -168.374 
8.007 -59.8926 -168.381 
8.1451 -59.8175 -168.387 
8.2832 -59.7425 -168.394 
8.4213 -59.6674 -168.4 
8.5594 -59.5924 -168.407 
8.6975 -59.5173 -168.413 
8.8356 -59.4423 -168.42 
8.97371 -59.3672 -168.426 
9.11181 -59.2922 -168.433 
9.24991 -59.2171 -168.439 
9.36635 -59.2466 -168.439 
9.50444 -59.1715 -168.446 
9.64254 -59.0965 -168.452 
9.78064 -59.0214 -168.459 
9.89708 -59.0508 -168.459 
10.0352 -58.9758 -168.466 
10.1733 -58.9007 -168.472 
10.3114 -58.8257 -168.479 
10.4495 -58.7506 -168.485 
10.5876 -58.6756 -168.492 
10.7257 -58.6005 -168.498 
10.8638 -58.5255 -168.505 
11.0236 -58.3459 -168.517 
11.1833 -58.1664 -168.53 
11.3431 -57.9868 -168.543 
11.4812 -57.9118 -168.55 
11.641 -57.7323 -168.562 
11.8007 -57.5527 -168.575 
11.9388 -57.4777 -168.582 
12.0769 -57.4026 -168.588 
12.215 -57.3275 -168.595 
12.3531 -57.2525 -168.601 
12.4912 -57.1774 -168.608 
12.6293 -57.1024 -168.614 
12.7674 -57.0273 -168.621 
12.9055 -56.9523 -168.627 
13.0436 -56.8772 -168.634 
13.1817 -56.8022 -168.64 
13.3415 -56.6226 -168.653 
13.4796 -56.5476 -168.66 
13.6394 -56.368 -168.673 
13.7775 -56.293 -168.679 
13.9156 -56.2179 -168.686 
14.0537 -56.1429 -168.692 
14.1918 -56.0678 -168.699 
14.3082 -56.0973 -168.699 
14.4246 -56.1267 -168.699 
14.5411 -56.1562 -168.699 
14.6575 -56.1856 -168.699 
14.7956 -56.1105 -168.706 
14.912 -56.14 -168.706 
15.0501 -56.0649 -168.712 
15.2099 -55.8854 -168.725 
15.3697 -55.7058 -168.738 
15.5511 -55.4218 -168.757 
15.7542 -55.0333 -168.783 
