ply
format ascii 1.0
comment VCGLIB generated
element vertex 870
property float x
property float y
property float z
element face 0
property list uchar int vertex_indices
end_header
19.1232 -52.8345 -172.354 
19.2313 -52.7822 -172.354 
19.3394 -52.7299 -172.354 
19.4475 -52.6776 -172.355 
19.5557 -52.6253 -172.355 
19.6132 -52.479 -172.361 
19.7213 -52.4267 -172.361 
19.8295 -52.3744 -172.362 
19.9376 -52.3221 -172.362 
20.0457 -52.2698 -172.362 
20.1032 -52.1236 -172.368 
20.2113 -52.0713 -172.369 
20.3195 -52.019 -172.369 
20.4276 -51.9667 -172.369 
20.5357 -51.9144 -172.369 
20.6438 -51.8621 -172.369 
20.7519 -51.8098 -172.369 
20.8601 -51.7575 -172.37 
20.9682 -51.7052 -172.37 
21.0763 -51.653 -172.37 
21.1844 -51.6007 -172.37 
21.2925 -51.5484 -172.37 
21.4006 -51.4961 -172.37 
21.5088 -51.4438 -172.371 
21.6169 -51.3915 -172.371 
21.725 -51.3392 -172.371 
21.8331 -51.2869 -172.371 
21.9412 -51.2346 -172.371 
22.0493 -51.1823 -172.371 
22.208 -51.224 -172.365 
22.3162 -51.1717 -172.365 
22.4243 -51.1194 -172.366 
22.5324 -51.0671 -172.366 
22.6911 -51.1088 -172.36 
22.7992 -51.0565 -172.36 
22.9579 -51.0982 -172.354 
23.066 -51.0459 -172.354 
23.1741 -50.9936 -172.354 
23.3328 -51.0353 -172.348 
23.4409 -50.983 -172.348 
23.549 -50.9307 -172.348 
23.6571 -50.8784 -172.348 
23.7653 -50.8261 -172.348 
23.8734 -50.7738 -172.349 
23.9815 -50.7215 -172.349 
24.0896 -50.6692 -172.349 
24.1977 -50.6169 -172.349 
24.3059 -50.5646 -172.349 
24.414 -50.5123 -172.349 
24.5221 -50.46 -172.35 
24.6302 -50.4077 -172.35 
24.7383 -50.3555 -172.35 
24.8464 -50.3032 -172.35 
24.9546 -50.2509 -172.35 
25.0627 -50.1986 -172.35 
25.1708 -50.1463 -172.351 
25.2789 -50.094 -172.351 
25.387 -50.0417 -172.351 
25.4951 -49.9894 -172.351 
25.6033 -49.9371 -172.351 
25.7114 -49.8848 -172.351 
25.8195 -49.8325 -172.352 
25.9276 -49.7802 -172.352 
26.0357 -49.7279 -172.352 
26.1438 -49.6756 -172.352 
26.252 -49.6234 -172.352 
26.3601 -49.5711 -172.352 
26.4682 -49.5188 -172.353 
26.5763 -49.4665 -172.353 
26.6844 -49.4142 -172.353 
26.7926 -49.3619 -172.353 
26.9007 -49.3096 -172.353 
27.0088 -49.2573 -172.353 
27.1169 -49.205 -172.354 
27.225 -49.1527 -172.354 
27.3331 -49.1004 -172.354 
27.4413 -49.0481 -172.354 
27.5494 -48.9958 -172.354 
27.6575 -48.9435 -172.354 
27.7656 -48.8913 -172.355 
27.8737 -48.839 -172.355 
27.9818 -48.7867 -172.355 
28.09 -48.7344 -172.355 
28.1981 -48.6821 -172.355 
28.3062 -48.6298 -172.355 
28.4649 -48.6715 -172.349 
28.573 -48.6192 -172.349 
28.6811 -48.5669 -172.35 
28.7892 -48.5146 -172.35 
28.8974 -48.4623 -172.35 
29.056 -48.504 -172.344 
29.1642 -48.4517 -172.344 
29.2723 -48.3994 -172.344 
29.431 -48.4411 -172.338 
29.5391 -48.3888 -172.338 
29.6472 -48.3365 -172.338 
29.7553 -48.2842 -172.338 
29.8634 -48.2319 -172.339 
30.0221 -48.2736 -172.332 
30.1302 -48.2213 -172.333 
30.2384 -48.169 -172.333 
30.3465 -48.1167 -172.333 
30.5052 -48.1584 -172.327 
30.6133 -48.1061 -172.327 
30.7214 -48.0538 -172.327 
30.8801 -48.0955 -172.321 
31.0388 -48.1371 -172.315 
31.1469 -48.0848 -172.315 
31.3056 -48.1265 -172.309 
31.4643 -48.1682 -172.303 
31.5724 -48.1159 -172.303 
31.7311 -48.1576 -172.297 
31.8897 -48.1992 -172.29 
31.9979 -48.147 -172.291 
32.1565 -48.1886 -172.284 
32.3152 -48.2303 -172.278 
32.4739 -48.272 -172.272 
32.582 -48.2197 -172.272 
32.7407 -48.2614 -172.266 
32.8488 -48.2091 -172.266 
32.957 -48.1568 -172.266 
33.1156 -48.1985 -172.26 
33.2238 -48.1462 -172.26 
33.3319 -48.0939 -172.261 
33.44 -48.0416 -172.261 
33.5481 -47.9893 -172.261 
33.7068 -48.031 -172.255 
33.8149 -47.9787 -172.255 
33.923 -47.9264 -172.255 
34.0817 -47.9681 -172.249 
34.2404 -48.0097 -172.243 
34.3485 -47.9574 -172.243 
34.5072 -47.9991 -172.237 
34.6153 -47.9468 -172.237 
34.774 -47.9885 -172.231 
34.8821 -47.9362 -172.231 
34.9902 -47.8839 -172.231 
35.0984 -47.8316 -172.231 
35.2065 -47.7793 -172.231 
35.3146 -47.727 -172.232 
35.4227 -47.6747 -172.232 
35.5308 -47.6225 -172.232 
35.639 -47.5702 -172.232 
35.7471 -47.5179 -172.232 
35.8552 -47.4656 -172.232 
35.9633 -47.4133 -172.233 
36.122 -47.455 -172.226 
36.2301 -47.4027 -172.227 
36.3888 -47.4443 -172.22 
36.4969 -47.3921 -172.221 
36.6556 -47.4337 -172.214 
36.7637 -47.3814 -172.214 
36.8718 -47.3291 -172.215 
37.0305 -47.3708 -172.208 
37.1386 -47.3185 -172.209 
37.2973 -47.3602 -172.202 
37.4054 -47.3079 -172.203 
37.5136 -47.2556 -172.203 
37.6722 -47.2973 -172.197 
37.7804 -47.245 -172.197 
37.8885 -47.1927 -172.197 
37.9966 -47.1404 -172.197 
38.1553 -47.1821 -172.191 
38.2634 -47.1298 -172.191 
38.3715 -47.0775 -172.191 
38.4796 -47.0252 -172.191 
38.6383 -47.0669 -172.185 
38.7464 -47.0146 -172.185 
38.8546 -46.9623 -172.186 
39.0132 -47.004 -172.179 
39.1214 -46.9517 -172.18 
39.28 -46.9934 -172.173 
39.3882 -46.9411 -172.174 
39.4963 -46.8888 -172.174 
39.655 -46.9305 -172.168 
39.7631 -46.8782 -172.168 
39.8712 -46.8259 -172.168 
39.9793 -46.7736 -172.168 
40.138 -46.8153 -172.162 
40.2461 -46.763 -172.162 
40.3542 -46.7107 -172.162 
40.4624 -46.6584 -172.162 
40.5705 -46.6061 -172.163 
40.6786 -46.5538 -172.163 
40.7867 -46.5015 -172.163 
40.8948 -46.4492 -172.163 
41.0029 -46.3969 -172.163 
41.1111 -46.3446 -172.163 
41.2192 -46.2923 -172.164 
41.3273 -46.24 -172.164 
41.4354 -46.1877 -172.164 
41.5435 -46.1354 -172.164 
41.6517 -46.0831 -172.164 
41.7598 -46.0309 -172.164 
41.8679 -45.9786 -172.165 
41.976 -45.9263 -172.165 
42.0841 -45.874 -172.165 
42.1922 -45.8217 -172.165 
42.3004 -45.7694 -172.165 
42.4085 -45.7171 -172.165 
42.5166 -45.6648 -172.166 
42.5741 -45.5185 -172.172 
42.6823 -45.4663 -172.172 
42.7904 -45.414 -172.172 
42.8479 -45.2677 -172.179 
42.956 -45.2154 -172.179 
43.0136 -45.0691 -172.186 
43.1217 -45.0168 -172.186 
43.2298 -44.9646 -172.186 
43.3379 -44.9123 -172.186 
43.3955 -44.766 -172.193 
43.5036 -44.7137 -172.193 
43.6117 -44.6614 -172.193 
43.7198 -44.6091 -172.193 
43.828 -44.5568 -172.193 
43.9361 -44.5045 -172.193 
44.0442 -44.4522 -172.194 
44.1523 -44.3999 -172.194 
44.2099 -44.2537 -172.2 
44.318 -44.2014 -172.2 
44.4261 -44.1491 -172.201 
44.5342 -44.0968 -172.201 
44.5918 -43.9505 -172.207 
44.6999 -43.8982 -172.207 
44.808 -43.846 -172.208 
44.9161 -43.7937 -172.208 
44.9737 -43.6474 -172.214 
45.0818 -43.5951 -172.214 
45.1899 -43.5428 -172.215 
45.2474 -43.3966 -172.221 
45.3556 -43.3443 -172.221 
45.4131 -43.198 -172.228 
45.4707 -43.0517 -172.234 
45.5282 -42.9055 -172.241 
45.5858 -42.7592 -172.247 
45.6939 -42.7069 -172.248 
45.7514 -42.5606 -172.254 
45.809 -42.4144 -172.261 
45.8665 -42.2681 -172.267 
45.9241 -42.1219 -172.274 
45.9816 -41.9756 -172.28 
46.0897 -41.9233 -172.28 
46.1473 -41.777 -172.287 
46.2554 -41.7248 -172.287 
46.3635 -41.6725 -172.287 
46.4211 -41.5262 -172.294 
46.5292 -41.4739 -172.294 
46.6373 -41.4216 -172.294 
46.7454 -41.3693 -172.294 
46.803 -41.2231 -172.301 
46.9111 -41.1708 -172.301 
47.0192 -41.1185 -172.301 
47.0768 -40.9722 -172.307 
47.1849 -40.9199 -172.308 
47.293 -40.8676 -172.308 
47.3505 -40.7214 -172.314 
47.4081 -40.5751 -172.321 
47.5162 -40.5228 -172.321 
47.5737 -40.3765 -172.327 
47.6313 -40.2303 -172.334 
47.7394 -40.178 -172.334 
47.797 -40.0317 -172.341 
47.8545 -39.8855 -172.347 
47.9121 -39.7392 -172.354 
47.9696 -39.5929 -172.36 
48.0272 -39.4467 -172.367 
48.0847 -39.3004 -172.373 
48.1423 -39.1541 -172.38 
48.1998 -39.0079 -172.386 
48.2574 -38.8616 -172.393 
48.3149 -38.7154 -172.399 
48.3724 -38.5691 -172.406 
48.43 -38.4228 -172.412 
48.4875 -38.2766 -172.419 
48.5451 -38.1303 -172.425 
48.6532 -38.078 -172.425 
48.7108 -37.9317 -172.432 
48.7683 -37.7855 -172.438 
48.8764 -37.7332 -172.439 
48.934 -37.5869 -172.445 
48.9915 -37.4407 -172.452 
49.0996 -37.3884 -172.452 
49.1572 -37.2421 -172.458 
49.2147 -37.0958 -172.465 
49.3229 -37.0436 -172.465 
49.3804 -36.8973 -172.471 
49.438 -36.751 -172.478 
49.5461 -36.6987 -172.478 
49.6036 -36.5525 -172.485 
49.6612 -36.4062 -172.491 
49.7187 -36.2599 -172.498 
0.837588 -62.6302 -171.967 
0.957071 -62.618 -171.968 
1.07655 -62.6058 -171.968 
1.19604 -62.5937 -171.968 
1.31551 -62.5815 -171.968 
1.435 -62.5694 -171.968 
1.55448 -62.5572 -171.968 
1.67397 -62.545 -171.969 
1.79345 -62.5329 -171.969 
1.91293 -62.5207 -171.969 
2.03241 -62.5086 -171.969 
2.15189 -62.4964 -171.969 
2.27138 -62.4842 -171.969 
2.39086 -62.4721 -171.97 
2.51034 -62.4599 -171.97 
2.62982 -62.4478 -171.97 
2.7493 -62.4356 -171.97 
2.86879 -62.4234 -171.97 
2.97289 -62.3057 -171.977 
3.09237 -62.2935 -171.977 
3.19648 -62.1758 -171.983 
3.31596 -62.1636 -171.984 
3.43544 -62.1514 -171.984 
3.53955 -62.0337 -171.99 
3.64364 -61.9159 -171.997 
3.76313 -61.9038 -171.997 
3.86723 -61.786 -172.003 
3.98671 -61.7738 -172.004 
4.09082 -61.6561 -172.01 
4.2103 -61.6439 -172.01 
4.3144 -61.5262 -172.017 
4.43389 -61.514 -172.017 
4.55337 -61.5018 -172.017 
4.67285 -61.4897 -172.017 
4.77695 -61.3719 -172.024 
4.89644 -61.3597 -172.024 
5.01592 -61.3476 -172.024 
5.1354 -61.3354 -172.024 
5.2395 -61.2177 -172.031 
5.35899 -61.2055 -172.031 
5.46309 -61.0877 -172.038 
5.58257 -61.0756 -172.038 
5.68667 -60.9578 -172.044 
5.79078 -60.8401 -172.051 
5.91026 -60.8279 -172.051 
6.01436 -60.7101 -172.057 
6.11847 -60.5924 -172.064 
6.23795 -60.5802 -172.064 
6.35743 -60.5681 -172.064 
6.46153 -60.4503 -172.071 
6.58101 -60.4381 -172.071 
6.7005 -60.426 -172.071 
6.81998 -60.4138 -172.071 
6.93946 -60.4017 -172.071 
7.04356 -60.2839 -172.078 
7.16305 -60.2717 -172.078 
7.26715 -60.154 -172.085 
7.38663 -60.1418 -172.085 
7.49074 -60.0241 -172.091 
7.59484 -59.9063 -172.098 
7.69894 -59.7885 -172.104 
7.80305 -59.6708 -172.111 
7.92253 -59.6586 -172.111 
8.02663 -59.5409 -172.117 
8.13073 -59.4231 -172.124 
8.25022 -59.4109 -172.124 
8.35432 -59.2932 -172.131 
8.4738 -59.281 -172.131 
8.59328 -59.2689 -172.131 
8.71276 -59.2567 -172.131 
8.81687 -59.1389 -172.138 
8.93635 -59.1268 -172.138 
9.05583 -59.1146 -172.138 
9.15994 -58.9969 -172.144 
9.27942 -58.9847 -172.145 
9.3989 -58.9725 -172.145 
9.50301 -58.8548 -172.151 
9.60711 -58.737 -172.158 
9.72659 -58.7249 -172.158 
9.83069 -58.6071 -172.164 
9.9348 -58.4893 -172.171 
10.0389 -58.3716 -172.177 
10.143 -58.2538 -172.184 
10.2471 -58.1361 -172.19 
10.3512 -58.0183 -172.197 
10.4553 -57.9005 -172.203 
10.5748 -57.8884 -172.204 
10.6789 -57.7706 -172.21 
10.7984 -57.7585 -172.21 
10.9025 -57.6407 -172.217 
11.022 -57.6285 -172.217 
11.1414 -57.6164 -172.217 
11.2609 -57.6042 -172.217 
11.365 -57.4865 -172.224 
11.4845 -57.4743 -172.224 
11.604 -57.4621 -172.224 
11.7235 -57.45 -172.224 
11.8276 -57.3322 -172.231 
11.9471 -57.3201 -172.231 
12.0512 -57.2023 -172.238 
12.1706 -57.1901 -172.238 
12.2748 -57.0724 -172.244 
12.3942 -57.0602 -172.244 
12.4983 -56.9425 -172.251 
12.6178 -56.9303 -172.251 
12.7219 -56.8125 -172.258 
12.8414 -56.8004 -172.258 
12.9455 -56.6826 -172.264 
13.065 -56.6705 -172.264 
13.1845 -56.6583 -172.265 
13.2886 -56.5405 -172.271 
13.4081 -56.5284 -172.271 
13.5275 -56.5162 -172.271 
13.6316 -56.3985 -172.278 
13.7511 -56.3863 -172.278 
13.8552 -56.2685 -172.285 
13.9747 -56.2564 -172.285 
14.0788 -56.1386 -172.291 
14.1983 -56.1265 -172.291 
14.3024 -56.0087 -172.298 
14.4065 -55.8909 -172.304 
14.526 -55.8788 -172.305 
14.6455 -55.8666 -172.305 
14.7496 -55.7489 -172.311 
14.8691 -55.7367 -172.311 
14.9732 -55.6189 -172.318 
15.0926 -55.6068 -172.318 
15.1967 -55.489 -172.325 
15.3008 -55.3713 -172.331 
15.4203 -55.3591 -172.331 
15.5244 -55.2413 -172.338 
15.6439 -55.2292 -172.338 
15.748 -55.1114 -172.344 
15.8521 -54.9937 -172.351 
15.9716 -54.9815 -172.351 
16.0757 -54.8637 -172.358 
16.1798 -54.746 -172.364 
16.2993 -54.7338 -172.364 
16.4034 -54.6161 -172.371 
16.5075 -54.4983 -172.377 
16.6116 -54.3805 -172.384 
16.7157 -54.2628 -172.39 
16.8352 -54.2506 -172.39 
16.9393 -54.1329 -172.397 
17.0434 -54.0151 -172.403 
17.1629 -54.0029 -172.404 
17.267 -53.8852 -172.41 
17.3711 -53.7674 -172.417 
17.4906 -53.7553 -172.417 
17.5947 -53.6375 -172.423 
17.7141 -53.6253 -172.424 
17.8182 -53.5076 -172.43 
17.9223 -53.3898 -172.437 
18.0418 -53.3777 -172.437 
18.1613 -53.3655 -172.437 
18.2654 -53.2477 -172.443 
18.3849 -53.2356 -172.444 
18.489 -53.1178 -172.45 
18.6085 -53.1057 -172.45 
18.7126 -52.9879 -172.457 
18.8167 -52.8701 -172.463 
18.9362 -52.858 -172.463 
19.0403 -52.7402 -172.47 
19.1598 -52.7281 -172.47 
19.2639 -52.6103 -172.477 
19.368 -52.4925 -172.483 
19.4874 -52.4804 -172.483 
19.5916 -52.3626 -172.49 
19.6957 -52.2449 -172.496 
19.8151 -52.2327 -172.496 
19.9192 -52.1149 -172.503 
20.0387 -52.1028 -172.503 
20.1428 -51.985 -172.51 
20.2623 -51.9729 -172.51 
20.3664 -51.8551 -172.516 
20.4859 -51.8429 -172.516 
20.59 -51.7252 -172.523 
20.7095 -51.713 -172.523 
20.8136 -51.5953 -172.53 
20.9331 -51.5831 -172.53 
21.0372 -51.4653 -172.536 
21.1566 -51.4532 -172.536 
21.2607 -51.3354 -172.543 
21.3802 -51.3233 -172.543 
21.4997 -51.3111 -172.543 
21.6038 -51.1933 -172.55 
21.7233 -51.1812 -172.55 
21.8428 -51.169 -172.55 
21.9623 -51.1569 -172.55 
22.0664 -51.0391 -172.557 
22.1859 -51.0269 -172.557 
22.3053 -51.0148 -172.557 
22.4248 -51.0026 -172.557 
22.5443 -50.9905 -172.557 
22.6484 -50.8727 -172.564 
22.7679 -50.8605 -172.564 
22.8874 -50.8484 -172.564 
23.0068 -50.8362 -172.564 
23.1263 -50.8241 -172.565 
23.2458 -50.8119 -172.565 
23.3653 -50.7997 -172.565 
23.4848 -50.7876 -172.565 
23.6043 -50.7754 -172.565 
23.7237 -50.7633 -172.565 
23.8432 -50.7511 -172.566 
23.9627 -50.7389 -172.566 
24.0822 -50.7268 -172.566 
24.2017 -50.7146 -172.566 
24.3212 -50.7024 -172.566 
24.4406 -50.6903 -172.566 
24.5447 -50.5725 -172.573 
24.6642 -50.5604 -172.573 
24.7837 -50.5482 -172.573 
24.9032 -50.536 -172.573 
25.0073 -50.4183 -172.58 
25.1268 -50.4061 -172.58 
25.2463 -50.394 -172.58 
25.3504 -50.2762 -172.587 
25.4698 -50.264 -172.587 
25.5893 -50.2519 -172.587 
25.7088 -50.2397 -172.587 
25.8129 -50.122 -172.594 
25.9324 -50.1098 -172.594 
26.0519 -50.0976 -172.594 
26.1714 -50.0855 -172.594 
26.2908 -50.0733 -172.594 
26.4103 -50.0612 -172.595 
26.5298 -50.049 -172.595 
26.6493 -50.0368 -172.595 
26.7688 -50.0247 -172.595 
26.8729 -49.9069 -172.602 
26.9923 -49.8948 -172.602 
27.1118 -49.8826 -172.602 
27.2159 -49.7648 -172.608 
27.32 -49.6471 -172.615 
27.4395 -49.6349 -172.615 
27.5436 -49.5172 -172.622 
27.6477 -49.3994 -172.628 
27.7672 -49.3872 -172.628 
27.8713 -49.2695 -172.635 
27.9754 -49.1517 -172.641 
28.0949 -49.1396 -172.642 
28.199 -49.0218 -172.648 
28.3185 -49.0096 -172.648 
28.438 -48.9975 -172.648 
28.5421 -48.8797 -172.655 
28.6616 -48.8676 -172.655 
28.781 -48.8554 -172.655 
28.9005 -48.8432 -172.655 
29.02 -48.8311 -172.656 
29.1395 -48.8189 -172.656 
29.259 -48.8068 -172.656 
29.3785 -48.7946 -172.656 
29.4979 -48.7824 -172.656 
29.6174 -48.7703 -172.656 
29.7369 -48.7581 -172.657 
29.8564 -48.7459 -172.657 
29.9759 -48.7338 -172.657 
30.0953 -48.7216 -172.657 
30.2148 -48.7095 -172.657 
30.3189 -48.5917 -172.664 
30.4384 -48.5795 -172.664 
30.5579 -48.5674 -172.664 
30.6774 -48.5552 -172.664 
30.7969 -48.5431 -172.664 
30.9163 -48.5309 -172.665 
31.0358 -48.5187 -172.665 
31.1553 -48.5066 -172.665 
31.2748 -48.4944 -172.665 
31.3943 -48.4823 -172.665 
31.5138 -48.4701 -172.665 
31.6332 -48.4579 -172.666 
31.7527 -48.4458 -172.666 
31.8722 -48.4336 -172.666 
32.0071 -48.527 -172.66 
32.1265 -48.5149 -172.66 
32.246 -48.5027 -172.66 
32.3809 -48.5962 -172.654 
32.5004 -48.584 -172.654 
32.6199 -48.5718 -172.654 
32.7393 -48.5597 -172.654 
32.8588 -48.5475 -172.655 
32.9783 -48.5354 -172.655 
33.0978 -48.5232 -172.655 
33.2173 -48.511 -172.655 
33.3367 -48.4989 -172.655 
33.4562 -48.4867 -172.655 
33.5757 -48.4746 -172.656 
33.6952 -48.4624 -172.656 
33.8147 -48.4502 -172.656 
33.9342 -48.4381 -172.656 
-17.4056 -43.5706 -172.912 
-17.2892 -43.6 -172.912 
-17.1944 -43.7339 -172.906 
-17.0997 -43.8679 -172.9 
-17.0049 -44.0018 -172.894 
-16.9101 -44.1357 -172.887 
-16.837 -44.3741 -172.875 
-16.7422 -44.5081 -172.869 
-16.6475 -44.642 -172.863 
-16.5527 -44.7759 -172.856 
-16.4579 -44.9099 -172.85 
-16.3632 -45.0438 -172.844 
-16.2467 -45.0732 -172.844 
-16.152 -45.2071 -172.838 
-16.0572 -45.3411 -172.832 
-15.9624 -45.475 -172.826 
-15.8676 -45.6089 -172.82 
-15.7729 -45.7429 -172.813 
-15.6781 -45.8768 -172.807 
-15.605 -46.1152 -172.795 
-15.5102 -46.2491 -172.788 
-15.4155 -46.3831 -172.782 
-15.3423 -46.6215 -172.77 
-15.2476 -46.7554 -172.764 
-15.1528 -46.8893 -172.757 
-15.058 -47.0233 -172.751 
-14.9633 -47.1572 -172.745 
-14.8685 -47.2911 -172.739 
-14.7737 -47.4251 -172.733 
-14.6789 -47.559 -172.727 
-14.5842 -47.6929 -172.72 
-14.4894 -47.8268 -172.714 
-14.3946 -47.9608 -172.708 
-14.2999 -48.0947 -172.702 
-14.2051 -48.2286 -172.696 
-14.1103 -48.3625 -172.69 
-14.0155 -48.4965 -172.683 
-13.9208 -48.6304 -172.677 
-13.826 -48.7643 -172.671 
-13.7312 -48.8983 -172.665 
-13.6365 -49.0322 -172.659 
-13.5417 -49.1661 -172.653 
-13.4469 -49.3 -172.646 
-13.3521 -49.434 -172.64 
-13.2574 -49.5679 -172.634 
-13.1626 -49.7018 -172.628 
-13.0678 -49.8358 -172.622 
-12.9731 -49.9697 -172.616 
-12.8783 -50.1036 -172.609 
-12.7835 -50.2375 -172.603 
-12.6671 -50.267 -172.603 
-12.5723 -50.4009 -172.597 
-12.4775 -50.5348 -172.591 
-12.3828 -50.6688 -172.585 
-12.288 -50.8027 -172.579 
-12.1932 -50.9366 -172.572 
-12.0985 -51.0705 -172.566 
-12.0037 -51.2045 -172.56 
-11.9306 -51.4429 -172.548 
-11.8358 -51.5768 -172.541 
-11.741 -51.7108 -172.535 
-11.6679 -51.9492 -172.523 
-11.5732 -52.0831 -172.517 
-11.4784 -52.217 -172.51 
-11.3836 -52.351 -172.504 
-11.2888 -52.4849 -172.498 
-11.1941 -52.6188 -172.492 
-11.0993 -52.7527 -172.486 
-11.0045 -52.8867 -172.48 
-10.8881 -52.9161 -172.48 
-10.7933 -53.05 -172.474 
-10.6769 -53.0795 -172.474 
-10.5604 -53.1089 -172.474 
-10.444 -53.1383 -172.474 
-10.3276 -53.1678 -172.474 
-10.2111 -53.1972 -172.474 
-10.1164 -53.3312 -172.468 
-9.99993 -53.3606 -172.468 
-9.8835 -53.39 -172.469 
-9.78873 -53.5239 -172.462 
-9.69396 -53.6579 -172.456 
-9.59918 -53.7918 -172.45 
-9.52608 -54.0302 -172.438 
-9.4313 -54.1642 -172.431 
-9.3582 -54.4026 -172.419 
-9.26343 -54.5365 -172.413 
-9.19032 -54.7749 -172.4 
-9.09555 -54.9088 -172.394 
-9.00078 -55.0428 -172.388 
-8.90601 -55.1767 -172.382 
-8.81124 -55.3106 -172.375 
-8.6948 -55.3401 -172.376 
-8.60003 -55.474 -172.369 
-8.50526 -55.6079 -172.363 
-8.38882 -55.6374 -172.363 
-8.29405 -55.7713 -172.357 
-8.19928 -55.9052 -172.351 
-8.10451 -56.0391 -172.345 
-8.00973 -56.1731 -172.339 
-7.91496 -56.307 -172.333 
-7.84186 -56.5454 -172.32 
-7.74709 -56.6793 -172.314 
-7.65231 -56.8133 -172.308 
-7.55754 -56.9472 -172.302 
-7.46277 -57.0811 -172.295 
-7.368 -57.2151 -172.289 
-7.25156 -57.2445 -172.289 
-7.15679 -57.3784 -172.283 
-7.06202 -57.5124 -172.277 
-6.94559 -57.5418 -172.277 
-6.85082 -57.6757 -172.271 
-6.73438 -57.7052 -172.271 
-6.61794 -57.7346 -172.271 
-6.52317 -57.8685 -172.265 
-6.40674 -57.898 -172.265 
-6.31197 -58.0319 -172.259 
-6.19553 -58.0613 -172.259 
-6.10076 -58.1953 -172.253 
-5.98432 -58.2247 -172.253 
-5.88955 -58.3586 -172.247 
-5.79478 -58.4925 -172.241 
-5.67834 -58.522 -172.241 
-5.58357 -58.6559 -172.235 
-5.4888 -58.7898 -172.229 
-5.39403 -58.9238 -172.223 
-5.27759 -58.9532 -172.223 
-5.18282 -59.0871 -172.217 
-5.08805 -59.2211 -172.21 
-4.99328 -59.355 -172.204 
-4.87684 -59.3844 -172.204 
-4.78207 -59.5184 -172.198 
-4.6873 -59.6523 -172.192 
-4.57087 -59.6817 -172.192 
-4.47609 -59.8156 -172.186 
-4.35966 -59.8451 -172.186 
-4.26488 -59.979 -172.18 
-4.17011 -60.1129 -172.174 
-4.05368 -60.1424 -172.174 
-3.93724 -60.1718 -172.174 
-3.84247 -60.3058 -172.168 
-3.72603 -60.3352 -172.168 
-3.63126 -60.4691 -172.162 
-3.51483 -60.4986 -172.162 
-3.42006 -60.6325 -172.156 
-3.32529 -60.7664 -172.15 
-3.20885 -60.7958 -172.15 
-3.11408 -60.9298 -172.144 
-2.99764 -60.9592 -172.144 
-2.90287 -61.0931 -172.138 
-2.8081 -61.2271 -172.132 
-2.69166 -61.2565 -172.132 
-2.59689 -61.3904 -172.126 
-2.50212 -61.5244 -172.12 
-2.38568 -61.5538 -172.12 
-2.29091 -61.6877 -172.114 
-2.17448 -61.7172 -172.114 
-2.0797 -61.8511 -172.108 
-1.96327 -61.8805 -172.108 
-1.8685 -62.0145 -172.102 
-1.75206 -62.0439 -172.102 
-1.63563 -62.0733 -172.102 
-1.51919 -62.1028 -172.102 
-1.40275 -62.1322 -172.102 
-1.28631 -62.1617 -172.102 
-1.16988 -62.1911 -172.103 
-1.05344 -62.2205 -172.103 
-0.937011 -62.25 -172.103 
-0.820574 -62.2794 -172.103 
-0.704136 -62.3088 -172.103 
-0.587703 -62.3383 -172.103 
-0.471265 -62.3677 -172.104 
-0.354828 -62.3972 -172.104 
-0.238391 -62.4266 -172.104 
-0.121957 -62.456 -172.104 
-0.00551988 -62.4855 -172.104 
0.110914 -62.5149 -172.104 
0.227351 -62.5443 -172.105 
0.343789 -62.5738 -172.105 
0.460223 -62.6032 -172.105 
0.576659 -62.6327 -172.105 
0.714761 -62.5576 -172.112 
0.831198 -62.587 -172.112 
0.947631 -62.6165 -172.112 
1.06407 -62.6459 -172.112 
1.18051 -62.6754 -172.112 
1.29694 -62.7048 -172.112 
1.41338 -62.7342 -172.113 
1.52981 -62.7637 -172.113 
1.64625 -62.7931 -172.113 
1.78435 -62.7181 -172.119 
1.90079 -62.7475 -172.12 
2.01722 -62.7769 -172.12 
2.13366 -62.8064 -172.12 
2.27176 -62.7313 -172.126 
2.38819 -62.7608 -172.127 
2.5263 -62.6857 -172.133 
2.64273 -62.7151 -172.133 
2.78084 -62.6401 -172.14 
2.91893 -62.565 -172.146 
3.05703 -62.49 -172.153 
3.19514 -62.4149 -172.159 
3.33324 -62.3399 -172.166 
3.493 -62.1603 -172.179 
3.6311 -62.0853 -172.185 
3.76921 -62.0102 -172.192 
3.92897 -61.8307 -172.204 
4.06707 -61.7556 -172.211 
4.20517 -61.6806 -172.217 
4.34327 -61.6055 -172.224 
4.48138 -61.5305 -172.23 
4.59781 -61.5599 -172.231 
4.73591 -61.4849 -172.237 
4.87401 -61.4098 -172.244 
4.99045 -61.4392 -172.244 
5.12855 -61.3642 -172.25 
5.26665 -61.2891 -172.257 
5.40475 -61.2141 -172.263 
5.54285 -61.139 -172.27 
5.68095 -61.064 -172.276 
5.84071 -60.8844 -172.289 
5.97882 -60.8094 -172.296 
6.11692 -60.7343 -172.302 
6.27668 -60.5548 -172.315 
6.41478 -60.4797 -172.322 
6.55289 -60.4047 -172.328 
6.69099 -60.3296 -172.335 
6.85075 -60.1501 -172.347 
6.98885 -60.075 -172.354 
7.12695 -60 -172.36 
7.24339 -60.0294 -172.361 
7.38149 -59.9544 -172.367 
7.51959 -59.8793 -172.374 
7.65769 -59.8043 -172.38 
7.77413 -59.8337 -172.38 
7.91223 -59.7587 -172.387 
8.05033 -59.6836 -172.393 
8.16677 -59.713 -172.393 
8.30486 -59.638 -172.4 
8.44297 -59.5629 -172.406 
8.58106 -59.4879 -172.413 
8.71917 -59.4128 -172.419 
8.85727 -59.3378 -172.426 
9.01704 -59.1582 -172.439 
9.15514 -59.0832 -172.445 
9.3149 -58.9036 -172.458 
9.47467 -58.7241 -172.471 
9.61277 -58.6491 -172.478 
9.77253 -58.4695 -172.49 
9.9323 -58.29 -172.503 
10.0704 -58.2149 -172.51 
10.2302 -58.0354 -172.523 
10.3683 -57.9603 -172.529 
10.528 -57.7808 -172.542 
10.6661 -57.7057 -172.548 
10.8042 -57.6307 -172.555 
10.9423 -57.5556 -172.561 
11.0804 -57.4806 -172.568 
11.1969 -57.51 -172.568 
11.335 -57.435 -172.575 
11.4514 -57.4644 -172.575 
11.5678 -57.4938 -172.575 
11.7059 -57.4188 -172.581 
11.8224 -57.4482 -172.582 
11.9605 -57.3732 -172.588 
12.0986 -57.2981 -172.595 
12.2367 -57.2231 -172.601 
12.3965 -57.0435 -172.614 
12.5345 -56.9685 -172.62 
12.6943 -56.7889 -172.633 
12.8324 -56.7139 -172.64 
12.9922 -56.5343 -172.653 
13.1303 -56.4593 -172.659 
13.2684 -56.3842 -172.666 
13.4065 -56.3092 -172.672 
13.5446 -56.2341 -172.679 
13.6827 -56.1591 -172.685 
13.8208 -56.084 -172.692 
13.9589 -56.009 -172.698 
14.1187 -55.8294 -172.711 
14.2568 -55.7544 -172.718 
14.4165 -55.5748 -172.73 
14.5546 -55.4998 -172.737 
14.7144 -55.3202 -172.75 
14.8742 -55.1407 -172.763 
15.0123 -55.0656 -172.769 
15.172 -54.8861 -172.782 
15.3101 -54.811 -172.788 
15.4266 -54.8405 -172.789 
