ply
format ascii 1.0
element vertex 1556
property float x
property float y
property float z
element face 0
property list uchar uint vertex_indices
end_header
3.374589 -12.361161 -173.824440
3.605542 -12.406777 -173.820960
4.239018 -12.764721 -173.805364
4.469970 -12.810338 -173.801884
4.700923 -12.855954 -173.798404
4.851371 -12.839105 -173.797346
5.082323 -12.884721 -173.793866
5.232771 -12.867872 -173.792809
5.705238 -13.100885 -173.782059
5.855686 -13.084036 -173.781002
6.006133 -13.067187 -173.779945
6.156581 -13.050338 -173.778888
6.307029 -13.033489 -173.777831
6.376972 -12.954174 -173.779197
6.446915 -12.874859 -173.780563
6.597363 -12.858010 -173.779506
6.747811 -12.841161 -173.778449
6.817754 -12.761846 -173.779815
6.968202 -12.744997 -173.778758
7.038145 -12.665682 -173.780124
7.108088 -12.586368 -173.781490
7.258536 -12.569519 -173.780433
7.328479 -12.490204 -173.781799
7.398422 -12.410889 -173.783165
7.548870 -12.394040 -173.782108
7.699318 -12.377191 -173.781050
7.849766 -12.360342 -173.779993
7.919709 -12.281027 -173.781359
8.070157 -12.264178 -173.780302
8.140100 -12.184863 -173.781668
8.210043 -12.105549 -173.783034
8.360491 -12.088699 -173.781977
8.430434 -12.009385 -173.783343
8.500377 -11.930070 -173.784709
8.570321 -11.850755 -173.786075
8.640264 -11.771441 -173.787441
8.790712 -11.754591 -173.786384
8.860655 -11.675277 -173.787750
8.930598 -11.595962 -173.789116
9.000541 -11.516647 -173.790482
9.070484 -11.437333 -173.791848
9.140427 -11.358018 -173.793214
9.210371 -11.278703 -173.794580
9.280314 -11.199389 -173.795946
9.350257 -11.120074 -173.797312
9.420200 -11.040759 -173.798678
9.490143 -10.961445 -173.800044
9.560086 -10.882130 -173.801410
9.630030 -10.802815 -173.802776
9.699973 -10.723501 -173.804142
9.850421 -10.706651 -173.803085
9.920364 -10.627337 -173.804451
10.070812 -10.610488 -173.803394
10.140755 -10.531173 -173.804760
10.210698 -10.451858 -173.806126
10.280641 -10.372544 -173.807492
10.431089 -10.355694 -173.806435
10.501032 -10.276380 -173.807801
10.651480 -10.259531 -173.806744
10.801928 -10.242681 -173.805687
10.871871 -10.163367 -173.807053
11.022319 -10.146518 -173.805996
11.092262 -10.067203 -173.807362
11.242710 -10.050354 -173.806305
11.312653 -9.971039 -173.807671
11.463101 -9.954190 -173.806614
11.533044 -9.874875 -173.807980
11.683492 -9.858026 -173.806923
11.753435 -9.778711 -173.808289
11.823378 -9.699397 -173.809655
11.893321 -9.620082 -173.811021
11.963264 -9.540767 -173.812387
12.113712 -9.523918 -173.811330
12.183655 -9.444604 -173.812696
12.253598 -9.365289 -173.814062
12.404046 -9.348440 -173.813004
12.473989 -9.269125 -173.814370
12.624437 -9.252276 -173.813313
12.694380 -9.172961 -173.814679
12.764324 -9.093646 -173.816045
12.914771 -9.076797 -173.814988
12.984715 -8.997483 -173.816354
13.054658 -8.918168 -173.817720
13.044096 -8.776388 -173.821509
13.114039 -8.697073 -173.822875
13.183983 -8.617758 -173.824241
13.253926 -8.538444 -173.825607
13.404374 -8.521595 -173.824550
13.474317 -8.442280 -173.825916
13.544260 -8.362965 -173.827282
13.614203 -8.283650 -173.828648
13.684146 -8.204336 -173.830014
13.834594 -8.187487 -173.828957
13.904537 -8.108172 -173.830323
13.974480 -8.028857 -173.831689
14.044423 -7.949543 -173.833055
14.194871 -7.932693 -173.831998
14.264814 -7.853379 -173.833364
14.415262 -7.836530 -173.832307
14.485205 -7.757215 -173.833673
14.555149 -7.677900 -173.835039
14.705596 -7.661051 -173.833982
14.775540 -7.581736 -173.835348
14.845483 -7.502422 -173.836714
14.915426 -7.423107 -173.838080
14.985369 -7.343792 -173.839446
15.055312 -7.264478 -173.840812
15.125255 -7.185163 -173.842178
15.114694 -7.043383 -173.845967
15.184637 -6.964068 -173.847333
15.093571 -6.759822 -173.853546
14.922000 -6.493111 -173.862181
14.911438 -6.351331 -173.865970
14.900877 -6.209551 -173.869759
14.970820 -6.130236 -173.871125
14.960259 -5.988456 -173.874914
14.949697 -5.846675 -173.878704
14.456107 -5.330102 -173.897031
6.995921 -12.776890 -173.804032
7.218740 -12.700918 -173.800552
7.239655 -12.597258 -173.801918
7.361522 -12.507442 -173.800861
7.483389 -12.417626 -173.799804
7.605256 -12.327811 -173.798747
7.727123 -12.237995 -173.797689
8.050894 -12.175868 -173.791786
8.172761 -12.086052 -173.790729
8.294628 -11.996236 -173.789672
8.315543 -11.892576 -173.791038
8.336458 -11.788916 -173.792404
8.458325 -11.699100 -173.791347
8.580192 -11.609284 -173.790290
8.702059 -11.519468 -173.789233
8.823926 -11.429652 -173.788175
8.945793 -11.339836 -173.787118
9.067660 -11.250021 -173.786061
9.088575 -11.146360 -173.787427
9.210443 -11.056545 -173.786370
9.231358 -10.952884 -173.787736
9.656080 -10.904602 -173.779410
9.777947 -10.814786 -173.778353
9.899815 -10.724970 -173.777295
10.021682 -10.635154 -173.776238
10.143549 -10.545338 -173.775181
10.265416 -10.455522 -173.774124
10.387283 -10.365707 -173.773067
10.509150 -10.275891 -173.772010
10.631017 -10.186075 -173.770953
10.752884 -10.096259 -173.769896
10.874751 -10.006443 -173.768839
11.097570 -9.930472 -173.765358
11.219437 -9.840656 -173.764301
11.644160 -9.792373 -173.755975
11.766027 -9.702557 -173.754918
11.887894 -9.612741 -173.753861
12.009761 -9.522926 -173.752803
12.131628 -9.433110 -173.751746
12.253495 -9.343294 -173.750689
12.274410 -9.239634 -173.752055
12.396277 -9.149818 -173.750998
12.619096 -9.073846 -173.747518
12.740963 -8.984031 -173.746461
12.963782 -8.908059 -173.742981
13.085649 -8.818243 -173.741923
13.207516 -8.728427 -173.740866
13.228431 -8.624767 -173.742232
13.350298 -8.534951 -173.741175
13.371213 -8.431291 -173.742541
13.493080 -8.341475 -173.741484
13.513996 -8.237815 -173.742850
13.635863 -8.147999 -173.741793
13.757730 -8.058184 -173.740736
13.778645 -7.954523 -173.742102
13.900512 -7.864708 -173.741045
14.022379 -7.774892 -173.739988
14.043294 -7.671232 -173.741354
14.064209 -7.567571 -173.742720
14.186076 -7.477756 -173.741663
14.711751 -7.443317 -173.730913
14.833618 -7.353501 -173.729856
14.955485 -7.263685 -173.728799
14.976400 -7.160025 -173.730165
15.098267 -7.070209 -173.729108
15.119182 -6.966549 -173.730474
15.140097 -6.862889 -173.731840
15.161013 -6.759229 -173.733206
15.080976 -6.641724 -173.736995
15.101891 -6.538064 -173.738361
15.122806 -6.434404 -173.739727
15.143721 -6.330744 -173.741093
15.164636 -6.227084 -173.742459
15.084600 -6.109579 -173.746248
15.105515 -6.005919 -173.747614
15.025478 -5.888415 -173.751403
15.046393 -5.784755 -173.752769
14.966356 -5.667250 -173.756558
14.987271 -5.563590 -173.757924
14.907235 -5.446085 -173.761714
14.928150 -5.342425 -173.763080
14.747161 -5.211076 -173.769292
14.667124 -5.093572 -173.773081
14.587087 -4.976067 -173.776870
14.507051 -4.858563 -173.780659
14.527966 -4.754903 -173.782025
14.447929 -4.637398 -173.785814
14.468844 -4.533738 -173.787181
14.388807 -4.416234 -173.790970
14.308771 -4.298729 -173.794759
14.228734 -4.181225 -173.798548
14.148697 -4.063720 -173.802337
14.068660 -3.946216 -173.806126
13.887672 -3.814867 -173.812338
13.807635 -3.697362 -173.816128
13.727598 -3.579858 -173.819917
13.748513 -3.476198 -173.821283
13.668476 -3.358693 -173.825072
13.487488 -3.227344 -173.831284
13.407451 -3.109840 -173.835073
13.428366 -3.006180 -173.836439
13.348329 -2.888675 -173.840228
13.369244 -2.785015 -173.841594
13.289208 -2.667511 -173.845384
13.310123 -2.563851 -173.846750
13.230086 -2.446346 -173.850539
13.150049 -2.328842 -173.854328
13.070012 -2.211337 -173.858117
12.989976 -2.093833 -173.861906
12.909939 -1.976328 -173.865695
12.829902 -1.858824 -173.869484
12.749865 -1.741319 -173.873274
12.770780 -1.637659 -173.874640
12.690744 -1.520154 -173.878429
12.711659 -1.416494 -173.879795
12.631622 -1.298990 -173.883584
12.652537 -1.195330 -173.884950
12.572500 -1.077825 -173.888739
12.492463 -0.960321 -173.892528
12.513379 -0.856661 -173.893894
12.433342 -0.739156 -173.897683
12.353305 -0.621652 -173.901473
12.374220 -0.517991 -173.902839
12.294183 -0.400487 -173.906628
12.315099 -0.296827 -173.907994
12.235062 -0.179322 -173.911783
12.255977 -0.075662 -173.913149
12.175940 0.041842 -173.916938
12.196855 0.145503 -173.918304
12.217770 0.249163 -173.919670
12.137734 0.366667 -173.923459
12.158649 0.470327 -173.924825
12.179564 0.573987 -173.926191
12.200479 0.677648 -173.927557
12.221394 0.781308 -173.928923
12.242309 0.884968 -173.930289
12.162272 1.002472 -173.934078
12.183188 1.106133 -173.935444
12.204103 1.209793 -173.936810
12.124066 1.327297 -173.940600
12.144981 1.430957 -173.941966
12.064944 1.548462 -173.945755
11.883956 1.679811 -173.951967
11.904871 1.783471 -173.953333
11.824834 1.900975 -173.957122
11.845749 2.004636 -173.958488
11.866664 2.108296 -173.959854
11.887579 2.211956 -173.961220
11.807543 2.329460 -173.965009
11.828458 2.433120 -173.966375
11.849373 2.536781 -173.967741
11.870288 2.640441 -173.969107
11.790251 2.757945 -173.972897
11.811166 2.861605 -173.974263
11.731129 2.979110 -173.978052
11.752045 3.082770 -173.979418
11.772960 3.186430 -173.980784
11.793875 3.290090 -173.982150
11.814790 3.393751 -173.983516
11.835705 3.497411 -173.984882
11.755668 3.614915 -173.988671
11.776583 3.718575 -173.990037
11.696547 3.836080 -173.993826
11.717462 3.939740 -173.995192
11.738377 4.043400 -173.996558
11.658340 4.160905 -174.000347
11.679255 4.264565 -174.001713
11.599219 4.382069 -174.005502
11.620134 4.485729 -174.006868
11.641049 4.589390 -174.008234
11.561012 4.706894 -174.012024
11.581927 4.810554 -174.013390
11.602842 4.914214 -174.014756
11.623757 5.017875 -174.016122
11.644673 5.121535 -174.017488
11.564636 5.239039 -174.021277
11.585551 5.342699 -174.022643
11.606466 5.446360 -174.024009
11.526429 5.563864 -174.027798
11.547344 5.667524 -174.029164
11.467308 5.785029 -174.032953
11.387271 5.902533 -174.036742
11.307234 6.020038 -174.040531
11.126245 6.151386 -174.046744
10.541449 6.338113 -174.062648
10.360460 6.469461 -174.068861
10.280424 6.586966 -174.072650
15.351797 -6.952202 -173.726931
15.412429 -6.813486 -173.725874
15.473061 -6.674770 -173.724817
15.439344 -6.574540 -173.726183
15.783023 -6.320364 -173.717857
15.749306 -6.220134 -173.719223
15.715589 -6.119904 -173.720589
15.681872 -6.019674 -173.721955
15.648155 -5.919445 -173.723321
15.520089 -5.857701 -173.727110
15.486372 -5.757471 -173.728476
15.452655 -5.657241 -173.729842
15.513287 -5.518525 -173.728785
15.479570 -5.418295 -173.730151
15.445853 -5.318065 -173.731517
15.412136 -5.217835 -173.732883
15.378419 -5.117605 -173.734249
15.344702 -5.017375 -173.735615
15.216636 -4.955632 -173.739404
15.182919 -4.855402 -173.740770
15.149202 -4.755172 -173.742136
15.115485 -4.654942 -173.743502
15.081768 -4.554712 -173.744868
15.048051 -4.454482 -173.746234
15.014334 -4.354252 -173.747600
14.980617 -4.254022 -173.748966
14.852551 -4.192279 -173.752755
14.818834 -4.092049 -173.754121
14.690768 -4.030305 -173.757910
14.657051 -3.930075 -173.759276
14.528985 -3.868332 -173.763066
14.495268 -3.768102 -173.764432
14.461551 -3.667872 -173.765798
14.333485 -3.606128 -173.769587
14.299768 -3.505898 -173.770953
14.171702 -3.444155 -173.774742
14.137985 -3.343925 -173.776108
14.009918 -3.282181 -173.779897
13.976201 -3.181952 -173.781263
13.942484 -3.081722 -173.782629
13.908767 -2.981492 -173.783995
13.875050 -2.881262 -173.785361
13.841333 -2.781032 -173.786727
13.807616 -2.680802 -173.788093
13.773899 -2.580572 -173.789459
13.645833 -2.518828 -173.793248
13.612116 -2.418599 -173.794614
13.578399 -2.318369 -173.795980
13.544682 -2.218139 -173.797346
13.510965 -2.117909 -173.798712
13.477248 -2.017679 -173.800078
13.443531 -1.917449 -173.801444
13.409814 -1.817219 -173.802810
13.376097 -1.716989 -173.804176
13.342380 -1.616759 -173.805542
13.308663 -1.516529 -173.806909
13.274946 -1.416299 -173.808275
13.241229 -1.316069 -173.809641
13.207512 -1.215839 -173.811007
13.173795 -1.115610 -173.812373
13.140078 -1.015380 -173.813739
13.106361 -0.915150 -173.815105
13.072644 -0.814920 -173.816471
13.038927 -0.714690 -173.817837
13.005210 -0.614460 -173.819203
12.971493 -0.514230 -173.820569
12.937776 -0.414000 -173.821935
12.904059 -0.313770 -173.823301
12.870342 -0.213540 -173.824667
12.742276 -0.151797 -173.828456
12.708559 -0.051567 -173.829822
12.674842 0.048663 -173.831188
12.641125 0.148893 -173.832554
12.607408 0.249123 -173.833920
12.573691 0.349353 -173.835286
12.539974 0.449583 -173.836652
12.506257 0.549813 -173.838018
12.472540 0.650043 -173.839384
12.438823 0.750273 -173.840750
12.405106 0.850503 -173.842116
12.371389 0.950732 -173.843482
12.337672 1.050962 -173.844848
12.303955 1.151192 -173.846214
12.270238 1.251422 -173.847580
12.330870 1.390139 -173.846523
12.297153 1.490368 -173.847889
12.263436 1.590598 -173.849255
12.324069 1.729315 -173.848198
12.290352 1.829545 -173.849564
12.256635 1.929775 -173.850930
12.222918 2.030004 -173.852296
12.189201 2.130234 -173.853662
12.155484 2.230464 -173.855028
12.216116 2.369181 -173.853971
12.182399 2.469411 -173.855337
12.148682 2.569640 -173.856703
12.209314 2.708357 -173.855646
12.175597 2.808587 -173.857012
12.141880 2.908817 -173.858378
12.108163 3.009047 -173.859744
12.074446 3.109276 -173.861110
12.040729 3.209506 -173.862476
12.007012 3.309736 -173.863842
11.973295 3.409966 -173.865208
11.939578 3.510196 -173.866574
11.905861 3.610426 -173.867940
11.872144 3.710656 -173.869306
11.932776 3.849372 -173.868249
11.899059 3.949602 -173.869615
11.959691 4.088318 -173.868558
11.925974 4.188548 -173.869924
11.892257 4.288778 -173.871290
11.952889 4.427495 -173.870233
11.919172 4.527725 -173.871599
11.885455 4.627954 -173.872965
11.851738 4.728184 -173.874331
11.818021 4.828414 -173.875697
11.784304 4.928644 -173.877063
11.750587 5.028874 -173.878429
11.716870 5.129104 -173.879795
11.683153 5.229334 -173.881161
11.649436 5.329564 -173.882527
11.615719 5.429794 -173.883893
11.676351 5.568510 -173.882836
11.642634 5.668740 -173.884202
11.608917 5.768970 -173.885568
11.575200 5.869200 -173.886934
11.541483 5.969430 -173.888300
11.507766 6.069660 -173.889666
11.474049 6.169890 -173.891032
11.440332 6.270120 -173.892398
11.406615 6.370350 -173.893764
11.372898 6.470579 -173.895130
11.339181 6.570809 -173.896496
11.305464 6.671039 -173.897862
11.177398 6.732783 -173.901651
11.049332 6.794526 -173.905440
10.921266 6.856270 -173.909229
10.793200 6.918013 -173.913018
10.759483 7.018243 -173.914384
10.631417 7.079987 -173.918174
10.503351 7.141731 -173.921963
10.469634 7.241960 -173.923329
10.435917 7.342190 -173.924695
10.307850 7.403934 -173.928484
10.274133 7.504164 -173.929850
10.146067 7.565907 -173.933639
10.018001 7.627651 -173.937428
9.889935 7.689394 -173.941217
9.761869 7.751138 -173.945007
9.633803 7.812882 -173.948796
9.600086 7.913111 -173.950162
9.472020 7.974855 -173.953951
9.343954 8.036599 -173.957740
9.215888 8.098342 -173.961529
9.087821 8.160086 -173.965318
8.959755 8.221829 -173.969107
8.737340 8.245086 -173.975320
8.514925 8.268344 -173.981532
8.481208 8.368573 -173.982898
8.353142 8.430317 -173.986687
8.225076 8.492061 -173.990476
8.097010 8.553804 -173.994265
7.874594 8.577061 -174.000478
7.746528 8.638805 -174.004267
7.618462 8.700548 -174.008056
7.018650 8.569860 -174.023961
15.306500 -5.053070 -173.831647
15.289651 -4.902622 -173.830590
15.210336 -4.832679 -173.831956
15.193487 -4.682231 -173.830899
15.176638 -4.531783 -173.829842
15.159788 -4.381335 -173.828785
15.142939 -4.230887 -173.827728
15.001159 -4.241449 -173.831517
14.921844 -4.171506 -173.832883
15.217322 -3.618534 -173.819710
15.138008 -3.548591 -173.821076
15.121158 -3.398143 -173.820019
15.041843 -3.328200 -173.821385
14.962529 -3.258256 -173.822751
14.883214 -3.188313 -173.824117
14.866365 -3.037865 -173.823060
14.787050 -2.967922 -173.824426
14.707735 -2.897979 -173.825792
14.628420 -2.828036 -173.827158
14.549105 -2.758093 -173.828524
14.469791 -2.688150 -173.829890
14.390476 -2.618206 -173.831256
14.311161 -2.548263 -173.832622
14.231846 -2.478320 -173.833988
14.152532 -2.408377 -173.835354
14.073217 -2.338434 -173.836720
13.993902 -2.268491 -173.838086
13.977053 -2.118043 -173.837029
13.897738 -2.048100 -173.838395
13.818423 -1.978156 -173.839761
13.801574 -1.827708 -173.838704
13.722259 -1.757765 -173.840070
13.705410 -1.607317 -173.839013
13.626095 -1.537374 -173.840379
13.546780 -1.467431 -173.841745
13.467465 -1.397488 -173.843111
13.450616 -1.247040 -173.842054
13.371301 -1.177097 -173.843420
13.291987 -1.107154 -173.844786
13.212672 -1.037210 -173.846152
13.133357 -0.967267 -173.847518
13.116508 -0.816819 -173.846461
13.037193 -0.746876 -173.847827
13.020344 -0.596428 -173.846770
13.003494 -0.445980 -173.845713
12.986645 -0.295532 -173.844655
12.907330 -0.225589 -173.846022
12.890481 -0.075141 -173.844964
12.873632 0.075307 -173.843907
12.794317 0.145250 -173.845273
12.777468 0.295698 -173.844216
12.760619 0.446146 -173.843159
12.743769 0.596594 -173.842102
12.664455 0.666537 -173.843468
12.647605 0.816985 -173.842411
12.568291 0.886928 -173.843777
12.551441 1.037376 -173.842720
12.534592 1.187824 -173.841663
12.517743 1.338272 -173.840606
12.500894 1.488720 -173.839548
12.484044 1.639168 -173.838491
12.404729 1.709111 -173.839857
12.387880 1.859559 -173.838800
12.308565 1.929502 -173.840166
12.229251 1.999445 -173.841532
12.149936 2.069388 -173.842898
12.133087 2.219836 -173.841841
12.053772 2.289779 -173.843207
12.036923 2.440227 -173.842150
11.957608 2.510171 -173.843516
12.190621 2.982638 -173.832767
12.236237 3.213590 -173.829286
12.156922 3.283534 -173.830652
12.140073 3.433981 -173.829595
12.123224 3.584429 -173.828538
12.043909 3.654373 -173.829904
12.027060 3.804820 -173.828847
12.010210 3.955268 -173.827790
11.993361 4.105716 -173.826733
11.976512 4.256164 -173.825676
11.959663 4.406612 -173.824619
11.880348 4.476555 -173.825985
11.863499 4.627003 -173.824927
11.909115 4.857956 -173.821447
11.892266 5.008404 -173.820390
11.875416 5.158852 -173.819333
11.796101 5.228795 -173.820699
11.779252 5.379243 -173.819642
11.762403 5.529691 -173.818585
11.745554 5.680139 -173.817528
11.728704 5.830587 -173.816471
11.711855 5.981035 -173.815414
11.632540 6.050978 -173.816780
11.615691 6.201426 -173.815722
11.598842 6.351874 -173.814665
11.519527 6.421817 -173.816031
11.502678 6.572265 -173.814974
11.423363 6.642208 -173.816340
11.344048 6.712151 -173.817706
11.327199 6.862599 -173.816649
11.247884 6.932542 -173.818015
11.231035 7.082990 -173.816958
11.151720 7.152934 -173.818324
11.072405 7.222877 -173.819690
11.055556 7.373325 -173.818633
11.038707 7.523773 -173.817576
10.959392 7.593716 -173.818942
10.942543 7.744164 -173.817885
10.863228 7.814107 -173.819251
10.783913 7.884050 -173.820617
10.704598 7.953993 -173.821983
10.625284 8.023936 -173.823349
10.483503 8.013375 -173.827138
10.341723 8.002813 -173.830927
10.262408 8.072756 -173.832293
10.183093 8.142699 -173.833659
10.103779 8.212643 -173.835025
10.024464 8.282586 -173.836391
9.882684 8.272024 -173.840180
9.803369 8.341967 -173.841546
9.724054 8.411910 -173.842912
9.644739 8.481854 -173.844278
9.565424 8.551797 -173.845644
9.423644 8.541235 -173.849434
9.344329 8.611178 -173.850800
9.265014 8.681121 -173.852166
9.123234 8.670560 -173.855955
9.043919 8.740503 -173.857321
8.902139 8.729941 -173.861110
8.822824 8.799885 -173.862476
8.743509 8.869828 -173.863842
8.601729 8.859266 -173.867631
8.522414 8.929209 -173.868997
8.443100 8.999152 -173.870363
8.301319 8.988591 -173.874152
8.222004 9.058534 -173.875518
8.142690 9.128477 -173.876884
8.063375 9.198420 -173.878250
7.921594 9.187859 -173.882039
7.779814 9.177297 -173.885829
7.638034 9.166735 -173.889618
7.496253 9.156174 -173.893407
7.416939 9.226117 -173.894773
7.337624 9.296060 -173.896139
7.195844 9.285498 -173.899928
7.116529 9.355442 -173.901294
6.974748 9.344880 -173.905083
6.895434 9.414823 -173.906449
6.753653 9.404261 -173.910238
6.611873 9.393700 -173.914027
6.470093 9.383138 -173.917817
6.328312 9.372577 -173.921606
6.186532 9.362015 -173.925395
6.044752 9.351453 -173.929184
5.965437 9.421397 -173.930550
5.823657 9.410835 -173.934339
5.681876 9.400273 -173.938128
5.540096 9.389712 -173.941917
5.398316 9.379150 -173.945707
5.194070 9.288084 -173.951919
4.927358 9.116512 -173.960554
4.723112 9.025446 -173.966766
4.581332 9.014884 -173.970556
11.346242 6.662106 -173.836329
11.256426 6.783973 -173.835272
11.180454 7.006792 -173.831792
11.118327 7.330563 -173.825888
11.028511 7.452430 -173.824831
10.924851 7.473345 -173.826197
10.835035 7.595212 -173.825140
10.731375 7.616127 -173.826506
10.655404 7.838946 -173.823026
10.579432 8.061765 -173.819546
10.489616 8.183632 -173.818489
10.399800 8.305499 -173.817431
10.296140 8.326414 -173.818797
10.192480 8.347329 -173.820163
10.088820 8.368244 -173.821529
9.999004 8.490111 -173.820472
9.895344 8.511027 -173.821838
9.791684 8.531942 -173.823204
9.701868 8.653809 -173.822147
9.598208 8.674724 -173.823513
9.522236 8.897543 -173.820033
9.418576 8.918458 -173.821399
9.328760 9.040325 -173.820342
9.225100 9.061240 -173.821708
9.121440 9.082155 -173.823074
9.017780 9.103070 -173.824440
8.914120 9.123986 -173.825806
8.810460 9.144901 -173.827172
8.706799 9.165816 -173.828538
8.603139 9.186731 -173.829904
8.513323 9.308598 -173.828847
8.409663 9.329513 -173.830213
8.306003 9.350428 -173.831579
8.202343 9.371343 -173.832945
8.098683 9.392259 -173.834311
8.008867 9.514126 -173.833254
7.905207 9.535041 -173.834620
7.801547 9.555956 -173.835986
7.697886 9.576871 -173.837352
7.594226 9.597786 -173.838718
7.490566 9.618701 -173.840084
7.400750 9.740568 -173.839027
7.297090 9.761483 -173.840393
7.193430 9.782399 -173.841759
7.089770 9.803314 -173.843125
6.986110 9.824229 -173.844491
6.882450 9.845144 -173.845857
6.778789 9.866059 -173.847223
6.675129 9.886974 -173.848589
6.571469 9.907889 -173.849955
6.453965 9.827853 -173.853744
6.350304 9.848768 -173.855110
6.246644 9.869683 -173.856476
6.142984 9.890598 -173.857842
6.039324 9.911513 -173.859208
5.921819 9.831476 -173.862997
5.818159 9.852391 -173.864363
5.700655 9.772355 -173.868153
5.596995 9.793270 -173.869519
5.493334 9.814185 -173.870885
5.389674 9.835100 -173.872251
5.286014 9.856015 -173.873617
5.168510 9.775978 -173.877406
5.064850 9.796894 -173.878772
4.961189 9.817809 -173.880138
4.843685 9.737772 -173.883927
4.740025 9.758687 -173.885293
4.636365 9.779602 -173.886659
4.532704 9.800517 -173.888025
4.415200 9.720480 -173.891814
4.311540 9.741396 -173.893180
4.207880 9.762311 -173.894546
4.090375 9.682274 -173.898335
3.986715 9.703189 -173.899701
3.869210 9.623152 -173.903490
3.751706 9.543116 -173.907280
3.648046 9.564031 -173.908646
3.530541 9.483994 -173.912435
3.413037 9.403957 -173.916224
3.309377 9.424872 -173.917590
3.191872 9.344835 -173.921379
3.088212 9.365751 -173.922745
2.970708 9.285714 -173.926534
2.853203 9.205677 -173.930323
2.749543 9.226592 -173.931689
2.632038 9.146555 -173.935479
2.528378 9.167470 -173.936845
2.410874 9.087434 -173.940634
2.307214 9.108349 -173.942000
2.189709 9.028312 -173.945789
2.086049 9.049227 -173.947155
1.968544 8.969190 -173.950944
1.851040 8.889154 -173.954733
1.733536 8.809117 -173.958522
1.616031 8.729080 -173.962311
1.484682 8.548091 -173.968524
1.339489 8.266151 -173.977159
1.221985 8.186114 -173.980948
1.104480 8.106077 -173.984737
1.000820 8.126992 -173.986103
0.883315 8.046956 -173.989892
0.779655 8.067871 -173.991258
0.675995 8.088786 -173.992625
0.558491 8.008749 -173.996414
0.454830 8.029664 -173.997780
0.337326 7.949627 -174.001569
0.219822 7.869591 -174.005358
0.088473 7.688602 -174.011570
8.182113 9.542378 -173.881133
8.004910 9.697359 -173.877653
7.866194 9.757991 -173.876595
7.688991 9.912973 -173.873115
7.550275 9.973605 -173.872058
7.411559 10.034237 -173.871001
7.311329 10.000520 -173.872367
7.172612 10.061152 -173.871310
7.072382 10.027435 -173.872676
6.972152 9.993718 -173.874042
6.871923 9.960001 -173.875408
6.771693 9.926284 -173.876774
6.632976 9.986916 -173.875717
6.532746 9.953199 -173.877083
6.394030 10.013831 -173.876026
6.255314 10.074463 -173.874969
6.155084 10.040746 -173.876335
6.054854 10.007029 -173.877701
5.954624 9.973312 -173.879067
5.815908 10.033944 -173.878010
5.715678 10.000227 -173.879376
5.576962 10.060860 -173.878318
5.438245 10.121492 -173.877261
5.299529 10.182124 -173.876204
5.199299 10.148407 -173.877570
5.099069 10.114690 -173.878936
4.998839 10.080973 -173.880302
4.898609 10.047256 -173.881668
4.798379 10.013539 -173.883034
4.698149 9.979822 -173.884400
4.559433 10.040454 -173.883343
4.459203 10.006737 -173.884709
4.320487 10.067369 -173.883652
4.220257 10.033652 -173.885018
4.120027 9.999935 -173.886384
4.019797 9.966218 -173.887750
3.919567 9.932501 -173.889116
3.819337 9.898784 -173.890482
3.719107 9.865067 -173.891848
3.580391 9.925699 -173.890791
3.480161 9.891982 -173.892157
3.379931 9.858265 -173.893523
3.279701 9.824548 -173.894889
3.179471 9.790831 -173.896255
3.079241 9.757114 -173.897621
2.979011 9.723397 -173.898987
2.878782 9.689680 -173.900353
2.778552 9.655963 -173.901719
2.678322 9.622246 -173.903085
2.578092 9.588529 -173.904451
2.516348 9.460463 -173.908240
2.416118 9.426746 -173.909606
2.315888 9.393029 -173.910972
2.215658 9.359312 -173.912338
2.115429 9.325595 -173.913704
2.015199 9.291878 -173.915071
1.914969 9.258161 -173.916437
1.814739 9.224444 -173.917803
1.714509 9.190727 -173.919169
1.614279 9.157010 -173.920535
1.552535 9.028944 -173.924324
1.452305 8.995227 -173.925690
1.352076 8.961510 -173.927056
1.251846 8.927793 -173.928422
1.151616 8.894076 -173.929788
1.051386 8.860359 -173.931154
0.989642 8.732293 -173.934943
0.889412 8.698576 -173.936309
0.789182 8.664859 -173.937675
0.688952 8.631142 -173.939041
0.588723 8.597425 -173.940407
0.488493 8.563708 -173.941773
0.426749 8.435642 -173.945562
0.326519 8.401925 -173.946928
0.226289 8.368208 -173.948294
0.126059 8.334491 -173.949660
0.025829 8.300774 -173.951026
-0.074401 8.267057 -173.952392
-0.136144 8.138991 -173.956181
-0.197888 8.010924 -173.959971
-0.298118 7.977207 -173.961337
-0.398347 7.943490 -173.962703
-0.498577 7.909773 -173.964069
-0.598807 7.876056 -173.965435
-0.699037 7.842339 -173.966801
-0.799267 7.808622 -173.968167
-0.861011 7.680556 -173.971956
-0.961241 7.646839 -173.973322
-1.022984 7.518773 -173.977111
-1.084728 7.390707 -173.980900
-1.146471 7.262641 -173.984689
-1.169728 7.040226 -173.990901
-1.231472 6.912160 -173.994691
-1.331702 6.878443 -173.996057
-1.393445 6.750377 -173.999846
-1.493675 6.716660 -174.001212
-1.593905 6.682943 -174.002578
-1.694135 6.649226 -174.003944
-1.755879 6.521159 -174.007733
-1.856109 6.487442 -174.009099
-1.917852 6.359376 -174.012888
-1.979596 6.231310 -174.016677
-2.041339 6.103244 -174.020466
-2.064597 5.880829 -174.026679
-0.101594 9.153638 -173.940311
-0.171538 9.074323 -173.941677
-0.321985 9.057474 -173.940620
-0.391929 8.978159 -173.941986
-0.461872 8.898845 -173.943352
-0.531815 8.819530 -173.944718
-0.682263 8.802681 -173.943661
-0.752206 8.723366 -173.945027
-0.822149 8.644051 -173.946393
-0.892092 8.564737 -173.947759
-0.962035 8.485422 -173.949125
-1.031979 8.406107 -173.950491
-1.101922 8.326793 -173.951857
-1.171865 8.247478 -173.953223
-1.241808 8.168163 -173.954589
-1.311751 8.088849 -173.955955
-1.462199 8.072000 -173.954898
-1.532142 7.992685 -173.956264
-1.602085 7.913370 -173.957630
-1.672028 7.834055 -173.958996
-1.741972 7.754741 -173.960362
-1.811915 7.675426 -173.961728
-1.881858 7.596111 -173.963094
-1.951801 7.516797 -173.964460
-2.021744 7.437482 -173.965826
-2.091687 7.358167 -173.967192
-2.161631 7.278853 -173.968558
-2.231574 7.199538 -173.969924
-2.301517 7.120223 -173.971290
-2.371460 7.040909 -173.972656
-2.441403 6.961594 -173.974022
-2.511346 6.882279 -173.975388
-2.500785 6.740499 -173.979177
-2.570728 6.661184 -173.980543
-2.640671 6.581870 -173.981909
-2.710614 6.502555 -173.983275
-2.780557 6.423240 -173.984641
-2.850501 6.343926 -173.986007
-2.920444 6.264611 -173.987373
-2.990387 6.185296 -173.988739
-3.060330 6.105982 -173.990105
-3.130273 6.026667 -173.991471
-3.200216 5.947352 -173.992837
-3.270160 5.868037 -173.994203
-3.259598 5.726257 -173.997992
-3.329541 5.646943 -173.999358
-3.399484 5.567628 -174.000724
-3.388923 5.425848 -174.004513
-3.458866 5.346533 -174.005879
-3.528809 5.267218 -174.007245
-3.598752 5.187904 -174.008612
-3.668695 5.108589 -174.009978
-3.738639 5.029274 -174.011344
-3.808582 4.949960 -174.012710
-3.878525 4.870645 -174.014076
-3.867963 4.728865 -174.017865
-3.937907 4.649550 -174.019231
-4.007850 4.570235 -174.020597
-3.997288 4.428455 -174.024386
-4.067231 4.349140 -174.025752
-4.137174 4.269826 -174.027118
-4.207118 4.190511 -174.028484
-4.196556 4.048731 -174.032273
-4.266499 3.969416 -174.033639
-4.336442 3.890101 -174.035005
-4.325881 3.748321 -174.038794
-4.395824 3.669006 -174.040160
-4.465767 3.589692 -174.041526
-4.455206 3.447912 -174.045315
-2.708517 7.288617 -173.992871
-2.729432 7.184957 -173.994237
-2.851299 7.095141 -173.993180
-2.872214 6.991481 -173.994546
-2.994081 6.901665 -173.993489
-3.014997 6.798005 -173.994855
-3.136864 6.708189 -173.993798
-3.258731 6.618374 -173.992741
-3.279646 6.514713 -173.994107
-3.401513 6.424898 -173.993050
-3.422428 6.321237 -173.994416
-3.544295 6.231422 -173.993359
-3.565210 6.127761 -173.994725
-3.586125 6.024101 -173.996091
-3.607040 5.920441 -173.997457
-3.627956 5.816781 -173.998823
-3.648871 5.713121 -174.000189
-3.770738 5.623305 -173.999132
-3.791653 5.519645 -174.000498
-3.913520 5.429829 -173.999441
-3.934435 5.326169 -174.000807
-3.955350 5.222509 -174.002173
-4.077217 5.132693 -174.001115
-4.098132 5.029033 -174.002481
-4.119048 4.925372 -174.003848
-4.139963 4.821712 -174.005214
-4.261830 4.731896 -174.004156
-4.282745 4.628236 -174.005522
-4.303660 4.524576 -174.006888
-4.425527 4.434760 -174.005831
-4.446442 4.331100 -174.007197
-4.467357 4.227440 -174.008563
-4.589224 4.137624 -174.007506
-4.711091 4.047808 -174.006449
-4.732006 3.944148 -174.007815
-4.752922 3.840488 -174.009181
-4.773837 3.736828 -174.010547
-4.794752 3.633168 -174.011913
-4.512811 3.487975 -174.020549
-4.533726 3.384314 -174.021915
-4.655593 3.294499 -174.020858
-4.777460 3.204683 -174.019800
-4.899328 3.114867 -174.018743
-4.920243 3.011207 -174.020109
-4.941158 2.907547 -174.021475
-4.962073 2.803886 -174.022841
-5.083940 2.714071 -174.021784
-5.205807 2.624255 -174.020727
-5.327674 2.534439 -174.019670
-5.348589 2.430779 -174.021036
-5.470456 2.340963 -174.019979
-5.592323 2.251147 -174.018922
-5.613238 2.147487 -174.020288
-5.735105 2.057671 -174.019231
-5.756021 1.954011 -174.020597
-5.776936 1.850351 -174.021963
-5.797851 1.746691 -174.023329
-5.818766 1.643030 -174.024695
-5.839681 1.539370 -174.026061
-5.759644 1.421866 -174.029850
-5.578656 1.290517 -174.036062
-5.599571 1.186857 -174.037428
-5.620486 1.083197 -174.038794
-5.641401 0.979537 -174.040160
-5.662316 0.875876 -174.041526
-5.683231 0.772216 -174.042892
-5.805098 0.682400 -174.041835
-5.725062 0.564896 -174.045624
-5.745977 0.461236 -174.046990
-5.766892 0.357576 -174.048356
-5.787807 0.253915 -174.049722
-5.808722 0.150255 -174.051088
-5.829637 0.046595 -174.052454
-5.850552 -0.057065 -174.053820
-5.770516 -0.174570 -174.057610
-5.791431 -0.278230 -174.058976
-5.812346 -0.381890 -174.060342
-5.833261 -0.485550 -174.061708
-5.753224 -0.603054 -174.065497
-5.774139 -0.706715 -174.066863
-5.694103 -0.824219 -174.070652
-5.715018 -0.927879 -174.072018
-5.735933 -1.031539 -174.073384
-5.655896 -1.149044 -174.077173
-5.676811 -1.252704 -174.078539
-5.697726 -1.356364 -174.079905
-5.617689 -1.473869 -174.083694
-5.638605 -1.577529 -174.085060
-5.558568 -1.695033 -174.088849
-5.579483 -1.798694 -174.090215
-5.499446 -1.916198 -174.094005
-5.520361 -2.019858 -174.095371
-5.137469 -2.178896 -174.106429
-5.158384 -2.282556 -174.107795
-5.078347 -2.400060 -174.111584
-5.099262 -2.503720 -174.112950
-5.019225 -2.621225 -174.116739
-5.040141 -2.724885 -174.118105
-6.198178 1.111476 -174.004026
-6.258810 0.972760 -174.002969
-6.225093 0.872530 -174.004335
-6.285725 0.733813 -174.003278
-6.252008 0.633583 -174.004644
-6.218291 0.533354 -174.006010
-6.278923 0.394637 -174.004953
-6.339556 0.255921 -174.003896
-6.400188 0.117205 -174.002839
-6.460820 -0.021512 -174.001781
-6.427103 -0.121742 -174.003147
-6.487735 -0.260458 -174.002090
-6.454018 -0.360688 -174.003456
-6.420301 -0.460918 -174.004822
-6.386584 -0.561148 -174.006188
-6.352867 -0.661378 -174.007554
-6.319150 -0.761608 -174.008920
-6.285433 -0.861837 -174.010286
-6.251716 -0.962067 -174.011652
-6.217999 -1.062297 -174.013018
-6.184282 -1.162527 -174.014384
-6.150565 -1.262757 -174.015751
-6.116848 -1.362987 -174.017117
-6.083131 -1.463217 -174.018483
-6.049414 -1.563447 -174.019849
-6.015697 -1.663677 -174.021215
-5.981980 -1.763907 -174.022581
-5.948263 -1.864137 -174.023947
-5.914546 -1.964367 -174.025313
-5.880829 -2.064597 -174.026679
-5.847112 -2.164826 -174.028045
-5.813395 -2.265056 -174.029411
-5.779678 -2.365286 -174.030777
-5.745961 -2.465516 -174.032143
-5.712244 -2.565746 -174.033509
-5.678527 -2.665976 -174.034875
-5.644810 -2.766206 -174.036241
-5.611093 -2.866436 -174.037607
-5.483027 -2.928179 -174.041396
-5.449310 -3.028409 -174.042762
-5.415593 -3.128639 -174.044128
-5.381876 -3.228869 -174.045494
-5.348159 -3.329099 -174.046860
-5.314442 -3.429329 -174.048226
-5.280725 -3.529559 -174.049592
-5.247008 -3.629789 -174.050958
-5.118942 -3.691532 -174.054747
-5.085225 -3.791762 -174.056113
-5.051508 -3.891992 -174.057479
-5.017791 -3.992222 -174.058845
-4.984074 -4.092452 -174.060211
-4.950357 -4.192682 -174.061577
-4.916640 -4.292912 -174.062943
-4.788574 -4.354656 -174.066732
-4.754857 -4.454885 -174.068098
-4.721140 -4.555115 -174.069464
-4.687423 -4.655345 -174.070830
-4.653706 -4.755575 -174.072196
-4.619989 -4.855805 -174.073562
-4.491922 -4.917549 -174.077352
-4.458205 -5.017779 -174.078718
-4.330139 -5.079522 -174.082507
-4.296422 -5.179752 -174.083873
-4.168356 -5.241496 -174.087662
-4.134639 -5.341726 -174.089028
-4.100922 -5.441955 -174.090394
-4.067205 -5.542185 -174.091760
-4.033488 -5.642415 -174.093126
-3.905422 -5.704159 -174.096915
-3.871705 -5.804389 -174.098281
-3.837988 -5.904619 -174.099647
-3.709922 -5.966362 -174.103436
-3.676205 -6.066592 -174.104802
-3.548139 -6.128336 -174.108591
-3.514422 -6.228566 -174.109957
-3.480705 -6.328796 -174.111323
-3.446988 -6.429026 -174.112689
-3.413271 -6.529255 -174.114056
-3.285205 -6.590999 -174.117845
-3.251488 -6.691229 -174.119211
-3.217771 -6.791459 -174.120577
-3.184054 -6.891689 -174.121943
-3.055988 -6.953432 -174.125732
-3.022271 -7.053662 -174.127098
-2.894205 -7.115406 -174.130887
-2.860488 -7.215636 -174.132253
-2.732421 -7.277379 -174.136042
-2.604355 -7.339123 -174.139831
-2.476289 -7.400866 -174.143620
-2.442572 -7.501096 -174.144986
-2.408855 -7.601326 -174.146352
-2.280789 -7.663070 -174.150142
-2.247072 -7.763300 -174.151508
-2.213355 -7.863530 -174.152874
-2.085289 -7.925273 -174.156663
-2.051572 -8.025503 -174.158029
-1.923506 -8.087247 -174.161818
-1.889789 -8.187476 -174.163184
-1.761723 -8.249220 -174.166973
-1.728006 -8.349450 -174.168339
-1.599940 -8.411194 -174.172128
-1.566223 -8.511423 -174.173494
-1.438157 -8.573167 -174.177283
-1.404440 -8.673397 -174.178649
-1.370723 -8.773627 -174.180015
-1.337006 -8.873857 -174.181381
-1.208939 -8.935600 -174.185171
-1.175222 -9.035830 -174.186537
-1.047156 -9.097574 -174.190326
-0.919090 -9.159317 -174.194115
-0.791024 -9.221061 -174.197904
-0.568609 -9.244318 -174.204116
-0.440543 -9.306062 -174.207905
-6.495568 -1.496470 -173.995521
-6.416253 -1.566413 -173.996887
-6.399404 -1.716861 -173.995830
-6.320089 -1.786804 -173.997196
-6.303240 -1.937252 -173.996139
-6.223926 -2.007195 -173.997505
-6.207076 -2.157643 -173.996448
-6.127762 -2.227586 -173.997814
-6.110913 -2.378034 -173.996757
-6.094063 -2.528482 -173.995700
-6.077214 -2.678930 -173.994642
-6.060365 -2.829378 -173.993585
-6.043516 -2.979825 -173.992528
-5.964201 -3.049769 -173.993894
-5.884887 -3.119712 -173.995260
-5.868037 -3.270160 -173.994203
-5.851188 -3.420607 -173.993146
-5.834339 -3.571055 -173.992089
-5.755025 -3.640998 -173.993455
-5.738175 -3.791446 -173.992398
-5.658861 -3.861389 -173.993764
-5.579546 -3.931333 -173.995130
-5.500231 -4.001276 -173.996496
-5.420917 -4.071219 -173.997862
-5.404067 -4.221667 -173.996805
-5.324753 -4.291610 -173.998171
-5.245438 -4.361553 -173.999537
-5.228589 -4.512001 -173.998480
-5.149274 -4.581944 -173.999846
-5.069960 -4.651887 -174.001212
-4.990645 -4.721830 -174.002578
-4.911330 -4.791773 -174.003944
-4.832016 -4.861717 -174.005310
-4.815166 -5.012164 -174.004253
-4.735852 -5.082108 -174.005619
-4.656537 -5.152051 -174.006985
-4.577222 -5.221994 -174.008351
-4.497908 -5.291937 -174.009717
-4.481059 -5.442385 -174.008660
-4.401744 -5.512328 -174.010026
-4.322429 -5.582271 -174.011392
-4.243114 -5.652214 -174.012758
-4.163800 -5.722158 -174.014124
-4.146951 -5.872605 -174.013067
-4.067636 -5.942549 -174.014433
-3.988321 -6.012492 -174.015799
-3.909007 -6.082435 -174.017165
-3.892157 -6.232883 -174.016108
-3.812843 -6.302826 -174.017474
-3.733528 -6.372769 -174.018840
-3.654213 -6.442712 -174.020206
-3.637364 -6.593160 -174.019148
-3.558050 -6.663103 -174.020515
-3.541200 -6.813551 -174.019457
-3.461886 -6.883494 -174.020823
-3.382571 -6.953437 -174.022189
-3.303256 -7.023380 -174.023555
-3.223942 -7.093324 -174.024921
-3.144627 -7.163267 -174.026287
-3.065312 -7.233210 -174.027653
-2.985998 -7.303153 -174.029020
-2.969148 -7.453601 -174.027962
-2.889834 -7.523544 -174.029328
-2.810519 -7.593487 -174.030694
-2.731204 -7.663430 -174.032060
-2.714355 -7.813878 -174.031003
-2.635041 -7.883821 -174.032369
-2.555726 -7.953765 -174.033735
-2.476411 -8.023708 -174.035101
-2.397096 -8.093651 -174.036467
-2.317782 -8.163594 -174.037833
-2.238467 -8.233537 -174.039199
-2.221618 -8.383985 -174.038142
-2.142303 -8.453928 -174.039508
-2.062989 -8.523871 -174.040874
-1.983674 -8.593815 -174.042240
-1.966825 -8.744262 -174.041183
-1.887510 -8.814206 -174.042549
-1.808195 -8.884149 -174.043915
-1.728881 -8.954092 -174.045281
-1.649566 -9.024035 -174.046647
-1.570251 -9.093978 -174.048013
-1.490937 -9.163921 -174.049379
-1.411622 -9.233864 -174.050745
-1.332307 -9.303808 -174.052111
-1.252993 -9.373751 -174.053477
-1.173678 -9.443694 -174.054843
-1.094363 -9.513637 -174.056209
-1.015049 -9.583580 -174.057575
-0.998199 -9.734028 -174.056518
-0.918885 -9.803971 -174.057884
-0.839570 -9.873914 -174.059250
-0.760255 -9.943858 -174.060616
-0.680941 -10.013801 -174.061982
-0.601626 -10.083744 -174.063348
-0.522311 -10.153687 -174.064714
-0.442997 -10.223630 -174.066080
-0.363682 -10.293573 -174.067446
-0.284367 -10.363517 -174.068812
-0.205053 -10.433460 -174.070179
-0.125738 -10.503403 -174.071545
-0.108889 -10.653851 -174.070487
-0.029574 -10.723794 -174.071853
0.049741 -10.793737 -174.073219
0.129055 -10.863680 -174.074585
0.208370 -10.933623 -174.075951
0.287685 -11.003566 -174.077318
0.429465 -10.993005 -174.081107
0.508780 -11.062948 -174.082473
0.588094 -11.132891 -174.083839
0.667409 -11.202834 -174.085205
0.746724 -11.272778 -174.086571
0.826038 -11.342721 -174.087937
0.905353 -11.412664 -174.089303
0.984668 -11.482607 -174.090669
1.063982 -11.552550 -174.092035
1.143297 -11.622493 -174.093401
1.222612 -11.692436 -174.094767
1.364392 -11.681875 -174.098556
1.443707 -11.751818 -174.099922
1.523021 -11.821761 -174.101288
1.602336 -11.891704 -174.102654
1.744116 -11.881143 -174.106443
1.823431 -11.951086 -174.107809
1.902746 -12.021029 -174.109175
1.982060 -12.090972 -174.110541
2.061375 -12.160916 -174.111907
2.140690 -12.230859 -174.113273
2.282470 -12.220297 -174.117062
2.361785 -12.290240 -174.118428
2.503565 -12.279679 -174.122218
2.645345 -12.269117 -174.126007
2.787125 -12.258556 -174.129796
2.866440 -12.328499 -174.131162
3.008220 -12.317937 -174.134951
3.087535 -12.387881 -174.136317
3.229315 -12.377319 -174.140106
3.308630 -12.447262 -174.141472
3.450410 -12.436701 -174.145261
3.592190 -12.426139 -174.149050
3.733971 -12.415578 -174.152840
3.938216 -12.324511 -174.159052
4.079997 -12.313950 -174.162841
4.221777 -12.303388 -174.166630
-4.870340 -5.271349 -173.979925
-4.780524 -5.393216 -173.978868
-4.690708 -5.515083 -173.977811
-4.600892 -5.636950 -173.976754
-4.511076 -5.758817 -173.975697
-4.407416 -5.779732 -173.977063
-4.317600 -5.901599 -173.976006
-4.213940 -5.922514 -173.977372
-4.124124 -6.044381 -173.976315
-4.020464 -6.065296 -173.977681
-3.930648 -6.187164 -173.976623
-3.826988 -6.208079 -173.977989
-3.723328 -6.228994 -173.979356
-3.633512 -6.350861 -173.978298
-3.543696 -6.472728 -173.977241
-3.481569 -6.796499 -173.971338
-3.391753 -6.918366 -173.970281
-3.301938 -7.040233 -173.969224
-3.212122 -7.162100 -173.968167
-3.122306 -7.283967 -173.967109
-3.018646 -7.304882 -173.968476
-2.928830 -7.426749 -173.967418
-2.839014 -7.548616 -173.966361
-2.749198 -7.670483 -173.965304
-2.659382 -7.792350 -173.964247
-2.569567 -7.914217 -173.963190
-2.479751 -8.036084 -173.962133
-2.403779 -8.258903 -173.958653
-2.313963 -8.380770 -173.957596
-2.224148 -8.502637 -173.956538
-2.120487 -8.523552 -173.957904
-2.030672 -8.645420 -173.956847
-1.927011 -8.666335 -173.958213
-1.837196 -8.788202 -173.957156
-1.733536 -8.809117 -173.958522
-1.643720 -8.930984 -173.957465
-1.540060 -8.951899 -173.958831
-1.450244 -9.073766 -173.957774
-1.360428 -9.195633 -173.956717
-1.270612 -9.317500 -173.955660
-1.166952 -9.338415 -173.957026
-1.077136 -9.460282 -173.955969
-1.001165 -9.683101 -173.952489
-0.897504 -9.704016 -173.953855
-0.807689 -9.825883 -173.952797
-0.717873 -9.947750 -173.951740
-0.628057 -10.069618 -173.950683
-0.524397 -10.090533 -173.952049
-0.434581 -10.212400 -173.950992
-0.344765 -10.334267 -173.949935
-0.254949 -10.456134 -173.948878
-0.151289 -10.477049 -173.950244
-0.061473 -10.598916 -173.949187
0.042187 -10.619831 -173.950553
0.132003 -10.741698 -173.949496
0.235663 -10.762613 -173.950862
0.325479 -10.884480 -173.949805
0.415295 -11.006347 -173.948748
0.518955 -11.027263 -173.950114
0.608771 -11.149130 -173.949056
0.712431 -11.170045 -173.950422
0.816091 -11.190960 -173.951788
0.905907 -11.312827 -173.950731
1.009567 -11.333742 -173.952097
1.113227 -11.354657 -173.953463
1.203043 -11.476524 -173.952406
1.306703 -11.497439 -173.953772
1.396519 -11.619306 -173.952715
1.486335 -11.741173 -173.951658
1.576151 -11.863040 -173.950601
1.679811 -11.883956 -173.951967
1.783471 -11.904871 -173.953333
1.873287 -12.026738 -173.952276
1.976947 -12.047653 -173.953642
2.080607 -12.068568 -173.955008
2.184267 -12.089483 -173.956374
2.287927 -12.110398 -173.957740
2.377743 -12.232265 -173.956683
2.481403 -12.253180 -173.958049
2.585063 -12.274096 -173.959415
2.674879 -12.395963 -173.958358
2.778539 -12.416878 -173.959724
2.882200 -12.437793 -173.961090
2.985860 -12.458708 -173.962456
3.075676 -12.580575 -173.961399
3.179336 -12.601490 -173.962765
3.282996 -12.622405 -173.964131
3.386656 -12.643320 -173.965497
3.490316 -12.664236 -173.966863
3.593976 -12.685151 -173.968229
3.697637 -12.706066 -173.969595
3.801297 -12.726981 -173.970961
3.904957 -12.747896 -173.972327
4.008617 -12.768811 -173.973693
4.112277 -12.789726 -173.975059
4.215937 -12.810641 -173.976425
4.319598 -12.831557 -173.977791
4.423258 -12.852472 -173.979157
4.526918 -12.873387 -173.980523
4.630578 -12.894302 -173.981889
4.734238 -12.915217 -173.983255
4.851743 -12.835180 -173.987044
4.955403 -12.856095 -173.988410
5.059063 -12.877011 -173.989776
5.162723 -12.897926 -173.991142
5.280228 -12.817889 -173.994931
5.383888 -12.838804 -173.996297
5.501392 -12.758767 -174.000086
5.605052 -12.779682 -174.001452
5.722557 -12.699646 -174.005242
5.840061 -12.619609 -174.009031
5.957566 -12.539572 -174.012820
6.061226 -12.560487 -174.014186
6.178731 -12.480450 -174.017975
6.282391 -12.501366 -174.019341
6.399895 -12.421329 -174.023130
6.517400 -12.341292 -174.026919
6.634904 -12.261255 -174.030708
6.766253 -12.080267 -174.036921
6.883757 -12.000230 -174.040710
7.001262 -11.920193 -174.044499
7.118766 -11.840156 -174.048288
7.236271 -11.760119 -174.052077
7.353775 -11.680083 -174.055866
7.471280 -11.600046 -174.059656
7.658006 -11.015250 -174.075560
7.761666 -11.036165 -174.076926
7.865326 -11.057080 -174.078292
7.982831 -10.977043 -174.082082
8.086491 -10.997958 -174.083448
8.203995 -10.917921 -174.087237
8.321500 -10.837885 -174.091026
8.439004 -10.757848 -174.094815
8.556509 -10.677811 -174.098604
8.660169 -10.698726 -174.099970
8.791518 -10.517737 -174.106182
8.922867 -10.336749 -174.112395
9.040371 -10.256712 -174.116184
9.157876 -10.176675 -174.119973
9.261536 -10.197590 -174.121339
9.379040 -10.117554 -174.125128
9.496545 -10.037517 -174.128917
9.600205 -10.058432 -174.130283
9.717709 -9.978395 -174.134072
9.835214 -9.898358 -174.137861
9.938874 -9.919273 -174.139228
10.056379 -9.839237 -174.143017
10.173883 -9.759200 -174.146806
10.291388 -9.679163 -174.150595
10.395048 -9.700078 -174.151961
10.512552 -9.620041 -174.155750
10.616212 -9.640957 -174.157116
10.733717 -9.560920 -174.160905
10.865066 -9.379931 -174.167118
11.051792 -8.795135 -174.183022
11.155452 -8.816050 -174.184388
11.272956 -8.736013 -174.188177
11.376617 -8.756928 -174.189543
11.507965 -8.575940 -174.195756
1.406194 -11.252511 -173.876218
1.544911 -11.313143 -173.875161
1.799086 -11.656823 -173.866835
1.937803 -11.717455 -173.865778
2.153492 -11.966785 -173.859874
2.292208 -12.027417 -173.858817
2.469411 -12.182399 -173.855337
2.608127 -12.243031 -173.854280
2.746843 -12.303663 -173.853223
2.885559 -12.364295 -173.852166
2.985789 -12.330578 -173.853532
3.124506 -12.391210 -173.852474
3.224736 -12.357493 -173.853840
3.363452 -12.418125 -173.852783
3.502168 -12.478757 -173.851726
3.602398 -12.445040 -173.853092
3.741114 -12.505672 -173.852035
3.841344 -12.471955 -173.853401
3.980061 -12.532588 -173.852344
4.118777 -12.593220 -173.851287
4.257493 -12.653852 -173.850230
4.357723 -12.620135 -173.851596
4.457953 -12.586418 -173.852962
4.596669 -12.647050 -173.851905
4.696899 -12.613333 -173.853271
4.874102 -12.768314 -173.849791
5.012818 -12.828946 -173.848733
5.113048 -12.795229 -173.850099
5.251764 -12.855861 -173.849042
5.351994 -12.822144 -173.850408
5.452224 -12.788427 -173.851774
5.552454 -12.754710 -173.853140
5.652684 -12.720993 -173.854506
5.752914 -12.687276 -173.855872
5.853144 -12.653559 -173.857238
5.953374 -12.619842 -173.858604
6.053604 -12.586125 -173.859971
6.153834 -12.552408 -173.861337
6.254064 -12.518691 -173.862703
6.354294 -12.484974 -173.864069
6.454524 -12.451257 -173.865435
6.554753 -12.417540 -173.866801
6.654983 -12.383823 -173.868167
6.755213 -12.350106 -173.869533
6.816957 -12.222040 -173.873322
6.917187 -12.188323 -173.874688
6.978930 -12.060257 -173.878477
7.079160 -12.026540 -173.879843
7.179390 -11.992823 -173.881209
7.279620 -11.959106 -173.882575
7.341364 -11.831040 -173.886364
7.441594 -11.797323 -173.887730
7.541823 -11.763606 -173.889096
7.603567 -11.635540 -173.892885
7.703797 -11.601823 -173.894251
7.804027 -11.568106 -173.895617
7.904257 -11.534389 -173.896983
8.004487 -11.500672 -173.898349
8.104717 -11.466955 -173.899715
8.166460 -11.338889 -173.903504
8.266690 -11.305172 -173.904871
8.366920 -11.271455 -173.906237
8.467150 -11.237738 -173.907603
8.528893 -11.109672 -173.911392
8.629123 -11.075955 -173.912758
8.690867 -10.947889 -173.916547
8.791097 -10.914172 -173.917913
8.852840 -10.786105 -173.921702
8.953070 -10.752388 -173.923068
9.053300 -10.718671 -173.924434
9.153530 -10.684954 -173.925800
9.253760 -10.651237 -173.927166
9.353990 -10.617520 -173.928532
9.454220 -10.583803 -173.929898
9.554450 -10.550086 -173.931264
9.616193 -10.422020 -173.935053
9.716423 -10.388303 -173.936419
9.816653 -10.354586 -173.937785
9.916883 -10.320869 -173.939151
10.017113 -10.287152 -173.940517
10.117343 -10.253435 -173.941883
10.217573 -10.219718 -173.943249
10.317803 -10.186001 -173.944615
10.418033 -10.152284 -173.945981
10.518263 -10.118567 -173.947347
10.618493 -10.084850 -173.948713
10.680236 -9.956784 -173.952503
10.780466 -9.923067 -173.953869
10.880696 -9.889350 -173.955235
10.980926 -9.855633 -173.956601
11.081156 -9.821916 -173.957967
11.181386 -9.788199 -173.959333
11.243129 -9.660133 -173.963122
11.343359 -9.626416 -173.964488
11.443589 -9.592699 -173.965854
11.543819 -9.558982 -173.967220
11.644049 -9.525265 -173.968586
11.744279 -9.491548 -173.969952
11.844509 -9.457831 -173.971318
11.906252 -9.329765 -173.975107
12.006482 -9.296048 -173.976473
12.106712 -9.262331 -173.977839
12.168456 -9.134265 -173.981628
12.268686 -9.100548 -173.982994
12.330429 -8.972482 -173.986783
12.430659 -8.938765 -173.988149
12.530889 -8.905048 -173.989515
12.592633 -8.776982 -173.993305
12.654376 -8.648916 -173.997094
12.716120 -8.520849 -174.000883
12.816350 -8.487132 -174.002249
12.878093 -8.359066 -174.006038
12.978323 -8.325349 -174.007404
13.078553 -8.291632 -174.008770
13.178783 -8.257915 -174.010136
13.240527 -8.129849 -174.013925
13.340757 -8.096132 -174.015291
13.440986 -8.062415 -174.016657
13.541216 -8.028698 -174.018023
13.641446 -7.994981 -174.019389
13.741676 -7.961264 -174.020755
13.841906 -7.927547 -174.022121
13.942136 -7.893830 -174.023487
14.003880 -7.765764 -174.027276
14.104110 -7.732047 -174.028642
14.165853 -7.603981 -174.032432
