ply
format ascii 1.0
element vertex 1326
property float x
property float y
property float z
element face 0
property list uchar uint vertex_indices
end_header
3.986942 -12.435544 -167.816422
4.137390 -12.418695 -167.815365
4.287838 -12.401846 -167.814308
4.438286 -12.384997 -167.813251
4.669238 -12.430613 -167.809771
4.819686 -12.413764 -167.808714
4.970134 -12.396915 -167.807657
5.040077 -12.317600 -167.809023
5.110020 -12.238286 -167.810389
5.260468 -12.221436 -167.809332
5.330411 -12.142122 -167.810698
5.480859 -12.125273 -167.809641
5.711812 -12.170889 -167.806160
5.862260 -12.154040 -167.805103
6.012707 -12.137191 -167.804046
6.082651 -12.057876 -167.805412
6.233098 -12.041027 -167.804355
6.383546 -12.024178 -167.803298
6.453489 -11.944863 -167.804664
6.603937 -11.928014 -167.803607
6.673880 -11.848699 -167.804973
6.824328 -11.831850 -167.803916
6.894271 -11.752535 -167.805282
6.964214 -11.673221 -167.806648
7.034158 -11.593906 -167.808014
7.184605 -11.577057 -167.806957
7.254549 -11.497742 -167.808323
7.324492 -11.418428 -167.809689
7.394435 -11.339113 -167.811055
7.464378 -11.259798 -167.812421
7.534321 -11.180484 -167.813787
7.684769 -11.163634 -167.812730
7.754712 -11.084320 -167.814096
7.824655 -11.005005 -167.815462
7.975103 -10.988156 -167.814405
8.045046 -10.908841 -167.815771
8.114990 -10.829526 -167.817137
8.184933 -10.750212 -167.818503
8.254876 -10.670897 -167.819869
8.405324 -10.654048 -167.818812
8.475267 -10.574733 -167.820178
8.545210 -10.495419 -167.821544
8.695658 -10.478569 -167.820486
8.765601 -10.399255 -167.821852
8.916049 -10.382406 -167.820795
9.066497 -10.365556 -167.819738
9.136440 -10.286242 -167.821104
9.286888 -10.269393 -167.820047
9.356831 -10.190078 -167.821413
9.507279 -10.173229 -167.820356
9.577222 -10.093914 -167.821722
9.647165 -10.014599 -167.823088
9.797613 -9.997750 -167.822031
9.867556 -9.918436 -167.823397
10.018004 -9.901586 -167.822340
10.087947 -9.822272 -167.823706
10.238395 -9.805423 -167.822649
10.388843 -9.788573 -167.821592
10.458786 -9.709259 -167.822958
10.609234 -9.692410 -167.821901
10.679177 -9.613095 -167.823267
10.749120 -9.533780 -167.824633
10.899568 -9.516931 -167.823576
10.969511 -9.437616 -167.824942
11.119959 -9.420767 -167.823884
11.189902 -9.341453 -167.825250
11.340350 -9.324603 -167.824193
11.410293 -9.245289 -167.825559
11.480236 -9.165974 -167.826925
11.550179 -9.086659 -167.828291
11.620122 -9.007345 -167.829657
11.770570 -8.990496 -167.828600
11.840513 -8.911181 -167.829966
11.910457 -8.831866 -167.831332
11.980400 -8.752552 -167.832698
12.050343 -8.673237 -167.834064
12.200791 -8.656388 -167.833007
12.270734 -8.577073 -167.834373
12.340677 -8.497758 -167.835739
12.410620 -8.418444 -167.837105
12.480563 -8.339129 -167.838471
12.550507 -8.259814 -167.839837
12.620450 -8.180500 -167.841203
12.690393 -8.101185 -167.842569
12.760336 -8.021870 -167.843935
12.830279 -7.942556 -167.845301
12.900222 -7.863241 -167.846667
12.889661 -7.721461 -167.850457
12.959604 -7.642146 -167.851823
13.029547 -7.562831 -167.853189
13.099490 -7.483517 -167.854555
13.088929 -7.341736 -167.858344
13.158872 -7.262422 -167.859710
13.228815 -7.183107 -167.861076
13.218254 -7.041327 -167.864865
13.288197 -6.962012 -167.866231
13.358140 -6.882697 -167.867597
13.347578 -6.740917 -167.871386
13.417522 -6.661602 -167.872752
13.487465 -6.582288 -167.874118
13.476903 -6.440508 -167.877907
13.466342 -6.298727 -167.881696
13.455780 -6.156947 -167.885486
13.445219 -6.015167 -167.889275
13.434657 -5.873387 -167.893064
13.343591 -5.669141 -167.899276
13.333029 -5.527361 -167.903065
13.080954 -5.198184 -167.914124
12.909383 -4.931472 -167.922759
12.818317 -4.727227 -167.928971
12.727250 -4.522981 -167.935184
12.716689 -4.381201 -167.938973
12.706127 -4.239420 -167.942762
12.695566 -4.097640 -167.946551
12.604500 -3.893394 -167.952763
12.191415 -3.439287 -167.968668
12.261358 -3.359972 -167.970034
12.250796 -3.218192 -167.973823
12.320739 -3.138877 -167.975189
12.310178 -2.997097 -167.978978
12.299616 -2.855316 -167.982768
12.289055 -2.713536 -167.986557
12.278493 -2.571756 -167.990346
12.187427 -2.367510 -167.996558
12.015856 -2.100799 -168.005193
9.966184 -9.881844 -167.790647
10.189003 -9.805873 -167.787166
10.310870 -9.716057 -167.786109
10.533689 -9.640085 -167.782629
10.554604 -9.536425 -167.783995
10.676471 -9.446609 -167.782938
10.697386 -9.342949 -167.784304
11.324013 -9.322355 -167.771131
11.445880 -9.232539 -167.770074
11.567747 -9.142723 -167.769017
11.689614 -9.052908 -167.767960
11.710529 -8.949247 -167.769326
11.832396 -8.859432 -167.768269
11.954263 -8.769616 -167.767212
12.076130 -8.679800 -167.766155
12.197997 -8.589984 -167.765098
12.218912 -8.486324 -167.766464
12.340779 -8.396508 -167.765406
12.361694 -8.292848 -167.766773
12.382609 -8.189188 -167.768139
12.504476 -8.099372 -167.767081
12.626343 -8.009556 -167.766024
12.647259 -7.905896 -167.767390
12.769126 -7.816080 -167.766333
12.790041 -7.712420 -167.767699
12.911908 -7.622604 -167.766642
12.932823 -7.518944 -167.768008
12.953738 -7.415284 -167.769374
13.075605 -7.325468 -167.768317
13.096520 -7.221808 -167.769683
13.117435 -7.118148 -167.771049
13.138351 -7.014488 -167.772415
13.260218 -6.924672 -167.771358
13.281133 -6.821012 -167.772724
13.302048 -6.717351 -167.774090
13.423915 -6.627536 -167.773033
13.444830 -6.523875 -167.774399
13.566697 -6.434060 -167.773342
13.587612 -6.330399 -167.774708
13.608527 -6.226739 -167.776074
13.629442 -6.123079 -167.777440
13.650358 -6.019419 -167.778806
13.671273 -5.915759 -167.780172
13.692188 -5.812099 -167.781538
13.612151 -5.694594 -167.785327
13.532114 -5.577090 -167.789116
13.452078 -5.459585 -167.792905
13.472993 -5.355925 -167.794271
13.392956 -5.238420 -167.798060
13.413871 -5.134760 -167.799427
13.434786 -5.031100 -167.800793
13.354749 -4.913596 -167.804582
13.375664 -4.809936 -167.805948
13.396580 -4.706275 -167.807314
13.316543 -4.588771 -167.811103
13.236506 -4.471266 -167.814892
13.257421 -4.367606 -167.816258
13.177384 -4.250102 -167.820047
13.097348 -4.132597 -167.823836
13.118263 -4.028937 -167.825202
12.937274 -3.897588 -167.831415
12.958189 -3.793928 -167.832781
12.979104 -3.690268 -167.834147
12.899068 -3.572763 -167.837936
12.919983 -3.469103 -167.839302
12.940898 -3.365443 -167.840668
12.961813 -3.261783 -167.842034
12.881776 -3.144279 -167.845823
12.801739 -3.026774 -167.849612
12.721703 -2.909270 -167.853401
12.742618 -2.805609 -167.854767
12.662581 -2.688105 -167.858556
12.582544 -2.570600 -167.862345
12.603459 -2.466940 -167.863712
12.624374 -2.363280 -167.865078
12.544338 -2.245776 -167.868867
12.565253 -2.142115 -167.870233
12.586168 -2.038455 -167.871599
12.506131 -1.920951 -167.875388
12.527046 -1.817291 -167.876754
12.447009 -1.699786 -167.880543
12.467925 -1.596126 -167.881909
12.387888 -1.478622 -167.885698
12.408803 -1.374961 -167.887064
12.328766 -1.257457 -167.890853
12.349681 -1.153797 -167.892219
12.269644 -1.036292 -167.896008
12.189608 -0.918788 -167.899798
12.210523 -0.815128 -167.901164
12.130486 -0.697623 -167.904953
12.050449 -0.580119 -167.908742
12.071364 -0.476458 -167.910108
11.890376 -0.345110 -167.916320
11.911291 -0.241449 -167.917686
11.831254 -0.123945 -167.921475
11.852169 -0.020285 -167.922841
11.873084 0.083375 -167.924207
11.793048 0.200880 -167.927997
11.813963 0.304540 -167.929363
11.834878 0.408200 -167.930729
11.754841 0.525705 -167.934518
11.775756 0.629365 -167.935884
11.796671 0.733025 -167.937250
11.716635 0.850529 -167.941039
11.737550 0.954190 -167.942405
11.657513 1.071694 -167.946194
11.577476 1.189199 -167.949983
11.497439 1.306703 -167.953772
11.518354 1.410363 -167.955138
11.539270 1.514023 -167.956504
11.560185 1.617684 -167.957870
11.581100 1.721344 -167.959236
11.501063 1.838848 -167.963025
11.521978 1.942508 -167.964392
11.441941 2.060013 -167.968181
11.462857 2.163673 -167.969547
11.382820 2.281177 -167.973336
11.403735 2.384838 -167.974702
11.424650 2.488498 -167.976068
11.344613 2.606002 -167.979857
11.365528 2.709662 -167.981223
11.386443 2.813323 -167.982589
11.306407 2.930827 -167.986378
11.125418 3.062176 -167.992590
11.045381 3.179680 -167.996380
10.965344 3.297185 -168.000169
10.986260 3.400845 -168.001535
11.007175 3.504505 -168.002901
11.028090 3.608165 -168.004267
10.948053 3.725670 -168.008056
10.968968 3.829330 -168.009422
10.888931 3.946834 -168.013211
10.909847 4.050495 -168.014577
10.829810 4.167999 -168.018366
10.850725 4.271659 -168.019732
10.770688 4.389164 -168.023521
10.791603 4.492824 -168.024887
10.812518 4.596484 -168.026253
10.732482 4.713989 -168.030043
10.753397 4.817649 -168.031409
10.572408 4.948998 -168.037621
10.492371 5.066502 -168.041410
10.412334 5.184007 -168.045199
10.332298 5.301511 -168.048988
10.353213 5.405171 -168.050354
10.273176 5.522676 -168.054143
10.294091 5.626336 -168.055509
10.214054 5.743840 -168.059299
10.134018 5.861345 -168.063088
12.460691 -8.245510 -167.800682
12.521323 -8.106793 -167.799625
13.242399 -7.698673 -167.781606
13.303031 -7.559956 -167.780549
13.363663 -7.421240 -167.779492
13.518645 -7.244037 -167.776012
13.673626 -7.066835 -167.772531
13.734258 -6.928118 -167.771474
13.794890 -6.789402 -167.770417
13.761173 -6.689172 -167.771783
13.727456 -6.588942 -167.773149
13.788088 -6.450226 -167.772092
13.754371 -6.349996 -167.773458
13.815003 -6.211280 -167.772401
13.969984 -6.034077 -167.768921
14.030617 -5.895361 -167.767864
13.996900 -5.795131 -167.769230
14.057532 -5.656414 -167.768173
14.023815 -5.556185 -167.769539
14.084447 -5.417468 -167.768482
14.050730 -5.317238 -167.769848
14.017013 -5.217008 -167.771214
13.983296 -5.116778 -167.772580
13.949579 -5.016549 -167.773946
13.915862 -4.916319 -167.775312
13.882145 -4.816089 -167.776678
13.848428 -4.715859 -167.778044
13.814711 -4.615629 -167.779410
13.780994 -4.515399 -167.780776
13.747277 -4.415169 -167.782142
13.713560 -4.314939 -167.783508
13.585494 -4.253196 -167.787297
13.551777 -4.152966 -167.788663
13.518060 -4.052736 -167.790029
13.484343 -3.952506 -167.791395
13.544975 -3.813789 -167.790338
13.511258 -3.713560 -167.791704
13.477541 -3.613330 -167.793070
13.443824 -3.513100 -167.794436
13.410107 -3.412870 -167.795802
13.376390 -3.312640 -167.797168
13.342673 -3.212410 -167.798534
13.308956 -3.112180 -167.799900
13.275239 -3.011950 -167.801266
13.241522 -2.911720 -167.802632
13.207805 -2.811490 -167.803998
13.174088 -2.711260 -167.805364
13.140371 -2.611030 -167.806730
13.106654 -2.510800 -167.808096
13.072937 -2.410571 -167.809462
13.039220 -2.310341 -167.810828
13.099852 -2.171624 -167.809771
13.066135 -2.071394 -167.811137
13.032418 -1.971164 -167.812503
12.998701 -1.870935 -167.813869
12.964984 -1.770705 -167.815235
12.931267 -1.670475 -167.816601
12.897550 -1.570245 -167.817967
12.863833 -1.470015 -167.819333
12.830116 -1.369785 -167.820699
12.796399 -1.269555 -167.822065
12.762682 -1.169325 -167.823431
12.728965 -1.069095 -167.824797
12.789597 -0.930379 -167.823740
12.755880 -0.830149 -167.825106
12.722163 -0.729919 -167.826472
12.688446 -0.629689 -167.827838
12.654729 -0.529459 -167.829204
12.621012 -0.429229 -167.830570
12.587295 -0.328999 -167.831936
12.553578 -0.228769 -167.833302
12.519861 -0.128539 -167.834668
12.486144 -0.028310 -167.836034
12.452427 0.071920 -167.837400
12.418710 0.172150 -167.838766
12.384993 0.272380 -167.840132
12.351276 0.372610 -167.841498
12.317559 0.472840 -167.842864
12.283842 0.573070 -167.844230
12.250125 0.673300 -167.845596
12.216408 0.773530 -167.846962
12.182691 0.873760 -167.848328
12.148974 0.973990 -167.849694
12.115257 1.074220 -167.851060
12.081540 1.174449 -167.852426
12.142172 1.313166 -167.851369
12.108455 1.413396 -167.852735
12.074738 1.513626 -167.854101
12.041021 1.613856 -167.855467
12.007304 1.714085 -167.856833
11.973587 1.814315 -167.858199
11.939870 1.914545 -167.859565
11.906153 2.014775 -167.860931
11.872436 2.115005 -167.862297
11.838719 2.215235 -167.863663
11.805002 2.315465 -167.865029
11.865634 2.454181 -167.863972
11.831917 2.554411 -167.865338
11.798200 2.654641 -167.866704
11.764483 2.754871 -167.868070
11.636417 2.816615 -167.871859
11.602700 2.916845 -167.873225
11.568983 3.017074 -167.874591
11.629615 3.155791 -167.873534
11.595898 3.256021 -167.874900
11.562181 3.356251 -167.876266
11.622813 3.494967 -167.875209
11.589096 3.595197 -167.876575
11.555379 3.695427 -167.877941
11.521662 3.795657 -167.879307
11.487945 3.895887 -167.880673
11.548578 4.034603 -167.879616
11.514861 4.134833 -167.880982
11.481144 4.235063 -167.882348
11.447427 4.335293 -167.883714
11.413710 4.435523 -167.885080
11.379993 4.535753 -167.886446
11.346276 4.635982 -167.887812
11.312559 4.736212 -167.889178
11.278842 4.836442 -167.890544
11.245125 4.936672 -167.891910
11.211408 5.036902 -167.893276
11.177691 5.137132 -167.894642
11.143974 5.237362 -167.896008
11.110257 5.337592 -167.897374
11.076540 5.437822 -167.898740
11.042823 5.538052 -167.900107
10.914756 5.599795 -167.903896
10.881039 5.700025 -167.905262
10.847322 5.800255 -167.906628
10.813605 5.900485 -167.907994
10.779888 6.000715 -167.909360
10.651822 6.062459 -167.913149
10.618105 6.162688 -167.914515
10.584388 6.262918 -167.915881
10.550671 6.363148 -167.917247
10.422605 6.424892 -167.921036
10.388888 6.525122 -167.922402
10.260822 6.586865 -167.926191
10.227105 6.687095 -167.927557
10.099039 6.748839 -167.931346
9.970973 6.810582 -167.935135
9.842907 6.872326 -167.938925
9.714841 6.934069 -167.942714
9.681124 7.034299 -167.944080
9.553058 7.096043 -167.947869
9.424991 7.157786 -167.951658
9.296925 7.219530 -167.955447
9.263208 7.319760 -167.956813
9.135142 7.381503 -167.960602
8.724029 7.327788 -167.971661
8.690312 7.428018 -167.973027
8.562246 7.489761 -167.976816
8.339830 7.513019 -167.983028
8.306113 7.613248 -167.984394
8.178047 7.674992 -167.988183
8.144330 7.775222 -167.989549
8.110613 7.875452 -167.990915
7.982547 7.937195 -167.994705
7.948830 8.037425 -167.996071
7.820764 8.099169 -167.999860
7.692698 8.160912 -168.003649
7.564632 8.222656 -168.007438
14.059244 -4.766724 -167.861212
14.104860 -4.535771 -167.857732
14.088011 -4.385323 -167.856675
14.071162 -4.234876 -167.855618
13.991847 -4.164932 -167.856984
13.974998 -4.014484 -167.855927
13.895683 -3.944541 -167.857293
13.878834 -3.794093 -167.856236
13.861985 -3.643645 -167.855178
13.845135 -3.493197 -167.854121
13.828286 -3.342749 -167.853064
13.748971 -3.272806 -167.854430
13.732122 -3.122358 -167.853373
13.652807 -3.052415 -167.854739
13.635958 -2.901967 -167.853682
13.556643 -2.832024 -167.855048
13.477328 -2.762081 -167.856414
13.460479 -2.611633 -167.855357
13.381164 -2.541690 -167.856723
13.426781 -2.310737 -167.853243
13.409931 -2.160289 -167.852186
13.330617 -2.090346 -167.853552
13.251302 -2.020403 -167.854918
13.171987 -1.950460 -167.856284
13.155138 -1.800012 -167.855227
13.075823 -1.730069 -167.856593
12.996508 -1.660125 -167.857959
12.917193 -1.590182 -167.859325
12.900344 -1.439734 -167.858268
12.883495 -1.289286 -167.857210
12.866646 -1.138838 -167.856153
12.849796 -0.988390 -167.855096
12.832947 -0.837943 -167.854039
12.816098 -0.687495 -167.852982
12.736783 -0.617551 -167.854348
12.719934 -0.467103 -167.853291
12.640619 -0.397160 -167.854657
12.623770 -0.246712 -167.853600
12.544455 -0.176769 -167.854966
12.527606 -0.026321 -167.853909
12.448291 0.043622 -167.855275
12.368976 0.113565 -167.856641
12.352127 0.264013 -167.855584
12.272812 0.333956 -167.856950
12.255963 0.484404 -167.855893
12.301579 0.715357 -167.852412
12.284730 0.865805 -167.851355
12.205415 0.935748 -167.852721
12.188566 1.086196 -167.851664
12.171717 1.236644 -167.850607
12.154867 1.387092 -167.849550
12.138018 1.537540 -167.848493
12.121169 1.687988 -167.847436
12.104320 1.838436 -167.846379
12.025005 1.908379 -167.847745
12.008155 2.058827 -167.846687
11.991306 2.209275 -167.845630
11.974457 2.359723 -167.844573
11.957608 2.510171 -167.843516
11.940758 2.660618 -167.842459
11.861444 2.730562 -167.843825
11.844594 2.881010 -167.842768
11.827745 3.031458 -167.841711
11.810896 3.181905 -167.840654
11.794047 3.332353 -167.839597
11.714732 3.402297 -167.840963
11.697883 3.552745 -167.839906
11.618568 3.622688 -167.841272
11.601719 3.773136 -167.840214
11.584869 3.923584 -167.839157
11.505555 3.993527 -167.840523
11.488705 4.143975 -167.839466
11.471856 4.294423 -167.838409
11.455007 4.444871 -167.837352
11.438158 4.595319 -167.836295
11.358843 4.665262 -167.837661
11.341993 4.815710 -167.836604
11.262679 4.885653 -167.837970
11.183364 4.955596 -167.839336
11.166515 5.106044 -167.838279
11.087200 5.175987 -167.839645
11.070351 5.326435 -167.838588
10.991036 5.396378 -167.839954
10.974187 5.546826 -167.838897
10.894872 5.616769 -167.840263
10.878022 5.767217 -167.839205
10.861173 5.917665 -167.838148
10.844324 6.068113 -167.837091
10.765009 6.138056 -167.838457
10.748160 6.288504 -167.837400
10.668845 6.358447 -167.838766
10.651996 6.508895 -167.837709
10.572681 6.578838 -167.839075
10.493366 6.648782 -167.840441
10.414052 6.718725 -167.841807
10.334737 6.788668 -167.843173
10.255422 6.858611 -167.844539
10.238573 7.009059 -167.843482
10.159258 7.079002 -167.844848
10.079943 7.148945 -167.846214
10.000628 7.218889 -167.847580
9.921314 7.288832 -167.848946
9.841999 7.358775 -167.850312
9.762684 7.428718 -167.851678
9.683369 7.498661 -167.853044
9.604054 7.568604 -167.854410
9.524740 7.638547 -167.855776
9.445425 7.708491 -167.857142
9.366110 7.778434 -167.858508
9.286795 7.848377 -167.859874
9.207480 7.918320 -167.861240
9.065700 7.907758 -167.865029
8.986385 7.977702 -167.866395
8.907070 8.047645 -167.867761
8.765290 8.037083 -167.871551
8.685975 8.107026 -167.872917
8.606661 8.176969 -167.874283
8.464880 8.166408 -167.878072
8.385565 8.236351 -167.879438
8.306251 8.306294 -167.880804
8.226936 8.376237 -167.882170
8.147621 8.446181 -167.883536
8.005841 8.435619 -167.887325
7.926526 8.505562 -167.888691
7.784746 8.495000 -167.892480
7.705431 8.564944 -167.893846
7.626116 8.634887 -167.895212
7.546801 8.704830 -167.896578
7.467486 8.774773 -167.897944
7.325706 8.764211 -167.901733
7.246391 8.834155 -167.903099
7.167077 8.904098 -167.904465
7.025296 8.893536 -167.908254
6.945981 8.963479 -167.909620
6.804201 8.952918 -167.913410
6.662421 8.942356 -167.917199
6.458175 8.851290 -167.923411
6.378860 8.921233 -167.924777
6.237080 8.910671 -167.928566
6.157765 8.980614 -167.929932
6.015985 8.970053 -167.933721
5.936670 9.039996 -167.935087
5.732424 8.948929 -167.941300
5.465713 8.777358 -167.949935
10.606776 6.707560 -167.848314
10.503116 6.728475 -167.849680
10.413300 6.850342 -167.848623
10.323484 6.972209 -167.847566
10.219824 6.993124 -167.848932
10.130008 7.114991 -167.847875
10.040193 7.236858 -167.846818
9.936532 7.257773 -167.848184
9.860561 7.480592 -167.844704
9.770745 7.602459 -167.843647
9.680929 7.724326 -167.842589
9.577269 7.745242 -167.843955
9.473609 7.766157 -167.845321
9.383793 7.888024 -167.844264
9.280133 7.908939 -167.845630
9.190317 8.030806 -167.844573
9.100501 8.152673 -167.843516
9.010685 8.274540 -167.842459
8.907025 8.295455 -167.843825
8.817209 8.417322 -167.842768
8.713549 8.438237 -167.844134
8.623733 8.560104 -167.843077
8.533918 8.681971 -167.842020
8.444102 8.803838 -167.840963
8.340442 8.824754 -167.842329
8.236781 8.845669 -167.843695
8.133121 8.866584 -167.845061
8.029461 8.887499 -167.846427
7.925801 8.908414 -167.847793
7.835985 9.030281 -167.846736
7.732325 9.051196 -167.848102
7.628665 9.072111 -167.849468
7.538849 9.193978 -167.848411
7.435189 9.214894 -167.849777
7.331529 9.235809 -167.851143
7.227869 9.256724 -167.852509
7.124208 9.277639 -167.853875
7.020548 9.298554 -167.855241
6.916888 9.319469 -167.856607
6.813228 9.340384 -167.857973
6.709568 9.361300 -167.859339
6.605908 9.382215 -167.860705
6.502247 9.403130 -167.862071
6.398587 9.424045 -167.863437
6.294927 9.444960 -167.864803
6.191267 9.465875 -167.866169
6.087607 9.486790 -167.867535
5.983947 9.507705 -167.868901
5.866442 9.427669 -167.872690
5.762782 9.448584 -167.874056
5.659122 9.469499 -167.875422
5.555462 9.490414 -167.876788
5.451802 9.511329 -167.878154
5.348141 9.532244 -167.879520
5.244481 9.553159 -167.880886
5.140821 9.574075 -167.882252
5.037161 9.594990 -167.883618
4.919656 9.514953 -167.887407
4.815996 9.535868 -167.888773
4.712336 9.556783 -167.890139
4.608676 9.577698 -167.891505
4.491171 9.497662 -167.895294
4.387511 9.518577 -167.896660
4.283851 9.539492 -167.898026
4.166347 9.459455 -167.901816
4.048842 9.379418 -167.905605
3.945182 9.400333 -167.906971
3.827677 9.320297 -167.910760
3.724017 9.341212 -167.912126
3.606513 9.261175 -167.915915
3.502853 9.282090 -167.917281
3.399193 9.303005 -167.918647
3.295532 9.323920 -167.920013
3.178028 9.243884 -167.923802
3.074368 9.264799 -167.925168
2.915330 8.881906 -167.936227
2.797826 8.801869 -167.940016
2.666477 8.620881 -167.946228
2.548972 8.540844 -167.950017
2.445312 8.561759 -167.951383
2.341652 8.582674 -167.952749
2.237992 8.603589 -167.954115
2.120487 8.523552 -167.957904
2.016827 8.544468 -167.959270
1.913167 8.565383 -167.960636
1.795663 8.485346 -167.964426
1.678158 8.405309 -167.968215
1.560654 8.325272 -167.972004
1.443149 8.245236 -167.975793
1.325645 8.165199 -167.979582
6.902381 9.326472 -167.892679
6.763665 9.387104 -167.891622
6.624948 9.447737 -167.890564
6.370773 9.791416 -167.882238
6.232057 9.852048 -167.881181
6.131827 9.818331 -167.882547
6.031597 9.784614 -167.883913
5.892880 9.845246 -167.882856
5.792651 9.811529 -167.884222
5.653934 9.872161 -167.883165
5.553704 9.838444 -167.884531
5.453474 9.804727 -167.885897
5.353244 9.771010 -167.887263
5.214528 9.831642 -167.886206
5.114298 9.797925 -167.887572
5.014068 9.764208 -167.888938
4.913838 9.730491 -167.890304
4.775122 9.791124 -167.889247
4.674892 9.757407 -167.890613
4.574662 9.723690 -167.891979
4.474432 9.689973 -167.893345
4.335716 9.750605 -167.892288
4.235486 9.716888 -167.893654
4.135256 9.683171 -167.895020
4.035026 9.649454 -167.896386
3.934796 9.615737 -167.897752
3.834566 9.582020 -167.899118
3.734337 9.548303 -167.900484
3.634107 9.514586 -167.901850
3.533877 9.480869 -167.903216
3.433647 9.447152 -167.904582
3.294930 9.507784 -167.903525
3.194701 9.474067 -167.904891
3.094471 9.440350 -167.906257
2.994241 9.406633 -167.907623
2.894011 9.372916 -167.908989
2.793781 9.339199 -167.910355
2.693551 9.305482 -167.911721
2.593321 9.271765 -167.913087
2.493091 9.238048 -167.914453
2.392861 9.204331 -167.915819
2.292631 9.170614 -167.917185
2.192401 9.136897 -167.918551
2.092171 9.103180 -167.919917
1.991941 9.069463 -167.921283
1.891712 9.035746 -167.922649
1.791482 9.002029 -167.924015
1.691252 8.968312 -167.925381
1.629508 8.840246 -167.929170
1.529278 8.806529 -167.930536
1.429048 8.772812 -167.931902
1.328818 8.739095 -167.933268
1.228588 8.705378 -167.934634
1.128359 8.671661 -167.936000
1.028129 8.637944 -167.937366
0.927899 8.604227 -167.938732
0.827669 8.570510 -167.940098
0.727439 8.536793 -167.941464
0.627209 8.503076 -167.942830
0.565465 8.375010 -167.946619
0.465235 8.341293 -167.947985
0.365006 8.307576 -167.949351
0.264776 8.273859 -167.950717
0.203032 8.145792 -167.954506
0.102802 8.112075 -167.955872
0.002572 8.078358 -167.957238
-0.097658 8.044641 -167.958604
-0.159401 7.916575 -167.962394
-0.259631 7.882858 -167.963760
-0.359861 7.849141 -167.965126
-0.460091 7.815424 -167.966492
-0.560321 7.781707 -167.967858
-0.622064 7.653641 -167.971647
-0.683808 7.525575 -167.975436
-0.707065 7.303160 -167.981648
-0.691836 6.986396 -167.990284
0.811654 9.112953 -167.950443
0.741711 9.033638 -167.951809
0.671768 8.954323 -167.953175
0.521320 8.937474 -167.952117
0.370872 8.920625 -167.951060
0.220424 8.903776 -167.950003
0.069976 8.886927 -167.948946
-0.080471 8.870077 -167.947889
-0.150415 8.790763 -167.949255
-0.220358 8.711448 -167.950621
-0.290301 8.632133 -167.951987
-0.440749 8.615284 -167.950930
-0.510692 8.535970 -167.952296
-0.580635 8.456655 -167.953662
-0.650578 8.377340 -167.955028
-0.801026 8.360491 -167.953971
-0.870969 8.281176 -167.955337
-0.940912 8.201862 -167.956703
-1.010855 8.122547 -167.958069
-1.080799 8.043232 -167.959435
-1.150742 7.963918 -167.960801
-1.220685 7.884603 -167.962167
-1.290628 7.805288 -167.963533
-1.360571 7.725974 -167.964899
-1.430514 7.646659 -167.966265
-1.500458 7.567344 -167.967631
-1.570401 7.488029 -167.968997
-1.640344 7.408715 -167.970363
-1.710287 7.329400 -167.971729
-1.860735 7.312551 -167.970672
-1.930678 7.233236 -167.972038
-2.000621 7.153922 -167.973404
-2.070564 7.074607 -167.974770
-2.140507 6.995292 -167.976136
-2.210451 6.915978 -167.977502
-2.280394 6.836663 -167.978868
-2.350337 6.757348 -167.980234
-2.420280 6.678033 -167.981600
-2.490223 6.598719 -167.982966
-2.560166 6.519404 -167.984332
-2.630110 6.440089 -167.985698
-2.700053 6.360775 -167.987064
-2.689491 6.218995 -167.990853
-2.759434 6.139680 -167.992219
-2.829378 6.060365 -167.993585
-2.899321 5.981050 -167.994951
-2.969264 5.901736 -167.996317
-3.039207 5.822421 -167.997683
-3.109150 5.743106 -167.999049
-3.179093 5.663792 -168.000415
-3.249036 5.584477 -168.001781
-3.318980 5.505162 -168.003147
-3.388923 5.425848 -168.004513
-3.458866 5.346533 -168.005879
-3.528809 5.267218 -168.007245
-3.598752 5.187904 -168.008612
-3.668695 5.108589 -168.009978
-3.658134 4.966809 -168.013767
-3.728077 4.887494 -168.015133
-3.798020 4.808179 -168.016499
-3.787459 4.666399 -168.020288
-3.857402 4.587084 -168.021654
-3.279646 6.514713 -167.994107
-3.401513 6.424898 -167.993050
-3.422428 6.321237 -167.994416
-3.544295 6.231422 -167.993359
-3.565210 6.127761 -167.994725
-3.586125 6.024101 -167.996091
-3.607040 5.920441 -167.997457
-3.728908 5.830625 -167.996400
-3.749823 5.726965 -167.997766
-3.770738 5.623305 -167.999132
-3.791653 5.519645 -168.000498
-3.812568 5.415985 -168.001864
-3.833483 5.312324 -168.003230
-3.854398 5.208664 -168.004596
-3.875313 5.105004 -168.005962
-3.896229 5.001344 -168.007328
-3.917144 4.897684 -168.008694
-4.039011 4.807868 -168.007637
-4.059926 4.704208 -168.009003
-4.080841 4.600548 -168.010369
-4.101756 4.496888 -168.011735
-4.122671 4.393227 -168.013101
-4.143586 4.289567 -168.014467
-4.164502 4.185907 -168.015833
-4.185417 4.082247 -168.017199
-4.206332 3.978587 -168.018565
-4.227247 3.874927 -168.019931
-4.248162 3.771266 -168.021297
-4.269077 3.667606 -168.022663
-4.289992 3.563946 -168.024029
-4.310907 3.460286 -168.025395
-4.432774 3.370470 -168.024338
-4.453690 3.266810 -168.025704
-4.474605 3.163150 -168.027070
-4.495520 3.059490 -168.028436
-4.516435 2.955829 -168.029802
-4.537350 2.852169 -168.031168
-4.659217 2.762353 -168.030111
-4.680132 2.658693 -168.031477
-4.701047 2.555033 -168.032843
-4.721963 2.451373 -168.034209
-4.742878 2.347713 -168.035575
-4.864745 2.257897 -168.034518
-4.885660 2.154237 -168.035884
-4.906575 2.050577 -168.037250
-4.927490 1.946917 -168.038616
-4.948405 1.843256 -168.039982
-4.969320 1.739596 -168.041348
-4.990236 1.635936 -168.042714
-5.011151 1.532276 -168.044080
-5.032066 1.428616 -168.045446
-5.052981 1.324956 -168.046812
-5.073896 1.221295 -168.048178
-5.094811 1.117635 -168.049544
-5.115726 1.013975 -168.050910
-5.136641 0.910315 -168.052276
-5.157557 0.806655 -168.053642
-5.178472 0.702995 -168.055008
-5.199387 0.599334 -168.056374
-5.220302 0.495674 -168.057740
-5.140265 0.378170 -168.061529
-5.161180 0.274510 -168.062895
-5.182095 0.170849 -168.064261
-5.203011 0.067189 -168.065627
-5.223926 -0.036471 -168.066993
-5.244841 -0.140131 -168.068359
-5.265756 -0.243791 -168.069725
-5.185719 -0.361296 -168.073514
-5.206634 -0.464956 -168.074880
-5.126598 -0.582460 -168.078669
-5.147513 -0.686120 -168.080035
-5.168428 -0.789781 -168.081402
-5.189343 -0.893441 -168.082768
-5.210258 -0.997101 -168.084134
-5.231173 -1.100761 -168.085500
-5.252088 -1.204421 -168.086866
-5.273003 -1.308081 -168.088232
-5.293919 -1.411742 -168.089598
-5.314834 -1.515402 -168.090964
-5.335749 -1.619062 -168.092330
-5.356664 -1.722722 -168.093696
-5.276627 -1.840227 -168.097485
-5.297542 -1.943887 -168.098851
-5.318457 -2.047547 -168.100217
-5.339373 -2.151207 -168.101583
-5.360288 -2.254867 -168.102949
-5.280251 -2.372372 -168.106738
-5.301166 -2.476032 -168.108104
-5.322081 -2.579692 -168.109470
-5.604876 -0.014310 -168.025264
-5.665508 -0.153027 -168.024207
-5.914838 -0.368716 -168.018304
-6.069820 -0.545918 -168.014824
-6.036103 -0.646148 -168.016190
-6.002386 -0.746378 -168.017556
-6.063018 -0.885095 -168.016499
-6.029301 -0.985325 -168.017865
-5.995584 -1.085554 -168.019231
-5.961867 -1.185784 -168.020597
-5.928150 -1.286014 -168.021963
-5.894433 -1.386244 -168.023329
-5.860716 -1.486474 -168.024695
-5.826999 -1.586704 -168.026061
-5.793282 -1.686934 -168.027427
-5.759565 -1.787164 -168.028793
-5.820197 -1.925880 -168.027736
-5.786480 -2.026110 -168.029102
-5.752763 -2.126340 -168.030468
-5.719046 -2.226570 -168.031834
-5.685329 -2.326800 -168.033200
-5.651612 -2.427030 -168.034566
-5.617895 -2.527260 -168.035932
-5.584178 -2.627490 -168.037298
-5.550461 -2.727720 -168.038664
-5.516744 -2.827950 -168.040030
-5.483027 -2.928179 -168.041396
-5.449310 -3.028409 -168.042762
-5.415593 -3.128639 -168.044128
-5.381876 -3.228869 -168.045494
-5.348159 -3.329099 -168.046860
-5.220093 -3.390843 -168.050649
-5.186376 -3.491073 -168.052015
-5.152659 -3.591303 -168.053381
-5.118942 -3.691532 -168.054747
-5.085225 -3.791762 -168.056113
-5.051508 -3.891992 -168.057479
-5.017791 -3.992222 -168.058845
-4.984074 -4.092452 -168.060211
-4.950357 -4.192682 -168.061577
-4.916640 -4.292912 -168.062943
-4.788574 -4.354656 -168.066732
-4.754857 -4.454885 -168.068098
-4.721140 -4.555115 -168.069464
-4.593073 -4.616859 -168.073254
-4.559356 -4.717089 -168.074620
-4.431290 -4.778832 -168.078409
-4.303224 -4.840576 -168.082198
-4.175158 -4.902319 -168.085987
-4.141441 -5.002549 -168.087353
-4.107724 -5.102779 -168.088719
-4.074007 -5.203009 -168.090085
-3.945941 -5.264753 -168.093874
-3.912224 -5.364983 -168.095240
-3.784158 -5.426726 -168.099029
-3.750441 -5.526956 -168.100395
-6.105982 -3.060330 -167.990105
-6.026667 -3.130273 -167.991471
-5.947352 -3.200216 -167.992837
-5.930503 -3.350664 -167.991780
-5.851188 -3.420607 -167.993146
-5.771874 -3.490551 -167.994512
-5.755025 -3.640998 -167.993455
-5.675710 -3.710942 -167.994821
-5.596395 -3.780885 -167.996187
-5.579546 -3.931333 -167.995130
-5.500231 -4.001276 -167.996496
-5.483382 -4.151724 -167.995439
-5.404067 -4.221667 -167.996805
-5.324753 -4.291610 -167.998171
-5.307904 -4.442058 -167.997114
-5.228589 -4.512001 -167.998480
-5.149274 -4.581944 -167.999846
-5.069960 -4.651887 -168.001212
-4.990645 -4.721830 -168.002578
-4.911330 -4.791773 -168.003944
-4.894481 -4.942221 -168.002887
-4.815166 -5.012164 -168.004253
-4.798317 -5.162612 -168.003196
-4.719003 -5.232555 -168.004562
-4.639688 -5.302499 -168.005928
-4.622839 -5.452946 -168.004871
-4.543524 -5.522890 -168.006237
-4.464209 -5.592833 -168.007603
-4.384895 -5.662776 -168.008969
-4.305580 -5.732719 -168.010335
-4.226265 -5.802662 -168.011701
-4.209416 -5.953110 -168.010643
-4.130101 -6.023053 -168.012010
-4.113252 -6.173501 -168.010952
-4.033938 -6.243444 -168.012318
-3.954623 -6.313387 -168.013684
-3.937774 -6.463835 -168.012627
-3.858459 -6.533778 -168.013993
-3.779144 -6.603722 -168.015359
-3.699830 -6.673665 -168.016725
-3.620515 -6.743608 -168.018091
-3.541200 -6.813551 -168.019457
-3.524351 -6.963999 -168.018400
-3.445037 -7.033942 -168.019766
-3.365722 -7.103885 -168.021132
-3.286407 -7.173828 -168.022498
-3.269558 -7.324276 -168.021441
-3.190243 -7.394219 -168.022807
-3.110929 -7.464162 -168.024173
-3.031614 -7.534106 -168.025539
-2.952299 -7.604049 -168.026905
-2.872985 -7.673992 -168.028271
-2.793670 -7.743935 -168.029637
-2.714355 -7.813878 -168.031003
-2.635041 -7.883821 -168.032369
-2.555726 -7.953765 -168.033735
-2.476411 -8.023708 -168.035101
-2.397096 -8.093651 -168.036467
-2.380247 -8.244099 -168.035410
-2.300933 -8.314042 -168.036776
-2.221618 -8.383985 -168.038142
-2.142303 -8.453928 -168.039508
-2.062989 -8.523871 -168.040874
-1.983674 -8.593815 -168.042240
-1.904359 -8.663758 -168.043606
-1.825045 -8.733701 -168.044972
-1.745730 -8.803644 -168.046338
-1.666415 -8.873587 -168.047704
-1.587100 -8.943530 -168.049070
-1.507786 -9.013473 -168.050436
-1.428471 -9.083417 -168.051802
-1.349156 -9.153360 -168.053169
-1.269842 -9.223303 -168.054535
-1.190527 -9.293246 -168.055901
-1.111212 -9.363189 -168.057267
-1.031898 -9.433132 -168.058633
-0.952583 -9.503076 -168.059999
-0.873268 -9.573019 -168.061365
-0.793954 -9.642962 -168.062731
-0.714639 -9.712905 -168.064097
-0.635324 -9.782848 -168.065463
-0.556010 -9.852791 -168.066829
-0.476695 -9.922735 -168.068195
-0.397380 -9.992678 -168.069561
-0.318066 -10.062621 -168.070927
-0.238751 -10.132564 -168.072293
-0.159436 -10.202507 -168.073659
-0.080121 -10.272450 -168.075025
-0.000807 -10.342393 -168.076391
0.078508 -10.412337 -168.077757
0.157823 -10.482280 -168.079123
0.237137 -10.552223 -168.080489
0.316452 -10.622166 -168.081855
0.395767 -10.692109 -168.083221
0.475081 -10.762052 -168.084587
0.554396 -10.831996 -168.085953
0.696176 -10.821434 -168.089742
0.775491 -10.891377 -168.091108
0.854806 -10.961320 -168.092474
0.934120 -11.031264 -168.093840
1.013435 -11.101207 -168.095206
1.092750 -11.171150 -168.096572
1.172064 -11.241093 -168.097938
1.251379 -11.311036 -168.099304
1.330694 -11.380979 -168.100670
1.410008 -11.450922 -168.102036
1.551789 -11.440361 -168.105825
1.631103 -11.510304 -168.107191
1.710418 -11.580247 -168.108557
1.852198 -11.569686 -168.112346
1.931513 -11.639629 -168.113713
2.010828 -11.709572 -168.115079
2.152608 -11.699010 -168.118868
2.231923 -11.768954 -168.120234
2.311237 -11.838897 -168.121600
2.890276 -11.264802 -168.142351
2.969591 -11.334746 -168.143717
3.111371 -11.324184 -168.147506
3.253151 -11.313623 -168.151295
-3.184433 -6.960196 -167.973013
-3.094617 -7.082063 -167.971956
-3.018646 -7.304882 -167.968476
-2.928830 -7.426749 -167.967418
-2.839014 -7.548616 -167.966361
-2.735354 -7.569531 -167.967727
-2.645538 -7.691398 -167.966670
-2.555722 -7.813265 -167.965613
-2.465906 -7.935132 -167.964556
-2.376091 -8.056999 -167.963499
-2.286275 -8.178866 -167.962442
-2.182615 -8.199782 -167.963808
-2.092799 -8.321649 -167.962751
-1.989139 -8.342564 -167.964117
-1.899323 -8.464431 -167.963060
-1.809507 -8.586298 -167.962002
-1.719691 -8.708165 -167.960945
-1.629875 -8.830032 -167.959888
-1.540060 -8.951899 -167.958831
-1.436399 -8.972814 -167.960197
-1.346584 -9.094681 -167.959140
-1.242923 -9.115596 -167.960506
-1.166952 -9.338415 -167.957026
-1.090980 -9.561234 -167.953546
-1.001165 -9.683101 -167.952489
-0.897504 -9.704016 -167.953855
-0.793844 -9.724932 -167.955221
-0.690184 -9.745847 -167.956587
-0.600368 -9.867714 -167.955529
-0.510552 -9.989581 -167.954472
-0.420737 -10.111448 -167.953415
-0.330921 -10.233315 -167.952358
-0.227261 -10.254230 -167.953724
-0.137445 -10.376097 -167.952667
-0.033785 -10.397012 -167.954033
0.069876 -10.417927 -167.955399
0.159691 -10.539794 -167.954342
0.263352 -10.560709 -167.955708
0.367012 -10.581625 -167.957074
0.456828 -10.703492 -167.956017
0.560488 -10.724407 -167.957383
0.664148 -10.745322 -167.958749
0.753964 -10.867189 -167.957692
0.857624 -10.888104 -167.959058
0.947440 -11.009971 -167.958001
1.051100 -11.030886 -167.959367
1.140916 -11.152753 -167.958310
1.244576 -11.173668 -167.959676
1.334392 -11.295535 -167.958619
1.438052 -11.316451 -167.959985
1.527868 -11.438318 -167.958927
1.631528 -11.459233 -167.960293
1.735188 -11.480148 -167.961659
1.838848 -11.501063 -167.963025
1.928664 -11.622930 -167.961968
2.032324 -11.643845 -167.963334
2.135984 -11.664760 -167.964700
2.225800 -11.786627 -167.963643
2.329460 -11.807543 -167.965009
2.433120 -11.828458 -167.966375
2.536781 -11.849373 -167.967741
2.626596 -11.971240 -167.966684
2.730257 -11.992155 -167.968050
2.833917 -12.013070 -167.969416
2.937577 -12.033985 -167.970782
3.041237 -12.054900 -167.972148
3.144897 -12.075815 -167.973514
3.248557 -12.096731 -167.974880
3.352218 -12.117646 -167.976246
3.455878 -12.138561 -167.977612
3.559538 -12.159476 -167.978978
3.663198 -12.180391 -167.980344
3.780703 -12.100354 -167.984134
3.884363 -12.121269 -167.985500
3.988023 -12.142185 -167.986866
4.091683 -12.163100 -167.988232
4.195343 -12.184015 -167.989598
4.312848 -12.103978 -167.993387
4.416508 -12.124893 -167.994753
4.520168 -12.145808 -167.996119
4.623828 -12.166723 -167.997485
4.727488 -12.187639 -167.998851
4.844993 -12.107602 -168.002640
4.948653 -12.128517 -168.004006
5.066157 -12.048480 -168.007795
5.211351 -11.766540 -168.016430
5.315011 -11.787455 -168.017797
5.432515 -11.707418 -168.021586
5.550020 -11.627381 -168.025375
5.681369 -11.446392 -168.031587
5.812717 -11.265404 -168.037799
5.930222 -11.185367 -168.041588
6.047726 -11.105330 -168.045378
6.151386 -11.126245 -168.046744
6.268891 -11.046209 -168.050533
6.372551 -11.067124 -168.051899
6.490056 -10.987087 -168.055688
6.607560 -10.907050 -168.059477
6.725065 -10.827013 -168.063266
6.856413 -10.646025 -168.069478
6.973918 -10.565988 -168.073268
7.091422 -10.485951 -168.077057
7.208927 -10.405914 -168.080846
7.312587 -10.426829 -168.082212
7.430092 -10.346793 -168.086001
7.547596 -10.266756 -168.089790
7.678945 -10.085767 -168.096002
7.796449 -10.005730 -168.099792
7.900109 -10.026646 -168.101158
8.017614 -9.946609 -168.104947
8.135118 -9.866572 -168.108736
8.252623 -9.786535 -168.112525
8.383972 -9.605546 -168.118737
8.501476 -9.525510 -168.122526
8.605136 -9.546425 -168.123892
8.708797 -9.567340 -168.125258
8.812457 -9.588255 -168.126624
8.916117 -9.609170 -168.127990
9.019777 -9.630085 -168.129356
9.137281 -9.550049 -168.133146
9.240942 -9.570964 -168.134512
9.358446 -9.490927 -168.138301
9.475951 -9.410890 -168.142090
9.607299 -9.229901 -168.148302
9.710960 -9.250817 -168.149668
9.828464 -9.170780 -168.153457
-0.427576 -9.830765 -167.907231
-0.250373 -9.985746 -167.903751
-0.034684 -10.235077 -167.897848
0.065546 -10.201360 -167.899214
0.204262 -10.261992 -167.898157
0.342978 -10.322624 -167.897100
0.481695 -10.383256 -167.896043
0.697384 -10.632586 -167.890139
0.836100 -10.693218 -167.889082
0.974816 -10.753851 -167.888025
1.113533 -10.814483 -167.886968
1.213763 -10.780766 -167.888334
1.352479 -10.841398 -167.887277
1.452709 -10.807681 -167.888643
1.745371 -11.245709 -167.877893
1.922573 -11.400691 -167.874413
2.138262 -11.650021 -167.868510
2.276979 -11.710653 -167.867453
2.415695 -11.771285 -167.866395
2.515925 -11.737568 -167.867761
2.654641 -11.798200 -167.866704
2.793357 -11.858832 -167.865647
2.970560 -12.013814 -167.862167
3.109276 -12.074446 -167.861110
3.209506 -12.040729 -167.862476
3.348223 -12.101361 -167.861419
3.448453 -12.067644 -167.862785
3.587169 -12.128276 -167.861728
3.687399 -12.094559 -167.863094
3.826115 -12.155191 -167.862037
3.926345 -12.121474 -167.863403
4.026575 -12.087757 -167.864769
4.165291 -12.148389 -167.863712
4.265521 -12.114672 -167.865078
4.365751 -12.080955 -167.866444
4.465981 -12.047238 -167.867810
4.604697 -12.107870 -167.866752
4.704927 -12.074153 -167.868118
4.805157 -12.040436 -167.869484
4.905387 -12.006719 -167.870850
5.044103 -12.067351 -167.869793
5.144333 -12.033634 -167.871159
5.244563 -11.999917 -167.872525
5.344793 -11.966200 -167.873891
5.445023 -11.932483 -167.875257
5.545253 -11.898766 -167.876623
5.606997 -11.770700 -167.880413
5.707226 -11.736983 -167.881779
5.807456 -11.703266 -167.883145
5.907686 -11.669549 -167.884511
5.969430 -11.541483 -167.888300
6.069660 -11.507766 -167.889666
6.169890 -11.474049 -167.891032
6.270120 -11.440332 -167.892398
6.370350 -11.406615 -167.893764
6.470579 -11.372898 -167.895130
6.532323 -11.244832 -167.898919
6.632553 -11.211115 -167.900285
6.732783 -11.177398 -167.901651
6.794526 -11.049332 -167.905440
6.894756 -11.015615 -167.906806
6.994986 -10.981898 -167.908172
7.056730 -10.853832 -167.911961
7.156960 -10.820115 -167.913327
7.257190 -10.786398 -167.914693
7.357420 -10.752681 -167.916059
7.457649 -10.718964 -167.917425
7.557879 -10.685247 -167.918791
7.658109 -10.651530 -167.920157
7.719853 -10.523464 -167.923947
7.820083 -10.489747 -167.925313
7.920313 -10.456030 -167.926679
8.020543 -10.422313 -167.928045
8.120773 -10.388596 -167.929411
8.221002 -10.354879 -167.930777
8.321232 -10.321162 -167.932143
8.421462 -10.287445 -167.933509
8.483206 -10.159379 -167.937298
8.583436 -10.125662 -167.938664
8.683666 -10.091945 -167.940030
8.783896 -10.058228 -167.941396
8.845639 -9.930162 -167.945185
8.984355 -9.990794 -167.944128
9.084585 -9.957077 -167.945494
9.184815 -9.923360 -167.946860
9.285045 -9.889643 -167.948226
9.385275 -9.855926 -167.949592
9.485505 -9.822209 -167.950958
9.585735 -9.788492 -167.952324
9.685965 -9.754775 -167.953690
9.786195 -9.721058 -167.955056
9.886425 -9.687341 -167.956422
9.986655 -9.653624 -167.957788
10.086885 -9.619907 -167.959154
10.187115 -9.586190 -167.960520
10.287344 -9.552473 -167.961886
10.349088 -9.424407 -167.965675
10.449318 -9.390690 -167.967041
10.549548 -9.356973 -167.968407
10.649778 -9.323256 -167.969773
10.750008 -9.289539 -167.971139
10.850238 -9.255822 -167.972505
10.911981 -9.127755 -167.976294
11.012211 -9.094038 -167.977661
11.112441 -9.060321 -167.979027
11.212671 -9.026604 -167.980393
11.312901 -8.992887 -167.981759
11.413131 -8.959170 -167.983125
11.513361 -8.925453 -167.984491
11.613591 -8.891736 -167.985857
11.675334 -8.763670 -167.989646
11.775564 -8.729953 -167.991012
11.837308 -8.601887 -167.994801
11.783592 -8.190774 -168.005859
11.845336 -8.062708 -168.009649
11.945566 -8.028991 -168.011015
12.007309 -7.900925 -168.014804
12.069053 -7.772858 -168.018593
12.169283 -7.739141 -168.019959
12.231026 -7.611075 -168.023748
12.292770 -7.483009 -168.027537
12.393000 -7.449292 -168.028903
12.454743 -7.321226 -168.032692
12.554973 -7.287509 -168.034058
12.616717 -7.159443 -168.037847
12.639974 -6.937028 -168.044060
12.663231 -6.714613 -168.050272
