ply
format ascii 1.0
element vertex 1194
property float x
property float y
property float z
element face 0
property list uchar uint vertex_indices
end_header
2.450779 -12.178695 -137.838361
2.601227 -12.161846 -137.837304
2.751675 -12.144997 -137.836247
2.821618 -12.065682 -137.837613
2.972066 -12.048833 -137.836556
3.364028 -12.219380 -137.828229
3.514476 -12.202531 -137.827172
3.664924 -12.185682 -137.826115
3.815371 -12.168833 -137.825058
3.885315 -12.089518 -137.826424
4.035762 -12.072669 -137.825367
4.105706 -11.993355 -137.826733
4.256153 -11.976505 -137.825676
4.326097 -11.897191 -137.827042
4.476544 -11.880342 -137.825985
4.626992 -11.863492 -137.824927
4.777440 -11.846643 -137.823870
4.847383 -11.767329 -137.825236
4.997831 -11.750479 -137.824179
5.148279 -11.733630 -137.823122
5.218222 -11.654316 -137.824488
5.368670 -11.637466 -137.823431
5.438613 -11.558152 -137.824797
5.508556 -11.478837 -137.826163
5.578499 -11.399522 -137.827529
5.648443 -11.320208 -137.828895
5.718386 -11.240893 -137.830261
5.949338 -11.286509 -137.826781
6.099786 -11.269660 -137.825724
6.169729 -11.190346 -137.827090
6.320177 -11.173496 -137.826033
6.470625 -11.156647 -137.824976
6.540568 -11.077333 -137.826342
6.691016 -11.060483 -137.825285
6.760959 -10.981169 -137.826651
6.830902 -10.901854 -137.828017
6.900845 -10.822539 -137.829383
7.051293 -10.805690 -137.828325
7.121236 -10.726376 -137.829691
7.191179 -10.647061 -137.831058
7.261123 -10.567746 -137.832424
7.411570 -10.550897 -137.831366
7.481514 -10.471582 -137.832732
7.551457 -10.392268 -137.834098
7.701905 -10.375419 -137.833041
7.771848 -10.296104 -137.834407
7.922296 -10.279255 -137.833350
7.992239 -10.199940 -137.834716
8.062182 -10.120625 -137.836082
8.132125 -10.041311 -137.837448
8.202068 -9.961996 -137.838814
8.272011 -9.882681 -137.840180
8.341955 -9.803367 -137.841546
8.492402 -9.786517 -137.840489
8.562346 -9.707203 -137.841855
8.712793 -9.690354 -137.840798
8.782737 -9.611039 -137.842164
8.852680 -9.531724 -137.843530
8.922623 -9.452410 -137.844896
9.073071 -9.435560 -137.843839
9.143014 -9.356246 -137.845205
9.212957 -9.276931 -137.846571
9.282900 -9.197616 -137.847937
9.272339 -9.055836 -137.851726
9.342282 -8.976521 -137.853092
9.412225 -8.897207 -137.854458
9.401663 -8.755427 -137.858247
9.471607 -8.676112 -137.859613
9.541550 -8.596797 -137.860979
9.611493 -8.517482 -137.862345
9.681436 -8.438168 -137.863712
9.670875 -8.296388 -137.867501
9.740818 -8.217073 -137.868867
9.810761 -8.137758 -137.870233
9.800199 -7.995978 -137.874022
9.870143 -7.916663 -137.875388
9.940086 -7.837349 -137.876754
10.010029 -7.758034 -137.878120
10.079972 -7.678719 -137.879486
10.149915 -7.599405 -137.880852
10.219858 -7.520090 -137.882218
10.209297 -7.378310 -137.886007
10.279240 -7.298995 -137.887373
10.268678 -7.157215 -137.891162
10.258117 -7.015434 -137.894951
10.328060 -6.936120 -137.896317
10.317499 -6.794340 -137.900107
10.387442 -6.715025 -137.901473
10.376880 -6.573245 -137.905262
10.446823 -6.493930 -137.906628
10.436262 -6.352150 -137.910417
10.425700 -6.210370 -137.914206
10.254129 -5.943658 -137.922841
10.243568 -5.801878 -137.926630
10.313511 -5.722563 -137.927997
10.302949 -5.580783 -137.931786
10.372893 -5.501468 -137.933152
10.362331 -5.359688 -137.936941
10.432274 -5.280373 -137.938307
10.421713 -5.138593 -137.942096
10.411151 -4.996813 -137.945885
10.400590 -4.855033 -137.949674
10.390028 -4.713253 -137.953463
10.379467 -4.571472 -137.957253
10.288400 -4.367227 -137.963465
9.955820 -3.975584 -137.976946
10.025763 -3.896269 -137.978312
10.095706 -3.816955 -137.979678
10.085145 -3.675175 -137.983468
10.155088 -3.595860 -137.984834
10.144527 -3.454080 -137.988623
10.214470 -3.374765 -137.989989
10.123404 -3.170519 -137.996201
9.951833 -2.903808 -138.004836
9.941271 -2.762028 -138.008626
9.930710 -2.620247 -138.012415
9.759139 -2.353536 -138.021050
9.668072 -2.149290 -138.027262
9.738016 -2.069976 -138.028628
9.727454 -1.928195 -138.032417
9.636388 -1.723950 -138.038630
8.044474 -10.150947 -137.827433
8.267293 -10.074976 -137.823953
8.490111 -9.999004 -137.820472
8.611979 -9.909188 -137.819415
8.733846 -9.819373 -137.818358
8.754761 -9.715712 -137.819724
8.876628 -9.625897 -137.818667
8.998495 -9.536081 -137.817610
9.120362 -9.446265 -137.816553
9.242229 -9.356449 -137.815496
9.364096 -9.266633 -137.814439
9.385011 -9.162973 -137.815805
9.506878 -9.073157 -137.814748
9.527793 -8.969497 -137.816114
9.649660 -8.879681 -137.815056
9.670575 -8.776021 -137.816422
9.691491 -8.672361 -137.817788
9.813358 -8.582545 -137.816731
9.834273 -8.478885 -137.818097
9.956140 -8.389069 -137.817040
9.977055 -8.285409 -137.818406
10.098922 -8.195593 -137.817349
10.119837 -8.091933 -137.818715
10.140752 -7.988273 -137.820081
10.161667 -7.884613 -137.821447
10.283534 -7.794797 -137.820390
10.304449 -7.691137 -137.821756
10.426317 -7.601321 -137.820699
10.447232 -7.497661 -137.822065
10.569099 -7.407845 -137.821008
10.590014 -7.304185 -137.822374
10.610929 -7.200524 -137.823740
10.732796 -7.110709 -137.822683
10.753711 -7.007048 -137.824049
10.774626 -6.903388 -137.825415
10.795541 -6.799728 -137.826781
10.917408 -6.709912 -137.825724
10.938324 -6.606252 -137.827090
10.959239 -6.502592 -137.828456
10.980154 -6.398932 -137.829822
11.001069 -6.295272 -137.831188
10.921032 -6.177767 -137.834977
10.941947 -6.074107 -137.836343
10.962862 -5.970447 -137.837709
10.882826 -5.852942 -137.841498
10.903741 -5.749282 -137.842864
10.823704 -5.631778 -137.846653
10.844619 -5.528118 -137.848019
10.865534 -5.424457 -137.849385
10.785498 -5.306953 -137.853175
10.806413 -5.203293 -137.854541
10.827328 -5.099633 -137.855907
10.747291 -4.982128 -137.859696
10.768206 -4.878468 -137.861062
10.789121 -4.774808 -137.862428
10.709084 -4.657303 -137.866217
10.730000 -4.553643 -137.867583
10.750915 -4.449983 -137.868949
10.670878 -4.332479 -137.872738
10.691793 -4.228818 -137.874104
10.611756 -4.111314 -137.877893
10.531720 -3.993809 -137.881682
10.451683 -3.876305 -137.885471
10.472598 -3.772645 -137.886837
10.493513 -3.668985 -137.888204
10.615380 -3.579169 -137.887146
10.636295 -3.475509 -137.888512
10.657210 -3.371848 -137.889878
10.577174 -3.254344 -137.893668
10.598089 -3.150684 -137.895034
10.518052 -3.033179 -137.898823
10.438015 -2.915675 -137.902612
10.458930 -2.812015 -137.903978
10.479845 -2.708355 -137.905344
10.500760 -2.604694 -137.906710
10.521676 -2.501034 -137.908076
10.542591 -2.397374 -137.909442
10.563506 -2.293714 -137.910808
10.584421 -2.190054 -137.912174
10.504384 -2.072549 -137.915963
10.424347 -1.955045 -137.919752
10.344311 -1.837540 -137.923541
10.365226 -1.733880 -137.924907
10.386141 -1.630220 -137.926273
10.306104 -1.512715 -137.930063
10.327019 -1.409055 -137.931429
10.347934 -1.305395 -137.932795
10.166946 -1.174046 -137.939007
10.187861 -1.070386 -137.940373
10.107824 -0.952882 -137.944162
10.128739 -0.849222 -137.945528
10.149654 -0.745561 -137.946894
10.170569 -0.641901 -137.948260
10.090533 -0.524397 -137.952049
10.111448 -0.420737 -137.953415
10.132363 -0.317076 -137.954781
10.052326 -0.199572 -137.958570
10.073241 -0.095912 -137.959936
9.993205 0.021593 -137.963726
10.014120 0.125253 -137.965092
9.934083 0.242757 -137.968881
9.854046 0.360262 -137.972670
9.774009 0.477766 -137.976459
9.593021 0.609115 -137.982671
9.613936 0.712775 -137.984037
9.533899 0.830280 -137.987826
9.554814 0.933940 -137.989192
9.575729 1.037600 -137.990558
9.495692 1.155105 -137.994348
9.516608 1.258765 -137.995714
9.537523 1.362425 -137.997080
9.558438 1.466085 -137.998446
9.478401 1.583590 -138.002235
9.499316 1.687250 -138.003601
9.520231 1.790910 -138.004967
9.440195 1.908414 -138.008756
9.461110 2.012075 -138.010122
9.381073 2.129579 -138.013911
9.301036 2.247084 -138.017700
9.321951 2.350744 -138.019066
9.241914 2.468248 -138.022855
9.262830 2.571908 -138.024221
9.283745 2.675568 -138.025587
9.304660 2.779229 -138.026953
9.325575 2.882889 -138.028319
9.245538 3.000393 -138.032109
9.266453 3.104053 -138.033475
9.085465 3.235402 -138.039687
8.601620 3.408284 -138.053169
10.613935 -7.858993 -137.853112
10.674567 -7.720276 -137.852055
10.829549 -7.543074 -137.848575
10.984530 -7.365871 -137.845095
11.045162 -7.227155 -137.844038
11.011445 -7.126925 -137.845404
11.072077 -6.988208 -137.844347
11.132709 -6.849492 -137.843289
11.098992 -6.749262 -137.844655
11.065275 -6.649032 -137.846022
11.031558 -6.548802 -137.847388
10.997841 -6.448572 -137.848754
10.964124 -6.348342 -137.850120
10.930407 -6.248113 -137.851486
10.896690 -6.147883 -137.852852
11.240370 -5.893707 -137.844525
11.301002 -5.754991 -137.843468
11.267285 -5.654761 -137.844834
11.327917 -5.516045 -137.843777
11.294200 -5.415815 -137.845143
11.260483 -5.315585 -137.846509
11.226766 -5.215355 -137.847875
11.193049 -5.115125 -137.849241
11.159332 -5.014895 -137.850607
11.219964 -4.876179 -137.849550
11.186247 -4.775949 -137.850916
11.152530 -4.675719 -137.852282
11.118813 -4.575489 -137.853648
11.085096 -4.475259 -137.855014
11.145728 -4.336543 -137.853957
11.112011 -4.236313 -137.855323
11.078294 -4.136083 -137.856689
11.138926 -3.997367 -137.855632
11.293907 -3.820164 -137.852152
11.260190 -3.719934 -137.853518
11.320823 -3.581218 -137.852460
11.287106 -3.480988 -137.853826
11.253389 -3.380758 -137.855192
11.219672 -3.280528 -137.856558
11.185955 -3.180298 -137.857924
11.152238 -3.080068 -137.859291
11.118521 -2.979838 -137.860657
11.084804 -2.879608 -137.862023
11.051087 -2.779378 -137.863389
11.017370 -2.679148 -137.864755
11.078002 -2.540432 -137.863697
11.044285 -2.440202 -137.865063
11.010568 -2.339972 -137.866430
10.976851 -2.239742 -137.867796
10.943134 -2.139512 -137.869162
11.003766 -2.000796 -137.868104
10.970049 -1.900566 -137.869470
10.936332 -1.800336 -137.870836
10.902615 -1.700106 -137.872202
10.963247 -1.561390 -137.871145
10.929530 -1.461160 -137.872511
10.895813 -1.360930 -137.873877
10.956445 -1.222214 -137.872820
10.922728 -1.121984 -137.874186
10.889011 -1.021754 -137.875552
10.855294 -0.921524 -137.876918
10.821577 -0.821294 -137.878284
10.882209 -0.682578 -137.877227
10.848492 -0.582348 -137.878593
10.720426 -0.520604 -137.882382
10.686709 -0.420375 -137.883748
10.652992 -0.320145 -137.885114
10.713624 -0.181428 -137.884057
10.679907 -0.081198 -137.885423
10.646190 0.019031 -137.886789
10.612473 0.119261 -137.888155
10.578756 0.219491 -137.889521
10.639388 0.358208 -137.888464
10.605671 0.458438 -137.889830
10.571954 0.558667 -137.891196
10.538237 0.658897 -137.892562
10.504520 0.759127 -137.893928
10.470803 0.859357 -137.895294
10.437086 0.959587 -137.896660
10.403369 1.059817 -137.898026
10.369652 1.160047 -137.899392
10.335935 1.260277 -137.900758
10.302218 1.360507 -137.902124
10.268501 1.460737 -137.903490
10.234784 1.560967 -137.904856
10.201067 1.661197 -137.906222
10.167350 1.761427 -137.907589
10.133633 1.861656 -137.908955
10.099916 1.961886 -137.910321
10.066199 2.062116 -137.911687
10.032482 2.162346 -137.913053
9.998765 2.262576 -137.914419
9.965048 2.362806 -137.915785
9.931331 2.463036 -137.917151
9.897614 2.563266 -137.918517
9.863897 2.663496 -137.919883
9.830180 2.763726 -137.921249
9.796463 2.863956 -137.922615
9.762746 2.964186 -137.923981
9.729029 3.064416 -137.925347
9.695312 3.164645 -137.926713
9.661595 3.264875 -137.928079
9.627878 3.365105 -137.929445
9.594161 3.465335 -137.930811
9.560444 3.565565 -137.932177
9.526727 3.665795 -137.933543
9.493010 3.766025 -137.934909
9.364944 3.827769 -137.938698
9.331227 3.927998 -137.940064
9.297510 4.028228 -137.941430
9.263793 4.128458 -137.942796
9.230076 4.228688 -137.944162
9.196359 4.328918 -137.945528
9.068293 4.390662 -137.949317
9.034576 4.490892 -137.950683
9.000859 4.591122 -137.952049
8.872793 4.652865 -137.955838
8.744727 4.714609 -137.959627
8.711010 4.814839 -137.960994
8.677293 4.915069 -137.962360
8.643576 5.015298 -137.963726
8.609859 5.115528 -137.965092
8.481793 5.177272 -137.968881
8.448076 5.277502 -137.970247
8.320010 5.339245 -137.974036
8.286293 5.439475 -137.975402
8.063877 5.462732 -137.981614
10.934324 0.158397 -137.893475
10.917474 0.308845 -137.892418
10.838160 0.378788 -137.893784
10.821310 0.529236 -137.892727
10.741995 0.599179 -137.894093
10.725146 0.749627 -137.893036
10.645831 0.819570 -137.894402
10.628982 0.970018 -137.893345
10.549667 1.039961 -137.894711
10.470353 1.109904 -137.896077
10.391038 1.179847 -137.897443
10.374189 1.330295 -137.896386
10.294874 1.400239 -137.897752
10.215559 1.470182 -137.899118
10.198710 1.620630 -137.898060
10.119395 1.690573 -137.899427
10.165011 1.921526 -137.895946
10.148162 2.071974 -137.894889
10.131313 2.222421 -137.893832
10.051998 2.292365 -137.895198
10.035149 2.442813 -137.894141
10.080765 2.673765 -137.890661
10.063916 2.824213 -137.889604
10.047066 2.974661 -137.888547
10.030217 3.125109 -137.887489
10.013368 3.275557 -137.886432
9.934053 3.345500 -137.887798
9.917204 3.495948 -137.886741
9.837889 3.565891 -137.888107
9.758574 3.635834 -137.889473
9.741725 3.786282 -137.888416
9.849807 4.097740 -137.882513
9.832958 4.248188 -137.881456
9.753643 4.318131 -137.882822
9.674328 4.388074 -137.884188
9.595013 4.458017 -137.885554
9.515698 4.527961 -137.886920
9.498849 4.678408 -137.885863
9.419534 4.748352 -137.887229
9.340220 4.818295 -137.888595
9.323370 4.968743 -137.887538
9.244056 5.038686 -137.888904
9.164741 5.108629 -137.890270
9.085426 5.178572 -137.891636
9.068577 5.329020 -137.890578
8.989262 5.398963 -137.891945
8.909947 5.468906 -137.893311
8.830632 5.538850 -137.894677
8.751318 5.608793 -137.896043
8.734468 5.759241 -137.894985
8.655154 5.829184 -137.896351
8.575839 5.899127 -137.897717
8.496524 5.969070 -137.899084
8.417209 6.039013 -137.900450
8.337894 6.108957 -137.901816
8.258580 6.178900 -137.903182
8.179265 6.248843 -137.904548
8.099950 6.318786 -137.905914
8.020635 6.388729 -137.907280
7.941320 6.458672 -137.908646
7.862006 6.528616 -137.910012
7.782691 6.598559 -137.911378
7.703376 6.668502 -137.912744
7.624061 6.738445 -137.914110
7.544746 6.808388 -137.915476
7.465432 6.878331 -137.916842
7.386117 6.948274 -137.918208
7.306802 7.018218 -137.919574
7.227487 7.088161 -137.920940
7.148172 7.158104 -137.922306
7.068858 7.228047 -137.923672
6.989543 7.297990 -137.925038
6.910228 7.367933 -137.926404
6.830913 7.437877 -137.927770
6.751599 7.507820 -137.929136
6.672284 7.577763 -137.930502
6.592969 7.647706 -137.931868
6.513654 7.717649 -137.933234
6.434339 7.787592 -137.934600
6.355025 7.857536 -137.935966
6.275710 7.927479 -137.937332
6.133929 7.916917 -137.941121
6.054615 7.986860 -137.942487
5.975300 8.056803 -137.943853
5.895985 8.126747 -137.945219
5.754205 8.116185 -137.949008
5.674890 8.186128 -137.950374
5.533110 8.175566 -137.954163
5.453795 8.245510 -137.955529
5.312014 8.234948 -137.959319
4.920372 7.902367 -137.972800
4.778592 7.891806 -137.976589
4.636811 7.881244 -137.980379
4.557497 7.951187 -137.981745
4.415716 7.940626 -137.985534
4.211470 7.849559 -137.991746
4.069690 7.838997 -137.995535
3.927910 7.828436 -137.999324
3.786129 7.817874 -138.003113
3.644349 7.807313 -138.006902
3.502569 7.796751 -138.010692
3.423254 7.866694 -138.012058
3.281474 7.856133 -138.015847
3.139693 7.845571 -138.019636
3.060378 7.915514 -138.021002
2.918598 7.904952 -138.024791
2.776818 7.894391 -138.028580
2.697503 7.964334 -138.029946
2.555723 7.953772 -138.033735
7.904518 6.422823 -137.901850
7.814702 6.544690 -137.900793
7.711042 6.565605 -137.902159
7.621226 6.687472 -137.901101
7.531410 6.809339 -137.900044
7.441594 6.931206 -137.898987
7.351778 7.053073 -137.897930
7.261962 7.174940 -137.896873
7.172147 7.296807 -137.895816
7.096175 7.519626 -137.892336
7.006359 7.641493 -137.891279
6.916543 7.763360 -137.890221
6.812883 7.784275 -137.891587
6.723067 7.906142 -137.890530
6.619407 7.927058 -137.891896
6.515747 7.947973 -137.893262
6.412087 7.968888 -137.894628
6.308427 7.989803 -137.895994
6.204767 8.010718 -137.897360
6.101107 8.031633 -137.898726
6.011291 8.153500 -137.897669
5.907631 8.174415 -137.899035
5.803970 8.195331 -137.900401
5.700310 8.216246 -137.901767
5.596650 8.237161 -137.903133
5.492990 8.258076 -137.904499
5.403174 8.379943 -137.903442
5.299514 8.400858 -137.904808
5.195854 8.421773 -137.906174
5.092194 8.442688 -137.907540
4.974689 8.362652 -137.911330
4.871029 8.383567 -137.912696
4.767369 8.404482 -137.914062
4.663709 8.425397 -137.915428
4.560048 8.446312 -137.916794
4.456388 8.467227 -137.918160
4.338884 8.387190 -137.921949
4.235224 8.408106 -137.923315
4.131563 8.429021 -137.924681
4.027903 8.449936 -137.926047
3.924243 8.470851 -137.927413
3.820583 8.491766 -137.928779
3.716923 8.512681 -137.930145
3.613263 8.533596 -137.931511
3.495758 8.453560 -137.935300
3.392098 8.474475 -137.936666
3.288438 8.495390 -137.938032
3.184778 8.516305 -137.939398
3.067273 8.436268 -137.943187
2.963613 8.457183 -137.944553
2.859953 8.478098 -137.945919
2.756293 8.499014 -137.947285
2.638788 8.418977 -137.951074
2.535128 8.439892 -137.952440
2.431468 8.460807 -137.953806
2.313963 8.380770 -137.957596
2.210303 8.401685 -137.958962
2.106643 8.422601 -137.960328
2.002983 8.443516 -137.961694
1.885479 8.363479 -137.965483
1.781818 8.384394 -137.966849
1.678158 8.405309 -137.968215
1.560654 8.325272 -137.972004
1.456994 8.346188 -137.973370
1.339489 8.266151 -137.977159
1.221985 8.186114 -137.980948
1.104480 8.106077 -137.984737
1.000820 8.126992 -137.986103
0.897160 8.147907 -137.987469
0.779655 8.067871 -137.991258
0.675995 8.088786 -137.992625
0.558491 8.008749 -137.996414
0.454830 8.029664 -137.997780
0.337326 7.949627 -138.001569
0.219822 7.869591 -138.005358
0.074628 7.587650 -138.013993
-0.029032 7.608565 -138.015359
-0.132692 7.629480 -138.016725
-0.250196 7.549443 -138.020515
-0.353857 7.570359 -138.021881
-0.471361 7.490322 -138.025670
-0.602710 7.309333 -138.031882
-0.734059 7.128344 -138.038094
-0.851563 7.048308 -138.041883
-0.955223 7.069223 -138.043249
-1.072728 6.989186 -138.047038
-1.176388 7.010101 -138.048405
-1.293892 6.930064 -138.052194
4.974755 8.463434 -137.924845
4.797553 8.618415 -137.921365
4.581864 8.867746 -137.915462
4.443147 8.928378 -137.914405
4.304431 8.989010 -137.913347
4.204201 8.955293 -137.914713
4.103971 8.921576 -137.916079
4.003741 8.887859 -137.917445
3.865025 8.948491 -137.916388
3.764795 8.914774 -137.917754
3.626079 8.975406 -137.916697
3.525849 8.941689 -137.918063
3.425619 8.907972 -137.919429
3.325389 8.874255 -137.920795
3.225159 8.840538 -137.922161
3.124929 8.806821 -137.923527
3.024699 8.773104 -137.924893
2.924469 8.739387 -137.926259
2.785753 8.800019 -137.925202
2.685523 8.766302 -137.926568
2.585293 8.732585 -137.927934
2.485063 8.698868 -137.929300
2.346347 8.759500 -137.928243
2.246117 8.725783 -137.929609
2.145887 8.692066 -137.930975
2.007171 8.752698 -137.929918
1.906941 8.718981 -137.931284
1.806711 8.685264 -137.932650
1.706481 8.651547 -137.934016
1.606251 8.617830 -137.935382
1.506021 8.584113 -137.936748
1.405791 8.550396 -137.938114
1.305561 8.516679 -137.939480
1.205331 8.482962 -137.940846
1.066615 8.543595 -137.939789
0.966385 8.509878 -137.941155
0.866155 8.476161 -137.942521
0.765925 8.442444 -137.943887
0.665695 8.408727 -137.945253
0.565465 8.375010 -137.946619
0.465235 8.341293 -137.947985
0.365006 8.307576 -137.949351
0.264776 8.273859 -137.950717
0.164546 8.240142 -137.952083
0.064316 8.206425 -137.953449
-0.035914 8.172708 -137.954815
-0.136144 8.138991 -137.956181
-0.236374 8.105274 -137.957547
-0.336604 8.071557 -137.958913
-0.436834 8.037840 -137.960279
-0.537064 8.004123 -137.961645
-0.637294 7.970406 -137.963011
-0.737524 7.936689 -137.964377
-0.837754 7.902972 -137.965743
-0.937983 7.869255 -137.967109
-1.038213 7.835538 -137.968476
-1.099957 7.707471 -137.972265
-1.200187 7.673754 -137.973631
-1.300417 7.640037 -137.974997
-1.400647 7.606320 -137.976363
-1.500877 7.572603 -137.977729
-1.601107 7.538886 -137.979095
-1.701336 7.505169 -137.980461
-1.801566 7.471452 -137.981827
-1.901796 7.437735 -137.983193
-2.002026 7.404018 -137.984559
-2.102256 7.370301 -137.985925
-2.202486 7.336584 -137.987291
-2.264230 7.208518 -137.991080
-2.364460 7.174801 -137.992446
-2.464689 7.141084 -137.993812
-2.564919 7.107367 -137.995178
-2.665149 7.073650 -137.996544
-2.765379 7.039933 -137.997910
-2.827123 6.911867 -138.001699
-2.927353 6.878150 -138.003065
-3.027583 6.844433 -138.004431
-3.089326 6.716367 -138.008220
-3.189556 6.682650 -138.009586
-3.289786 6.648933 -138.010952
-3.390016 6.615216 -138.012318
-3.490246 6.581499 -138.013684
-3.590476 6.547782 -138.015050
-3.652219 6.419716 -138.018840
-3.752449 6.385999 -138.020206
-3.814193 6.257933 -138.023995
-3.914423 6.224216 -138.025361
-3.976166 6.096150 -138.029150
-4.076396 6.062433 -138.030516
-4.176626 6.028716 -138.031882
-4.238370 5.900650 -138.035671
-4.261627 5.678234 -138.041883
-4.361857 5.644517 -138.043249
-4.423600 5.516451 -138.047038
-4.523830 5.482734 -138.048405
-4.585574 5.354668 -138.052194
-4.647317 5.226602 -138.055983
-4.709061 5.098536 -138.059772
-1.301190 7.947068 -137.959744
-1.532142 7.992685 -137.956264
-1.602085 7.913370 -137.957630
-1.752533 7.896521 -137.956573
-1.822476 7.817206 -137.957939
-1.972924 7.800357 -137.956881
-2.042867 7.721043 -137.958247
-2.112810 7.641728 -137.959613
-2.182754 7.562413 -137.960979
-2.252697 7.483098 -137.962345
-2.403145 7.466249 -137.961288
-2.553592 7.449400 -137.960231
-2.704040 7.432551 -137.959174
-2.854488 7.415702 -137.958117
-3.004936 7.398853 -137.957060
-3.074879 7.319538 -137.958426
-3.144822 7.240223 -137.959792
-3.214765 7.160909 -137.961158
-3.365213 7.144060 -137.960101
-3.435156 7.064745 -137.961467
-3.505100 6.985430 -137.962833
-3.575043 6.906115 -137.964199
-3.644986 6.826801 -137.965565
-3.714929 6.747486 -137.966931
-3.784872 6.668171 -137.968297
-3.854815 6.588857 -137.969663
-3.924759 6.509542 -137.971029
-4.075206 6.492693 -137.969972
-4.145150 6.413378 -137.971338
-4.215093 6.334064 -137.972704
-4.285036 6.254749 -137.974070
-4.354979 6.175434 -137.975436
-4.424922 6.096119 -137.976802
-4.494865 6.016805 -137.978168
-4.564808 5.937490 -137.979534
-4.634752 5.858175 -137.980900
-4.704695 5.778861 -137.982266
-4.774638 5.699546 -137.983632
-4.844581 5.620231 -137.984998
-4.914524 5.540917 -137.986364
-4.984467 5.461602 -137.987730
-5.054411 5.382287 -137.989096
-5.124354 5.302973 -137.990462
-5.194297 5.223658 -137.991828
-5.264240 5.144343 -137.993194
-5.334183 5.065029 -137.994560
-5.404126 4.985714 -137.995926
-5.474070 4.906399 -137.997292
-5.544013 4.827085 -137.998658
-5.613956 4.747770 -138.000024
-5.603394 4.605990 -138.003813
-5.673337 4.526675 -138.005179
-5.743281 4.447360 -138.006545
-5.813224 4.368046 -138.007911
-5.883167 4.288731 -138.009277
-5.953110 4.209416 -138.010643
-5.942549 4.067636 -138.014433
-6.012492 3.988321 -138.015799
-6.082435 3.909007 -138.017165
-6.071873 3.767226 -138.020954
-5.469629 5.430174 -137.965826
-5.591496 5.340358 -137.964769
-5.713363 5.250542 -137.963712
-5.734278 5.146882 -137.965078
-5.856145 5.057066 -137.964020
-5.978012 4.967250 -137.962963
-5.998927 4.863590 -137.964329
-6.120794 4.773774 -137.963272
-6.141710 4.670114 -137.964638
-6.263577 4.580298 -137.963581
-6.284492 4.476638 -137.964947
-6.305407 4.372978 -137.966313
-6.427274 4.283162 -137.965256
-6.448189 4.179502 -137.966622
-6.469104 4.075842 -137.967988
-6.490019 3.972181 -137.969354
-6.510934 3.868521 -137.970720
-6.531850 3.764861 -137.972086
-6.552765 3.661201 -137.973452
-6.674632 3.571385 -137.972395
-6.695547 3.467725 -137.973761
-6.716462 3.364065 -137.975127
-6.737377 3.260405 -137.976493
-6.758292 3.156744 -137.977859
-6.779207 3.053084 -137.979225
-6.800122 2.949424 -137.980591
-6.720086 2.831920 -137.984380
-6.741001 2.728260 -137.985746
-6.761916 2.624599 -137.987112
-6.681879 2.507095 -137.990901
-6.702794 2.403435 -137.992267
-6.723709 2.299775 -137.993633
-6.744625 2.196114 -137.994999
-6.765540 2.092454 -137.996366
-6.786455 1.988794 -137.997732
-6.807370 1.885134 -137.999098
-6.828285 1.781474 -138.000464
-6.849200 1.677814 -138.001830
-6.769163 1.560309 -138.005619
-6.790079 1.456649 -138.006985
-6.810994 1.352989 -138.008351
-6.730957 1.235484 -138.012140
-6.751872 1.131824 -138.013506
-6.772787 1.028164 -138.014872
-6.793702 0.924504 -138.016238
-6.713666 0.806999 -138.020027
-6.734581 0.703339 -138.021393
-6.755496 0.599679 -138.022759
-6.776411 0.496019 -138.024125
-6.797326 0.392359 -138.025491
-6.818241 0.288699 -138.026857
-6.839156 0.185038 -138.028223
-6.759120 0.067534 -138.032012
-6.780035 -0.036126 -138.033378
-6.800950 -0.139786 -138.034744
-6.720913 -0.257291 -138.038533
-6.640876 -0.374795 -138.042323
-7.391292 2.106574 -137.966883
-7.451924 1.967858 -137.965826
-7.418207 1.867628 -137.967192
-7.478839 1.728911 -137.966135
-7.445122 1.628681 -137.967501
-7.505754 1.489965 -137.966444
-7.472037 1.389735 -137.967810
-7.438320 1.289505 -137.969176
-7.498952 1.150789 -137.968118
-7.465235 1.050559 -137.969484
-7.525868 0.911843 -137.968427
-7.492151 0.811613 -137.969793
-7.552783 0.672897 -137.968736
-7.519066 0.572667 -137.970102
-7.485349 0.472437 -137.971468
-7.451632 0.372207 -137.972834
-7.417915 0.271977 -137.974200
-7.384198 0.171747 -137.975566
-7.350481 0.071517 -137.976932
-7.316764 -0.028713 -137.978298
-7.283047 -0.128943 -137.979664
-7.343679 -0.267659 -137.978607
-7.309962 -0.367889 -137.979973
-7.370594 -0.506605 -137.978916
-7.336877 -0.606835 -137.980282
-7.303160 -0.707065 -137.981648
-7.269443 -0.807295 -137.983014
-7.235726 -0.907525 -137.984380
-7.202009 -1.007755 -137.985746
-7.168292 -1.107985 -137.987112
-7.134575 -1.208215 -137.988478
-7.100858 -1.308445 -137.989844
-7.067141 -1.408675 -137.991210
-7.033424 -1.508905 -137.992576
-6.999707 -1.609135 -137.993942
-6.965990 -1.709364 -137.995308
-6.837924 -1.771108 -137.999098
-6.804207 -1.871338 -138.000464
-6.770490 -1.971568 -138.001830
-6.736773 -2.071798 -138.003196
-6.703056 -2.172028 -138.004562
-6.669339 -2.272258 -138.005928
-6.635622 -2.372488 -138.007294
-6.601905 -2.472717 -138.008660
-6.568188 -2.572947 -138.010026
-6.534471 -2.673177 -138.011392
-6.406405 -2.734921 -138.015181
-6.372688 -2.835151 -138.016547
-6.338971 -2.935381 -138.017913
-6.305254 -3.035611 -138.019279
-6.271537 -3.135841 -138.020645
-6.143471 -3.197584 -138.024434
-6.109754 -3.297814 -138.025800
-6.076037 -3.398044 -138.027166
-6.042320 -3.498274 -138.028532
-6.008603 -3.598504 -138.029898
-5.974886 -3.698734 -138.031264
-5.941169 -3.798964 -138.032630
-5.907452 -3.899194 -138.033996
-5.873735 -3.999423 -138.035362
-5.840018 -4.099653 -138.036728
-5.806301 -4.199883 -138.038094
-5.772584 -4.300113 -138.039460
-5.738867 -4.400343 -138.040826
-5.610800 -4.462087 -138.044615
-5.577083 -4.562317 -138.045981
-5.543366 -4.662547 -138.047347
-5.509649 -4.762776 -138.048713
-5.475932 -4.863006 -138.050079
-5.347866 -4.924750 -138.053869
-5.314149 -5.024980 -138.055235
-5.280432 -5.125210 -138.056601
-5.246715 -5.225440 -138.057967
-5.212998 -5.325670 -138.059333
-5.084932 -5.387413 -138.063122
-5.051215 -5.487643 -138.064488
-5.017498 -5.587873 -138.065854
-4.983781 -5.688103 -138.067220
-4.950064 -5.788333 -138.068586
-4.916347 -5.888563 -138.069952
-4.788281 -5.950306 -138.073741
-4.754564 -6.050536 -138.075107
-4.720847 -6.150766 -138.076473
-4.687130 -6.250996 -138.077839
-4.653413 -6.351226 -138.079205
-4.619696 -6.451456 -138.080571
-4.585979 -6.551686 -138.081937
-4.457913 -6.613429 -138.085726
-4.424196 -6.713659 -138.087092
-4.296130 -6.775403 -138.090881
-4.262413 -6.875633 -138.092247
-4.134347 -6.937376 -138.096037
-4.006281 -6.999120 -138.099826
-7.271866 -0.947486 -137.980804
-7.255016 -1.097934 -137.979747
-7.300633 -1.328887 -137.976266
-7.283784 -1.479335 -137.975209
-7.266935 -1.629782 -137.974152
-7.250085 -1.780230 -137.973095
-7.233236 -1.930678 -137.972038
-7.153922 -2.000621 -137.973404
-7.137072 -2.151069 -137.972347
-7.057758 -2.221012 -137.973713
-7.040909 -2.371460 -137.972656
-6.961594 -2.441403 -137.974022
-6.944745 -2.591851 -137.972965
-6.865430 -2.661794 -137.974331
-6.848581 -2.812242 -137.973274
-6.769266 -2.882185 -137.974640
-6.689952 -2.952128 -137.976006
-6.673102 -3.102576 -137.974949
-6.593788 -3.172519 -137.976315
-6.514473 -3.242462 -137.977681
-6.435158 -3.312406 -137.979047
-6.355844 -3.382349 -137.980413
-6.338995 -3.532797 -137.979356
-6.259680 -3.602740 -137.980722
-6.242831 -3.753188 -137.979664
-6.225982 -3.903635 -137.978607
-6.209132 -4.054083 -137.977550
-6.192283 -4.204531 -137.976493
-6.112969 -4.274474 -137.977859
-6.096119 -4.424922 -137.976802
-6.016805 -4.494865 -137.978168
-5.999956 -4.645313 -137.977111
-5.920641 -4.715256 -137.978477
-5.841326 -4.785199 -137.979843
-5.824477 -4.935647 -137.978786
-5.807628 -5.086095 -137.977729
-5.790779 -5.236543 -137.976672
-5.773930 -5.386991 -137.975615
-5.694615 -5.456934 -137.976981
-5.677766 -5.607382 -137.975923
-5.598451 -5.677325 -137.977289
-5.519136 -5.747268 -137.978655
-5.439822 -5.817211 -137.980021
-5.422973 -5.967659 -137.978964
-5.343658 -6.037602 -137.980330
-5.264343 -6.107545 -137.981696
-5.247494 -6.257993 -137.980639
-5.168179 -6.327936 -137.982005
-5.088865 -6.397880 -137.983371
-5.009550 -6.467823 -137.984737
-4.930235 -6.537766 -137.986103
-4.913386 -6.688214 -137.985046
-4.834072 -6.758157 -137.986412
-4.817222 -6.908605 -137.985355
-4.800373 -7.059053 -137.984298
-4.721059 -7.128996 -137.985664
-4.641744 -7.198939 -137.987030
-4.624895 -7.349387 -137.985973
-4.545580 -7.419330 -137.987339
-4.466265 -7.489273 -137.988705
-4.449416 -7.639721 -137.987648
-4.370102 -7.709664 -137.989014
-4.290787 -7.779607 -137.990380
-4.211472 -7.849550 -137.991746
-4.194623 -7.999998 -137.990689
-4.115308 -8.069941 -137.992055
-4.035994 -8.139885 -137.993421
-3.956679 -8.209828 -137.994787
-3.877364 -8.279771 -137.996153
-3.798050 -8.349714 -137.997519
-3.718735 -8.419657 -137.998885
-3.639420 -8.489600 -138.000251
-3.560106 -8.559543 -138.001617
-3.480791 -8.629487 -138.002983
-3.401476 -8.699430 -138.004349
-3.384627 -8.849878 -138.003292
-3.305312 -8.919821 -138.004658
-3.225998 -8.989764 -138.006024
-3.146683 -9.059707 -138.007390
-3.067368 -9.129650 -138.008756
-2.988054 -9.199593 -138.010122
-2.908739 -9.269537 -138.011488
-2.829424 -9.339480 -138.012854
-2.750110 -9.409423 -138.014220
-2.670795 -9.479366 -138.015586
-2.591480 -9.549309 -138.016952
-2.512166 -9.619252 -138.018318
-2.370385 -9.608691 -138.022107
-2.291071 -9.678634 -138.023473
-2.211756 -9.748577 -138.024839
-2.132441 -9.818520 -138.026205
-2.053127 -9.888463 -138.027571
-1.973812 -9.958407 -138.028937
-1.894497 -10.028350 -138.030303
-1.815182 -10.098293 -138.031669
-1.735868 -10.168236 -138.033035
-1.656553 -10.238179 -138.034401
-1.577238 -10.308122 -138.035767
-1.497924 -10.378066 -138.037133
-1.418609 -10.448009 -138.038499
-1.339294 -10.517952 -138.039865
-1.259980 -10.587895 -138.041231
-1.180665 -10.657838 -138.042597
-1.101350 -10.727781 -138.043963
-0.959570 -10.717220 -138.047753
-0.880255 -10.787163 -138.049119
-0.800941 -10.857106 -138.050485
-0.721626 -10.927049 -138.051851
-0.642311 -10.996992 -138.053217
-0.500531 -10.986431 -138.057006
-0.421216 -11.056374 -138.058372
-0.341902 -11.126317 -138.059738
-0.262587 -11.196260 -138.061104
-0.120807 -11.185699 -138.064893
0.020973 -11.175137 -138.068682
0.225219 -11.084071 -138.074894
0.366999 -11.073510 -138.078684
0.446314 -11.143453 -138.080050
0.525629 -11.213396 -138.081416
0.604943 -11.283339 -138.082782
0.746724 -11.272778 -138.086571
0.950969 -11.181711 -138.092783
1.155215 -11.090645 -138.098995
1.296995 -11.080084 -138.102784
1.438776 -11.069522 -138.106574
1.580556 -11.058961 -138.110363
-3.689234 -8.310777 -137.934991
-3.599418 -8.432644 -137.933934
-3.509603 -8.554512 -137.932877
-3.419787 -8.676379 -137.931820
-3.329971 -8.798246 -137.930763
-3.226311 -8.819161 -137.932129
-3.136495 -8.941028 -137.931072
-3.046679 -9.062895 -137.930014
-2.970708 -9.285714 -137.926534
-2.880892 -9.407581 -137.925477
-2.791076 -9.529448 -137.924420
-2.701260 -9.651315 -137.923363
-2.597600 -9.672230 -137.924729
-2.507784 -9.794097 -137.923672
-2.404124 -9.815012 -137.925038
-2.314308 -9.936879 -137.923981
-2.210648 -9.957794 -137.925347
-2.106988 -9.978710 -137.926713
-2.017172 -10.100577 -137.925656
-1.927356 -10.222444 -137.924599
-1.837540 -10.344311 -137.923541
-1.747724 -10.466178 -137.922484
-1.644064 -10.487093 -137.923850
-1.554248 -10.608960 -137.922793
-1.450588 -10.629875 -137.924159
-1.346928 -10.650790 -137.925525
-1.257112 -10.772657 -137.924468
-1.167296 -10.894524 -137.923411
-1.063636 -10.915439 -137.924777
-0.973820 -11.037306 -137.923720
-0.870160 -11.058222 -137.925086
-0.766500 -11.079137 -137.926452
-0.676684 -11.201004 -137.925395
-0.573024 -11.221919 -137.926761
-0.469364 -11.242834 -137.928127
-0.365704 -11.263749 -137.929493
-0.248199 -11.183712 -137.933282
-0.144539 -11.204627 -137.934648
-0.040879 -11.225543 -137.936014
0.062781 -11.246458 -137.937380
0.152597 -11.368325 -137.936323
0.256257 -11.389240 -137.937689
0.359917 -11.410155 -137.939055
0.463577 -11.431070 -137.940421
0.567238 -11.451985 -137.941787
0.670898 -11.472900 -137.943153
0.774558 -11.493816 -137.944519
0.878218 -11.514731 -137.945885
0.981878 -11.535646 -137.947251
1.085538 -11.556561 -137.948617
1.189199 -11.577476 -137.949983
1.292859 -11.598391 -137.951349
1.396519 -11.619306 -137.952715
1.500179 -11.640221 -137.954081
1.603839 -11.661137 -137.955447
1.707499 -11.682052 -137.956813
1.811160 -11.702967 -137.958179
1.928664 -11.622930 -137.961968
2.032324 -11.643845 -137.963334
2.135984 -11.664760 -137.964700
2.239644 -11.685675 -137.966066
2.343305 -11.706591 -137.967432
2.433120 -11.828458 -137.966375
2.536781 -11.849373 -137.967741
2.654285 -11.769336 -137.971530
2.757945 -11.790251 -137.972897
2.861605 -11.811166 -137.974263
2.965266 -11.832081 -137.975629
3.068926 -11.852997 -137.976995
3.186430 -11.772960 -137.980784
3.290090 -11.793875 -137.982150
3.393751 -11.814790 -137.983516
3.511255 -11.734753 -137.987305
3.614915 -11.755668 -137.988671
3.787797 -11.271824 -138.002153
3.891457 -11.292739 -138.003519
4.008962 -11.212702 -138.007308
4.112622 -11.233617 -138.008674
4.230126 -11.153581 -138.012463
4.333786 -11.174496 -138.013829
4.451291 -11.094459 -138.017618
-1.036983 -10.572247 -137.884188
-0.859781 -10.727228 -137.880707
-0.721064 -10.787860 -137.879650
-0.582348 -10.848492 -137.878593
-0.443632 -10.909124 -137.877536
-0.266429 -11.064105 -137.874056
-0.127713 -11.124738 -137.872999
0.011004 -11.185370 -137.871942
0.111233 -11.151653 -137.873308
0.249950 -11.212285 -137.872251
0.427152 -11.367266 -137.868770
0.565869 -11.427898 -137.867713
0.666099 -11.394181 -137.869079
0.804815 -11.454813 -137.868022
0.943531 -11.515445 -137.866965
1.082248 -11.576077 -137.865908
1.220964 -11.636710 -137.864851
1.359680 -11.697342 -137.863794
1.536883 -11.852323 -137.860314
1.675599 -11.912955 -137.859256
1.814315 -11.973587 -137.858199
1.914545 -11.939870 -137.859565
2.053262 -12.000502 -137.858508
2.153492 -11.966785 -137.859874
2.253721 -11.933068 -137.861240
2.353951 -11.899351 -137.862606
2.492668 -11.959983 -137.861549
2.592898 -11.926266 -137.862915
2.693128 -11.892549 -137.864281
2.793357 -11.858832 -137.865647
2.893587 -11.825115 -137.867013
2.993817 -11.791398 -137.868379
3.094047 -11.757681 -137.869745
3.194277 -11.723964 -137.871111
3.332993 -11.784597 -137.870054
3.433223 -11.750880 -137.871420
3.533453 -11.717163 -137.872786
3.633683 -11.683446 -137.874152
3.733913 -11.649729 -137.875518
3.834143 -11.616012 -137.876884
3.972859 -11.676644 -137.875827
4.073089 -11.642927 -137.877193
4.173319 -11.609210 -137.878559
4.273549 -11.575493 -137.879925
4.373779 -11.541776 -137.881291
4.474009 -11.508059 -137.882657
4.574239 -11.474342 -137.884023
4.674469 -11.440625 -137.885389
4.774699 -11.406908 -137.886755
4.874929 -11.373191 -137.888121
4.975159 -11.339474 -137.889487
5.075389 -11.305757 -137.890853
5.175618 -11.272040 -137.892219
5.275848 -11.238323 -137.893585
5.376078 -11.204606 -137.894951
5.476308 -11.170889 -137.896317
5.576538 -11.137172 -137.897683
5.676768 -11.103455 -137.899049
5.776998 -11.069738 -137.900415
5.877228 -11.036021 -137.901781
5.938971 -10.907955 -137.905571
6.039201 -10.874238 -137.906937
6.139431 -10.840521 -137.908303
6.239661 -10.806804 -137.909669
6.339891 -10.773087 -137.911035
6.440121 -10.739370 -137.912401
6.540351 -10.705653 -137.913767
6.602095 -10.577586 -137.917556
6.702324 -10.543869 -137.918922
6.802554 -10.510152 -137.920288
6.864298 -10.382086 -137.924077
6.926041 -10.254020 -137.927866
7.026271 -10.220303 -137.929232
7.126501 -10.186586 -137.930598
7.188245 -10.058520 -137.934387
7.288475 -10.024803 -137.935753
7.350218 -9.896737 -137.939542
7.450448 -9.863020 -137.940908
7.550678 -9.829303 -137.942274
7.612422 -9.701237 -137.946064
7.712652 -9.667520 -137.947430
7.812882 -9.633803 -137.948796
7.874625 -9.505737 -137.952585
7.974855 -9.472020 -137.953951
8.036599 -9.343954 -137.957740
8.136829 -9.310237 -137.959106
8.198572 -9.182171 -137.962895
8.260316 -9.054104 -137.966684
8.360546 -9.020387 -137.968050
8.422289 -8.892321 -137.971839
8.522519 -8.858604 -137.973205
8.584263 -8.730538 -137.976995
8.684492 -8.696821 -137.978361
8.746236 -8.568755 -137.982150
8.807980 -8.440689 -137.985939
8.831237 -8.218274 -137.992151
8.892980 -8.090208 -137.995940
8.954724 -7.962142 -137.999729
9.016467 -7.834075 -138.003519
9.078211 -7.706009 -138.007308
9.062982 -7.389245 -138.015943
9.124725 -7.261179 -138.019732
9.224955 -7.227462 -138.021098
9.286699 -7.099396 -138.024887
9.348442 -6.971330 -138.028676
