ply
format ascii 1.0
element vertex 1154
property float x
property float y
property float z
element face 0
property list uchar uint vertex_indices
end_header
6.309616 -11.031716 -136.829822
6.460063 -11.014867 -136.828765
6.530007 -10.935552 -136.830131
6.680454 -10.918703 -136.829074
6.750397 -10.839389 -136.830440
6.820341 -10.760074 -136.831806
6.890284 -10.680759 -136.833172
7.040732 -10.663910 -136.832115
7.191179 -10.647061 -136.831058
7.261123 -10.567746 -136.832424
7.411570 -10.550897 -136.831366
7.481514 -10.471582 -136.832732
7.551457 -10.392268 -136.834098
7.621400 -10.312953 -136.835464
7.691343 -10.233638 -136.836830
7.841791 -10.216789 -136.835773
7.911734 -10.137474 -136.837139
7.981677 -10.058160 -136.838505
8.051620 -9.978845 -136.839871
8.202068 -9.961996 -136.838814
8.272011 -9.882681 -136.840180
8.341955 -9.803367 -136.841546
8.492402 -9.786517 -136.840489
8.562346 -9.707203 -136.841855
8.632289 -9.627888 -136.843221
8.702232 -9.548573 -136.844587
8.852680 -9.531724 -136.843530
8.922623 -9.452410 -136.844896
8.992566 -9.373095 -136.846262
9.062509 -9.293780 -136.847628
9.132452 -9.214466 -136.848994
9.202396 -9.135151 -136.850360
9.272339 -9.055836 -136.851726
9.261777 -8.914056 -136.855515
9.331720 -8.834741 -136.856881
9.401663 -8.755427 -136.858247
9.391102 -8.613646 -136.862037
9.461045 -8.534332 -136.863403
9.530988 -8.455017 -136.864769
9.600931 -8.375702 -136.866135
9.590370 -8.233922 -136.869924
9.660313 -8.154607 -136.871290
9.730256 -8.075293 -136.872656
9.719695 -7.933512 -136.876445
9.789638 -7.854198 -136.877811
9.859581 -7.774883 -136.879177
9.929524 -7.695568 -136.880543
9.918963 -7.553788 -136.884332
9.988906 -7.474473 -136.885698
10.058849 -7.395159 -136.887064
10.128792 -7.315844 -136.888430
10.198735 -7.236529 -136.889796
10.188174 -7.094749 -136.893585
10.177612 -6.952969 -136.897374
10.167051 -6.811189 -136.901164
10.156489 -6.669408 -136.904953
10.145928 -6.527628 -136.908742
10.215871 -6.448314 -136.910108
10.285814 -6.368999 -136.911474
10.275252 -6.227219 -136.915263
10.345196 -6.147904 -136.916629
10.334634 -6.006124 -136.920418
10.324073 -5.864344 -136.924207
10.233006 -5.660098 -136.930420
10.222445 -5.518318 -136.934209
10.211883 -5.376537 -136.937998
10.201322 -5.234757 -136.941787
10.190760 -5.092977 -136.945576
10.099694 -4.888731 -136.951788
10.008628 -4.684485 -136.958001
9.998066 -4.542705 -136.961790
9.987505 -4.400925 -136.965579
8.716554 -9.390888 -136.826245
8.838421 -9.301072 -136.825188
8.859336 -9.197412 -136.826554
8.880251 -9.093751 -136.827920
9.002119 -9.003936 -136.826863
9.123986 -8.914120 -136.825806
9.245853 -8.824304 -136.824749
9.367720 -8.734488 -136.823692
9.489587 -8.644672 -136.822635
9.611454 -8.554856 -136.821578
9.733321 -8.465041 -136.820521
9.754236 -8.361380 -136.821887
9.876103 -8.271565 -136.820829
9.997970 -8.181749 -136.819772
10.018885 -8.078089 -136.821138
10.140752 -7.988273 -136.820081
10.161667 -7.884613 -136.821447
10.182582 -7.780952 -136.822813
10.304449 -7.691137 -136.821756
10.325365 -7.587476 -136.823122
10.346280 -7.483816 -136.824488
10.468147 -7.394000 -136.823431
10.489062 -7.290340 -136.824797
10.509977 -7.186680 -136.826163
10.530892 -7.083020 -136.827529
10.652759 -6.993204 -136.826472
10.673674 -6.889544 -136.827838
10.694590 -6.785884 -136.829204
10.715505 -6.682224 -136.830570
10.736420 -6.578564 -136.831936
10.757335 -6.474903 -136.833302
10.778250 -6.371243 -136.834668
10.799165 -6.267583 -136.836034
10.820080 -6.163923 -136.837400
10.740044 -6.046418 -136.841189
10.760959 -5.942758 -136.842555
10.781874 -5.839098 -136.843921
10.701837 -5.721594 -136.847710
10.722752 -5.617933 -136.849076
10.642715 -5.500429 -136.852866
10.663630 -5.396769 -136.854232
10.684546 -5.293109 -136.855598
10.604509 -5.175604 -136.859387
10.625424 -5.071944 -136.860753
10.646339 -4.968284 -136.862119
10.667254 -4.864624 -136.863485
10.688169 -4.760963 -136.864851
10.709084 -4.657303 -136.866217
10.629048 -4.539799 -136.870006
10.649963 -4.436139 -136.871372
10.670878 -4.332479 -136.872738
10.590841 -4.214974 -136.876527
10.611756 -4.111314 -136.877893
10.632671 -4.007654 -136.879259
10.552635 -3.890149 -136.883048
10.573550 -3.786489 -136.884414
10.594465 -3.682829 -136.885780
10.514428 -3.565324 -136.889570
10.535343 -3.461664 -136.890936
10.556258 -3.358004 -136.892302
10.577174 -3.254344 -136.893668
10.598089 -3.150684 -136.895034
10.518052 -3.033179 -136.898823
10.538967 -2.929519 -136.900189
10.458930 -2.812015 -136.903978
10.479845 -2.708355 -136.905344
10.500760 -2.604694 -136.906710
10.521676 -2.501034 -136.908076
10.542591 -2.397374 -136.909442
10.462554 -2.279870 -136.913231
10.483469 -2.176209 -136.914597
10.504384 -2.072549 -136.915963
10.424347 -1.955045 -136.919752
10.344311 -1.837540 -136.923541
10.264274 -1.720036 -136.927331
10.285189 -1.616376 -136.928697
10.306104 -1.512715 -136.930063
10.226067 -1.395211 -136.933852
10.246982 -1.291551 -136.935218
10.166946 -1.174046 -136.939007
10.187861 -1.070386 -136.940373
10.208776 -0.966726 -136.941739
10.128739 -0.849222 -136.945528
10.149654 -0.745561 -136.946894
10.069618 -0.628057 -136.950683
9.989581 -0.510552 -136.954472
10.010496 -0.406892 -136.955838
9.930459 -0.289388 -136.959627
9.850422 -0.171883 -136.963417
9.871337 -0.068223 -136.964783
9.791301 0.049281 -136.968572
9.812216 0.152942 -136.969938
9.833131 0.256602 -136.971304
9.854046 0.360262 -136.972670
9.874961 0.463922 -136.974036
9.895876 0.567582 -136.975402
9.815840 0.685087 -136.979191
9.836755 0.788747 -136.980557
9.756718 0.906251 -136.984346
9.676681 1.023756 -136.988135
9.596644 1.141260 -136.991924
9.516608 1.258765 -136.995714
9.436571 1.376269 -136.999503
9.457486 1.479929 -137.000869
9.478401 1.583590 -137.002235
9.398364 1.701094 -137.006024
9.419279 1.804754 -137.007390
9.339243 1.922259 -137.011179
10.694681 -7.142154 -136.854039
10.755313 -7.003438 -136.852982
10.910294 -6.826235 -136.849502
11.065275 -6.649032 -136.846022
11.031558 -6.548802 -136.847388
11.092190 -6.410086 -136.846330
11.058473 -6.309856 -136.847696
11.024756 -6.209626 -136.849062
10.991039 -6.109396 -136.850428
10.862973 -6.047653 -136.854218
10.923605 -5.908936 -136.853160
10.889888 -5.808706 -136.854527
10.950520 -5.669990 -136.853469
11.105502 -5.492788 -136.849989
11.166134 -5.354071 -136.848932
11.132417 -5.253841 -136.850298
11.193049 -5.115125 -136.849241
11.159332 -5.014895 -136.850607
11.125615 -4.914665 -136.851973
11.186247 -4.775949 -136.850916
11.152530 -4.675719 -136.852282
11.118813 -4.575489 -136.853648
11.179445 -4.436773 -136.852591
11.145728 -4.336543 -136.853957
11.206360 -4.197826 -136.852900
11.172643 -4.097597 -136.854266
11.138926 -3.997367 -136.855632
11.199558 -3.858650 -136.854575
11.165841 -3.758420 -136.855941
11.132124 -3.658191 -136.857307
11.098407 -3.557961 -136.858673
11.064690 -3.457731 -136.860039
11.030973 -3.357501 -136.861405
11.091605 -3.218784 -136.860348
11.057888 -3.118555 -136.861714
11.024171 -3.018325 -136.863080
11.084804 -2.879608 -136.862023
11.051087 -2.779378 -136.863389
11.017370 -2.679148 -136.864755
10.889303 -2.617405 -136.868544
10.855586 -2.517175 -136.869910
10.916219 -2.378459 -136.868853
10.882502 -2.278229 -136.870219
10.943134 -2.139512 -136.869162
10.909417 -2.039283 -136.870528
10.970049 -1.900566 -136.869470
10.936332 -1.800336 -136.870836
10.902615 -1.700106 -136.872202
10.868898 -1.599876 -136.873568
10.835181 -1.499647 -136.874935
10.801464 -1.399417 -136.876301
10.862096 -1.260700 -136.875243
10.828379 -1.160470 -136.876609
10.794662 -1.060240 -136.877975
10.855294 -0.921524 -136.876918
10.821577 -0.821294 -136.878284
10.787860 -0.721064 -136.879650
10.754143 -0.620834 -136.881016
10.720426 -0.520604 -136.882382
10.686709 -0.420375 -136.883748
10.652992 -0.320145 -136.885114
10.619275 -0.219915 -136.886480
10.585558 -0.119685 -136.887846
10.551841 -0.019455 -136.889212
10.518124 0.080775 -136.890578
10.578756 0.219491 -136.889521
10.545039 0.319721 -136.890887
10.511322 0.419951 -136.892253
10.477605 0.520181 -136.893619
10.443888 0.620411 -136.894985
10.410171 0.720641 -136.896351
10.376454 0.820871 -136.897717
10.437086 0.959587 -136.896660
10.403369 1.059817 -136.898026
10.369652 1.160047 -136.899392
10.335935 1.260277 -136.900758
10.302218 1.360507 -136.902124
10.268501 1.460737 -136.903490
10.234784 1.560967 -136.904856
10.201067 1.661197 -136.906222
10.167350 1.761427 -136.907589
10.133633 1.861656 -136.908955
10.099916 1.961886 -136.910321
10.066199 2.062116 -136.911687
10.032482 2.162346 -136.913053
9.998765 2.262576 -136.914419
9.965048 2.362806 -136.915785
9.931331 2.463036 -136.917151
9.897614 2.563266 -136.918517
9.863897 2.663496 -136.919883
9.830180 2.763726 -136.921249
9.796463 2.863956 -136.922615
9.762746 2.964186 -136.923981
9.729029 3.064416 -136.925347
9.695312 3.164645 -136.926713
9.661595 3.264875 -136.928079
9.627878 3.365105 -136.929445
9.594161 3.465335 -136.930811
9.560444 3.565565 -136.932177
9.526727 3.665795 -136.933543
9.493010 3.766025 -136.934909
9.364944 3.827769 -136.938698
9.331227 3.927998 -136.940064
9.297510 4.028228 -136.941430
9.263793 4.128458 -136.942796
9.135727 4.190202 -136.946585
9.102010 4.290432 -136.947951
9.068293 4.390662 -136.949317
8.940227 4.452405 -136.953106
8.906510 4.552635 -136.954472
8.872793 4.652865 -136.955838
8.744727 4.714609 -136.959627
8.711010 4.814839 -136.960994
8.677293 4.915069 -136.962360
8.549227 4.976812 -136.966149
8.515510 5.077042 -136.967515
8.387444 5.138786 -136.971304
8.353727 5.239015 -136.972670
8.225660 5.300759 -136.976459
8.191943 5.400989 -136.977825
8.063877 5.462732 -136.981614
7.935811 5.524476 -136.985403
10.402956 1.711696 -136.891848
10.323641 1.781639 -136.893214
10.306792 1.932087 -136.892157
10.227477 2.002030 -136.893523
10.148162 2.071974 -136.894889
10.131313 2.222421 -136.893832
10.051998 2.292365 -136.895198
10.035149 2.442813 -136.894141
10.143230 2.754270 -136.888238
10.126381 2.904718 -136.887181
10.109532 3.055166 -136.886123
10.092683 3.205614 -136.885066
10.013368 3.275557 -136.886432
9.934053 3.345500 -136.887798
9.917204 3.495948 -136.886741
9.837889 3.565891 -136.888107
9.758574 3.635834 -136.889473
9.741725 3.786282 -136.888416
9.787341 4.017235 -136.884936
9.770492 4.167683 -136.883879
9.753643 4.318131 -136.882822
9.674328 4.388074 -136.884188
9.595013 4.458017 -136.885554
9.515698 4.527961 -136.886920
9.436384 4.597904 -136.888286
9.419534 4.748352 -136.887229
9.340220 4.818295 -136.888595
9.260905 4.888238 -136.889961
9.244056 5.038686 -136.888904
9.164741 5.108629 -136.890270
9.085426 5.178572 -136.891636
9.006111 5.248515 -136.893002
8.989262 5.398963 -136.891945
8.909947 5.468906 -136.893311
8.830632 5.538850 -136.894677
8.751318 5.608793 -136.896043
8.672003 5.678736 -136.897409
8.592688 5.748679 -136.898775
8.513373 5.818622 -136.900141
8.434058 5.888565 -136.901507
8.354744 5.958509 -136.902873
8.275429 6.028452 -136.904239
8.258580 6.178900 -136.903182
8.179265 6.248843 -136.904548
8.099950 6.318786 -136.905914
8.020635 6.388729 -136.907280
7.941320 6.458672 -136.908646
7.862006 6.528616 -136.910012
7.782691 6.598559 -136.911378
7.703376 6.668502 -136.912744
7.624061 6.738445 -136.914110
7.544746 6.808388 -136.915476
7.465432 6.878331 -136.916842
7.386117 6.948274 -136.918208
7.306802 7.018218 -136.919574
7.227487 7.088161 -136.920940
7.148172 7.158104 -136.922306
7.068858 7.228047 -136.923672
6.989543 7.297990 -136.925038
6.910228 7.367933 -136.926404
6.768448 7.357372 -136.930193
6.689133 7.427315 -136.931559
6.609818 7.497258 -136.932925
6.530503 7.567201 -136.934291
6.451189 7.637144 -136.935657
6.371874 7.707088 -136.937023
6.292559 7.777031 -136.938389
6.213244 7.846974 -136.939755
6.133929 7.916917 -136.941121
6.054615 7.986860 -136.942487
5.975300 8.056803 -136.943853
5.833520 8.046242 -136.947642
5.754205 8.116185 -136.949008
5.674890 8.186128 -136.950374
5.533110 8.175566 -136.954163
5.453795 8.245510 -136.955529
5.312014 8.234948 -136.959319
4.982838 7.982872 -136.970377
4.841057 7.972310 -136.974166
4.699277 7.961749 -136.977955
4.619962 8.031692 -136.979321
4.478182 8.021130 -136.983111
4.336401 8.010569 -136.986900
4.194621 8.000007 -136.990689
4.052841 7.989445 -136.994478
3.973526 8.059389 -136.995844
3.831746 8.048827 -136.999633
3.689965 8.038265 -137.003422
3.485719 7.947199 -137.009635
3.343939 7.936637 -137.013424
3.202159 7.926076 -137.017213
3.060378 7.915514 -137.021002
2.856133 7.824448 -137.027214
2.714352 7.813886 -137.031003
2.572572 7.803324 -137.034792
2.430792 7.792763 -137.038582
7.918362 6.523775 -136.899427
7.828546 6.645642 -136.898369
7.724886 6.666557 -136.899735
7.635070 6.788424 -136.898678
7.531410 6.809339 -136.900044
7.441594 6.931206 -136.898987
7.337934 6.952121 -136.900353
7.234274 6.973036 -136.901719
7.213680 7.599663 -136.888547
7.123864 7.721530 -136.887489
7.034048 7.843397 -136.886432
6.930388 7.864312 -136.887798
6.826728 7.885227 -136.889164
6.723067 7.906142 -136.890530
6.619407 7.927058 -136.891896
6.515747 7.947973 -136.893262
6.412087 7.968888 -136.894628
6.308427 7.989803 -136.895994
6.204767 8.010718 -136.897360
6.114951 8.132585 -136.896303
6.011291 8.153500 -136.897669
5.907631 8.174415 -136.899035
5.803970 8.195331 -136.900401
5.700310 8.216246 -136.901767
5.596650 8.237161 -136.903133
5.492990 8.258076 -136.904499
5.389330 8.278991 -136.905865
5.285670 8.299906 -136.907231
5.182009 8.320821 -136.908597
5.078349 8.341736 -136.909963
4.974689 8.362652 -136.911330
4.871029 8.383567 -136.912696
4.767369 8.404482 -136.914062
4.663709 8.425397 -136.915428
4.560048 8.446312 -136.916794
4.456388 8.467227 -136.918160
4.352728 8.488142 -136.919526
4.249068 8.509058 -136.920892
4.131563 8.429021 -136.924681
4.027903 8.449936 -136.926047
3.924243 8.470851 -136.927413
3.820583 8.491766 -136.928779
3.716923 8.512681 -136.930145
3.613263 8.533596 -136.931511
3.495758 8.453560 -136.935300
3.392098 8.474475 -136.936666
3.288438 8.495390 -136.938032
3.184778 8.516305 -136.939398
3.081118 8.537220 -136.940764
2.977457 8.558135 -136.942130
2.859953 8.478098 -136.945919
2.756293 8.499014 -136.947285
2.652633 8.519929 -136.948651
2.548972 8.540844 -136.950017
2.445312 8.561759 -136.951383
2.327808 8.481722 -136.955172
2.210303 8.401685 -136.958962
2.106643 8.422601 -136.960328
1.989139 8.342564 -136.964117
1.885479 8.363479 -136.965483
1.767974 8.283442 -136.969272
1.664314 8.304357 -136.970638
1.546809 8.224320 -136.974427
1.443149 8.245236 -136.975793
1.339489 8.266151 -136.977159
1.235829 8.287066 -136.978525
1.118324 8.207029 -136.982314
1.014664 8.227944 -136.983680
0.897160 8.147907 -136.987469
0.793500 8.168823 -136.988835
0.675995 8.088786 -136.992625
0.572335 8.109701 -136.993991
0.454830 8.029664 -136.997780
0.337326 7.949627 -137.001569
0.178289 7.566735 -137.012627
0.060784 7.486698 -137.016416
-0.042876 7.507613 -137.017782
-0.146536 7.528528 -137.019148
-0.264041 7.448492 -137.022938
-0.367701 7.469407 -137.024304
-0.485205 7.389370 -137.028093
-0.602710 7.309333 -137.031882
-0.734059 7.128344 -137.038094
-0.837719 7.149260 -137.039460
-0.955223 7.069223 -137.043249
-1.058884 7.090138 -137.044615
-1.176388 7.010101 -137.048405
-1.280048 7.031016 -137.049771
-1.397553 6.950979 -137.053560
-1.515057 6.870943 -137.057349
-1.632562 6.790906 -137.061138
-1.750066 6.710869 -137.064927
-1.867571 6.630832 -137.068716
-1.971231 6.651747 -137.070082
-2.088735 6.571711 -137.073871
5.036499 8.591500 -136.921056
4.897782 8.652132 -136.919999
4.759066 8.712764 -136.918942
4.581864 8.867746 -136.915462
4.443147 8.928378 -136.914405
4.342917 8.894661 -136.915771
4.204201 8.955293 -136.914713
4.103971 8.921576 -136.916079
3.965255 8.982208 -136.915022
3.865025 8.948491 -136.916388
3.726309 9.009123 -136.915331
3.626079 8.975406 -136.916697
3.525849 8.941689 -136.918063
3.387132 9.002321 -136.917006
3.286902 8.968604 -136.918372
3.186673 8.934887 -136.919738
3.086443 8.901170 -136.921104
2.986213 8.867453 -136.922470
2.885983 8.833736 -136.923836
2.785753 8.800019 -136.925202
2.685523 8.766302 -136.926568
2.585293 8.732585 -136.927934
2.485063 8.698868 -136.929300
2.346347 8.759500 -136.928243
2.246117 8.725783 -136.929609
2.145887 8.692066 -136.930975
2.045657 8.658349 -136.932341
1.906941 8.718981 -136.931284
1.806711 8.685264 -136.932650
1.706481 8.651547 -136.934016
1.606251 8.617830 -136.935382
1.506021 8.584113 -136.936748
1.405791 8.550396 -136.938114
1.305561 8.516679 -136.939480
1.205331 8.482962 -136.940846
1.105101 8.449245 -136.942212
1.004871 8.415528 -136.943578
0.904642 8.381811 -136.944944
0.804412 8.348094 -136.946310
0.704182 8.314377 -136.947676
0.603952 8.280660 -136.949042
0.503722 8.246943 -136.950408
0.403492 8.213226 -136.951774
0.303262 8.179509 -136.953140
0.164546 8.240142 -136.952083
0.064316 8.206425 -136.953449
-0.035914 8.172708 -136.954815
-0.136144 8.138991 -136.956181
-0.236374 8.105274 -136.957547
-0.336604 8.071557 -136.958913
-0.398347 7.943490 -136.962703
-0.498577 7.909773 -136.964069
-0.598807 7.876056 -136.965435
-0.699037 7.842339 -136.966801
-0.799267 7.808622 -136.968167
-0.899497 7.774905 -136.969533
-0.999727 7.741188 -136.970899
-1.099957 7.707471 -136.972265
-1.200187 7.673754 -136.973631
-1.300417 7.640037 -136.974997
-1.400647 7.606320 -136.976363
-1.500877 7.572603 -136.977729
-1.601107 7.538886 -136.979095
-1.701336 7.505169 -136.980461
-1.801566 7.471452 -136.981827
-1.901796 7.437735 -136.983193
-2.002026 7.404018 -136.984559
-2.102256 7.370301 -136.985925
-2.202486 7.336584 -136.987291
-2.302716 7.302867 -136.988657
-2.364460 7.174801 -136.992446
-2.464689 7.141084 -136.993812
-2.564919 7.107367 -136.995178
-2.665149 7.073650 -136.996544
-2.765379 7.039933 -136.997910
-2.865609 7.006216 -136.999276
-2.965839 6.972499 -137.000642
-3.027583 6.844433 -137.004431
-3.127813 6.810716 -137.005797
-3.228042 6.776999 -137.007163
-3.328272 6.743282 -137.008529
-3.428502 6.709565 -137.009895
-3.528732 6.675848 -137.011261
-3.628962 6.642131 -137.012627
-3.729192 6.608414 -137.013993
-3.790936 6.480348 -137.017782
-3.891166 6.446631 -137.019148
-3.991395 6.412914 -137.020515
-4.053139 6.284848 -137.024304
-4.153369 6.251131 -137.025670
-4.215113 6.123065 -137.029459
-4.084424 5.523253 -137.045364
-4.146168 5.395187 -137.049153
-4.246398 5.361470 -137.050519
-4.346628 5.327753 -137.051885
-4.408371 5.199687 -137.055674
-4.470115 5.071621 -137.059463
-4.493372 4.849206 -137.065675
-4.516629 4.626790 -137.071888
-4.578373 4.498724 -137.075677
-4.678602 4.465007 -137.077043
-4.778832 4.431290 -137.078409
-1.612647 8.055150 -136.953840
-1.763095 8.038301 -136.952783
-1.833038 7.958987 -136.954149
-1.902981 7.879672 -136.955515
-2.053429 7.862823 -136.954458
-2.203877 7.845974 -136.953401
-2.354324 7.829124 -136.952344
-2.504772 7.812275 -136.951287
-2.574715 7.732961 -136.952653
-2.725163 7.716111 -136.951596
-2.795106 7.636797 -136.952962
-2.865050 7.557482 -136.954328
-3.015497 7.540633 -136.953271
-3.085441 7.461318 -136.954637
-3.155384 7.382004 -136.956003
-3.225327 7.302689 -136.957369
-3.295270 7.223374 -136.958735
-3.445718 7.206525 -136.957678
-3.515661 7.127210 -136.959044
-3.585604 7.047896 -136.960410
-3.655547 6.968581 -136.961776
-3.725491 6.889266 -136.963142
-3.795434 6.809952 -136.964508
-3.865377 6.730637 -136.965874
-3.935320 6.651322 -136.967240
-4.005263 6.572008 -136.968606
-4.075206 6.492693 -136.969972
-4.145150 6.413378 -136.971338
-4.215093 6.334064 -136.972704
-4.365541 6.317214 -136.971647
-4.435484 6.237900 -136.973013
-4.505427 6.158585 -136.974379
-4.575370 6.079270 -136.975745
-4.645313 5.999956 -136.977111
-4.715256 5.920641 -136.978477
-4.785199 5.841326 -136.979843
-4.855143 5.762012 -136.981209
-4.925086 5.682697 -136.982575
-4.995029 5.603382 -136.983941
-5.064972 5.524068 -136.985307
-5.134915 5.444753 -136.986673
-5.204858 5.365438 -136.988039
-5.274802 5.286123 -136.989405
-5.344745 5.206809 -136.990771
-5.414688 5.127494 -136.992137
-5.484631 5.048179 -136.993503
-5.474070 4.906399 -136.997292
-5.544013 4.827085 -136.998658
-5.613956 4.747770 -137.000024
-5.683899 4.668455 -137.001390
-5.753842 4.589140 -137.002756
-5.823785 4.509826 -137.004122
-5.893728 4.430511 -137.005488
-5.963672 4.351196 -137.006854
-6.033615 4.271882 -137.008220
-6.023053 4.130101 -137.012010
-6.092996 4.050787 -137.013376
-6.082435 3.909007 -137.017165
-6.152378 3.829692 -137.018531
-6.141817 3.687912 -137.022320
-6.211760 3.608597 -137.023686
-6.201198 3.466817 -137.027475
-4.936707 6.528902 -136.958069
-4.957622 6.425242 -136.959435
-5.079489 6.335426 -136.958378
-5.100404 6.231766 -136.959744
-5.121319 6.128106 -136.961110
-5.142234 6.024446 -136.962476
-5.163149 5.920786 -136.963842
-5.184065 5.817126 -136.965208
-5.406884 5.741154 -136.961728
-5.427799 5.637494 -136.963094
-5.650618 5.561522 -136.959613
-5.974388 5.499395 -136.953710
-5.995304 5.395735 -136.955076
-6.117171 5.305919 -136.954019
-6.138086 5.202259 -136.955385
-6.159001 5.098599 -136.956751
-6.179916 4.994939 -136.958117
-6.301783 4.905123 -136.957060
-6.322698 4.801463 -136.958426
-6.343613 4.697803 -136.959792
-6.364528 4.594142 -136.961158
-6.486396 4.504327 -136.960101
-6.507311 4.400666 -136.961467
-6.528226 4.297006 -136.962833
-6.549141 4.193346 -136.964199
-6.570056 4.089686 -136.965565
-6.590971 3.986026 -136.966931
-6.611886 3.882366 -136.968297
-6.632801 3.778705 -136.969663
-6.653717 3.675045 -136.971029
-6.775584 3.585229 -136.969972
-6.796499 3.481569 -136.971338
-6.817414 3.377909 -136.972704
-6.838329 3.274249 -136.974070
-6.859244 3.170589 -136.975436
-6.880159 3.066929 -136.976802
-6.901074 2.963269 -136.978168
-6.921990 2.859608 -136.979534
-6.942905 2.755948 -136.980900
-6.963820 2.652288 -136.982266
-6.984735 2.548628 -136.983632
-6.904698 2.431123 -136.987421
-6.925613 2.327463 -136.988787
-6.845576 2.209959 -136.992576
-6.866492 2.106299 -136.993942
-6.887407 2.002638 -136.995308
-6.908322 1.898978 -136.996674
-6.929237 1.795318 -136.998040
-6.950152 1.691658 -136.999406
-6.971067 1.587998 -137.000772
-6.991982 1.484338 -137.002138
-6.911946 1.366833 -137.005928
-6.932861 1.263173 -137.007294
-6.953776 1.159513 -137.008660
-6.974691 1.055853 -137.010026
-6.995606 0.952192 -137.011392
-6.915569 0.834688 -137.015181
-6.936484 0.731028 -137.016547
-6.957400 0.627368 -137.017913
-6.978315 0.523708 -137.019279
-6.898278 0.406203 -137.023068
-6.919193 0.302543 -137.024434
-6.940108 0.198883 -137.025800
-6.860071 0.081378 -137.029589
-6.880987 -0.022282 -137.030955
-6.901902 -0.125942 -137.032321
-6.922817 -0.229602 -137.033687
-6.943732 -0.333262 -137.035053
-6.964647 -0.436923 -137.036419
-6.783658 -0.568271 -137.042632
-6.703622 -0.685776 -137.046421
-6.724537 -0.789436 -137.047787
-6.644500 -0.906941 -137.051576
-6.261607 -1.065978 -137.062634
-6.181571 -1.183482 -137.066423
-6.202486 -1.287143 -137.067789
-6.223401 -1.390803 -137.069156
-6.244316 -1.494463 -137.070522
-6.265231 -1.598123 -137.071888
-6.286146 -1.701783 -137.073254
-6.206110 -1.819288 -137.077043
-6.227025 -1.922948 -137.078409
-6.146988 -2.040452 -137.082198
-6.167903 -2.144113 -137.083564
-6.087866 -2.261617 -137.087353
-6.007829 -2.379122 -137.091142
-7.135452 3.578738 -136.967453
-7.196084 3.440021 -136.966395
-7.162367 3.339791 -136.967761
-7.222999 3.201075 -136.966704
-7.189282 3.100845 -136.968070
-7.249915 2.962129 -136.967013
-7.310547 2.823413 -136.965956
-7.465528 2.646210 -136.962476
-7.526160 2.507494 -136.961419
-7.492443 2.407264 -136.962785
-7.553075 2.268547 -136.961728
-7.613707 2.129831 -136.960671
-7.579990 2.029601 -136.962037
-7.546273 1.929371 -136.963403
-7.512556 1.829141 -136.964769
-7.573188 1.690425 -136.963712
-7.539471 1.590195 -136.965078
-7.600103 1.451479 -136.964020
-7.566386 1.351249 -136.965386
-7.627019 1.212533 -136.964329
-7.593302 1.112303 -136.965695
-7.653934 0.973586 -136.964638
-7.620217 0.873356 -136.966004
-7.586500 0.773126 -136.967370
-7.647132 0.634410 -136.966313
-7.613415 0.534180 -136.967679
-7.579698 0.433950 -136.969045
-7.545981 0.333720 -136.970411
-7.512264 0.233490 -136.971777
-7.572896 0.094774 -136.970720
-7.539179 -0.005456 -136.972086
-7.505462 -0.105686 -136.973452
-7.471745 -0.205916 -136.974818
-7.438028 -0.306146 -136.976184
-7.404311 -0.406375 -136.977550
-7.464943 -0.545092 -136.976493
-7.431226 -0.645322 -136.977859
-7.397509 -0.745552 -136.979225
-7.363792 -0.845782 -136.980591
-7.330075 -0.946011 -136.981957
-7.296358 -1.046241 -136.983323
-7.262641 -1.146471 -136.984689
-7.228924 -1.246701 -136.986055
-7.195207 -1.346931 -136.987421
-7.161490 -1.447161 -136.988787
-7.127773 -1.547391 -136.990153
-7.094056 -1.647621 -136.991519
-6.965990 -1.709364 -136.995308
-6.932273 -1.809594 -136.996674
-6.898556 -1.909824 -136.998040
-6.864839 -2.010054 -136.999406
-6.831122 -2.110284 -137.000772
-6.703056 -2.172028 -137.004562
-6.669339 -2.272258 -137.005928
-6.635622 -2.372488 -137.007294
-6.601905 -2.472717 -137.008660
-6.568188 -2.572947 -137.010026
-6.534471 -2.673177 -137.011392
-6.500754 -2.773407 -137.012758
-6.467037 -2.873637 -137.014124
-6.433320 -2.973867 -137.015490
-6.399603 -3.074097 -137.016856
-6.365886 -3.174327 -137.018222
-6.237820 -3.236070 -137.022011
-6.204103 -3.336300 -137.023377
-6.170386 -3.436530 -137.024743
-6.136669 -3.536760 -137.026109
-6.102952 -3.636990 -137.027475
-6.069235 -3.737220 -137.028841
-6.035518 -3.837450 -137.030207
-6.001801 -3.937680 -137.031573
-5.968084 -4.037910 -137.032939
-5.840018 -4.099653 -137.036728
-5.806301 -4.199883 -137.038094
-5.772584 -4.300113 -137.039460
-5.738867 -4.400343 -137.040826
-5.705150 -4.500573 -137.042192
-5.671433 -4.600803 -137.043558
-5.637716 -4.701033 -137.044924
-5.603999 -4.801263 -137.046290
-5.475932 -4.863006 -137.050079
-5.442215 -4.963236 -137.051445
-5.408498 -5.063466 -137.052811
-5.374781 -5.163696 -137.054177
-5.246715 -5.225440 -137.057967
-5.212998 -5.325670 -137.059333
-5.179281 -5.425900 -137.060699
-5.145564 -5.526129 -137.062065
-5.017498 -5.587873 -137.065854
-4.983781 -5.688103 -137.067220
-4.950064 -5.788333 -137.068586
-4.916347 -5.888563 -137.069952
-4.882630 -5.988793 -137.071318
-4.848913 -6.089023 -137.072684
-4.815196 -6.189253 -137.074050
-4.781479 -6.289482 -137.075416
-4.653413 -6.351226 -137.079205
-4.619696 -6.451456 -137.080571
-4.585979 -6.551686 -137.081937
-4.457913 -6.613429 -137.085726
-4.424196 -6.713659 -137.087092
-4.390479 -6.813889 -137.088458
-4.356762 -6.914119 -137.089824
-4.323045 -7.014349 -137.091190
-4.289328 -7.114579 -137.092556
-4.255611 -7.214809 -137.093922
-4.127545 -7.276552 -137.097711
-4.093828 -7.376782 -137.099077
-3.965762 -7.438526 -137.102867
-3.932045 -7.538756 -137.104233
-3.898328 -7.638986 -137.105599
-3.770262 -7.700729 -137.109388
-3.736545 -7.800959 -137.110754
-3.702828 -7.901189 -137.112120
-3.574762 -7.962933 -137.115909
-3.446695 -8.024676 -137.119698
-3.318629 -8.086420 -137.123487
-3.190563 -8.148163 -137.127276
-3.156846 -8.248393 -137.128642
-3.028780 -8.310137 -137.132432
-2.995063 -8.410367 -137.133798
-7.521728 -1.269505 -136.971111
-7.504879 -1.419953 -136.970054
-7.488029 -1.570401 -136.968997
-7.408715 -1.640344 -136.970363
-7.329400 -1.710287 -136.971729
-7.312551 -1.860735 -136.970672
-7.233236 -1.930678 -136.972038
-7.153922 -2.000621 -136.973404
-7.137072 -2.151069 -136.972347
-7.120223 -2.301517 -136.971290
-7.040909 -2.371460 -136.972656
-7.024059 -2.521908 -136.971599
-6.944745 -2.591851 -136.972965
-6.865430 -2.661794 -136.974331
-6.848581 -2.812242 -136.973274
-6.831732 -2.962690 -136.972217
-6.752417 -3.032633 -136.973583
-6.673102 -3.102576 -136.974949
-6.593788 -3.172519 -136.976315
-6.576939 -3.322967 -136.975257
-6.497624 -3.392910 -136.976623
-6.480775 -3.543358 -136.975566
-6.401460 -3.613301 -136.976932
-6.384611 -3.763749 -136.975875
-6.367762 -3.914197 -136.974818
-6.288447 -3.984140 -136.976184
-6.271598 -4.134588 -136.975127
-6.192283 -4.204531 -136.976493
-6.112969 -4.274474 -136.977859
-6.096119 -4.424922 -136.976802
-6.016805 -4.494865 -136.978168
-5.999956 -4.645313 -136.977111
-5.920641 -4.715256 -136.978477
-5.903792 -4.865704 -136.977420
-5.824477 -4.935647 -136.978786
-5.745162 -5.005590 -136.980152
-5.728313 -5.156038 -136.979095
-5.648999 -5.225981 -136.980461
-5.569684 -5.295925 -136.981827
-5.490369 -5.365868 -136.983193
-5.411055 -5.435811 -136.984559
-5.331740 -5.505754 -136.985925
-5.314891 -5.656202 -136.984868
-5.360507 -5.887154 -136.981387
-5.406124 -6.118107 -136.977907
-5.326809 -6.188050 -136.979273
-5.309960 -6.338498 -136.978216
-5.230645 -6.408441 -136.979582
-5.151330 -6.478384 -136.980948
-5.072016 -6.548327 -136.982314
-5.055166 -6.698775 -136.981257
-4.975852 -6.768718 -136.982623
-4.896537 -6.838662 -136.983989
-4.879688 -6.989109 -136.982932
-4.800373 -7.059053 -136.984298
-4.721059 -7.128996 -136.985664
-4.704209 -7.279444 -136.984607
-4.624895 -7.349387 -136.985973
-4.608046 -7.499835 -136.984916
-4.528731 -7.569778 -136.986282
-4.449416 -7.639721 -136.987648
-4.432567 -7.790169 -136.986591
-4.353252 -7.860112 -136.987957
-4.273938 -7.930055 -136.989323
-4.194623 -7.999998 -136.990689
-4.177774 -8.150446 -136.989632
-4.098459 -8.220389 -136.990998
-4.019145 -8.290332 -136.992364
-3.939830 -8.360276 -136.993730
-3.860515 -8.430219 -136.995096
-3.781200 -8.500162 -136.996462
-3.701886 -8.570105 -136.997828
-3.622571 -8.640048 -136.999194
-3.543256 -8.709991 -137.000560
-3.463942 -8.779934 -137.001926
-3.384627 -8.849878 -137.003292
-3.305312 -8.919821 -137.004658
-3.225998 -8.989764 -137.006024
-3.146683 -9.059707 -137.007390
-3.067368 -9.129650 -137.008756
-2.988054 -9.199593 -137.010122
-2.908739 -9.269537 -137.011488
-2.829424 -9.339480 -137.012854
-2.750110 -9.409423 -137.014220
-2.670795 -9.479366 -137.015586
-2.591480 -9.549309 -137.016952
-2.512166 -9.619252 -137.018318
-2.432851 -9.689196 -137.019684
-2.353536 -9.759139 -137.021050
-2.274221 -9.829082 -137.022416
-2.194907 -9.899025 -137.023782
-2.053127 -9.888463 -137.027571
-1.973812 -9.958407 -137.028937
-1.956963 -10.108854 -137.027880
-1.877648 -10.178798 -137.029246
-1.798333 -10.248741 -137.030612
-1.656553 -10.238179 -137.034401
-1.577238 -10.308122 -137.035767
-1.497924 -10.378066 -137.037133
-1.418609 -10.448009 -137.038499
-1.339294 -10.517952 -137.039865
-1.259980 -10.587895 -137.041231
-1.180665 -10.657838 -137.042597
-1.101350 -10.727781 -137.043963
-0.959570 -10.717220 -137.047753
-0.880255 -10.787163 -137.049119
-0.800941 -10.857106 -137.050485
-0.721626 -10.927049 -137.051851
-0.642311 -10.996992 -137.053217
-0.500531 -10.986431 -137.057006
-0.421216 -11.056374 -137.058372
-0.341902 -11.126317 -137.059738
-0.262587 -11.196260 -137.061104
-0.183272 -11.266204 -137.062470
-0.041492 -11.255642 -137.066259
0.037823 -11.325585 -137.067625
0.429465 -10.993005 -137.081107
0.571245 -10.982443 -137.084896
0.650560 -11.052387 -137.086262
0.792340 -11.041825 -137.090051
0.934120 -11.031264 -137.093840
1.075901 -11.020702 -137.097629
1.217681 -11.010140 -137.101418
1.296995 -11.080084 -137.102784
1.438776 -11.069522 -137.106574
1.580556 -11.058961 -137.110363
1.784802 -10.967894 -137.116575
-3.316127 -8.697294 -136.933186
-3.240155 -8.920113 -136.929706
-3.164184 -9.142932 -136.926225
-3.088212 -9.365751 -136.922745
-2.998396 -9.487618 -136.921688
-2.894736 -9.508533 -136.923054
-2.804920 -9.630400 -136.921997
-2.715104 -9.752267 -136.920940
-2.625289 -9.874134 -136.919883
-2.521628 -9.895049 -136.921249
-2.417968 -9.915964 -136.922615
-2.314308 -9.936879 -136.923981
-2.224492 -10.058746 -136.922924
-2.120832 -10.079661 -136.924290
-2.031016 -10.201528 -136.923232
-1.941200 -10.323396 -136.922175
-1.837540 -10.344311 -136.923541
-1.747724 -10.466178 -136.922484
-1.644064 -10.487093 -136.923850
-1.554248 -10.608960 -136.922793
-1.464433 -10.730827 -136.921736
-1.360772 -10.751742 -136.923102
-1.270957 -10.873609 -136.922045
-1.167296 -10.894524 -136.923411
-1.063636 -10.915439 -136.924777
-0.973820 -11.037306 -136.923720
-0.870160 -11.058222 -136.925086
-0.766500 -11.079137 -136.926452
-0.662840 -11.100052 -136.927818
-0.573024 -11.221919 -136.926761
-0.469364 -11.242834 -136.928127
-0.365704 -11.263749 -136.929493
-0.262044 -11.284664 -136.930859
-0.158384 -11.305579 -136.932225
-0.054723 -11.326495 -136.933591
0.048937 -11.347410 -136.934957
0.152597 -11.368325 -136.936323
0.256257 -11.389240 -136.937689
0.359917 -11.410155 -136.939055
0.463577 -11.431070 -136.940421
0.567238 -11.451985 -136.941787
0.670898 -11.472900 -136.943153
0.774558 -11.493816 -136.944519
0.878218 -11.514731 -136.945885
0.981878 -11.535646 -136.947251
1.085538 -11.556561 -136.948617
1.189199 -11.577476 -136.949983
1.292859 -11.598391 -136.951349
1.396519 -11.619306 -136.952715
1.500179 -11.640221 -136.954081
1.603839 -11.661137 -136.955447
1.707499 -11.682052 -136.956813
1.811160 -11.702967 -136.958179
1.914820 -11.723882 -136.959545
2.018480 -11.744797 -136.960911
2.122140 -11.765712 -136.962277
2.225800 -11.786627 -136.963643
2.329460 -11.807543 -136.965009
2.433120 -11.828458 -136.966375
2.536781 -11.849373 -136.967741
2.640441 -11.870288 -136.969107
2.744101 -11.891203 -136.970473
2.861605 -11.811166 -136.974263
2.965266 -11.832081 -136.975629
3.068926 -11.852997 -136.976995
3.172586 -11.873912 -136.978361
3.290090 -11.793875 -136.982150
3.393751 -11.814790 -136.983516
3.511255 -11.734753 -136.987305
3.656448 -11.452813 -136.995940
3.773953 -11.372776 -136.999729
3.877613 -11.393691 -137.001095
3.995117 -11.313654 -137.004885
-0.721064 -10.787860 -136.879650
-0.582348 -10.848492 -136.878593
-0.405145 -11.003473 -136.875113
-0.266429 -11.064105 -136.874056
-0.127713 -11.124738 -136.872999
0.011004 -11.185370 -136.871942
0.188206 -11.340351 -136.868461
0.326923 -11.400983 -136.867404
0.465639 -11.461615 -136.866347
0.565869 -11.427898 -136.867713
0.704585 -11.488530 -136.866656
0.843301 -11.549162 -136.865599
1.020504 -11.704144 -136.862119
1.159220 -11.764776 -136.861062
1.259450 -11.731059 -136.862428
1.398167 -11.791691 -136.861371
1.613856 -12.041021 -136.855467
1.714085 -12.007304 -136.856833
1.814315 -11.973587 -136.858199
1.914545 -11.939870 -136.859565
2.053262 -12.000502 -136.858508
2.153492 -11.966785 -136.859874
2.253721 -11.933068 -136.861240
2.353951 -11.899351 -136.862606
2.492668 -11.959983 -136.861549
2.592898 -11.926266 -136.862915
2.693128 -11.892549 -136.864281
2.793357 -11.858832 -136.865647
2.893587 -11.825115 -136.867013
2.993817 -11.791398 -136.868379
3.094047 -11.757681 -136.869745
3.194277 -11.723964 -136.871111
3.294507 -11.690247 -136.872477
3.394737 -11.656530 -136.873843
3.533453 -11.717163 -136.872786
3.633683 -11.683446 -136.874152
3.733913 -11.649729 -136.875518
3.834143 -11.616012 -136.876884
3.934373 -11.582295 -136.878250
4.034603 -11.548578 -136.879616
4.134833 -11.514861 -136.880982
4.273549 -11.575493 -136.879925
4.373779 -11.541776 -136.881291
4.474009 -11.508059 -136.882657
4.574239 -11.474342 -136.884023
4.674469 -11.440625 -136.885389
4.774699 -11.406908 -136.886755
4.874929 -11.373191 -136.888121
4.975159 -11.339474 -136.889487
5.075389 -11.305757 -136.890853
5.175618 -11.272040 -136.892219
5.275848 -11.238323 -136.893585
5.376078 -11.204606 -136.894951
5.476308 -11.170889 -136.896317
5.576538 -11.137172 -136.897683
5.638282 -11.009106 -136.901473
5.738512 -10.975389 -136.902839
5.838742 -10.941672 -136.904205
5.938971 -10.907955 -136.905571
6.039201 -10.874238 -136.906937
6.139431 -10.840521 -136.908303
6.239661 -10.806804 -136.909669
6.301405 -10.678737 -136.913458
6.401635 -10.645020 -136.914824
6.501865 -10.611303 -136.916190
6.563608 -10.483237 -136.919979
6.663838 -10.449520 -136.921345
6.764068 -10.415803 -136.922711
6.864298 -10.382086 -136.924077
6.964528 -10.348369 -136.925443
7.026271 -10.220303 -136.929232
7.126501 -10.186586 -136.930598
7.226731 -10.152869 -136.931964
7.288475 -10.024803 -136.935753
7.388705 -9.991086 -136.937119
7.450448 -9.863020 -136.940908
7.512192 -9.734954 -136.944698
7.573935 -9.606888 -136.948487
7.674165 -9.573171 -136.949853
7.774395 -9.539454 -136.951219
7.836139 -9.411388 -136.955008
7.897882 -9.283322 -136.958797
7.959626 -9.155255 -136.962586
8.059856 -9.121538 -136.963952
8.121599 -8.993472 -136.967741
8.221829 -8.959755 -136.969107
8.283573 -8.831689 -136.972897
8.345316 -8.703623 -136.976686
8.407060 -8.575557 -136.980475
8.468803 -8.447491 -136.984264
